<svg width="700" height="700" viewBox="0 0 700 700" fill="none" xmlns="http://www.w3.org/2000/svg">
<path d="M0 535.36H700V535.71H0V535.36Z" fill="#EBEBEB"/>
<path d="M70.1403 557.886H116.508V558.236H70.1403V557.886Z" fill="#EBEBEB"/>
<path d="M236.292 561.694H248.458V562.044H236.292V561.694Z" fill="#EBEBEB"/>
<path d="M117.908 544.894H144.774V545.244H117.908V544.894Z" fill="#EBEBEB"/>
<path d="M566.09 547.246H626.556V547.596H566.09V547.246Z" fill="#EBEBEB"/>
<path d="M544.754 547.246H553.616V547.596H544.754V547.246Z" fill="#EBEBEB"/>
<path d="M384.79 553.154H515.942V553.504H384.79V553.154Z" fill="#EBEBEB"/>
<path d="M368.2 472.92H638.526C640.644 472.916 642.674 472.072 644.17 470.574C645.666 469.075 646.506 467.044 646.506 464.926V84.924C646.488 82.8184 645.639 80.8052 644.145 79.3215C642.651 77.8378 640.632 77.0036 638.526 77H368.2C366.08 77 364.047 77.8422 362.548 79.3414C361.049 80.8406 360.206 82.8739 360.206 84.994V464.926C360.206 467.046 361.049 469.079 362.548 470.579C364.047 472.078 366.08 472.92 368.2 472.92ZM638.526 77.28C640.551 77.2837 642.492 78.0907 643.922 79.5238C645.353 80.9569 646.156 82.8991 646.156 84.924V464.926C646.156 466.951 645.353 468.893 643.922 470.326C642.492 471.759 640.551 472.566 638.526 472.57H368.2C366.174 472.566 364.232 471.76 362.799 470.327C361.367 468.894 360.56 466.952 360.556 464.926V84.924C360.56 82.8978 361.367 80.9557 362.799 79.523C364.232 78.0902 366.174 77.2837 368.2 77.28H638.526Z" fill="#EBEBEB"/>
<path d="M65.3657 472.92H335.706C337.825 472.916 339.856 472.073 341.354 470.575C342.853 469.076 343.696 467.045 343.7 464.926V84.924C343.678 82.8172 342.826 80.8039 341.33 79.3206C339.833 77.8374 337.813 77.0036 335.706 77H65.3657C63.2625 77.0073 61.2469 77.8431 59.7558 79.3264C58.2646 80.8097 57.4181 82.8209 57.3997 84.924V464.926C57.3997 467.041 58.2381 469.07 59.7312 470.569C61.2243 472.067 63.2504 472.913 65.3657 472.92ZM335.706 77.28C337.732 77.2837 339.674 78.0902 341.107 79.523C342.539 80.9557 343.346 82.8978 343.35 84.924V464.926C343.346 466.952 342.539 468.894 341.107 470.327C339.674 471.76 337.732 472.566 335.706 472.57H65.3657C63.3395 472.566 61.3974 471.76 59.9647 470.327C58.532 468.894 57.7254 466.952 57.7217 464.926V84.924C57.7254 82.8978 58.532 80.9557 59.9647 79.523C61.3974 78.0902 63.3395 77.2837 65.3657 77.28H335.706Z" fill="#EBEBEB"/>
<path d="M522.746 155.722H606.256V280.21H522.746V155.722Z" fill="#E6E6E6"/>
<path d="M522.747 280.224H521.431V155.736H522.747V280.224Z" fill="#E0E0E0"/>
<path d="M527.464 275.492V160.454H601.524V275.492H527.464Z" fill="#FAFAFA"/>
<path d="M550.491 208.53C542.76 200.799 542.76 188.265 550.491 180.534C558.222 172.804 570.756 172.804 578.487 180.534C586.218 188.265 586.218 200.799 578.487 208.53C570.756 216.261 558.222 216.261 550.491 208.53Z" fill="#F0F0F0"/>
<path d="M540.078 225.778H588.924V230.776H540.078V225.778Z" fill="#EBEBEB"/>
<path d="M540.078 239.078H588.924V244.076H540.078V239.078Z" fill="#EBEBEB"/>
<path d="M540.078 252.364H588.924V257.362H540.078V252.364Z" fill="#EBEBEB"/>
<path d="M417.802 173.656H501.312V298.144H417.802V173.656Z" fill="#E6E6E6"/>
<path d="M417.802 298.13H416.486V173.642H417.802V298.13Z" fill="#E0E0E0"/>
<path d="M422.52 293.426V178.388H496.58V293.426H422.52Z" fill="#FAFAFA"/>
<path d="M440.305 216.985C437.793 206.344 444.383 195.683 455.024 193.171C465.665 190.66 476.326 197.25 478.838 207.89C481.349 218.531 474.759 229.193 464.119 231.704C453.478 234.216 442.816 227.626 440.305 216.985Z" fill="#F0F0F0"/>
<path d="M435.134 243.712H483.98V248.71H435.134V243.712Z" fill="#EBEBEB"/>
<path d="M435.134 256.998H483.98V261.996H435.134V256.998Z" fill="#EBEBEB"/>
<path d="M435.134 270.284H483.98V275.282H435.134V270.284Z" fill="#EBEBEB"/>
<path d="M123.298 350H488.264V353.892H123.298V350Z" fill="#EBEBEB"/>
<path d="M123.312 353.892H93.7583V350H123.312V353.892Z" fill="#E0E0E0"/>
<path d="M123.312 353.892H483.266V535.36H123.312V353.892Z" fill="#F5F5F5"/>
<path d="M402.528 353.892H404.544V535.36H402.528V353.892Z" fill="#E6E6E6"/>
<path d="M307.328 390.796H309.344V535.36H307.328V390.796Z" fill="#E6E6E6"/>
<path d="M403.536 499.464V497.448H483.252V499.464H403.536Z" fill="#E6E6E6"/>
<path d="M403.536 463.568V461.552H483.252V463.568H403.536Z" fill="#E6E6E6"/>
<path d="M403.536 427.672V425.656H483.252V427.672H403.536Z" fill="#E6E6E6"/>
<path d="M123.298 391.804V389.788H483.252V391.804H123.298Z" fill="#E6E6E6"/>
<path d="M123.298 535.36H97.4399L97.4399 353.892H123.298L123.298 535.36Z" fill="#EBEBEB"/>
<path d="M117.222 107.394H244.622V288.806H117.222V107.394Z" fill="#FAFAFA"/>
<path d="M115.822 109.578H246.022C246.309 109.578 246.592 109.521 246.856 109.411C247.12 109.302 247.36 109.14 247.562 108.937C247.763 108.734 247.923 108.494 248.031 108.229C248.139 107.964 248.194 107.68 248.192 107.394C248.194 107.109 248.139 106.826 248.031 106.561C247.923 106.297 247.763 106.057 247.561 105.855C247.359 105.654 247.119 105.494 246.855 105.385C246.591 105.277 246.308 105.222 246.022 105.224H115.822C115.536 105.222 115.252 105.277 114.988 105.385C114.723 105.493 114.482 105.653 114.279 105.855C114.076 106.056 113.915 106.296 113.805 106.56C113.695 106.825 113.638 107.108 113.638 107.394C113.638 107.973 113.868 108.529 114.278 108.938C114.688 109.348 115.243 109.578 115.822 109.578Z" fill="#EBEBEB"/>
<path d="M115.822 290.99H246.022C246.309 290.99 246.592 290.933 246.856 290.823C247.12 290.714 247.36 290.552 247.562 290.349C247.763 290.146 247.923 289.906 248.031 289.641C248.139 289.376 248.194 289.092 248.192 288.806C248.194 288.52 248.139 288.237 248.031 287.973C247.923 287.709 247.763 287.469 247.561 287.267C247.359 287.066 247.119 286.906 246.855 286.797C246.591 286.689 246.308 286.634 246.022 286.636H115.822C115.536 286.634 115.252 286.689 114.988 286.797C114.723 286.905 114.482 287.065 114.279 287.267C114.076 287.468 113.915 287.708 113.805 287.972C113.695 288.237 113.638 288.52 113.638 288.806C113.638 289.385 113.868 289.941 114.278 290.35C114.688 290.76 115.243 290.99 115.822 290.99Z" fill="#EBEBEB"/>
<path d="M176.148 152.194H185.696C193.884 152.194 200.522 158.832 200.522 167.02V196.868C200.522 205.056 193.884 211.694 185.696 211.694H176.148C167.96 211.694 161.322 205.056 161.322 196.868V167.02C161.322 158.832 167.96 152.194 176.148 152.194Z" fill="#F0F0F0"/>
<path d="M192.122 272.132C194.35 272.132 196.486 271.247 198.062 269.672C199.637 268.096 200.522 265.96 200.522 263.732V200.27C200.522 198.042 199.637 195.906 198.062 194.33C196.486 192.755 194.35 191.87 192.122 191.87C189.894 191.87 187.758 192.755 186.182 194.33C184.607 195.906 183.722 198.042 183.722 200.27V263.732C183.722 265.96 184.607 268.096 186.182 269.672C187.758 271.247 189.894 272.132 192.122 272.132Z" fill="#F0F0F0"/>
<path d="M208.502 159.404H208.516C211.284 159.404 213.528 161.648 213.528 164.416V202.328C213.528 205.096 211.284 207.34 208.516 207.34H208.502C205.734 207.34 203.49 205.096 203.49 202.328V164.416C203.49 161.648 205.734 159.404 208.502 159.404Z" fill="#F0F0F0"/>
<path d="M153.328 207.354C154.658 207.347 155.93 206.814 156.869 205.873C157.808 204.932 158.337 203.657 158.34 202.328V164.43C158.337 163.101 157.808 161.826 156.869 160.885C155.93 159.944 154.658 159.411 153.328 159.404C151.998 159.411 150.723 159.943 149.783 160.884C148.842 161.825 148.31 163.099 148.302 164.43V202.328C148.31 203.659 148.842 204.933 149.783 205.874C150.723 206.815 151.998 207.347 153.328 207.354Z" fill="#F0F0F0"/>
<path d="M169.722 272.132C171.95 272.132 174.086 271.247 175.662 269.672C177.237 268.096 178.122 265.96 178.122 263.732V200.27C178.122 198.042 177.237 195.906 175.662 194.33C174.086 192.755 171.95 191.87 169.722 191.87C167.494 191.87 165.358 192.755 163.782 194.33C162.207 195.906 161.322 198.042 161.322 200.27V263.732C161.322 265.96 162.207 268.096 163.782 269.672C165.358 271.247 167.494 272.132 169.722 272.132Z" fill="#F0F0F0"/>
<path d="M172.179 142.978C167.351 138.15 167.351 130.323 172.179 125.495C177.007 120.668 184.834 120.668 189.662 125.496C194.489 130.323 194.489 138.15 189.662 142.978C184.834 147.806 177.007 147.806 172.179 142.978Z" fill="#F0F0F0"/>
<path d="M166.376 314.538H225.022V350H166.376V314.538Z" fill="#F5F5F5"/>
<path d="M166.376 350H151.928V314.538H166.376V350Z" fill="#EBEBEB"/>
<path d="M184.492 328.874H192.318V321.062H199.08V328.874H206.892V335.65H199.08V343.462H192.318V335.65H184.492V328.874Z" fill="white"/>
<path d="M276.373 350H281.973V287.266C281.973 284.488 282.521 281.737 283.584 279.171C284.647 276.604 286.205 274.272 288.169 272.308C290.134 270.343 292.466 268.785 295.032 267.722C297.599 266.659 300.349 266.112 303.127 266.112C305.905 266.112 308.656 266.659 311.223 267.722C313.789 268.785 316.121 270.343 318.085 272.308C320.05 274.272 321.608 276.604 322.671 279.171C323.734 281.737 324.281 284.488 324.281 287.266H329.881C329.881 280.17 327.063 273.365 322.045 268.348C317.028 263.331 310.223 260.512 303.127 260.512C296.032 260.512 289.227 263.331 284.209 268.348C279.192 273.365 276.373 280.17 276.373 287.266V350Z" fill="#EBEBEB"/>
<path d="M265.944 340.816H271.544V350H265.944V340.816Z" fill="#EBEBEB"/>
<path d="M444.038 346.738H449.638V350H444.038V346.738Z" fill="#EBEBEB"/>
<path d="M453.964 346.738H459.564V350H453.964V346.738Z" fill="#EBEBEB"/>
<path d="M507.066 432.978H579.964V535.36H507.066V432.978Z" fill="#F5F5F5"/>
<path d="M509.908 430.416H577.136V432.992H509.908V430.416Z" fill="#E6E6E6"/>
<path d="M556.878 407.316H530.166C524.039 407.316 518.164 409.75 513.832 414.082C509.5 418.414 507.066 424.289 507.066 430.416H579.964C579.966 427.383 579.37 424.38 578.211 421.577C577.051 418.774 575.351 416.228 573.207 414.083C571.063 411.937 568.518 410.236 565.716 409.075C562.914 407.914 559.911 407.316 556.878 407.316Z" fill="#F5F5F5"/>
<path d="M570.276 524.132H577.99C580.96 524.132 583.809 525.312 585.91 527.412C588.01 529.513 589.19 532.362 589.19 535.332H559.006C559.006 533.855 559.298 532.393 559.865 531.03C560.432 529.666 561.264 528.428 562.311 527.387C563.358 526.347 564.601 525.523 565.968 524.964C567.335 524.406 568.799 524.123 570.276 524.132Z" fill="#E6E6E6"/>
<path d="M350 598.584C200.084 598.584 78.5537 591.489 78.5537 582.736C78.5537 573.983 200.084 566.888 350 566.888C499.915 566.888 621.446 573.983 621.446 582.736C621.446 591.489 499.915 598.584 350 598.584Z" fill="#F5F5F5"/>
<path d="M431.606 204.582L437.962 196.798L446.838 202.398C446.838 202.398 442.778 206.738 437.85 212.8L431.606 204.582Z" fill="#FFBE9D"/>
<path d="M352.351 205.212C352.715 205.996 352.967 206.472 353.275 207.074L354.157 208.754C354.759 209.86 355.347 210.952 355.977 212.03C357.209 214.177 358.502 216.286 359.855 218.358C362.576 222.601 365.579 226.656 368.843 230.496C372.303 234.594 376.199 238.303 380.463 241.556C382.823 243.3 385.334 244.827 387.967 246.12L390.081 247.058L392.307 247.884C393.049 248.15 393.847 248.346 394.631 248.57L395.219 248.738L396.059 248.92C396.675 249.046 397.277 249.13 397.865 249.2C400.008 249.41 402.169 249.297 404.277 248.864C406.005 248.525 407.698 248.023 409.331 247.366C412.056 246.25 414.664 244.867 417.115 243.236C421.358 240.375 425.353 237.162 429.057 233.632C432.655 230.286 435.987 226.828 439.179 223.3C440.775 221.522 442.357 219.758 443.897 217.938C445.437 216.118 446.907 214.368 448.503 212.338L433.019 200.326C431.815 201.852 430.373 203.602 428.987 205.212C427.601 206.822 426.187 208.474 424.703 210.056C421.763 213.206 418.753 216.244 415.659 219.03C412.744 221.706 409.601 224.124 406.265 226.254C404.939 227.103 403.532 227.821 402.065 228.396C400.861 228.858 399.965 228.844 400.231 228.774H400.371L400.133 228.704C399.825 228.578 399.531 228.508 399.209 228.382L398.271 227.976L397.291 227.486C395.892 226.71 394.562 225.816 393.315 224.812C390.454 222.431 387.875 219.73 385.629 216.762C383.173 213.565 380.942 210.202 378.951 206.696C377.925 204.904 376.959 203.084 376.053 201.236C375.591 200.326 375.143 199.402 374.653 198.436L374.037 197.036C373.855 196.616 373.617 196.07 373.519 195.818L352.351 205.212Z" fill="#AB3D51"/>
<path opacity="0.8" d="M352.351 205.212C352.715 205.996 352.967 206.472 353.275 207.074L354.157 208.754C354.759 209.86 355.347 210.952 355.977 212.03C357.209 214.177 358.502 216.286 359.855 218.358C362.576 222.601 365.579 226.656 368.843 230.496C372.303 234.594 376.199 238.303 380.463 241.556C382.823 243.3 385.334 244.827 387.967 246.12L390.081 247.058L392.307 247.884C393.049 248.15 393.847 248.346 394.631 248.57L395.219 248.738L396.059 248.92C396.675 249.046 397.277 249.13 397.865 249.2C400.008 249.41 402.169 249.297 404.277 248.864C406.005 248.525 407.698 248.023 409.331 247.366C412.056 246.25 414.664 244.867 417.115 243.236C421.358 240.375 425.353 237.162 429.057 233.632C432.655 230.286 435.987 226.828 439.179 223.3C440.775 221.522 442.357 219.758 443.897 217.938C445.437 216.118 446.907 214.368 448.503 212.338L433.019 200.326C431.815 201.852 430.373 203.602 428.987 205.212C427.601 206.822 426.187 208.474 424.703 210.056C421.763 213.206 418.753 216.244 415.659 219.03C412.744 221.706 409.601 224.124 406.265 226.254C404.939 227.103 403.532 227.821 402.065 228.396C400.861 228.858 399.965 228.844 400.231 228.774H400.371L400.133 228.704C399.825 228.578 399.531 228.508 399.209 228.382L398.271 227.976L397.291 227.486C395.892 226.71 394.562 225.816 393.315 224.812C390.454 222.431 387.875 219.73 385.629 216.762C383.173 213.565 380.942 210.202 378.951 206.696C377.925 204.904 376.959 203.084 376.053 201.236C375.591 200.326 375.143 199.402 374.653 198.436L374.037 197.036C373.855 196.616 373.617 196.07 373.519 195.818L352.351 205.212Z" fill="white"/>
<path d="M355.46 428.96H310.268L327.404 343.308H349.538L355.46 428.96Z" fill="#AB3D51"/>
<path opacity="0.6" d="M355.46 428.96H310.268L327.404 343.308H349.538L355.46 428.96Z" fill="white"/>
<path d="M345.772 569.94H357.294L357.784 543.27H346.262L345.772 569.94Z" fill="#FFBE9D"/>
<path d="M281.974 569.94H293.496L298.634 543.27H287.112L281.974 569.94Z" fill="#FFBE9D"/>
<path d="M294.281 568.61H281.401C281.174 568.609 280.954 568.686 280.777 568.829C280.601 568.972 280.48 569.172 280.435 569.394L278.419 579.628C278.373 579.88 278.384 580.14 278.451 580.387C278.517 580.635 278.638 580.865 278.804 581.06C278.97 581.255 279.177 581.412 279.411 581.518C279.644 581.623 279.898 581.676 280.155 581.672C284.663 581.602 286.847 581.336 292.545 581.336C296.045 581.336 303.269 581.7 308.099 581.7C312.929 581.7 313.447 576.926 311.459 576.492C302.541 574.546 299.125 571.872 296.227 569.31C295.684 568.85 294.993 568.601 294.281 568.61Z" fill="#263238"/>
<path d="M357.182 568.61H344.582C344.357 568.609 344.139 568.687 343.965 568.83C343.791 568.974 343.673 569.173 343.63 569.394L341.6 579.6C341.553 579.851 341.562 580.109 341.626 580.357C341.69 580.604 341.807 580.834 341.971 581.031C342.134 581.227 342.338 581.385 342.569 581.494C342.801 581.602 343.053 581.658 343.308 581.658C347.844 581.574 354.396 581.308 360.108 581.308C366.772 581.308 367.318 581.672 375.13 581.672C379.862 581.672 381.052 576.898 379.064 576.464C370.006 574.49 367.864 574.28 359.968 569.464C359.135 568.931 358.172 568.636 357.182 568.61Z" fill="#263238"/>
<path d="M442.261 194.138L449.709 194.026L451.109 203.63C446.367 204.497 441.476 204.011 436.997 202.23L437.123 199.108C437.18 197.779 437.745 196.523 438.701 195.599C439.657 194.674 440.931 194.151 442.261 194.138Z" fill="#FFBE9D"/>
<path d="M461.356 194.474L459.914 200.536L451.136 203.63L449.708 194.026L461.356 194.474Z" fill="#FFBE9D"/>
<path opacity="0.2" d="M357.784 543.284L357.532 557.032H346.01L346.262 543.284H357.784Z" fill="black"/>
<path opacity="0.2" d="M287.112 543.284H298.634L295.974 557.032H284.452L287.112 543.284Z" fill="black"/>
<path d="M371.378 198.058C374.57 210.266 380.296 241.066 374.038 290.052H312.438C311.836 281.47 315.756 242.648 308.826 202.23C308.534 200.584 308.583 198.897 308.968 197.271C309.354 195.645 310.068 194.115 311.068 192.775C312.067 191.436 313.331 190.316 314.78 189.483C316.229 188.651 317.833 188.124 319.494 187.936C321.888 187.67 324.422 187.446 326.928 187.32C335.538 187.081 344.154 187.361 352.73 188.16C356.388 188.509 360.009 189.174 363.552 190.148C365.438 190.66 367.155 191.661 368.529 193.05C369.903 194.439 370.886 196.167 371.378 198.058Z" fill="white"/>
<path d="M329.756 162.834C331.618 171.234 332.696 181.692 326.956 187.32C326.956 187.32 330.554 195.86 346.206 195.86C360.514 195.86 353.206 187.32 353.206 187.32C343.756 185.08 343.952 173.46 345.436 166.908L329.756 162.834Z" fill="#FFBE9D"/>
<path d="M346.92 194.698L350.308 198.436C350.428 198.565 350.511 198.725 350.548 198.897C350.585 199.07 350.575 199.249 350.518 199.416L349.44 202.72C349.38 202.905 349.265 203.068 349.11 203.185C348.955 203.303 348.767 203.37 348.572 203.378L344.918 203.56C344.745 203.567 344.573 203.53 344.419 203.452C344.264 203.373 344.132 203.256 344.036 203.112L341.852 199.906C341.721 199.733 341.649 199.521 341.649 199.304C341.649 199.087 341.721 198.875 341.852 198.702L345.38 194.684C345.473 194.568 345.591 194.475 345.725 194.412C345.859 194.348 346.005 194.316 346.154 194.317C346.302 194.319 346.448 194.353 346.581 194.419C346.714 194.485 346.83 194.581 346.92 194.698Z" fill="#AB3D51"/>
<path d="M347.774 203.35C347.774 203.35 353.374 244.566 353.5 251.748C353.427 258.531 352.361 265.266 350.336 271.74C350.336 271.74 346.486 264.46 345.828 251.44C345.17 238.42 345.968 210.658 345.674 203.35H347.774Z" fill="#AB3D51"/>
<path opacity="0.2" d="M345.352 166.922C344.47 170.758 344.05 176.33 345.758 180.754C344.638 181.244 340.018 179.466 338.1 178.248C333.83 175.532 332.178 172.872 330.61 167.202C330.358 165.704 330.078 164.248 329.756 162.834L345.352 166.922Z" fill="black"/>
<path d="M359.968 158.732C359.453 160.042 358.68 161.235 357.697 162.243C356.714 163.25 355.539 164.051 354.242 164.598C350.756 165.998 348.502 162.946 349.062 159.376C349.552 156.17 351.974 151.55 355.67 151.648C356.485 151.694 357.276 151.938 357.975 152.358C358.674 152.778 359.26 153.362 359.684 154.059C360.107 154.756 360.354 155.546 360.403 156.36C360.453 157.174 360.304 157.988 359.968 158.732Z" fill="#FFBE9D"/>
<path opacity="0.2" d="M359.968 158.732C359.453 160.042 358.68 161.235 357.697 162.243C356.714 163.25 355.539 164.051 354.242 164.598C350.756 165.998 348.502 162.946 349.062 159.376C349.552 156.17 351.974 151.55 355.67 151.648C356.485 151.694 357.276 151.938 357.975 152.358C358.674 152.778 359.26 153.362 359.684 154.059C360.107 154.756 360.354 155.546 360.403 156.36C360.453 157.174 360.304 157.988 359.968 158.732Z" fill="black"/>
<path d="M345.8 146.118C346.458 151.046 349.538 154.714 352.674 154.294C355.81 153.874 357.812 149.534 357.14 144.592C356.468 139.65 353.402 135.982 350.266 136.402C347.13 136.822 345.1 141.176 345.8 146.118Z" fill="#263238"/>
<path d="M324.24 151.914C327.04 163.114 328.132 169.778 334.866 174.622C344.974 181.916 357.784 174.412 358.316 162.68C358.806 152.124 354.116 135.604 342.356 132.944C339.777 132.347 337.088 132.433 334.552 133.191C332.017 133.949 329.722 135.354 327.894 137.268C326.066 139.182 324.768 141.539 324.127 144.107C323.487 146.675 323.525 149.366 324.24 151.914Z" fill="#FFBE9D"/>
<path d="M342.832 129.038C349.538 130.438 356.958 135.912 350.56 139.902C344.162 143.892 329.756 144.508 329.756 144.508C329.756 144.508 334.516 155.708 328.006 161.49C325.836 160.412 330.47 170.184 330.47 170.184C328.086 169.363 326.091 167.687 324.87 165.48C320.978 164.486 309.47 145.88 317.142 140.616C318.598 129.766 333.83 127.092 342.832 129.038Z" fill="#263238"/>
<path d="M326.648 158.662H326.802L336.882 154.042C336.932 154.028 336.978 154.003 337.018 153.969C337.057 153.935 337.089 153.893 337.111 153.846C337.133 153.799 337.145 153.747 337.145 153.695C337.146 153.643 337.135 153.591 337.114 153.544C337.093 153.496 337.061 153.453 337.022 153.419C336.983 153.384 336.937 153.359 336.887 153.344C336.837 153.329 336.785 153.324 336.733 153.331C336.681 153.338 336.632 153.356 336.588 153.384L326.494 158.004C326.407 158.044 326.339 158.116 326.305 158.205C326.271 158.294 326.274 158.393 326.312 158.48C326.345 158.539 326.394 158.587 326.454 158.619C326.513 158.651 326.58 158.666 326.648 158.662Z" fill="white"/>
<path d="M321.539 165.2C323.475 167.344 326.173 168.646 329.057 168.826C332.851 169.022 333.831 165.396 332.011 162.232C330.373 159.432 326.411 155.848 322.995 157.15C319.579 158.452 319.201 162.554 321.539 165.2Z" fill="#FFBE9D"/>
<path d="M374.038 290.052C374.038 290.052 377.734 376.152 377.342 411.278C376.936 447.804 361.746 554.358 361.746 554.358H342.244C342.244 554.358 343.994 449.932 342.244 414.064C340.34 374.948 333.536 290.052 333.536 290.052H374.038Z" fill="#AB3D51"/>
<path d="M341.335 545.748C341.237 545.748 340.971 554.764 340.971 554.764H363.455L364.743 544.964L341.335 545.748Z" fill="#263238"/>
<path opacity="0.2" d="M347.648 312.844C348.32 355.572 346.388 381.528 341.614 402.444C340.438 382.06 338.52 355.11 336.826 332.724L347.648 312.844Z" fill="black"/>
<path d="M352.184 290.052C352.184 290.052 341.264 378.056 334.908 411.026C327.908 447.132 301.308 554.358 301.308 554.358H280.21C280.21 554.358 296.856 450.058 300.468 414.358C304.374 375.564 312.466 290.108 312.466 290.108L352.184 290.052Z" fill="#AB3D51"/>
<path d="M280.714 546.224C280.616 546.224 279.146 554.764 279.146 554.764H302.33L304.878 545.356L280.714 546.224Z" fill="#263238"/>
<path d="M341.754 152.208C341.936 153.132 342.552 153.79 343.154 153.692C343.756 153.594 344.092 152.768 343.924 151.844C343.756 150.92 343.126 150.262 342.524 150.36C341.922 150.458 341.6 151.284 341.754 152.208Z" fill="#263238"/>
<path d="M353.052 149.548C353.22 150.472 353.85 151.13 354.452 151.032C355.054 150.934 355.39 150.108 355.222 149.184C355.054 148.26 354.424 147.602 353.822 147.7C353.22 147.798 352.884 148.624 353.052 149.548Z" fill="#263238"/>
<path d="M348.349 151.858C350.265 154.277 352.497 156.429 354.985 158.256C354.514 158.869 353.913 159.37 353.226 159.724C352.539 160.077 351.781 160.274 351.009 160.3L348.349 151.858Z" fill="#A02724"/>
<path d="M348.32 163.17C348.389 163.153 348.45 163.111 348.489 163.051C348.528 162.991 348.542 162.918 348.53 162.848C348.516 162.776 348.475 162.712 348.414 162.67C348.354 162.628 348.28 162.612 348.208 162.624C347.071 162.832 345.901 162.774 344.791 162.453C343.681 162.133 342.66 161.558 341.81 160.776C341.761 160.724 341.695 160.693 341.624 160.691C341.553 160.688 341.484 160.714 341.432 160.762C341.38 160.81 341.349 160.877 341.346 160.948C341.344 161.019 341.369 161.088 341.418 161.14C342.325 162.002 343.423 162.635 344.624 162.988C345.824 163.341 347.091 163.404 348.32 163.17Z" fill="#263238"/>
<path d="M336.28 149.212C336.363 149.192 336.439 149.153 336.502 149.096C336.566 149.04 336.615 148.969 336.644 148.89C336.866 148.258 337.236 147.687 337.723 147.227C338.21 146.767 338.8 146.43 339.444 146.244C339.585 146.214 339.708 146.129 339.787 146.008C339.865 145.888 339.893 145.741 339.864 145.6C339.834 145.458 339.75 145.334 339.63 145.253C339.51 145.172 339.363 145.141 339.22 145.166C338.385 145.371 337.614 145.781 336.977 146.357C336.339 146.934 335.854 147.66 335.566 148.47C335.52 148.608 335.527 148.758 335.587 148.89C335.646 149.023 335.754 149.128 335.888 149.184C336.011 149.24 336.151 149.25 336.28 149.212Z" fill="#263238"/>
<path d="M355.951 145.138C356.03 145.121 356.102 145.082 356.161 145.026C356.259 144.922 356.314 144.784 356.314 144.641C356.314 144.498 356.259 144.36 356.161 144.256C355.619 143.574 354.925 143.028 354.136 142.661C353.346 142.294 352.481 142.116 351.611 142.142C351.541 142.151 351.473 142.173 351.412 142.208C351.35 142.243 351.296 142.29 351.253 142.346C351.21 142.402 351.179 142.466 351.161 142.535C351.143 142.603 351.139 142.674 351.149 142.744C351.156 142.816 351.177 142.886 351.211 142.949C351.245 143.013 351.291 143.069 351.347 143.115C351.403 143.16 351.468 143.194 351.537 143.215C351.606 143.235 351.679 143.242 351.751 143.234C352.439 143.219 353.122 143.367 353.742 143.667C354.363 143.966 354.904 144.408 355.321 144.956C355.394 145.047 355.494 145.113 355.607 145.146C355.72 145.178 355.84 145.176 355.951 145.138Z" fill="#263238"/>
<path d="M341.964 158.76C342.241 158.757 342.517 158.734 342.79 158.69C343.446 158.565 344.071 158.312 344.629 157.944C345.186 157.576 345.665 157.102 346.038 156.548C346.515 155.836 346.848 155.036 347.016 154.196C347.184 153.355 347.185 152.489 347.018 151.648C346.828 150.116 346.047 148.72 344.841 147.757C343.635 146.794 342.1 146.342 340.564 146.496C339.241 146.752 338.073 147.523 337.316 148.638C336.358 150.079 336.006 151.839 336.336 153.538C336.527 154.924 337.192 156.202 338.218 157.154C339.244 158.105 340.567 158.673 341.964 158.76ZM341.404 147.154C342.628 147.241 343.785 147.748 344.678 148.59C345.571 149.432 346.146 150.557 346.304 151.774C346.604 153.286 346.298 154.855 345.45 156.142C345.128 156.617 344.714 157.024 344.233 157.339C343.753 157.654 343.215 157.87 342.65 157.976C341.305 158.098 339.966 157.689 338.92 156.836C337.873 155.983 337.202 154.754 337.05 153.412C336.754 151.898 337.066 150.329 337.918 149.044C338.24 148.568 338.653 148.16 339.134 147.845C339.614 147.53 340.153 147.314 340.718 147.21C340.945 147.172 341.174 147.153 341.404 147.154Z" fill="white"/>
<path d="M346.669 152.068C346.726 152.068 346.783 152.053 346.834 152.026C346.885 152 346.929 151.961 346.963 151.914C347.19 151.455 347.577 151.095 348.052 150.901C348.526 150.708 349.055 150.695 349.539 150.864C349.628 150.898 349.727 150.896 349.815 150.86C349.904 150.823 349.975 150.755 350.015 150.668C350.053 150.581 350.055 150.482 350.021 150.393C349.987 150.304 349.919 150.232 349.833 150.192C349.192 149.965 348.491 149.972 347.855 150.213C347.219 150.454 346.69 150.913 346.361 151.508C346.335 151.548 346.317 151.594 346.309 151.641C346.3 151.688 346.301 151.736 346.312 151.783C346.322 151.83 346.342 151.874 346.369 151.914C346.397 151.953 346.432 151.986 346.473 152.012C346.53 152.051 346.599 152.071 346.669 152.068Z" fill="white"/>
<path d="M354.942 155.806C355.223 155.804 355.504 155.78 355.782 155.736C356.438 155.611 357.063 155.358 357.62 154.99C358.178 154.622 358.657 154.148 359.03 153.594C359.988 152.153 360.34 150.393 360.01 148.694C359.82 147.163 359.038 145.768 357.832 144.808C356.625 143.847 355.09 143.398 353.556 143.556C352.9 143.675 352.274 143.925 351.716 144.291C351.158 144.656 350.679 145.13 350.308 145.684C349.349 147.13 348.997 148.895 349.328 150.598C349.519 151.981 350.182 153.254 351.206 154.204C352.229 155.153 353.549 155.719 354.942 155.806ZM354.396 144.2C355.62 144.287 356.777 144.794 357.67 145.636C358.563 146.478 359.137 147.603 359.296 148.82C359.446 149.569 359.446 150.341 359.297 151.09C359.148 151.84 358.853 152.553 358.428 153.188C358.106 153.664 357.693 154.072 357.212 154.387C356.732 154.702 356.193 154.918 355.628 155.022C354.283 155.144 352.944 154.735 351.897 153.882C350.851 153.029 350.18 151.8 350.028 150.458C349.727 148.944 350.039 147.373 350.896 146.09C351.55 145.132 352.557 144.473 353.696 144.256C353.927 144.217 354.161 144.199 354.396 144.2Z" fill="white"/>
<path d="M298.201 570.612C298.977 570.674 299.752 570.471 300.399 570.038C300.592 569.864 300.742 569.646 300.834 569.402C300.927 569.159 300.96 568.897 300.931 568.638C300.924 568.476 300.875 568.319 300.789 568.181C300.703 568.044 300.583 567.931 300.441 567.854C299.167 567.21 295.499 569.492 295.079 569.744C295.032 569.772 294.996 569.815 294.976 569.865C294.956 569.916 294.953 569.972 294.967 570.024C294.974 570.078 294.999 570.129 295.036 570.169C295.074 570.209 295.123 570.237 295.177 570.248C296.168 570.483 297.182 570.605 298.201 570.612ZM299.853 568.232C299.973 568.231 300.092 568.255 300.203 568.302C300.26 568.333 300.308 568.38 300.34 568.437C300.372 568.494 300.387 568.559 300.385 568.624C300.414 568.806 300.397 568.992 300.336 569.165C300.275 569.339 300.171 569.495 300.035 569.618C299.419 570.15 297.921 570.22 295.947 569.828C297.115 569.052 298.422 568.51 299.797 568.232H299.853Z" fill="#AB3D51"/>
<path d="M295.176 570.22C295.217 570.234 295.261 570.234 295.302 570.22C296.478 569.576 298.732 567.056 298.452 565.768C298.406 565.568 298.293 565.389 298.134 565.26C297.974 565.13 297.776 565.058 297.57 565.054C297.363 565.027 297.152 565.045 296.952 565.105C296.752 565.165 296.566 565.267 296.408 565.404C295.106 566.496 294.91 569.814 294.896 569.968C294.904 570.041 294.936 570.109 294.987 570.162C295.037 570.215 295.104 570.25 295.176 570.262V570.22ZM297.388 565.6H297.514C297.864 565.6 297.906 565.796 297.92 565.866C298.074 566.622 296.66 568.54 295.498 569.436C295.548 568.131 295.992 566.871 296.772 565.824C296.944 565.678 297.163 565.598 297.388 565.6Z" fill="#AB3D51"/>
<path d="M362.012 570.626C363 570.719 363.99 570.467 364.812 569.912C364.997 569.748 365.137 569.54 365.221 569.308C365.304 569.075 365.327 568.826 365.288 568.582C365.279 568.433 365.232 568.29 365.151 568.165C365.07 568.039 364.958 567.937 364.826 567.868C363.426 567.07 358.834 569.422 358.316 569.702C358.264 569.727 358.222 569.768 358.195 569.819C358.169 569.87 358.16 569.929 358.169 569.986C358.179 570.042 358.206 570.095 358.248 570.134C358.29 570.174 358.343 570.199 358.4 570.206C359.589 570.458 360.798 570.598 362.012 570.626ZM364 568.232C364.178 568.229 364.354 568.263 364.518 568.33C364.57 568.36 364.613 568.403 364.642 568.454C364.672 568.506 364.687 568.565 364.686 568.624C364.715 568.785 364.702 568.951 364.648 569.105C364.594 569.26 364.501 569.398 364.378 569.506C363.692 570.136 361.802 570.248 359.24 569.814C360.726 569.02 362.336 568.485 364 568.232Z" fill="#AB3D51"/>
<path d="M358.401 570.22H358.513C359.913 569.59 362.573 567.112 362.335 565.796C362.335 565.502 362.055 565.11 361.299 565.04C361.031 565.007 360.758 565.031 360.5 565.111C360.242 565.191 360.004 565.324 359.801 565.502C358.401 566.706 358.135 569.814 358.121 569.94C358.119 569.988 358.129 570.035 358.148 570.079C358.168 570.122 358.196 570.161 358.233 570.192C358.286 570.213 358.343 570.223 358.401 570.22ZM361.131 565.6H361.299C361.789 565.6 361.831 565.838 361.845 565.908C361.985 566.678 360.165 568.638 358.765 569.492C358.852 568.19 359.341 566.948 360.165 565.936C360.433 565.706 360.778 565.586 361.131 565.6Z" fill="#AB3D51"/>
<path d="M326.2 186.55L312.9 188.146C310.695 188.408 308.668 189.488 307.221 191.174C305.774 192.859 305.013 195.026 305.088 197.246C305.76 217.98 308.504 246.47 306.306 290.052C305.2 312.032 289.842 431.382 289.842 431.382L320.096 436.688C334.543 390.824 344.667 343.71 350.336 295.96C352.536 275.209 352.611 254.287 350.56 233.52L326.2 186.55Z" fill="#AB3D51"/>
<path opacity="0.8" d="M326.2 186.55L312.9 188.146C310.695 188.408 308.668 189.488 307.221 191.174C305.774 192.859 305.013 195.026 305.088 197.246C305.76 217.98 308.504 246.47 306.306 290.052C305.2 312.032 289.842 431.382 289.842 431.382L320.096 436.688C334.543 390.824 344.667 343.71 350.336 295.96C352.536 275.209 352.611 254.287 350.56 233.52L326.2 186.55Z" fill="white"/>
<path opacity="0.2" d="M315.336 213.01C315.336 216.118 312.956 231.938 307.062 242.858C306.894 235.41 306.628 228.606 306.32 222.362L315.336 213.01Z" fill="#AB3D51"/>
<path opacity="0.2" d="M372.583 210.238C374.291 213.5 379.219 227.332 381.725 242.438C380.577 241.64 379.485 240.814 378.435 239.974C374.564 236.76 371.011 233.183 367.823 229.292L367.207 228.536L372.583 210.238Z" fill="#AB3D51"/>
<path d="M354.298 187.908L362.152 188.86C365.917 189.323 369.393 191.112 371.959 193.906C374.524 196.699 376.011 200.316 376.152 204.106C377.048 227.374 378.868 273.854 379.862 290.052C381.262 312.018 380.268 431.382 380.268 431.382L361.41 434.686C361.41 434.686 356.622 368.97 350.28 295.96C348.653 274.29 348.265 252.546 349.118 230.832L354.298 187.908Z" fill="#AB3D51"/>
<path opacity="0.8" d="M354.298 187.908L362.152 188.86C365.917 189.323 369.393 191.112 371.959 193.906C374.524 196.699 376.011 200.316 376.152 204.106C377.048 227.374 378.868 273.854 379.862 290.052C381.262 312.018 380.268 431.382 380.268 431.382L361.41 434.686C361.41 434.686 356.622 368.97 350.28 295.96C348.653 274.29 348.265 252.546 349.118 230.832L354.298 187.908Z" fill="white"/>
<path d="M346.178 194.362C344.423 197.179 343.013 200.196 341.978 203.35C341.978 203.35 323.596 197.036 324.254 186.914C324.254 186.914 327.054 185.262 328.734 183.918C328.748 183.918 329.574 190.302 346.178 194.362Z" fill="#F5F5F5"/>
<path d="M346.179 194.362C348.274 196.783 350.03 199.477 351.401 202.37C353.661 200.67 355.327 198.3 356.159 195.597C356.991 192.894 356.948 189.997 356.035 187.32C354.394 186.658 352.704 186.124 350.981 185.724C350.981 185.724 352.311 192.192 346.179 194.362Z" fill="#F5F5F5"/>
<path opacity="0.2" d="M327.082 296.17L306.012 314.272L320.404 307.23L327.082 296.17Z" fill="#AB3D51"/>
<path d="M305.928 193.452C305.032 194.698 304.36 195.678 303.604 196.784L301.462 200.018C300.062 202.183 298.704 204.372 297.388 206.584C294.742 211.022 292.25 215.558 289.954 220.304C287.582 225.159 285.565 230.179 283.92 235.326C283.044 238.077 282.351 240.883 281.848 243.726C281.315 246.804 281.075 249.926 281.134 253.05C281.394 258.944 282.532 264.767 284.508 270.326C286.297 275.442 288.507 280.401 291.116 285.152C293.599 289.746 296.333 294.2 299.306 298.494C300.762 300.631 302.264 302.731 303.814 304.794C304.584 305.83 305.382 306.866 306.194 307.888C307.006 308.91 307.776 309.862 308.784 311.038L323.582 298.2C323.022 297.528 322.182 296.576 321.566 295.708L319.494 293.02C318.094 291.2 316.806 289.352 315.532 287.42C313.018 283.687 310.714 279.817 308.63 275.828C306.631 272.014 304.959 268.038 303.632 263.942C302.407 260.331 301.741 256.554 301.658 252.742C301.825 249.028 302.586 245.365 303.912 241.892C305.381 237.83 307.165 233.889 309.246 230.104C311.374 226.184 313.74 222.292 316.246 218.498C317.52 216.608 318.836 214.732 320.18 212.898L322.224 210.168C322.896 209.3 323.624 208.32 324.226 207.634L305.928 193.452Z" fill="#AB3D51"/>
<path opacity="0.8" d="M305.928 193.452C305.032 194.698 304.36 195.678 303.604 196.784L301.462 200.018C300.062 202.183 298.704 204.372 297.388 206.584C294.742 211.022 292.25 215.558 289.954 220.304C287.582 225.159 285.565 230.179 283.92 235.326C283.044 238.077 282.351 240.883 281.848 243.726C281.315 246.804 281.075 249.926 281.134 253.05C281.394 258.944 282.532 264.767 284.508 270.326C286.297 275.442 288.507 280.401 291.116 285.152C293.599 289.746 296.333 294.2 299.306 298.494C300.762 300.631 302.264 302.731 303.814 304.794C304.584 305.83 305.382 306.866 306.194 307.888C307.006 308.91 307.776 309.862 308.784 311.038L323.582 298.2C323.022 297.528 322.182 296.576 321.566 295.708L319.494 293.02C318.094 291.2 316.806 289.352 315.532 287.42C313.018 283.687 310.714 279.817 308.63 275.828C306.631 272.014 304.959 268.038 303.632 263.942C302.407 260.331 301.741 256.554 301.658 252.742C301.825 249.028 302.586 245.365 303.912 241.892C305.381 237.83 307.165 233.889 309.246 230.104C311.374 226.184 313.74 222.292 316.246 218.498C317.52 216.608 318.836 214.732 320.18 212.898L322.224 210.168C322.896 209.3 323.624 208.32 324.226 207.634L305.928 193.452Z" fill="white"/>
<path d="M324.801 217.728C325.253 218.785 326.059 219.651 327.082 220.178C328.104 220.704 329.277 220.858 330.401 220.612C330.913 220.5 331.393 220.275 331.807 219.954C332.221 219.632 332.557 219.222 332.792 218.754C333.027 218.286 333.154 217.771 333.164 217.247C333.174 216.723 333.067 216.203 332.851 215.726C332.398 214.67 331.591 213.805 330.568 213.281C329.546 212.757 328.372 212.606 327.251 212.856C326.739 212.966 326.259 213.189 325.845 213.509C325.431 213.829 325.094 214.238 324.859 214.705C324.624 215.173 324.497 215.687 324.487 216.21C324.477 216.733 324.584 217.252 324.801 217.728Z" fill="#263238"/>
<path opacity="0.2" d="M324.801 217.728C325.253 218.785 326.059 219.651 327.082 220.178C328.104 220.704 329.277 220.858 330.401 220.612C330.913 220.5 331.393 220.275 331.807 219.954C332.221 219.632 332.557 219.222 332.792 218.754C333.027 218.286 333.154 217.771 333.164 217.247C333.174 216.723 333.067 216.203 332.851 215.726C332.398 214.67 331.591 213.805 330.568 213.281C329.546 212.757 328.372 212.606 327.251 212.856C326.739 212.966 326.259 213.189 325.845 213.509C325.431 213.829 325.094 214.238 324.859 214.705C324.624 215.173 324.497 215.687 324.487 216.21C324.477 216.733 324.584 217.252 324.801 217.728Z" fill="white"/>
<path d="M329.406 215.6C329.521 215.602 329.634 215.568 329.728 215.502C329.844 215.418 329.923 215.291 329.946 215.15C329.97 215.008 329.937 214.863 329.854 214.746C319.438 200.256 322.35 187.376 322.378 187.25C322.408 187.177 322.421 187.099 322.418 187.02C322.414 186.942 322.394 186.865 322.358 186.795C322.322 186.725 322.271 186.664 322.209 186.615C322.148 186.567 322.076 186.532 322 186.514C321.923 186.496 321.844 186.494 321.767 186.509C321.69 186.524 321.617 186.556 321.553 186.602C321.489 186.648 321.436 186.707 321.397 186.775C321.359 186.844 321.335 186.92 321.328 186.998C321.328 187.124 318.248 200.466 328.972 215.376C329.02 215.447 329.084 215.505 329.16 215.544C329.236 215.583 329.321 215.602 329.406 215.6Z" fill="#263238"/>
<path d="M365.722 208.25C365.859 208.247 365.99 208.194 366.091 208.102C366.191 208.009 366.254 207.882 366.268 207.746C367.402 193.522 359.87 188.272 359.548 188.062C359.428 187.984 359.283 187.956 359.142 187.982C359.002 188.008 358.876 188.087 358.792 188.202C358.712 188.323 358.684 188.47 358.713 188.612C358.742 188.754 358.826 188.878 358.946 188.958C359.016 188.958 366.268 194.11 365.176 207.662C365.168 207.805 365.217 207.945 365.311 208.052C365.405 208.159 365.538 208.225 365.68 208.236L365.722 208.25Z" fill="#263238"/>
<path d="M326.326 217.35C326.78 218.405 327.587 219.27 328.609 219.796C329.63 220.322 330.803 220.477 331.926 220.234C332.439 220.125 332.921 219.901 333.337 219.58C333.752 219.259 334.09 218.849 334.325 218.38C334.56 217.911 334.687 217.394 334.696 216.87C334.705 216.345 334.595 215.825 334.376 215.348C333.911 214.305 333.099 213.455 332.078 212.944C331.056 212.434 329.889 212.294 328.776 212.548C328.275 212.663 327.805 212.886 327.399 213.202C326.994 213.518 326.663 213.919 326.429 214.377C326.195 214.835 326.065 215.338 326.047 215.852C326.029 216.366 326.125 216.877 326.326 217.35Z" fill="#263238"/>
<path opacity="0.4" d="M326.326 217.35C326.78 218.405 327.587 219.27 328.609 219.796C329.63 220.322 330.803 220.477 331.926 220.234C332.439 220.125 332.921 219.901 333.337 219.58C333.752 219.259 334.09 218.849 334.325 218.38C334.56 217.911 334.687 217.394 334.696 216.87C334.705 216.345 334.595 215.825 334.376 215.348C333.911 214.305 333.099 213.455 332.078 212.944C331.056 212.434 329.889 212.294 328.776 212.548C328.275 212.663 327.805 212.886 327.399 213.202C326.994 213.518 326.663 213.919 326.429 214.377C326.195 214.835 326.065 215.338 326.047 215.852C326.029 216.366 326.125 216.877 326.326 217.35Z" fill="white"/>
<path opacity="0.4" d="M328.678 216.594C328.917 217.15 329.344 217.606 329.883 217.881C330.422 218.157 331.04 218.237 331.632 218.106C331.9 218.047 332.152 217.929 332.368 217.76C332.585 217.592 332.762 217.377 332.885 217.131C333.008 216.886 333.076 216.616 333.082 216.342C333.088 216.067 333.032 215.795 332.92 215.544C332.678 214.989 332.251 214.536 331.713 214.26C331.174 213.985 330.557 213.904 329.966 214.032C329.698 214.091 329.446 214.209 329.229 214.378C329.012 214.546 328.836 214.761 328.712 215.007C328.589 215.252 328.522 215.522 328.516 215.796C328.51 216.071 328.565 216.343 328.678 216.594Z" fill="white"/>
<path d="M361.466 241.346C361.609 241.342 361.744 241.283 361.843 241.181C361.943 241.079 361.998 240.942 361.998 240.8C362 240.729 361.988 240.658 361.962 240.592C361.936 240.526 361.897 240.466 361.847 240.415C361.798 240.364 361.739 240.323 361.673 240.296C361.608 240.268 361.537 240.254 361.466 240.254C360.439 240.224 359.459 239.818 358.71 239.114C357.962 238.41 357.498 237.455 357.406 236.432L356.37 218.232C356.283 216.955 356.461 215.674 356.893 214.47C357.325 213.265 358.001 212.162 358.879 211.232C359.758 210.301 360.819 209.562 361.996 209.061C363.174 208.56 364.443 208.307 365.722 208.32C368.414 208.352 370.995 209.398 372.951 211.247C374.908 213.097 376.095 215.616 376.278 218.302L377.328 236.502C377.365 236.988 377.3 237.477 377.138 237.937C376.975 238.396 376.718 238.817 376.383 239.172C376.048 239.526 375.643 239.807 375.194 239.996C374.744 240.184 374.26 240.277 373.772 240.268C373.627 240.268 373.489 240.325 373.386 240.428C373.284 240.53 373.226 240.669 373.226 240.814C373.23 240.958 373.288 241.094 373.39 241.196C373.492 241.298 373.628 241.356 373.772 241.36C374.406 241.365 375.035 241.24 375.618 240.991C376.201 240.742 376.726 240.376 377.162 239.914C377.597 239.453 377.932 238.907 378.146 238.31C378.36 237.713 378.449 237.079 378.406 236.446L377.356 218.246C377.156 215.285 375.847 212.508 373.691 210.469C371.535 208.43 368.69 207.277 365.722 207.242C364.294 207.229 362.878 207.511 361.564 208.072C360.249 208.632 359.065 209.458 358.086 210.498C357.106 211.538 356.353 212.77 355.872 214.115C355.391 215.461 355.194 216.891 355.292 218.316L356.328 236.516C356.423 237.819 357.004 239.038 357.955 239.933C358.907 240.828 360.16 241.332 361.466 241.346Z" fill="#263238"/>
<path d="M372.876 240.8C372.876 241.668 373.366 242.382 373.856 242.382C374.346 242.382 374.724 241.668 374.668 240.8C374.612 239.932 374.178 239.204 373.674 239.204C373.17 239.204 372.82 239.918 372.876 240.8Z" fill="#263238"/>
<path d="M360.555 240.8C360.555 241.668 361.045 242.382 361.549 242.382C362.053 242.382 362.418 241.668 362.362 240.8C362.306 239.932 361.871 239.204 361.367 239.204C360.863 239.204 360.513 239.918 360.555 240.8Z" fill="#263238"/>
<path d="M473.284 130.2L474.278 129.486C471.353 125.48 467.239 122.497 462.522 120.961C457.805 119.426 452.724 119.416 448 120.932L448.378 122.108C452.854 120.674 457.667 120.683 462.137 122.135C466.607 123.588 470.507 126.409 473.284 130.2Z" fill="#AB3D51"/>
<path d="M477.512 142.8H478.744C478.681 140.564 478.299 138.348 477.61 136.22L476.434 136.598C477.087 138.603 477.45 140.692 477.512 142.8Z" fill="#AB3D51"/>
<path d="M411.697 143.78C412.773 141.404 414.32 139.271 416.245 137.511C418.17 135.751 420.432 134.4 422.894 133.54C425.356 132.68 427.968 132.329 430.57 132.508C433.172 132.687 435.71 133.393 438.031 134.582C439.199 132.304 440.809 130.281 442.768 128.632C444.726 126.983 446.994 125.741 449.438 124.978C451.882 124.216 454.453 123.948 457.002 124.191C459.55 124.433 462.025 125.182 464.281 126.392C473.619 131.404 476.881 143.276 472.023 152.726L459.423 177.324C458.812 178.521 457.97 179.586 456.946 180.457C455.922 181.329 454.736 181.989 453.456 182.402C452.177 182.814 450.828 182.97 449.488 182.86C448.148 182.75 446.843 182.377 445.647 181.762L420.951 169.162C416.447 166.926 412.975 163.044 411.253 158.32C409.53 153.596 409.689 148.39 411.697 143.78Z" fill="#AB3D51"/>
</svg>
