<svg width="450" height="232" viewBox="0 0 450 232" fill="none" xmlns="http://www.w3.org/2000/svg">
<path d="M252.799 230.179L250.766 228.788L249.696 227.397L249.161 226.327L248.412 224.294L247.663 222.368L247.021 221.405L246.272 220.763L244.453 220.014H242.848L241.778 220.549L239.638 221.833L238.247 223.01L233.86 225.471L231.506 226.113L226.905 226.648H219.736L207.324 223.331L198.229 223.438L196.945 223.224L196.089 222.796L195.768 222.261L195.447 220.977V219.586L195.875 218.088L197.159 215.199L197.266 213.701L196.945 212.952L196.089 212.203L194.591 211.882L191.381 211.775L190.311 211.989L186.994 213.594L171.051 218.088L167.948 218.516L167.52 218.088V217.553L167.841 216.911L169.232 215.627L170.088 214.557L170.409 213.808L171.479 209.635L171.693 208.137L172.014 206.746L173.619 204.392L173.94 203.322L173.833 202.787L172.549 201.61L169.339 199.577L164.417 197.33L163.026 195.939L162.919 194.548L162.491 191.98L160.993 187.914L161.314 187.379L162.384 187.914L163.24 188.021L163.882 187.7L164.631 187.058L166.343 182.564L167.092 179.354L167.627 173.897L166.878 171.436H165.915L164.417 172.506L162.491 173.255L159.281 174.111L158.532 174.539L156.606 175.93L155.215 176.572L154.252 176.786L136.811 177.214L131.354 175.823L124.506 175.181H123.329L122.152 175.609L119.156 177L117.123 177.535L114.876 177.749L110.061 177.107L109.312 176.786L108.67 176.465L108.135 175.288L107.065 174.218L105.888 173.683H105.139L103.32 174.432L101.715 174.86L101.073 174.646L100.752 174.111L101.287 172.827L102.892 170.473L103.962 168.44L104.604 166.086L104.818 163.839L105.353 162.234L105.674 161.485L107.172 159.024L107.493 158.382L107.921 156.028V154.637L107.279 153.567L105.139 152.176L102.571 150.785L101.073 150.357L100.003 150.036L99.3609 150.25L97.7559 151.106L95.8299 151.534L82.8829 150.892L82.4549 150.464L82.0269 149.073L80.4219 147.147L81.9199 144.365L82.8829 143.509L84.0599 142.867L84.8089 142.653L86.9489 142.439L93.048 142.867L96.0439 142.546L96.8999 142.011L97.3279 141.369L97.6489 138.48L98.5049 135.27L100.431 130.99L100.11 130.562H99.0399L96.793 131.739L95.4019 131.846L93.9039 131.418L90.8009 130.241L82.8829 125.961L81.3849 125.64L74.2159 125.426L73.4669 125.319L70.5779 124.142L68.438 122.751L64.693 121.681L63.1949 121.574L60.8409 122.43L59.4499 122.537L58.3799 122.109L56.9889 121.36L54.6349 119.541L53.3509 118.792L52.388 118.471L51.853 118.578L49.4989 119.648L42.1159 121.788L40.4039 121.895L38.9059 121.467L38.3709 120.825L38.0499 120.183L38.478 118.792L39.3339 117.722L41.4739 116.331L43.3999 114.619L44.3629 113.656L45.0049 112.372L45.5399 110.018V109.055L45.3259 107.985L44.3629 106.38L42.8649 104.989L39.3339 102.635L38.5849 101.779L38.2639 101.03L38.478 99.3182L38.3709 98.3552L37.943 97.7132L36.3379 97.2852L35.5889 96.9642L35.1609 96.4292L35.0539 95.0382L35.5889 91.8282L35.8029 91.0792L37.408 86.4782L37.5149 84.8732L37.0869 83.5892L36.5519 82.3052L35.3749 81.0212L33.663 79.8442L33.1279 78.5602V77.1692L32.8069 75.2432L32.3789 73.7452L31.7369 72.9962L30.8809 72.5682L28.4199 71.9262H27.0289L26.6009 72.4612L25.9589 73.7452L25.2099 74.9222L24.3539 75.6712L22.6419 76.5272L15.5799 76.9552L14.7239 76.8482L13.8679 75.8852L12.3699 72.7822L11.1929 71.6052L8.41091 70.3212L7.76894 69.8932L6.37795 69.3582L3.9169 69.1442L3.16795 68.1812L1.88393 63.9012L1.66992 62.7242L5.41492 60.2632L6.27091 59.6212L6.5919 59.0862L7.1269 57.3742V55.3412L7.34091 54.6992L7.87591 54.2712L9.2669 54.1642L10.3369 53.8432L11.6209 53.4152L13.9749 51.3822L15.2589 50.5262L17.6129 49.4562L19.2179 48.2792L20.0739 46.0322L20.9299 45.4972L22.3209 45.2832L29.5969 45.9252L31.3089 45.8182L44.7909 42.5012H47.0379L48.643 43.4642L49.8199 43.7852L51.2109 43.8922L52.0669 43.6782L53.0299 43.2502L55.3839 41.5382L56.0259 40.8962L61.2689 34.4762L63.3019 32.8712L65.4419 31.5872L72.183 28.4842L79.4589 26.7722L80.6359 26.1302L82.4549 21.9572L82.9899 21.4222L83.6319 21.1012L84.5949 21.2082L90.6939 22.5992L93.2619 22.4922L96.2579 23.5622H97.3279L98.7189 23.2412L103.855 20.4592L104.604 20.2452L105.567 20.4592L110.061 22.3852L113.164 22.8132L114.555 22.3852L115.625 20.7802L116.16 19.0682L117.123 17.7842L118.3 17.5702L141.198 18.1052L143.124 17.6772L145.692 16.8212L146.441 16.1792L146.976 15.3232L147.511 12.9692L147.939 11.8992L150.4 9.2242L151.47 8.4752H152.005L153.396 8.9032H154.038L154.68 8.6892L155.108 6.6562L154.145 3.3392H155.857L165.38 4.9442L168.483 3.9812L172.656 1.9482L174.154 1.6272L175.545 1.7342L178.327 2.6972H182.179L183.998 3.6602L185.71 5.0512L187.636 6.2282H189.241L194.27 3.7672L196.303 3.3392L202.723 3.5532L209.25 5.1582L209.785 6.0142L210.213 6.8702L210.855 7.6192L212.032 8.3682L214.493 7.2982L216.098 6.2282L216.954 5.8002L219.201 5.4792L221.341 5.8002L223.588 6.5492L229.045 9.8662L233.325 10.6152L243.704 9.6522L248.198 9.8662L252.585 9.2242L254.511 9.5452L258.47 11.0432L260.503 11.1502L262.215 10.5082L265.639 8.2612L267.672 7.5122L271.952 7.1912L278.372 7.8332L287.895 11.1502L291.854 13.5042L295.278 16.3932L296.883 17.2492L308.653 18.4262L316.357 21.6362L322.777 21.9572L326.522 23.4552L330.16 23.6692L337.757 19.8172L341.502 19.0682L343.963 19.7102L344.712 21.1012L344.177 26.1302L344.284 29.2332L344.819 31.9082L345.782 34.3692L347.173 36.8302L350.597 40.2542L358.301 43.8922L361.404 47.2092L365.791 57.8022L368.359 61.3332L373.281 63.4732L382.59 64.0082L390.401 62.5102L394.574 62.6172L416.081 67.3252L420.147 70.1072L421.431 71.6052L425.176 77.1692L431.489 82.9472L434.699 87.1202L437.267 91.6142L440.156 95.5732L444.329 98.1412L444.971 100.067L445.292 104.347L445.72 106.487L446.79 108.413L447.967 110.018L448.823 111.837L448.93 114.405L446.362 118.471L441.654 120.183L417.258 119.862L412.336 121.146L408.805 122.644L407.2 123.928L405.916 125.854L405.06 128.101L403.883 132.916L403.027 135.27L399.603 138.587L395.216 139.229L390.722 139.122L386.335 140.192L380.878 144.044L374.565 146.398L366.968 151.748L365.042 152.497H362.795L356.589 150.571L354.556 151.106L352.844 152.283L348.243 156.563L346.21 158.061L344.07 159.024L339.576 160.094L335.831 161.592L324.917 169.51L319.032 170.58L317.213 171.543L308.546 177.749L295.492 182.885L294.101 183.634L292.817 184.811L292.068 186.202L291.319 189.412L290.356 190.696L286.932 192.301L279.763 193.799L270.775 200.754L266.923 202.573L265.211 203.75L263.606 205.783L263.285 208.03L264.89 213.059L265.211 215.413L264.248 217.553L262.429 219.051L258.577 221.405L257.079 222.903L254.618 226.541L252.799 230.179Z" fill="#AB3D51" fill-opacity="0.4" stroke="white" stroke-width="2.14" stroke-linecap="round" stroke-linejoin="round"/>
</svg>
