<svg width="405" height="187" viewBox="0 0 405 187" fill="none" xmlns="http://www.w3.org/2000/svg">
<path d="M402.145 48.3596L403.108 51.6766L402.68 53.7096L402.038 53.9236H401.396L400.005 53.4956H399.47L398.4 54.2446L395.939 56.9196L395.511 57.9896L394.976 60.3436L394.441 61.1996L393.692 61.8416L391.124 62.6976L389.198 63.1256L366.3 62.5906L365.123 62.8046L364.16 64.0886L363.625 65.8006L362.555 67.4056L361.164 67.8336L358.061 67.4056L353.567 65.4796L352.604 65.2656L351.855 65.4796L346.719 68.2616L345.328 68.5826H344.258L341.262 67.5126L338.694 67.6196L332.595 66.2286L331.632 66.1216L330.99 66.4426L330.455 66.9776L328.636 71.1506L327.459 71.7926L320.183 73.5046L313.442 76.6076L311.302 77.8916L309.269 79.4966L304.026 85.9166L303.384 86.5586L301.03 88.2706L300.067 88.6986L299.211 88.9126L297.82 88.8056L296.643 88.4846L295.038 87.5216H292.791L279.309 90.8386L277.597 90.9456L270.321 90.3036L268.93 90.5176L268.074 91.0526L267.218 93.2996L265.613 94.4766L263.259 95.5466L261.975 96.4026L259.621 98.4356L258.337 98.8636L257.267 99.1846L255.876 99.2916L255.341 99.7196L255.127 100.362V102.395L254.592 104.107L254.271 104.642L253.415 105.284L249.67 107.745L247.851 108.601L247.53 109.136L246.246 110.634L241.217 113.951L239.826 114.379L239.184 114.272L239.505 111.169L239.398 110.42L238.97 109.243L238.114 108.28L237.579 108.387L235.974 109.136L228.912 110.848L227.521 110.955L226.772 110.741L222.813 108.815L221.422 109.136L220.245 109.992L217.463 110.955L216.393 111.169L201.627 110.527L197.775 109.243L196.277 109.671L195.849 110.099L194.565 111.169L191.462 112.239L188.894 109.029L187.931 108.601L187.075 108.494L185.791 109.671L184.507 110.206L170.49 112.453L169.42 113.095L171.239 117.803L175.733 125.079L176.482 126.791L176.589 128.182L176.054 128.61L175.412 128.717L174.663 128.503L172.523 127.647H171.774L164.284 128.396L162.358 129.359L158.613 134.495L156.366 137.812L155.082 137.919L154.333 135.993L153.798 135.458L151.551 135.351L134.431 138.026L133.361 137.705L131.756 136.956L127.904 136.314H125.55L124.159 136.849L123.838 138.133L122.126 149.047L122.233 150.438L122.447 151.936L124.908 152.578L125.764 153.006L126.406 153.862V154.825L125.229 155.681L124.266 156.537L123.089 158.249L122.233 159.747L121.912 161.031L121.805 162.636L122.233 164.776L122.126 165.846L121.698 166.916L119.237 169.591L118.488 170.768L118.167 171.624L118.06 172.587L118.274 174.834L117.953 175.797L117.311 176.653L116.241 177.509L115.171 178.044H114.422L113.245 177.509L111.961 176.439L110.998 176.225L110.356 176.439L107.681 178.365L106.825 179.221L106.397 180.077L106.183 181.147L105.648 184.357L105.22 185.106L104.578 185.641L103.722 185.32L103.187 184.25L102.973 182.645L103.508 179.756L103.401 178.151L102.759 177.402H102.224L99.8699 178.151L98.2649 178.258L96.7669 177.616L95.5899 176.439L94.5199 174.406L93.1289 173.015L92.7009 172.373L91.8449 170.019L90.8819 168.414L86.9229 171.624L85.1039 172.373L83.4989 172.266L71.9429 173.443L70.3379 167.986L69.3749 166.167L67.9839 165.418L67.1279 165.204L65.0949 164.776L64.2389 164.669L63.0619 164.99L60.8149 166.167L60.2799 166.595L58.8889 168.307L58.4609 168.735L57.6049 169.163L56.1069 169.377L55.0369 169.27L46.1559 165.739L44.8719 165.525L43.4809 165.632L40.5919 166.274H39.2009L36.0979 164.99L34.0649 164.669L31.2829 165.418L30.6409 164.776L29.9989 162.208L29.5709 161.031L28.6079 159.854L27.7519 159.105L26.0399 158.035L24.8629 157.607L23.7929 157.286H22.1879L21.5459 156.965L20.1549 155.467L18.9779 155.039L14.6979 154.29L9.66889 152.364L8.38487 152.043H7.31487L6.67287 152.257L5.92389 151.401L5.28188 149.689L6.24487 147.763L6.56586 147.014L6.35188 146.158L5.60287 145.623L2.07188 144.553L1.42987 144.018L1.10889 143.376V141.771L1.96487 137.812L2.28586 136.849L2.92787 136.1L3.99787 135.672L7.20787 135.779L8.49188 135.565L9.56188 134.602L10.6319 133.211L11.3809 132.569L14.1629 131.178L16.4099 130.536L18.2289 130.322L20.0479 129.787L21.4389 129.573L23.2579 129.894L24.4349 130.322L25.8259 130.643L27.3239 130.429L31.0689 128.824L32.7809 128.396L35.0279 128.289L38.6659 128.824L39.4149 129.145L42.0899 130.643H43.6949L45.7279 130.108L51.6129 127.54L53.0039 126.791L55.7859 123.046L55.9999 120.906L56.5349 119.729L58.1399 117.482L60.7079 115.021L61.1359 114.272L61.4569 113.202L61.3499 111.704L61.1359 110.741L59.8519 108.922L58.3539 108.601L55.5719 108.922H54.6089L53.0039 108.387L52.0409 107.531L51.5059 106.354L50.8639 104.107L50.5429 103.679H50.1149L49.3659 104.642L48.9379 105.819L48.7239 107.424L49.1519 109.35L48.4029 110.848L46.0489 113.095L43.2669 112.667L36.3119 99.1846L34.8139 95.0116L34.0649 90.6246L34.2789 85.5956L35.4559 80.9946L40.5919 69.3316L43.1599 63.6606L43.4809 61.6276L43.1599 59.1666L41.9829 54.7796L41.7689 52.5326L42.0899 50.2856L42.8389 48.3596L44.8719 44.8286L48.5099 34.1286L49.6869 32.0956L51.1849 30.8116L55.7859 28.1366L72.3709 21.1816L73.9759 20.7536L78.0419 20.9676L81.6799 19.0416L84.8899 9.83959L87.7789 7.59259L89.8119 8.23459L93.2359 11.6586L95.0549 12.1936L110.249 10.3746L111.854 9.41159L112.175 7.59259L111.105 5.23859L108.43 1.60059L111.319 3.20559L116.241 7.69959L118.916 8.87659L122.126 9.62559L124.908 11.0166L129.937 15.1896L131.863 16.2596L135.929 16.6876L139.46 18.9346L143.419 20.1116L145.238 21.0746L146.522 22.7866L148.983 27.0666L150.374 28.6716L160.325 36.3756L163.642 37.6596L174.663 39.5856L183.009 43.6516L185.791 46.1126L188.466 47.5036L194.351 49.3226L197.133 50.9276L199.38 52.7466L205.265 56.2776L207.833 56.9196L214.253 56.8126L236.081 59.7016L239.826 59.2736L241.752 59.4876L248.065 62.1626L250.526 62.0556L253.308 60.7716L256.09 58.8456L258.444 56.3846L259.407 54.6726L262.617 46.2196L263.687 45.2566L265.185 44.8286L271.177 44.4006L274.922 44.9356L282.519 47.1826L284.659 47.2896L291.079 45.1496L293.54 45.0426L300.602 46.8616H309.376L317.722 49.4296L318.792 49.2156L320.718 48.3596L321.895 48.2526L322.858 48.8946L323.928 51.0346L324.891 51.5696L326.603 51.0346L329.492 48.1456L331.311 47.3966L333.879 47.7176L338.908 49.8576L341.369 50.2856L343.402 49.8576L347.147 48.1456L351.427 48.2526L353.353 47.8246L356.991 45.7916L357.419 45.3636L357.74 44.1866L358.489 44.0796L360.201 44.4006H360.843L361.592 43.9726L363.625 41.5116L365.444 40.1206L367.37 39.7996H371.65L375.502 38.1946L377.428 37.8736L379.354 38.7296L390.268 40.5486L393.585 41.8326L394.655 42.7956L397.437 46.7546L398.935 47.9316L400.433 48.2526L402.145 48.3596ZM153.37 61.7346L153.049 60.2366V58.6316L153.263 57.0266L154.333 56.1706L154.868 54.9936L155.938 54.4586L156.259 53.7096L155.617 52.4256L154.44 50.8206L152.835 49.1086L151.979 47.2896L151.23 44.9356L150.588 44.7216L149.625 46.9686L148.448 48.5736L146.629 49.9646L141.386 51.2486L139.888 52.9606L140.958 55.1006L144.917 58.4176L146.415 59.2736L146.522 60.9856L146.201 62.1626L146.308 63.8746L146.843 64.9446L147.485 65.6936H148.127L148.662 64.9446L149.411 63.2326L150.695 61.8416L152.193 62.1626H153.049L153.37 61.7346Z" fill="#AB3D51" fill-opacity="0.4" stroke="white" stroke-width="2.14" stroke-linecap="round" stroke-linejoin="round"/>
</svg>
