<svg width="329" height="251" viewBox="0 0 329 251" fill="none" xmlns="http://www.w3.org/2000/svg">
<path d="M248.269 23.5172L249.981 26.0853L260.574 35.5012L263.035 37.1062L263.677 37.7483L264.212 38.6042L264.747 39.9953L264.961 40.9583L265.175 43.2053L265.71 43.8472L266.673 44.8103L268.278 45.7733L275.126 52.4072L275.875 53.4772L276.624 55.0822L277.373 56.1522L278.978 58.0783L282.937 61.3953L284.97 62.6792L298.345 67.6012L299.415 68.2433L300.699 69.5272L301.555 71.2392V72.6303L301.448 73.3792L300.485 76.2683L301.234 77.0172L302.625 77.7663L309.794 78.9433L311.292 80.9762L311.827 81.4042L313.004 81.7253L314.716 81.9392L322.206 81.8322L324.774 82.9022L323.597 84.7213L323.062 86.4333L322.313 88.7872L321.136 91.4622L320.387 94.0303L321.136 95.9563L325.63 100.236L326.807 101.948L327.663 106.121L324.667 106.87L316.428 104.73L314.288 104.623L312.469 105.372L307.547 110.508L305.942 111.685L302.09 113.718L298.88 116.179L290.32 125.595L279.941 134.048L276.517 135.546L273.521 136.081L270.525 135.546L267.208 134.262L263.891 133.513L260.36 133.941L257.043 135.439L253.94 137.472L250.944 138.863L244.524 139.719L241.956 141.966L240.886 143.25L240.137 144.748L239.495 146.46L239.281 148.279L238.746 151.275L237.141 153.415L235.215 155.341L233.824 157.802L233.075 163.045L232.647 164.543L231.898 165.613L229.116 167.967L227.939 169.786L227.083 172.033L226.655 174.494L226.762 176.955L227.725 179.416L229.009 180.272L230.614 180.7L232.54 181.877L233.824 184.017L234.466 186.692L234.894 192.149L237.141 198.89L236.606 200.174L234.466 201.565L232.861 202.849L231.684 204.668L230.507 207.45L229.437 211.837L228.474 213.549L226.869 214.512L208.572 216.973L205.897 215.582L196.909 214.619L193.592 214.94L182.999 217.615L180.645 219.22L179.896 221.146L179.682 222.965L178.933 224.249L173.476 225.319L163.632 228.636L160.529 228.957L157.105 227.994L155.5 227.138L154.216 226.71L153.039 227.031L148.331 229.492L146.833 229.599L145.121 229.064L139.129 227.78L137.096 227.566L132.923 228.529L131.425 228.636L113.556 223.821H111.951L110.239 224.249L109.276 225.212L107.35 227.459L106.28 228.208H104.675L102.321 226.603L100.823 226.175L99.7529 226.603L96.7569 229.813L95.1519 230.134L93.5469 230.027L90.3369 229.171L88.6249 229.278L84.9869 231.097L82.9539 231.418L81.2419 232.06L80.0649 233.879L77.8179 240.727L73.8589 249.394L72.6819 249.501L71.7189 248.003L70.8629 245.97L70.5419 244.793V243.83L70.2209 243.081L68.1879 242.011L66.7969 240.834L65.9409 240.299L61.7679 239.657L59.7349 238.801L58.8789 236.875L58.6649 234.2L58.1299 230.99L57.0599 228.315L55.3479 227.031L53.6359 227.245L50.2119 229.171L46.5739 229.92L44.9689 230.776L35.4459 237.517L31.9149 239.015L28.3839 239.443L26.4579 238.908L24.7459 237.517L23.3549 235.484L22.6059 233.023L22.8199 230.455L23.7829 228.85L25.0669 227.566L26.1369 225.64L26.5649 223.179L26.3509 219.862L25.3879 216.973L23.8899 215.582L21.9639 215.689L12.1199 217.722L7.41193 217.508L3.45292 215.689L1.41992 211.302L2.27593 209.376L4.73693 205.738L5.16492 203.812L4.62992 201.886L3.13193 199.853L3.98792 197.713L4.73693 194.182L5.05792 193.326L7.09093 189.26L9.44492 187.12L16.9349 185.301L18.6469 184.231L19.8239 183.054L20.7869 181.556L21.6429 180.914L22.8199 180.486H24.5319L25.9229 180.807L26.6719 181.342L27.2069 183.054L27.9559 183.803L29.3469 184.552L30.8449 185.087L45.0759 188.083L46.5739 188.725L47.8579 189.688L49.9979 191.293L51.2819 191.828L53.3149 192.256L54.8129 192.363L56.2039 192.149L56.9529 192.47L58.8789 193.754L59.8419 193.861L60.9119 193.647L62.9449 192.791L64.5499 192.363L67.5459 192.042L73.6449 193.112L77.0689 192.47L79.2089 191.507L82.3119 190.651L83.7029 190.009L84.8799 189.26L87.4479 187.013L92.0489 184.873L96.8639 183.268L100.181 181.556L101.679 180.379L102.107 179.737L102.535 178.346L103.819 176.741L101.679 172.675L99.5389 170.107L98.2549 168.93L97.7199 167.646L97.1849 164.971L96.5429 164.222L95.5799 164.008L94.6169 164.436L92.9049 165.72H91.9419L90.3369 164.971L88.3039 161.761L86.8059 158.658L85.8429 157.16L84.7729 156.304L83.1679 155.234L81.7769 154.699L79.3159 154.164L78.2459 153.629L77.9249 152.88L77.8179 152.024L78.0319 150.954L78.4599 149.777L78.9949 148.707L79.3159 147.53L79.1019 146.139L78.2459 144.213L77.9249 142.929L78.0319 141.966L78.4599 141.11L78.7809 140.254L78.6739 138.97L78.1389 138.007L77.1759 137.151L74.0729 135.653L73.8589 135.011L74.2869 134.476L76.3199 132.657L76.9619 131.266L76.8549 129.233L76.2129 127.949L74.8219 126.879L70.7559 125.167L69.8999 124.311L69.5789 123.455L70.1139 122.92L71.0769 122.385L71.7189 121.529L71.9329 120.352L71.2909 118.961L71.0769 117.891V116.607L71.7189 114.253L71.8259 112.969L71.0769 111.043L70.1139 110.08L68.6159 109.866L60.0559 112.22L55.3479 114.039L51.8169 114.253L51.1749 113.718L48.3929 112.434L46.5739 111.15L45.8249 109.224L46.3599 107.405L54.7059 103.125L57.2739 100.557L58.6649 97.0263L59.3069 94.6722L60.1629 93.2812L66.5829 89.7503L68.2949 89.3222L73.4309 89.0013L75.1429 89.2153L76.1059 89.9642L75.6779 91.2483L74.2869 91.7833L72.6819 91.8903L71.5049 92.2113L71.0769 93.3883L72.2539 93.8163L76.6409 93.6022L78.1389 94.1372L83.8099 97.5613L86.4849 98.5243L88.7319 97.9893L90.6579 95.3142L91.7279 92.1042L91.8349 89.1083L90.7649 86.5403L86.5919 83.5442L85.7359 82.3672V80.9762L86.3779 78.8363V76.5892L84.3449 73.0583L84.6659 70.9183L87.5549 69.6342L90.7649 72.4163L93.9749 76.2683L96.7569 77.6592L100.502 78.0872L107.243 82.7953L111.095 82.5813L112.593 81.4042L113.556 79.7992L113.984 77.9803L114.091 76.1613L114.84 74.0213H116.659L120.19 75.6263L122.972 74.3422L124.149 65.8892L126.503 62.2513L129.82 60.8603L136.775 59.0413L145.121 53.7983L154.216 50.3742L158.817 47.8062L161.813 43.8472L161.278 41.2792L160.422 41.0653L162.134 39.5672L164.809 36.7853L170.48 34.2172L171.764 33.1472L172.62 32.1842L172.941 31.4353V29.9372L172.192 27.6903V27.0483L172.62 24.8012L172.406 22.9822L172.299 21.9122L172.727 20.4142L173.476 19.4512L174.332 18.4883L179.361 14.7432L180.538 14.4222L180.966 14.7432L181.929 15.9203L182.571 17.0972L183.106 17.6322L184.497 17.4183L185.353 17.0972L186.209 15.2782L186.851 14.1012L187.6 13.3522L188.777 12.6032L189.419 11.7472L191.238 8.75124L192.201 7.68124L193.271 8.00223L196.481 7.89525L204.72 8.64424L205.79 8.53723L207.181 8.10924L207.716 7.78825L208.037 7.25325L207.93 6.18325L207.395 4.25723L207.716 3.18723L208.786 2.54525L211.675 2.01025H212.21L214.564 5.00624L214.992 5.96923V7.25325L214.457 8.10924L206.218 15.9203L205.041 17.3112L204.506 18.5953L205.041 19.2372L207.502 19.4512L208.251 20.3072L208.572 22.4472L208.893 22.9822L209.535 23.3033L211.247 23.5172L212.424 24.0522L214.35 25.6572L215.634 25.9783L216.597 25.5503L216.704 24.3733L216.597 21.6982L216.704 20.7353L217.025 19.6653L217.881 18.5953L219.058 17.4183L222.696 14.9572L223.338 14.3153L228.474 5.75525L230.079 3.82923L231.577 3.61525L232.647 4.04325L233.075 4.47124L233.182 5.11325L232.861 6.93223L233.075 8.10924L233.717 8.85825L235.643 10.3562L236.071 11.3192L236.178 12.4962L236.071 14.2083L236.285 16.1342L236.713 17.0972L237.141 17.7392L248.269 23.5172Z" fill="#AB3D51" fill-opacity="0.4" stroke="white" stroke-width="2.14" stroke-linecap="round" stroke-linejoin="round"/>
</svg>
