<svg width="278" height="105" viewBox="0 0 278 105" fill="none" xmlns="http://www.w3.org/2000/svg">
<path d="M258.267 56.1763L261.049 56.6043L263.403 54.3573L264.152 52.8593L263.724 50.9333L263.938 49.3283L264.366 48.1513L265.115 47.1883H265.543L265.864 47.6163L266.506 49.8633L267.041 51.0403L268.004 51.8963L269.609 52.4313H270.572L273.354 52.1103L274.852 52.4313L276.136 54.2503L276.35 55.2133L276.457 56.7113L276.136 57.7813L275.708 58.5303L273.14 60.9913L271.535 63.2383L271 64.4153L270.786 66.5553L268.004 70.3003L266.613 71.0493L260.728 73.6173L258.695 74.1523H257.09L254.415 72.6543L253.666 72.3333L250.028 71.7983L247.781 71.9053L246.069 72.3333L242.324 73.9383L240.826 74.1523L239.435 73.8313L238.258 73.4033L236.439 73.0823L235.048 73.2963L233.229 73.8313L231.41 74.0453L229.163 74.6873L226.381 76.0783L225.632 76.7203L224.562 78.1113L223.492 79.0743L222.208 79.2883L218.998 79.1813L217.928 79.6093L217.286 80.3583L216.965 81.3213L216.109 85.2803V86.8853L216.43 87.5273L217.072 88.0623L220.603 89.1323L221.352 89.6673L221.566 90.5233L221.245 91.2723L220.282 93.1983L217.179 94.2683L215.039 93.3053L214.29 92.4493L213.541 92.3423L204.232 94.6963L201.664 95.7663L200.059 97.1573L199.845 98.5483L199.738 100.046L199.524 101.223L198.347 102.4L196.314 103.149L193.318 103.577L191.713 103.47L190.322 102.828L185.721 97.9063L183.902 96.5153L181.869 95.4453L176.519 93.4123L173.416 91.4863L171.811 91.5933L167.959 92.8773L166.247 92.3423L162.93 90.2023L159.613 89.9883L156.51 90.2023L154.798 89.7743L153.621 89.0253L153.086 87.6343L152.337 86.2433L150.946 84.8523L149.662 84.4243H146.559L139.283 85.6013L137.571 86.1363L135.324 87.0993L134.04 88.3833L133.184 89.9883L132.542 91.7003L131.579 95.7663L130.616 98.2273L128.476 100.795L126.657 101.865L124.838 102.293L118.525 102.079L116.171 99.9393L114.352 98.8693L112.533 98.1203L101.726 93.6263L98.6228 92.9843L96.6968 93.4123L95.3058 92.9843L79.1488 85.7083L76.4738 84.9593L64.3828 85.2803L63.4198 85.6013L61.3868 86.6713L57.8558 87.7413L56.4648 87.8483L55.2878 87.6343L42.4478 84.7453L39.9868 85.4943L36.8838 84.4243L23.2948 74.6873L20.1918 73.4033L17.0888 73.8313L12.8088 76.9343L10.6688 78.9673L7.8868 78.3253L5.85379 77.2553L2.0018 73.4033L1.4668 71.3703L2.64379 69.3373L6.17479 66.0203L9.27779 62.1683L9.91979 60.6703L9.7058 59.7073L9.17079 58.8513L8.9568 57.4603L9.59879 54.8923L10.6688 52.3243L12.0598 50.0773L13.5578 48.6863L18.1588 51.6823L19.7638 51.8963L21.0478 51.1473L22.0108 49.8633L22.2248 48.2583L21.3688 46.7603L17.9448 43.7643L16.9818 42.4803L16.1258 37.5583L19.6568 35.3113L28.1098 34.0273L29.6078 32.4223L30.1428 30.4963L29.9288 25.2533L30.1428 22.4713L30.9988 21.1873L34.6368 19.9033L36.2418 18.8333L37.4188 17.2283L39.5588 13.3763L41.1638 12.5203L43.3038 13.1623L45.6578 14.2323L47.6908 14.6603L49.4028 13.9113L50.9008 12.4133L52.1848 10.5943L53.2548 8.56131L54.9668 7.06332L57.3208 6.95631L61.9218 8.56131L63.5268 7.81231L64.5968 7.70531L65.5598 8.24031L69.4118 11.5573L70.5888 11.9853L72.3008 11.6643L82.8938 4.81631L86.1038 3.74631L92.8448 3.42531L96.2688 2.14131L97.8738 1.82031L99.3718 2.56931L100.87 3.53231L102.475 4.28131L108.36 5.77931L119.595 11.9853L122.698 12.9483L124.196 12.7343L126.978 11.3433L128.476 11.0223L140.888 11.5573L147.308 14.1253L158.757 21.8293L162.074 22.5783L169.136 22.4713L182.832 25.7883L185.828 27.5003L188.182 30.0683L191.499 36.2743L193.96 38.6283L197.277 40.1263L200.487 41.0893L203.804 41.1963L216.216 39.0563L220.496 39.2703L224.134 40.7683L226.06 42.2663L227.665 43.2293L229.377 43.6573L236.332 44.1923L238.579 44.9413L239.97 46.7603L239.756 50.7193L239.863 53.6083L240.933 55.3203L249.814 56.8183L255.592 59.1723L258.267 58.6373V56.1763Z" fill="#AB3D51" fill-opacity="0.4" stroke="white" stroke-width="2.14" stroke-linecap="round" stroke-linejoin="round"/>
</svg>
