<svg width="324" height="122" viewBox="0 0 324 122" fill="none" xmlns="http://www.w3.org/2000/svg">
<path d="M270.817 9.76321L274.348 9.5492L279.056 7.73022L287.616 5.3762L289.114 5.59022L290.077 6.55321L290.826 8.4792L290.719 9.76321L290.077 12.1172V13.4012L290.291 14.4712L290.933 15.8622L290.719 17.0392L290.077 17.8952L289.114 18.4302L288.579 18.9652L288.9 19.8212L289.756 20.6772L293.822 22.3892L295.213 23.4592L295.855 24.7432L295.962 26.7762L295.32 28.1672L293.287 29.9862L292.859 30.5212L293.073 31.1632L296.176 32.6612L297.139 33.5172L297.674 34.4802L297.781 35.7642L297.46 36.6202L297.032 37.4762L296.925 38.4392L297.246 39.7232L298.102 41.6492L298.316 43.0402L297.995 44.2172L297.46 45.2872L297.032 46.4642L296.818 47.5342L296.925 48.3902L297.246 49.1392L298.316 49.6742L300.777 50.2092L302.168 50.7442L303.773 51.8142L304.843 52.6702L305.806 54.1682L307.304 57.2712L309.337 60.4812L310.942 61.2302H311.905L313.617 59.9462L314.58 59.5182L315.543 59.7322L316.185 60.4812L316.72 63.1562L317.255 64.4402L318.539 65.6172L320.679 68.1852L322.819 72.2512L321.535 73.8562L321.107 75.2472L320.679 75.8892L319.181 77.0662L315.864 78.7782L311.049 80.3832L306.448 82.5232L303.88 84.7702L302.703 85.5192L301.312 86.1612L298.209 87.0172L296.069 87.9802L292.645 88.6222L286.546 87.5522L283.55 87.8732L281.945 88.3012L279.912 89.1572L278.842 89.3712L277.879 89.2642L275.953 87.9802L275.204 87.6592L273.813 87.8732L272.315 87.7662L270.282 87.3382L268.998 86.8032L266.858 85.1982L265.574 84.2352L264.076 83.5932L249.845 80.5972L248.347 80.0622L246.956 79.3132L246.207 78.5642L245.672 76.8522L244.923 76.3172L243.532 75.9962H241.82L240.643 76.4242L239.787 77.0662L238.824 78.5642L237.647 79.7412L235.935 80.8112L228.445 82.6302L226.091 84.7702L224.058 88.8362L223.737 89.6922L222.988 93.2232L222.132 95.3632L220.527 93.9722L217.21 91.9392L215.498 92.1532L212.181 93.6512L209.399 94.1862L208.436 94.5072L207.794 95.0422L206.403 96.4332L205.761 97.0752L202.337 98.8942L201.053 99.8572L197.95 103.495L196.88 104.244H195.703L190.139 103.174L186.073 103.388L182.007 104.458L178.904 106.598L176.871 110.129L175.48 114.195L173.661 117.619L170.558 119.224L167.883 118.475L165.529 116.977L163.389 116.014L161.57 116.87L160.393 118.261L159.644 118.475L158.788 118.368H157.29L156.113 118.796L153.224 120.401L150.549 120.829L147.553 120.294L144.985 118.796L143.594 116.228V114.623L144.022 113.018L144.236 111.199L143.701 109.487L142.738 108.631L140.491 107.668L139.421 106.812L137.495 100.713L136.211 98.0382L133.857 96.2192L132.145 96.0052L128.614 96.6472L126.902 96.5402L125.725 95.7912L123.478 93.8652L122.194 93.3302L120.482 93.5442L117.379 94.7212L115.774 95.0422L114.811 95.3632L113.741 96.7542L113.206 97.1822L112.243 97.0752L110.21 96.5402L109.14 96.3262L107.963 96.8612L99.2958 103.174L97.5838 103.602L95.8718 102.96L95.7648 101.248L96.8348 96.7542L96.7278 94.6142L96.2998 92.2602L95.4438 90.9762L93.9458 92.1532L91.1638 98.0382L90.4148 99.2152L88.8098 99.7502L87.2048 99.2152L83.9948 97.2892L81.9618 96.7542H79.8218L77.8958 97.3962L76.1838 98.8942L74.6858 101.034L73.9368 101.676L70.9408 100.392L67.0888 99.9642L59.5988 101.462L55.7468 100.285L51.7878 98.0382L47.9358 96.7542L43.9768 96.2192L35.5238 96.7542L33.8118 97.5032L30.6018 100.285L28.9968 101.355L27.1778 101.997L25.3588 102.211H23.2188L19.0458 102.853L17.0128 102.211L14.6588 99.7502L14.1238 99.4292L13.2678 99.7502L12.6258 101.569L12.0908 102.532L8.23883 104.03L6.84783 101.034L7.38283 86.0542L6.95483 83.7002L6.31283 81.5602L4.92182 79.8482L3.20982 78.4572L1.71182 76.7452L1.06982 74.3912L1.39082 69.4692L2.46082 64.6542L6.84783 51.0652L8.77383 46.8922L9.20183 45.7152V44.8592L9.52283 44.6452L10.9138 44.8592L13.8028 48.0692L18.4038 56.0942L27.7128 52.7772L27.6058 51.0652L25.3588 46.9992L25.4658 46.1432L25.1448 44.5382L24.8238 43.7892L23.9678 39.7232L24.6098 36.5132L26.2148 33.6242L28.1408 30.7352L28.4618 29.8792L28.8898 27.6322L29.3178 27.0972L30.0668 27.4182L31.1368 29.3442L31.7788 29.8792L33.2768 30.0932L34.8818 29.8792L72.9738 16.1832L76.3978 16.5042L90.2008 25.5992L92.3408 26.2412L97.1558 26.0272L99.2958 26.1342L101.436 27.2042L102.827 28.8092L104.111 30.5212L105.609 32.2332L107.321 33.1962L110.745 33.6242L114.49 35.2292L122.194 36.4062L124.548 37.1552L126.795 38.7602L127.865 41.0072L126.367 43.7892L124.869 44.8592L123.264 45.7152L121.766 46.7852L120.482 48.4972L119.626 50.8512L119.305 53.0982L120.054 54.8102L122.194 55.5592L123.05 54.3822L123.799 51.6002L124.441 50.5302L125.618 49.8882L129.684 49.7812L131.824 49.0322L133.75 47.7482L135.355 46.0362L136.746 43.7892L137.495 39.4022L137.388 35.4432L137.816 32.2332L140.384 29.7722L146.59 27.6322L147.981 26.8832L151.726 23.6732L152.689 22.4962H153.224L154.08 23.1382L155.792 22.2822L156.541 21.6402L157.825 21.2122L162.961 22.3892L165.957 21.3192L169.167 18.9652L170.772 15.8622L168.846 12.7592L172.27 9.1212L177.941 8.15821L189.176 9.87022L192.279 9.5492L193.563 7.4092L194.419 4.52022L195.917 2.27321L197.308 1.84521L198.271 2.5942L199.234 3.87821L200.197 5.16219L201.481 5.69719L203.086 5.8042L206.189 5.48321L208.115 5.69719L211.111 8.4792L215.498 9.87022L216.461 11.3682L217.21 13.2942L218.922 15.0062L221.062 16.2902L223.202 17.1462L227.803 18.0022L230.157 17.7882L231.013 16.3972L231.227 14.1502L231.869 11.6892L233.581 10.1912L235.293 11.5822L236.684 14.4712L237.326 17.0392V22.2822L237.968 24.2082L239.894 25.0642L241.178 24.7432L246.314 21.6402L247.919 20.1422L248.882 18.4302L250.701 14.3642L253.697 11.3682L257.228 11.1542L261.08 12.1172L264.932 12.4382L266.537 12.0102L268.463 12.6522L270.068 12.8662L271.352 12.5452L271.994 11.1542L271.459 10.1912L270.817 9.76321ZM189.176 37.5832L188.427 37.0482L183.077 34.8012L180.402 32.9822L178.797 30.9492L177.406 27.4182L175.801 24.3152L173.554 23.0312L170.558 24.6362L168.846 28.5952L168.311 30.8422L168.204 32.9822L168.739 35.0152L171.093 40.2582L172.27 41.8632L173.554 42.5052L176.122 43.0402L177.192 44.0032L177.62 47.6412L173.554 54.1682L173.661 57.3782L174.838 58.0202L176.229 57.1642L177.62 55.8802L178.69 55.1312L180.509 55.2382L180.937 56.3082L181.258 57.6992L182.328 58.7692L183.826 58.8762L188.32 57.5922H191.637L192.921 57.0572L193.991 55.5592L194.205 51.6002L189.925 46.9992L189.711 43.6822L191.209 42.1842L195.703 39.0812L196.345 37.0482L195.703 35.8712L194.419 35.6572L191.958 36.2992L190.353 37.4762L189.176 37.5832ZM246.1 55.2382L247.063 53.6332L249.203 45.6082L248.775 44.3242L246.421 45.0732L242.89 47.7482L241.178 48.4972L238.717 48.7112L237.219 50.5302L238.182 52.3492L240.215 53.8472L242.141 54.8102L244.602 55.5592L246.1 55.2382ZM135.997 61.8722L124.227 57.9132H122.836L122.729 59.8392L123.371 61.8722L124.655 63.7982L127.972 66.0452L128.935 67.3292L131.717 72.0372L132.252 72.4652L137.281 68.3992L140.063 67.0082L143.166 66.3662L144.236 65.5102L144.343 63.1562L143.594 60.9092L142.417 60.5882L139.421 61.9792L135.997 61.8722Z" fill="#AB3D51" fill-opacity="0.4" stroke="white" stroke-width="2.14" stroke-linecap="round" stroke-linejoin="round"/>
</svg>
