<svg width="439" height="283" viewBox="0 0 439 283" fill="none" xmlns="http://www.w3.org/2000/svg">
<path d="M437.799 168.689L435.231 173.718L433.84 175.751L432.449 177.356L422.605 185.809L420.893 186.451L418.967 186.237L415.115 184.525L402.489 182.706L399.065 182.813L395.748 183.883L383.015 190.731L381.517 191.266L379.698 191.48L374.776 191.159L367.286 193.299L364.611 193.192L361.722 191.694L356.265 189.34L350.808 188.27L347.705 188.377L342.141 190.196L330.05 189.34L327.161 188.377L322.025 185.702L319.35 185.167L308.971 187.628L305.119 189.233L302.658 191.694L301.267 193.727L297.629 196.402L296.024 198.007L295.061 200.468L295.489 202.929L296.131 205.39L296.452 207.958L295.596 210.526L294.098 212.131L290.246 214.271L287.036 217.16L284.468 221.012L282.863 225.613L282.221 238.56L281.9 240.7L280.83 242.519L275.694 246.478L273.233 250.437L270.13 259.425L267.883 263.063L265.208 265.631L256.862 271.195L253.759 274.298L252.154 274.833L250.763 273.228L249.265 265.417L248.302 263.277L245.413 262.421L242.631 265.524L239.742 269.697L236.425 271.73L234.606 271.302L230.968 269.269L229.149 268.627L226.795 268.841L218.128 273.121L216.844 274.833L215.774 277.08L214.169 279.22L212.243 280.504L210.21 280.932L208.07 280.825L201.864 279.22L199.724 279.113L197.691 279.327L193.197 281.253L190.95 281.467L189.345 279.648L188.489 277.401L186.991 271.837L186.777 269.376L187.526 266.915L188.81 265.203L189.773 263.491L189.559 261.244L188.596 259.853L185.921 257.285L184.851 255.68L184.102 253.219L183.567 246.05L181.855 240.593L179.18 237.918H175.649L171.583 240.379L150.504 257.392L149.541 257.927L148.364 258.248L147.187 258.676L146.652 259.639L146.331 260.923L145.582 261.993L143.763 262.421L141.944 261.458L140.125 260.281L138.306 259.532L135.952 259.853L131.244 262.1L128.783 262.421L125.252 261.565L121.721 260.067L113.268 254.289L111.128 253.219L109.095 253.433L108.774 253.861L106.206 252.791L98.7162 252.898L97.0042 252.684L95.8272 252.363L95.2922 251.935L93.7942 249.902L86.6252 248.725L85.2342 247.976L84.4852 247.227L85.4482 244.338L85.5552 243.589V242.198L84.6992 240.486L83.4152 239.202L82.3452 238.56L68.9702 233.638L66.9372 232.354L62.9782 229.037L61.3732 227.111L60.6242 226.041L59.8752 224.436L59.1262 223.366L52.2782 216.732L50.6732 215.769L49.7102 214.806L49.1752 214.164L48.9612 211.917L48.7472 210.954L48.2122 209.563L47.6772 208.707L47.0352 208.065L44.5742 206.46L33.9812 197.044L32.2692 194.476L40.8292 184.097L42.1132 182.064L42.2202 180.994L34.8372 174.895L34.6232 173.932L34.8372 173.076L35.5862 171.257L36.2282 170.508L36.9772 170.08L38.4752 170.187H39.4382L40.2942 169.759L41.3642 168.475L42.7552 167.512L44.3602 167.191L45.1092 166.763L47.6772 165.051L48.1052 164.944L53.0272 164.73L60.7312 163.018L62.1222 163.232L63.8342 163.981L64.9042 164.302L66.2952 163.981L66.9372 163.339L65.7602 161.948L63.1922 158.203L62.6572 157.24L61.3732 154.03V152.96L61.8012 152.425L62.8712 151.89L70.5752 149.108L73.0362 147.61L74.6412 146.968L76.0322 146.54L82.0242 145.577L83.6292 145.042L87.0532 143.33L89.9422 142.367L90.7982 141.725L91.5472 140.976L94.9712 136.268L95.5062 135.091L96.6832 131.453L97.8602 126.531L98.7162 123.856L99.0372 122.465L99.2512 118.185L99.4652 116.901L100.749 114.012L101.07 113.156L100.963 111.872L100.107 111.016L97.3252 109.197H95.3992L94.6502 109.411L93.7942 110.16L93.4732 111.337L92.2962 112.3L80.2052 117.543L78.6002 117.757L76.9952 117.115L75.8182 117.008L73.8922 117.115L72.9292 117.543L70.8962 119.255L68.8632 120.325L67.5792 120.432L66.6162 120.111L65.3322 119.255L60.0892 118.613L55.1672 118.827L52.9202 119.148L51.4222 119.683L50.4592 120.325H49.1752L48.6402 120.004L47.1422 118.613L46.0722 117.864L44.7882 117.329L42.5412 117.008L40.9362 117.115L37.8332 118.078L36.7632 118.185L35.5862 117.971L33.5532 116.901L31.4132 114.868L30.9852 114.547L29.0592 114.012L28.4172 113.584L27.4542 112.3L26.8122 111.551L25.8492 111.123L24.6722 110.695L22.9602 111.016L22.4252 110.053L21.0342 106.415L20.0712 104.81H19.6432L19.4292 104.061L19.9642 103.633L22.4252 101.386L22.9602 100.958L24.2442 100.744L28.2032 101.279L30.0222 101.814L30.8782 102.135L31.7342 102.777L32.5902 103.633L33.1252 104.596L33.5532 105.773L33.6602 106.736V108.448L33.4462 110.374L34.0882 111.444L35.2652 112.3L38.4752 113.37L39.7592 113.477L40.4012 113.049V112.086L39.2242 101.814L38.6892 99.0319L38.2612 97.9619L37.8332 97.3199L37.1912 96.9989L34.0882 96.2499L29.9152 96.0359L26.4912 95.2869L25.9562 94.7519V94.1099L26.4912 87.0479L26.3842 85.0149L26.1702 83.0889L25.4212 81.3769L24.5652 80.6279L22.3182 79.8789L21.2482 79.3439L20.4992 79.2369L17.9312 80.6279L17.2892 80.7349L16.7542 80.5209L14.9352 78.9159L11.7252 77.5249L11.4042 77.7389L11.5112 79.0229L11.0832 80.6279L10.5482 81.3769L9.79922 82.0189L8.9432 82.2329L8.08721 82.1259L7.01721 81.5909L5.84021 80.6279L3.7002 77.8459L2.95119 77.2039L1.5602 76.1339L1.34619 75.0639L2.0952 74.6359H3.37922L4.55619 74.2079L5.09119 73.6729L6.05422 71.7469L8.30119 68.5369L8.9432 66.9319L20.4992 65.7549L22.1042 65.8619L23.9232 65.1129L27.8822 61.9029L28.8452 63.5079L29.7012 65.8619L30.1292 66.5039L31.5202 67.8949L32.5902 69.9279L33.7672 71.1049L35.2652 71.7469L36.8702 71.6399L39.2242 70.8909H39.7592L40.4012 71.6399L40.5082 73.2449L39.9732 76.1339L40.1872 77.7389L40.7222 78.8089L41.5782 79.1299L42.2202 78.5949L42.6482 77.8459L43.1832 74.6359L43.3972 73.5659L43.8252 72.7099L44.6812 71.8539L47.3562 69.9279L47.9982 69.7139L48.9612 69.9279L50.2452 70.9979L51.4222 71.5329H52.1712L53.2412 70.9979L54.3112 70.1419L54.9532 69.2859L55.2742 68.3229L55.0602 66.0759L55.1672 65.1129L55.4882 64.2569L56.2372 63.0799L58.6982 60.4049L59.1262 59.3349L59.2332 58.2649L58.8052 56.1249L58.9122 54.5199L59.2332 53.2359L60.0892 51.7379L61.2662 50.0259L62.2292 49.1699L63.4062 48.3139V47.3509L62.7642 46.4949L61.9082 46.0669L59.4472 45.4249L59.2332 43.9269L59.1262 42.5359L60.8382 31.6219L61.1592 30.3379L62.5502 29.8029H64.9042L68.7562 30.4449L70.3612 31.1939L71.4312 31.5149L88.5512 28.8399L90.7982 28.9469L91.3332 29.4819L92.0822 31.4079L93.3662 31.3009L95.6132 27.9839L99.3582 22.8479L101.284 21.8849L108.774 21.1359H109.523L111.663 21.9919L112.412 22.2059L113.054 22.0989L113.589 21.6709L113.482 20.2799L112.733 18.5679L108.239 11.2919L106.42 6.58389L107.49 5.94189L121.507 3.69489L122.791 3.15989L124.075 1.98289L124.931 2.08989L125.894 2.51789L128.462 5.72789L131.565 4.65789L132.849 3.58789L133.277 3.15989L134.775 2.73189L138.627 4.01589L153.393 4.65789L154.463 4.44389L157.245 3.48089L158.422 2.62489L159.813 2.30389L163.772 4.22989L164.521 4.44389L165.912 4.33689L172.974 2.62489L174.579 1.87589L175.114 1.76889L175.97 2.73189L176.398 3.90889L176.505 4.65789L176.184 7.76089L176.826 7.86789L178.217 7.43989L183.246 4.12289L184.53 2.62489L184.851 2.08989L186.67 1.23389L186.884 2.41089L188.168 6.69089L188.917 7.65389L191.378 7.86789L192.769 8.40289L193.411 8.83089L196.193 10.1149L197.37 11.2919L198.868 14.3949L199.724 15.3579L200.58 15.4649L207.642 15.0369L209.354 14.1809L210.21 13.4319L210.959 12.2549L211.601 10.9709L212.029 10.4359H213.42L215.881 11.0779L216.737 11.5059L217.379 12.2549L217.807 13.7529L218.128 15.6789V17.0699L218.663 18.3539L220.375 19.5309L221.552 20.8149L222.087 22.0989L222.515 23.3829L222.408 24.9879L220.803 29.5889L220.589 30.3379L220.054 33.5479L220.161 34.9389L220.589 35.4739L221.338 35.7949L222.943 36.2229L223.371 36.8649L223.478 37.8279L223.264 39.5399L223.585 40.2889L224.334 41.1449L227.865 43.4989L229.363 44.8899L230.326 46.4949L230.54 47.5649V48.5279L230.005 50.8819L229.363 52.1659L228.4 53.1289L226.474 54.8409L224.334 56.2319L223.478 57.3019L223.05 58.6929L223.371 59.3349L223.906 59.9769L225.404 60.4049L227.116 60.2979L234.499 58.1579L236.853 57.0879L237.388 56.9809L238.351 57.3019L239.635 58.0509L241.989 59.8699L243.38 60.6189L244.45 61.0469L245.841 60.9399L248.195 60.0839L249.693 60.1909L253.438 61.2609L255.578 62.6519L258.467 63.8289L259.216 63.9359L266.385 64.1499L267.883 64.4709L275.801 68.7509L278.904 69.9279L280.402 70.3559L281.793 70.2489L284.04 69.0719H285.11L285.431 69.4999L283.505 73.7799L282.649 76.9899L282.328 79.8789L281.9 80.5209L281.044 81.0559L278.048 81.3769L271.949 80.9489L269.809 81.1629L269.06 81.3769L267.883 82.0189L266.92 82.8749L265.422 85.6569L267.027 87.5829L267.455 88.9739L267.883 89.4019L280.83 90.0439L282.756 89.6159L284.361 88.7599L285.003 88.5459L286.073 88.8669L287.571 89.2949L290.139 90.6859L292.279 92.0769L292.921 93.1469V94.5379L292.493 96.8919L292.172 97.5339L290.674 99.9949L290.353 100.744L289.818 102.349L289.604 104.596L288.962 106.95L287.892 108.983L286.287 111.337L285.752 112.621L286.073 113.156L286.715 113.37L288.32 112.942L290.139 112.193H290.888L292.065 112.728L293.135 113.798L293.67 114.975L294.312 115.296L295.061 115.617L299.876 116.259L302.123 116.045L304.156 115.51L307.152 114.119L308.329 113.691H309.506L316.354 114.333L321.811 115.724L339.252 115.296L340.215 115.082L341.606 114.44L343.532 113.049L344.281 112.621L347.491 111.765L349.417 111.016L350.915 109.946H351.878L352.627 112.407L352.092 117.864L351.343 121.074L349.631 125.568L348.882 126.21L348.24 126.531L347.384 126.424L346.314 125.889L345.993 126.424L347.491 130.49L347.919 133.058L348.026 134.449L349.417 135.84L354.339 138.087L357.549 140.12L358.833 141.297L358.94 141.832L358.619 142.902L357.014 145.256L356.693 146.647L356.479 148.145L355.409 152.318L355.088 153.067L354.232 154.137L352.841 155.421L352.52 156.063V156.598L352.948 157.026L356.051 156.598L371.994 152.104L375.311 150.499L376.381 150.285L379.591 150.392L381.089 150.713L381.945 151.462L382.266 152.211L382.159 153.709L380.875 156.598L380.447 158.096V159.487L380.768 160.771L381.089 161.306L381.945 161.734L383.229 161.948L392.324 161.841L404.736 165.158H411.905L416.506 164.623L418.86 163.981L423.247 161.52L424.638 160.343L426.778 159.059L427.848 158.524H429.453L431.272 159.273L432.021 159.915L432.663 160.878L433.412 162.804L434.161 164.837L434.696 165.907L435.766 167.298L437.799 168.689Z" fill="#AB3D51" fill-opacity="0.4" stroke="white" stroke-width="2.14" stroke-linecap="round" stroke-linejoin="round"/>
</svg>
