<svg width="449" height="183" viewBox="0 0 449 183" fill="none" xmlns="http://www.w3.org/2000/svg">
<path d="M288.282 10.7086L288.924 12.4206L289.673 13.2766L290.315 13.0626H291.385L292.669 13.3836L297.698 15.3096L301.978 16.0586L303.155 16.4866L304.546 17.9846L305.188 18.3056H306.793L307.863 18.6266L309.04 19.0546L310.752 20.1246L311.608 20.8736L312.571 22.0506L312.999 23.2276L313.641 25.7956L314.283 26.4376L317.065 25.6886L319.098 26.0096L322.201 27.2936H323.592L326.481 26.6516L327.872 26.5446L329.156 26.7586L338.037 30.2896L339.107 30.3966L340.605 30.1826L341.461 29.7546L341.889 29.3266L343.28 27.6146L343.815 27.1866L346.062 26.0096L347.239 25.6886L348.095 25.7956L350.128 26.2236L350.984 26.4376L352.375 27.1866L353.338 29.0056L354.943 34.4626L354.301 36.0676L352.054 39.2776L351.091 41.2036L350.556 41.7386L349.379 42.1666H348.095L347.346 42.5946L347.56 43.6646L348.951 44.7346L349.7 45.3766L351.84 48.1586L353.017 49.1216L354.087 49.6566L354.943 49.7636L355.799 49.5496L356.548 48.9076L357.083 48.1586L357.511 46.5536L357.404 45.2696L357.725 45.0556L360.935 46.4466L362.754 48.0516L363.289 48.2656L363.931 48.1586L366.499 46.7676L367.248 46.8746L368.318 47.4096L370.565 48.1586L371.421 48.9076L372.17 50.6196L372.384 52.5456L372.491 54.5786L371.956 61.6406V62.2826L372.491 62.8176L375.915 63.5666L380.088 63.7806L383.191 64.5296L383.833 64.8506L384.261 65.4926L384.689 66.5626L385.224 69.3446L386.401 79.6166V80.5796L385.759 81.0076L384.475 80.9006L381.265 79.8306L380.088 78.9746L379.446 77.9046L379.66 75.9786V74.2666L379.553 73.3036L379.125 72.1266L378.59 71.1636L377.734 70.3076L376.878 69.6656L376.022 69.3446L374.203 68.8096L370.244 68.2746L368.96 68.4886L368.425 68.9166L365.964 71.1636L365.429 71.5916L365.643 72.3406H366.071L367.034 73.9456L368.425 77.5836L368.96 78.5466L370.672 78.2256L371.849 78.6536L372.812 79.0816L373.454 79.8306L374.417 81.1146L375.059 81.5426L376.985 82.0776L377.413 82.3986L379.553 84.4316L381.586 85.5016L382.763 85.7156L383.833 85.6086L386.936 84.6456L388.541 84.5386L390.788 84.8596L392.072 85.3946L393.142 86.1436L394.64 87.5346L395.175 87.8556H396.459L397.422 87.2136L398.92 86.6786L401.167 86.3576L406.089 86.1436L411.332 86.7856L412.616 87.6416L413.579 87.9626L414.863 87.8556L416.896 86.7856L418.929 85.0736L419.892 84.6456L421.818 84.5386L422.995 84.6456L424.6 85.2876L426.205 85.0736L438.296 79.8306L439.473 78.8676L439.794 77.6906L440.65 76.9416L441.399 76.7276H443.325L446.107 78.5466L446.963 79.4026L447.07 80.6866L446.749 81.5426L445.465 84.4316L445.251 85.7156L445.037 89.9956L444.716 91.3866L443.86 94.0616L442.683 98.9836L441.506 102.622L440.971 103.799L437.547 108.507L436.798 109.256L435.942 109.898L433.053 110.861L429.629 112.573L428.024 113.108L422.032 114.071L420.641 114.499L419.036 115.141L416.575 116.639L408.871 119.421L407.801 119.956L407.373 120.491V121.561L408.657 124.771L409.192 125.734L411.76 129.479L412.937 130.87L412.295 131.512L410.904 131.833L409.834 131.512L408.122 130.763L406.731 130.549L399.027 132.261L394.105 132.475L393.677 132.582L391.109 134.294L390.36 134.722L388.755 135.043L387.364 136.006L386.294 137.29L385.438 137.718H384.475L382.977 137.611L382.228 138.039L381.586 138.788L380.837 140.607L380.623 141.463L380.837 142.426L388.22 148.525L388.113 149.595L386.829 151.628L378.269 162.007L367.141 156.229L366.713 155.587L366.285 154.624L366.071 152.698L366.178 150.986L366.071 149.809L365.643 148.846L363.717 147.348L363.075 146.599L362.861 145.422L363.182 143.603L363.075 142.961L362.647 142.533L361.577 142.105L360.079 142.319L358.474 144.245L353.338 152.805L352.696 153.447L349.058 155.908L347.881 157.085L347.025 158.155L346.704 159.225L346.597 160.188L346.704 162.863L346.597 164.04L345.634 164.468L344.35 164.147L342.424 162.542L341.247 162.007L339.535 161.793L338.893 161.472L338.572 160.937L338.251 158.797L337.502 157.941L335.041 157.727L334.506 157.085L335.041 155.801L336.218 154.41L344.457 146.599L344.992 145.743V144.459L344.564 143.496L342.21 140.5H341.675L338.786 141.035L337.716 141.677L337.395 142.747L337.93 144.673L338.037 145.743L337.716 146.278L337.181 146.599L335.79 147.027L334.72 147.134L326.481 146.385L323.271 146.492L322.201 146.171L321.238 147.241L319.419 150.237L318.777 151.093L317.6 151.842L316.851 152.591L316.209 153.768L315.353 155.587L314.497 155.908L313.106 156.122L312.571 155.587L311.929 154.41L310.966 153.233L310.538 152.912L309.361 153.233L304.332 156.978L303.476 157.941L302.727 158.904L302.299 160.402L302.406 161.472L302.62 163.291L302.192 165.538V166.18L302.941 168.427V169.925L302.62 170.674L301.764 171.637L300.48 172.707L294.809 175.275L292.134 178.057L290.422 179.555L288.282 179.02L282.611 179.448L280.578 178.057L279.294 176.131L277.689 175.061L270.52 178.378L266.026 181.588L264.849 181.802L265.063 179.662L264.635 175.81L260.89 174.847L248.478 176.024L244.305 175.489L240.56 173.777L237.564 170.46L233.391 164.04L231.465 163.291L229.111 163.077L227.399 162.221V159.225L227.506 157.834L226.757 156.871L221.621 156.443L218.839 155.587L216.806 154.303L214.024 149.916L212.74 149.06L211.028 150.451L210.493 151.414L209.316 154.838L208.674 155.373L205.036 155.908L196.583 158.476L197.867 155.48L198.509 153.126V150.665L197.653 143.924L197.439 140.179L197.011 136.755L195.941 134.294L193.48 132.796L191.126 133.117L188.772 134.615L186.739 136.541L183.85 138.253L182.138 137.397L180.64 135.257L178.393 133.331L170.689 134.615L168.121 133.438L167.586 127.981L167.907 122.417L167.265 118.244L165.767 114.392L156.672 100.696L155.923 100.054L155.067 99.7326L154.425 100.268V102.943L153.676 103.692L152.713 103.264L152.178 101.124L151.108 100.696L150.68 101.445L150.359 102.836L149.717 103.906L148.861 103.585L148.754 101.98L150.466 94.7036V92.0286L150.038 89.5676L148.754 87.7486L146.614 87.4276L144.474 88.2836L143.297 89.7816L141.371 94.7036L142.441 96.9506L145.116 100.482L145.437 102.836L145.009 105.404L143.725 109.684L140.408 116.746L137.733 119.528L134.523 120.17L130.243 118.351L125.642 113.964L124.358 113.643L123.716 115.355L124.572 137.611L124.037 141.998L121.897 143.924L115.263 138.146L112.802 141.356L111.839 143.817H110.555L109.271 142.533L108.308 140.714L107.131 135.899L106.061 134.294L103.707 134.08L101.781 135.257L101.46 136.969L101.995 139.323L102.209 141.998L101.246 144.566L99.6411 143.496L97.2871 139.323L95.6821 138.039L92.0441 137.611L90.3321 136.541L88.2991 135.043L86.1591 133.973L81.5581 133.117L77.3851 133.759L75.4591 133.545L73.7471 131.94L72.3561 130.014L70.7511 128.409L69.0391 127.125L67.2201 126.376L64.9731 126.59L63.1541 127.446L61.5491 127.767L60.3721 125.948L60.1581 123.701L61.6561 115.783L61.4421 113.108L60.4791 110.433L55.0221 101.017L53.4171 98.7696L51.5981 97.5926L48.2811 98.1276L36.5111 104.976L33.1941 106.26L30.8401 106.153L29.3421 104.762L26.9881 100.268L25.5971 98.4486L23.9921 96.9506L20.3541 94.7036L6.65811 93.2056L3.1271 91.2796L1.30811 87.1066L3.34111 83.7896L19.0701 74.4806L24.8481 69.8796L27.9511 68.3816L30.8401 66.4556L33.1941 63.0316L35.9761 56.8256L40.2561 51.9036L49.7791 43.6646L52.7751 41.8456L62.4051 40.6686L65.7221 39.3846L66.7921 37.2446L67.1131 29.7546L68.8251 24.9396L72.7841 23.8696L77.5991 24.0836L81.5581 23.1206L95.2541 12.8486L103.279 10.4946L106.81 8.03357L108.308 3.11158L107.987 3.00457L110.448 2.25557L123.288 5.14457L124.465 5.35857L125.856 5.25158L129.387 4.18158L131.42 3.11158L132.383 2.79057L144.474 2.46957L147.149 3.21857L163.306 10.4946L164.697 10.9226L166.623 10.4946L169.726 11.1366L180.533 15.6306L182.352 16.3796L184.171 17.4496L186.525 19.5896L192.838 19.8036L194.657 19.3756L196.476 18.3056L198.616 15.7376L199.579 13.2766L200.542 9.21057L201.184 7.49857L202.04 5.89357L203.324 4.60957L205.571 3.64658L207.283 3.11158L214.559 1.93457H217.662L218.946 2.36258L220.337 3.75357L221.086 5.14457L221.621 6.53557L222.798 7.28457L224.51 7.71258L227.613 7.49857L230.93 7.71258L234.247 9.85258L235.959 10.3876L239.811 9.10357L241.416 8.99658L244.519 10.9226L249.869 12.9556L251.902 14.0256L253.721 15.4166L258.322 20.3386L259.713 20.9806L261.318 21.0876L264.314 20.6596L266.347 19.9106L267.524 18.7336L267.738 17.5566L267.845 16.0586L268.059 14.6676L269.664 13.2766L272.232 12.2066L281.541 9.85258L282.29 9.95957L283.039 10.8156L285.179 11.7786L288.282 10.7086Z" fill="#AB3D51" fill-opacity="0.4" stroke="white" stroke-width="2.14" stroke-linecap="round" stroke-linejoin="round"/>
</svg>
