<svg width="526" height="631" viewBox="0 0 526 631" fill="none" xmlns="http://www.w3.org/2000/svg">
<g clip-path="url(#clip0_321_2425)">
<path d="M578 482.589H-53V482.904H578V482.589Z" fill="#EBEBEB"/>
<path d="M514.774 502.894H472.977V503.21H514.774V502.894Z" fill="#EBEBEB"/>
<path d="M291.804 498.944H275.537V499.26H291.804V498.944Z" fill="#EBEBEB"/>
<path d="M388.283 500.282H354.033V500.598H388.283V500.282Z" fill="#EBEBEB"/>
<path d="M471.714 491.183H400.903V491.498H471.714V491.183Z" fill="#EBEBEB"/>
<path d="M46.6854 505.784H13.2046V506.1H46.6854V505.784Z" fill="#EBEBEB"/>
<path d="M86.9435 505.784H57.9175V506.1H86.9435V505.784Z" fill="#EBEBEB"/>
<path d="M189.064 498.793H112.322V499.108H189.064V498.793Z" fill="#EBEBEB"/>
<path d="M246.094 426.304H2.4141C0.505136 426.3 -1.3245 425.54 -2.67317 424.189C-4.02183 422.838 -4.7793 421.007 -4.7793 419.098V76.5529C-4.76268 74.6549 -3.99787 72.8401 -2.65101 71.5027C-1.30414 70.1653 0.516018 69.4133 2.4141 69.41H246.094C248.005 69.41 249.838 70.1692 251.189 71.5206C252.54 72.872 253.3 74.7049 253.3 76.616V419.098C253.3 421.009 252.54 422.842 251.189 424.193C249.838 425.544 248.005 426.304 246.094 426.304ZM2.4141 69.6624C0.588812 69.6657 -1.16058 70.3932 -2.45007 71.685C-3.73957 72.9769 -4.4638 74.7276 -4.4638 76.5529V419.098C-4.4638 420.923 -3.73957 422.674 -2.45007 423.965C-1.16058 425.257 0.588812 425.985 2.4141 425.988H246.094C247.92 425.985 249.671 425.258 250.962 423.966C252.254 422.675 252.981 420.924 252.984 419.098V76.5529C252.981 74.7265 252.254 72.9758 250.962 71.6843C249.671 70.3928 247.92 69.6657 246.094 69.6624H2.4141Z" fill="#EBEBEB"/>
<path d="M519.077 426.304H275.385C273.475 426.3 271.644 425.54 270.293 424.189C268.942 422.839 268.182 421.008 268.179 419.098V76.5529C268.199 74.6538 268.966 72.839 270.315 71.5019C271.664 70.1648 273.485 69.4132 275.385 69.41H519.077C520.973 69.4166 522.79 70.17 524.134 71.5071C525.478 72.8442 526.241 74.6571 526.258 76.5529V419.098C526.258 421.004 525.502 422.833 524.156 424.184C522.81 425.535 520.984 426.297 519.077 426.304ZM275.385 69.6624C273.558 69.6657 271.808 70.3928 270.516 71.6843C269.225 72.9758 268.498 74.7265 268.494 76.5529V419.098C268.498 420.924 269.225 422.675 270.516 423.966C271.808 425.258 273.558 425.985 275.385 425.988H519.077C520.903 425.985 522.654 425.258 523.946 423.966C525.237 422.675 525.964 420.924 525.967 419.098V76.5529C525.964 74.7265 525.237 72.9758 523.946 71.6843C522.654 70.3928 520.903 69.6657 519.077 69.6624H275.385Z" fill="#EBEBEB"/>
<path d="M510.268 98.436H319.265V482.589H510.268V98.436Z" fill="#FAFAFA"/>
<path d="M448.834 147.654H380.686V242.72H448.834V147.654Z" fill="white"/>
<path d="M510.256 482.589H511.442L511.442 98.436H510.256L510.256 482.589Z" fill="#EBEBEB"/>
<path d="M500.791 482.589H499.529V109.163H329.992V482.589H328.73V107.901H500.791V482.589Z" fill="#E0E0E0"/>
<path d="M486.114 297.617H459.776C459.249 297.648 458.722 297.57 458.227 297.389C457.731 297.208 457.278 296.928 456.895 296.566C456.511 296.204 456.206 295.767 455.997 295.283C455.788 294.799 455.681 294.277 455.681 293.749C455.681 293.222 455.788 292.7 455.997 292.216C456.206 291.732 456.511 291.295 456.895 290.933C457.278 290.571 457.731 290.291 458.227 290.11C458.722 289.929 459.249 289.851 459.776 289.881H486.114C486.641 289.851 487.168 289.929 487.663 290.11C488.159 290.291 488.612 290.571 488.995 290.933C489.379 291.295 489.684 291.732 489.893 292.216C490.102 292.7 490.209 293.222 490.209 293.749C490.209 294.277 490.102 294.799 489.893 295.283C489.684 295.767 489.379 296.204 488.995 296.566C488.612 296.928 488.159 297.208 487.663 297.389C487.168 297.57 486.641 297.648 486.114 297.617ZM459.776 291.143C459.419 291.119 459.06 291.167 458.722 291.287C458.384 291.407 458.075 291.595 457.813 291.839C457.551 292.084 457.342 292.379 457.199 292.708C457.056 293.037 456.982 293.391 456.982 293.749C456.982 294.108 457.056 294.462 457.199 294.791C457.342 295.12 457.551 295.415 457.813 295.66C458.075 295.904 458.384 296.092 458.722 296.212C459.06 296.331 459.419 296.38 459.776 296.355H486.114C486.471 296.38 486.83 296.331 487.168 296.212C487.506 296.092 487.815 295.904 488.077 295.66C488.339 295.415 488.548 295.12 488.691 294.791C488.834 294.462 488.908 294.108 488.908 293.749C488.908 293.391 488.834 293.037 488.691 292.708C488.548 292.379 488.339 292.084 488.077 291.839C487.815 291.595 487.506 291.407 487.168 291.287C486.83 291.167 486.471 291.119 486.114 291.143H459.776Z" fill="#E0E0E0"/>
<path d="M195.286 206.261H17.6348V221.506H195.286V206.261Z" fill="#FAFAFA"/>
<path d="M195.273 221.506H19.9058V482.589H195.273V221.506Z" fill="#FAFAFA"/>
<path d="M195.286 482.589H208.158L208.158 206.274H195.286L195.286 482.589Z" fill="#F0F0F0"/>
<path d="M102.466 236.65H34.6333V390.93H102.466V236.65Z" fill="#F0F0F0"/>
<path d="M83.0814 236.65H67.1676L54.0176 390.917H69.9188L83.0814 236.65Z" fill="white"/>
<path d="M178.35 470.726H36.8419C36.0464 470.723 35.2843 470.405 34.7218 469.843C34.1592 469.28 33.8417 468.518 33.8384 467.722V403.36C33.8417 402.565 34.1592 401.803 34.7218 401.24C35.2843 400.678 36.0464 400.36 36.8419 400.357H178.35C179.146 400.36 179.908 400.678 180.47 401.24C181.033 401.803 181.35 402.565 181.354 403.36V467.722C181.35 468.518 181.033 469.28 180.47 469.843C179.908 470.405 179.146 470.723 178.35 470.726ZM36.8419 401.871C36.4647 401.875 36.1039 402.026 35.8372 402.293C35.5705 402.559 35.4192 402.92 35.4159 403.297V467.659C35.4192 468.036 35.5705 468.397 35.8372 468.664C36.1039 468.931 36.4647 469.082 36.8419 469.085H178.35C178.727 469.082 179.088 468.931 179.355 468.664C179.621 468.397 179.773 468.036 179.776 467.659V403.297C179.773 402.92 179.621 402.559 179.355 402.293C179.088 402.026 178.727 401.875 178.35 401.871H36.8419Z" fill="#F0F0F0"/>
<path d="M169.112 415.842C168.458 415.842 167.818 415.647 167.274 415.284C166.73 414.92 166.306 414.403 166.056 413.798C165.806 413.193 165.742 412.527 165.87 411.886C165.999 411.244 166.315 410.655 166.779 410.193C167.242 409.731 167.833 409.417 168.475 409.291C169.117 409.165 169.782 409.232 170.386 409.484C170.99 409.736 171.506 410.162 171.867 410.707C172.229 411.253 172.421 411.893 172.419 412.548C172.419 412.981 172.333 413.411 172.167 413.811C172 414.212 171.757 414.575 171.449 414.881C171.142 415.187 170.778 415.43 170.376 415.595C169.975 415.759 169.546 415.843 169.112 415.842ZM169.112 410.794C168.77 410.794 168.436 410.895 168.152 411.085C167.867 411.275 167.646 411.545 167.515 411.861C167.384 412.177 167.35 412.525 167.416 412.86C167.483 413.195 167.648 413.503 167.89 413.745C168.131 413.987 168.439 414.152 168.775 414.218C169.11 414.285 169.458 414.251 169.774 414.12C170.09 413.989 170.36 413.767 170.55 413.483C170.74 413.199 170.841 412.865 170.841 412.523C170.839 412.297 170.793 412.074 170.706 411.867C170.618 411.659 170.49 411.471 170.329 411.313C170.169 411.154 169.979 411.029 169.77 410.945C169.561 410.86 169.337 410.817 169.112 410.819V410.794Z" fill="#F0F0F0"/>
<path d="M36.3875 236.65H34.6333V390.93H36.3875V236.65Z" fill="#EBEBEB"/>
<path d="M180.558 236.65H112.726V390.93H180.558V236.65Z" fill="#F0F0F0"/>
<path d="M144.149 236.65H137.599L124.449 390.917H130.999L144.149 236.65Z" fill="white"/>
<path d="M154.006 236.65H147.457L134.294 390.917H140.844L154.006 236.65Z" fill="white"/>
<path d="M114.48 236.65H112.726V390.93H114.48V236.65Z" fill="#EBEBEB"/>
<path d="M195.273 221.506H19.9058V223.437H195.273V221.506Z" fill="#EBEBEB"/>
<path d="M230.104 95.5334H47.96V183.457H230.104V95.5334Z" fill="#FAFAFA"/>
<path d="M162.423 172.149C155.966 172.149 149.654 170.235 144.285 166.647C138.916 163.06 134.732 157.961 132.261 151.995C129.79 146.03 129.143 139.465 130.403 133.132C131.662 126.799 134.772 120.982 139.338 116.416C143.904 111.85 149.721 108.741 156.054 107.481C162.387 106.221 168.952 106.868 174.917 109.339C180.883 111.81 185.982 115.994 189.569 121.363C193.157 126.732 195.071 133.044 195.071 139.501C195.058 148.156 191.614 156.453 185.494 162.572C179.374 168.692 171.078 172.136 162.423 172.149ZM162.423 108.116C156.216 108.116 150.148 109.956 144.986 113.405C139.825 116.854 135.802 121.756 133.427 127.491C131.051 133.226 130.429 139.536 131.64 145.625C132.852 151.713 135.841 157.305 140.23 161.695C144.62 166.084 150.212 169.073 156.3 170.284C162.389 171.495 168.699 170.874 174.434 168.498C180.169 166.123 185.071 162.1 188.52 156.939C191.969 151.777 193.809 145.709 193.809 139.501C193.799 131.18 190.489 123.203 184.605 117.319C178.722 111.435 170.744 108.126 162.423 108.116Z" fill="white"/>
<path d="M198.883 116.319C200.419 112.201 200.692 107.719 199.665 103.446L196.258 103.333C197.017 107.481 196.503 111.762 194.781 115.612C182.376 115.511 180.18 128.598 170.273 125.708C166.737 124.812 163.05 124.679 159.458 125.317C157.964 125.545 156.488 125.878 155.041 126.314C141.916 129.734 125.889 137.911 123.037 150.191L126.078 150.771C126.078 150.771 128.059 141.66 141.222 135.16C139.971 136.805 139.042 138.672 138.483 140.663C130.394 170.42 185.253 165.183 199.804 154.797C217.598 142.164 210.014 120.71 198.883 116.319Z" fill="#EBEBEB"/>
<path d="M111.906 105.491H56.9331V108.999H111.906V105.491Z" fill="#EBEBEB"/>
<path d="M98.0238 114.438H56.9331V117.947H98.0238V114.438Z" fill="#EBEBEB"/>
<path d="M111.906 132.321H56.9331V135.829H111.906V132.321Z" fill="#EBEBEB"/>
<path d="M83.5108 141.268H56.9331V144.777H83.5108V141.268Z" fill="#EBEBEB"/>
<path d="M106.744 141.268H87.814V144.777H106.744V141.268Z" fill="#EBEBEB"/>
<path d="M101.179 150.216H56.9331V153.724H101.179V150.216Z" fill="#EBEBEB"/>
<path d="M111.906 159.151H56.9331V162.659H111.906V159.151Z" fill="#EBEBEB"/>
<path d="M288.257 482.589H236.376C235.789 482.588 235.222 482.373 234.781 481.986C234.34 481.598 234.055 481.064 233.978 480.481L223.504 397.126C223.463 396.787 223.494 396.442 223.596 396.116C223.698 395.789 223.867 395.488 224.094 395.231C224.32 394.975 224.598 394.77 224.91 394.629C225.222 394.488 225.56 394.414 225.902 394.413H298.732C299.074 394.414 299.412 394.488 299.723 394.629C300.035 394.77 300.313 394.975 300.539 395.231C300.766 395.488 300.936 395.789 301.037 396.116C301.139 396.442 301.17 396.787 301.129 397.126L290.655 480.481C290.581 481.065 290.296 481.601 289.855 481.989C289.413 482.377 288.845 482.59 288.257 482.589Z" fill="#EBEBEB"/>
<path opacity="0.7" d="M222.381 392.697C220.488 394.06 221.99 415.16 224.476 419.817C226.962 424.474 241.803 420.473 259.522 418.908C277.24 417.343 298.467 423.603 299.388 419.817C300.31 416.031 305.484 395.435 302.77 392.697C300.6 390.501 274.502 390.501 263.03 391.813C251.558 393.126 226.419 389.807 222.381 392.697Z" fill="#F5F5F5"/>
<path d="M262.5 539.581C397.638 539.581 507.189 533.185 507.189 525.295C507.189 517.405 397.638 511.009 262.5 511.009C127.362 511.009 17.8105 517.405 17.8105 525.295C17.8105 533.185 127.362 539.581 262.5 539.581Z" fill="#F5F5F5"/>
<path d="M153.968 127.942C144.439 118.994 128.728 117.278 122.847 126.591C116.966 135.905 120.323 145.748 108.258 156.072C100.055 163.126 106.138 184.744 152.933 182.763C175.081 181.829 167.585 158.785 166.991 147.894C166.398 137.003 166.36 123.676 153.968 127.942Z" fill="#263238"/>
<path d="M135.53 507.854L124.197 508.296L123.982 496.029L135.315 495.587L135.53 507.854Z" fill="#FFBE9D"/>
<path d="M123.49 505.948H136.299C136.525 505.946 136.745 506.021 136.922 506.161C137.099 506.301 137.222 506.498 137.271 506.718L139.492 516.877C139.543 517.125 139.538 517.381 139.477 517.626C139.416 517.872 139.301 518.1 139.14 518.295C138.979 518.49 138.776 518.647 138.546 518.753C138.317 518.859 138.067 518.912 137.814 518.909C133.334 518.833 131.163 518.568 125.522 518.568C122.051 518.568 113.053 518.934 108.258 518.934C103.462 518.934 102.856 514.189 104.812 513.76C113.646 511.829 118.783 509.179 121.61 506.643C122.128 506.185 122.799 505.938 123.49 505.948Z" fill="#263238"/>
<path opacity="0.2" d="M123.982 496.042L124.083 501.746L135.416 501.254L135.315 495.6L123.982 496.042Z" fill="black"/>
<path d="M107.274 260.792C104.75 274.397 107.653 340.891 111.502 370.258C116.626 409.254 121.926 499.802 121.926 499.802L137.07 498.894C137.07 498.894 140.856 403.537 137.764 372.227C139.518 331.931 143.859 261.55 143.859 261.55L107.274 260.792Z" fill="#AB3D51"/>
<path opacity="0.2" d="M141.348 305.404C141.878 295.194 134.646 286.121 131.731 305.404C129.889 317.658 133.7 339.137 138.697 354.307C139.467 338.519 140.452 320.939 141.348 305.404Z" fill="black"/>
<path d="M218.796 469.704L211.426 476.746L201.444 466.044L208.801 459.015L218.796 469.704Z" fill="#FFBE9D"/>
<path d="M209.496 476.935L217.068 466.561C217.191 466.381 217.379 466.255 217.592 466.208C217.805 466.161 218.029 466.197 218.216 466.309L227.05 471.508C227.268 471.653 227.454 471.84 227.598 472.058C227.741 472.275 227.84 472.52 227.887 472.777C227.934 473.034 227.929 473.297 227.872 473.552C227.815 473.807 227.707 474.047 227.555 474.26C224.867 477.831 223.39 479.409 220.071 483.977C218.027 486.779 215.667 490.64 212.853 494.527C210.038 498.414 206.189 495.625 207.022 493.745C210.808 485.302 209.206 482.955 209.004 478.929C208.939 478.228 209.112 477.525 209.496 476.935Z" fill="#263238"/>
<path opacity="0.2" d="M201.444 466.057L206.593 471.559L213.9 464.466L208.814 459.015L201.444 466.057Z" fill="black"/>
<path d="M124.841 261.158C124.841 261.158 141.146 346.974 145.386 380.291C147.91 400.193 203.564 471.799 203.564 471.799L213.067 461.791C213.067 461.791 192.699 409.368 168.165 378.272C167.194 341.825 171.333 281.83 157.249 261.827L124.841 261.158Z" fill="#AB3D51"/>
<path d="M110.529 195.358C110.529 202.728 110.189 209.959 109.646 217.266C109.103 224.573 108.384 231.842 107.21 239.162L106.996 240.537L106.706 242.089C106.487 243.107 106.247 244.104 105.986 245.08C105.431 247.011 104.724 248.866 104.093 250.658C102.713 254.172 101.145 257.61 99.3986 260.956C95.959 267.5 92.0403 273.781 87.6747 279.748C87.2138 280.366 86.5408 280.793 85.7848 280.945C85.0287 281.098 84.2429 280.966 83.5781 280.575C82.9132 280.184 82.4162 279.561 82.1824 278.826C81.9486 278.091 81.9944 277.296 82.3112 276.593V276.517C85.2769 270.106 88.1542 263.531 90.6656 257.019C91.9276 253.763 93.0508 250.469 94.0099 247.238C94.4642 245.623 94.868 244.02 95.1835 242.455C95.3476 241.673 95.4612 240.903 95.5748 240.146L95.701 239.023L95.8272 237.761C96.4708 230.769 96.8494 223.677 97.2027 216.572C97.5561 209.467 97.7202 202.299 97.9221 195.257V195.194C97.9489 193.52 98.6394 191.926 99.8416 190.761C101.044 189.597 102.66 188.958 104.333 188.985C106.007 189.011 107.601 189.702 108.765 190.904C109.93 192.106 110.569 193.722 110.542 195.395L110.529 195.358Z" fill="#FFBE9D"/>
<path d="M106.416 186.132C90.9187 190.663 92.9126 218.856 92.9126 218.856L114.947 224.787C114.947 224.787 118.607 204.141 118.279 196.733C117.951 189.035 114.96 183.646 106.416 186.132Z" fill="#AB3D51"/>
<path d="M83.9517 274.965L76.1904 281.565L87.0689 286.007C87.0689 286.007 90.4384 280.871 88.8735 275.999L83.9517 274.965Z" fill="#FFBE9D"/>
<path d="M77.566 291.636L82.5256 292.254C83.0766 292.323 83.6349 292.208 84.114 291.927C84.5931 291.647 84.9663 291.216 85.1758 290.702L87.0688 286.007L76.1904 281.565L75.3701 288.847C75.2952 289.507 75.4838 290.17 75.8949 290.692C76.306 291.214 76.9065 291.553 77.566 291.636Z" fill="#FFBE9D"/>
<path d="M101.405 193.465C100.711 221.733 107.211 242.367 107.286 260.792L157.249 261.827C156.883 243.377 157.034 231.337 164.972 198.273C165.317 196.833 165.358 195.336 165.093 193.88C164.827 192.423 164.26 191.037 163.429 189.812C162.598 188.586 161.52 187.547 160.265 186.762C159.009 185.976 157.604 185.461 156.138 185.249C153.147 184.807 149.828 184.391 146.459 184.164C138.908 183.464 131.317 183.304 123.743 183.684C118.417 184.063 112.688 184.845 108.599 185.464C106.656 185.752 104.875 186.709 103.562 188.17C102.25 189.63 101.487 191.503 101.405 193.465Z" fill="#AB3D51"/>
<path d="M147.973 219.588L133.157 219.487C133.01 219.493 132.863 219.468 132.726 219.412C132.589 219.356 132.466 219.271 132.366 219.163C132.265 219.055 132.189 218.927 132.142 218.787C132.096 218.646 132.081 218.498 132.097 218.351L132.918 211.335C132.971 211.021 133.133 210.737 133.376 210.532C133.618 210.326 133.925 210.213 134.243 210.211L149.046 210.312C149.193 210.304 149.34 210.328 149.476 210.382C149.613 210.437 149.736 210.52 149.837 210.627C149.938 210.734 150.015 210.862 150.061 211.002C150.107 211.141 150.123 211.289 150.106 211.435L149.286 218.465C149.235 218.777 149.075 219.061 148.835 219.267C148.595 219.472 148.289 219.586 147.973 219.588Z" fill="white"/>
<path opacity="0.4" d="M123.818 183.697C123.818 183.697 115.666 189.401 124.285 203.712C131.362 196.829 138.779 190.304 146.509 184.164L123.818 183.697Z" fill="white"/>
<path d="M144.793 158.57C143.215 165.839 141.499 179.191 146.509 184.164C138.631 187.267 131.367 191.745 125.055 197.389C119.515 187.218 123.793 183.684 123.793 183.684C131.971 181.917 131.895 175.872 130.595 170.168L144.793 158.57Z" fill="#FFBE9D"/>
<path opacity="0.2" d="M143.254 159.832C143.057 164.176 141.934 168.427 139.96 172.301C138.584 174.964 134.912 176.087 131.214 176.301C131.336 174.239 131.136 172.169 130.621 170.168L143.254 159.832Z" fill="black"/>
<path d="M156.618 149.673C152.832 161.309 151.57 166.306 143.998 170.85C132.703 177.677 119.237 170.547 119.414 158.04C119.591 146.783 125.724 129.658 138.432 127.904C141.246 127.496 144.118 127.816 146.774 128.832C149.429 129.849 151.781 131.528 153.604 133.71C155.427 135.893 156.661 138.505 157.188 141.3C157.716 144.094 157.519 146.976 156.618 149.673Z" fill="#FFBE9D"/>
<path d="M125.762 134.39C132.072 136.17 147.443 137.495 150.522 135.652C147.632 140.095 150.383 152.235 154.851 155.176C160.871 150.342 162.208 138.656 156.643 132.863C151.077 127.071 133.485 120.142 125.762 134.39Z" fill="#263238"/>
<path d="M158.385 156.791C157.986 157.899 157.37 158.917 156.573 159.784C155.775 160.651 154.812 161.35 153.741 161.839C150.889 163.101 148.996 160.678 149.399 157.737C149.765 155.1 151.696 151.251 154.75 151.2C155.409 151.209 156.056 151.381 156.633 151.699C157.21 152.017 157.7 152.473 158.06 153.026C158.419 153.578 158.636 154.211 158.693 154.868C158.75 155.524 158.644 156.185 158.385 156.791Z" fill="#FFBE9D"/>
<path d="M158.057 258.912L160.227 263.443C160.391 263.783 159.975 264.137 159.394 264.124L106.984 263.026C106.542 263.026 106.176 262.786 106.151 262.496L105.785 258.016C105.785 257.713 106.163 257.461 106.655 257.461L157.262 258.521C157.417 258.511 157.572 258.543 157.711 258.611C157.85 258.68 157.969 258.783 158.057 258.912Z" fill="#263238"/>
<path d="M151.153 264.427H152.503C152.768 264.427 152.983 264.288 152.97 264.124L152.453 258.294C152.453 258.129 152.201 257.978 151.936 257.978H150.573C150.308 257.978 150.106 258.104 150.118 258.281L150.623 264.099C150.648 264.288 150.875 264.427 151.153 264.427Z" fill="#AB3D51"/>
<path d="M110.783 263.594H112.146C112.411 263.594 112.625 263.468 112.612 263.291L112.095 257.461C112.095 257.297 111.843 257.158 111.578 257.145H110.215C109.95 257.145 109.735 257.271 109.76 257.448L110.265 263.266C110.29 263.443 110.518 263.581 110.783 263.594Z" fill="#AB3D51"/>
<path d="M130.962 264.01H132.325C132.59 264.01 132.804 263.884 132.792 263.708L132.274 257.89C132.274 257.713 132.022 257.574 131.757 257.574H130.394C130.129 257.574 129.927 257.713 129.94 257.877L130.444 263.708C130.47 263.859 130.697 264.01 130.962 264.01Z" fill="#AB3D51"/>
<path d="M138.458 148.701C138.206 149.661 137.499 150.317 136.868 150.153C136.237 149.989 135.934 149.08 136.174 148.121C136.414 147.162 137.133 146.506 137.764 146.67C138.395 146.834 138.698 147.742 138.458 148.701Z" fill="#263238"/>
<path d="M127.579 145.925C127.34 146.897 126.633 147.54 126.002 147.376C125.371 147.212 125.055 146.316 125.308 145.345C125.56 144.373 126.254 143.742 126.885 143.893C127.516 144.045 127.832 144.966 127.579 145.925Z" fill="#263238"/>
<path d="M127.15 144.019L125.005 142.757C125.005 142.757 125.737 144.878 127.15 144.019Z" fill="#263238"/>
<path d="M129.99 148.31C128.577 150.288 126.9 152.063 125.005 153.585C125.405 154.059 125.903 154.44 126.466 154.702C127.028 154.963 127.641 155.099 128.261 155.1L129.99 148.31Z" fill="#A02724"/>
<path d="M130.596 158.873C130.552 158.835 130.519 158.785 130.501 158.73C130.483 158.674 130.481 158.614 130.495 158.558C130.507 158.521 130.525 158.487 130.55 158.458C130.574 158.429 130.605 158.404 130.639 158.387C130.673 158.369 130.71 158.359 130.748 158.355C130.786 158.352 130.825 158.357 130.861 158.368C132.04 158.738 133.289 158.825 134.508 158.624C135.726 158.422 136.881 157.937 137.878 157.207C137.936 157.157 138.013 157.132 138.089 157.138C138.166 157.144 138.238 157.18 138.288 157.239C138.338 157.297 138.363 157.374 138.357 157.451C138.351 157.527 138.315 157.599 138.256 157.649C137.189 158.454 135.944 158.989 134.625 159.209C133.307 159.429 131.955 159.327 130.684 158.911L130.596 158.873Z" fill="#263238"/>
<path d="M144.389 144.272C144.312 144.204 144.248 144.122 144.2 144.032C143.939 143.348 143.519 142.736 142.975 142.247C142.431 141.757 141.778 141.404 141.07 141.218C140.918 141.191 140.782 141.105 140.694 140.978C140.605 140.852 140.57 140.695 140.597 140.543C140.623 140.39 140.71 140.255 140.836 140.166C140.963 140.077 141.12 140.043 141.272 140.069C142.172 140.292 143.006 140.727 143.704 141.337C144.402 141.947 144.944 142.715 145.285 143.578C145.33 143.696 145.335 143.826 145.3 143.948C145.266 144.07 145.193 144.178 145.093 144.255C144.993 144.333 144.87 144.376 144.744 144.379C144.617 144.382 144.493 144.345 144.389 144.272Z" fill="#263238"/>
<path d="M125.433 139.792L125.358 139.716C125.249 139.607 125.188 139.46 125.188 139.306C125.188 139.152 125.249 139.005 125.358 138.896C126.024 138.27 126.828 137.811 127.705 137.554C128.582 137.298 129.507 137.252 130.406 137.419C130.481 137.438 130.551 137.472 130.613 137.519C130.675 137.565 130.727 137.624 130.766 137.691C130.804 137.758 130.829 137.832 130.839 137.909C130.849 137.986 130.843 138.064 130.822 138.139C130.784 138.287 130.687 138.415 130.555 138.493C130.422 138.571 130.264 138.593 130.115 138.555C129.395 138.419 128.653 138.457 127.951 138.666C127.249 138.874 126.606 139.247 126.077 139.754C125.985 139.823 125.876 139.864 125.761 139.87C125.646 139.877 125.532 139.85 125.433 139.792Z" fill="#263238"/>
<path d="M164.96 194.171C168.632 199.03 172.065 203.927 175.396 209.012C177.049 211.536 178.69 214.06 180.242 216.786C181.914 219.543 183.415 222.401 184.735 225.343C185.135 226.26 185.48 227.199 185.77 228.157C185.98 228.896 186.124 229.652 186.199 230.416C186.22 230.723 186.22 231.03 186.199 231.337V231.905C186.176 232.155 186.138 232.404 186.085 232.65L185.997 233.041V233.218V233.356L185.896 233.634C185.303 235.148 184.836 236.675 184.129 238.139C182.85 241.14 181.313 244.024 179.536 246.759C177.706 249.52 175.563 252.061 173.15 254.331C171.921 255.484 170.6 256.535 169.2 257.473C168.481 257.94 167.749 258.394 166.991 258.811L165.792 259.391C165.338 259.593 165.01 259.732 164.354 259.972L161.956 254.217C162.127 254.05 162.308 253.894 162.499 253.75L163.193 253.145C163.66 252.728 164.114 252.274 164.556 251.807C165.455 250.842 166.297 249.827 167.08 248.765C168.621 246.598 169.964 244.296 171.093 241.888C171.623 240.626 172.203 239.439 172.645 238.102C173.087 236.764 173.579 235.578 173.983 234.316C174.387 233.054 174.702 231.665 175.093 230.353V230.113V229.987V230.1V230.353C175.093 230.504 175.03 230.731 175.018 230.82C175.011 230.916 175.011 231.013 175.018 231.11V231.476C175.018 231.766 175.018 231.678 175.018 231.552C175.018 231.426 174.664 230.744 174.399 230.214C173.251 228.056 171.711 225.57 170.134 223.197C168.556 220.825 166.916 218.389 165.237 216.004C161.893 211.221 158.448 206.387 155.065 201.642L164.96 194.171Z" fill="#FFBE9D"/>
<path d="M167.699 258.483L157.969 265.361L153.602 255.416C153.602 255.416 159.508 252.249 164.165 254.369L167.699 258.483Z" fill="#FFBE9D"/>
<path d="M151.191 266.181L148.756 262.786C148.293 262.131 148.105 261.322 148.23 260.53C148.354 259.739 148.783 259.027 149.425 258.546L153.602 255.416L157.968 265.361L155.293 267.014C154.631 267.42 153.839 267.561 153.078 267.406C152.317 267.251 151.642 266.814 151.191 266.181Z" fill="#FFBE9D"/>
<path d="M145.487 191.168C142.181 204.305 162.575 226.794 162.575 226.794L179.725 208.987C179.725 208.987 171.888 192.253 161.653 187.003C154.51 183.343 146.951 185.375 145.487 191.168Z" fill="#AB3D51"/>
<path d="M138.029 146.796L135.884 145.534C135.884 145.534 136.603 147.654 138.029 146.796Z" fill="#263238"/>
<path d="M116.107 226.264C116.015 226.263 115.925 226.235 115.849 226.184C115.773 226.132 115.713 226.059 115.678 225.974C115.637 225.862 115.642 225.738 115.692 225.629C115.741 225.52 115.832 225.436 115.943 225.393L117.912 224.636C119.756 223.955 121.348 222.727 122.476 221.117C123.604 219.507 124.213 217.591 124.222 215.625L124.361 197.175C124.401 195.77 123.957 194.394 123.104 193.278C122.251 192.161 121.041 191.371 119.675 191.04C118.309 190.709 116.871 190.857 115.602 191.459C114.332 192.061 113.308 193.081 112.7 194.348L104.169 210.754C103.252 212.486 102.882 214.455 103.108 216.402C103.333 218.348 104.143 220.181 105.431 221.658L106.819 223.235C106.866 223.279 106.903 223.331 106.928 223.39C106.953 223.448 106.965 223.512 106.964 223.575C106.963 223.639 106.949 223.702 106.922 223.76C106.895 223.818 106.857 223.869 106.808 223.911C106.76 223.953 106.704 223.984 106.643 224.003C106.582 224.021 106.518 224.027 106.455 224.019C106.391 224.011 106.33 223.99 106.276 223.957C106.221 223.925 106.174 223.881 106.138 223.828L104.749 222.112C103.328 220.507 102.43 218.507 102.175 216.378C101.92 214.249 102.321 212.094 103.323 210.199L111.854 193.793C112.584 192.393 113.763 191.279 115.202 190.63C116.642 189.982 118.258 189.837 119.789 190.219C121.321 190.601 122.68 191.487 123.646 192.735C124.613 193.983 125.131 195.521 125.118 197.099L124.979 215.55C124.969 217.69 124.31 219.776 123.089 221.534C121.867 223.292 120.141 224.637 118.139 225.393L116.171 226.138L116.107 226.264Z" fill="#263238"/>
<path d="M124.676 201.289C124.559 201.286 124.447 201.239 124.363 201.157C124.279 201.075 124.228 200.965 124.222 200.847C124.043 199.389 123.426 198.019 122.453 196.919C121.48 195.818 120.197 195.038 118.772 194.681C117.346 194.324 115.847 194.408 114.47 194.921C113.093 195.433 111.904 196.351 111.059 197.553C111.03 197.606 110.991 197.652 110.945 197.689C110.898 197.726 110.844 197.753 110.787 197.77C110.729 197.786 110.669 197.791 110.61 197.784C110.551 197.778 110.493 197.759 110.441 197.73C110.389 197.701 110.343 197.662 110.306 197.615C110.268 197.569 110.241 197.515 110.225 197.458C110.208 197.4 110.203 197.34 110.21 197.281C110.217 197.221 110.235 197.164 110.264 197.112C111.203 195.724 112.546 194.658 114.111 194.058C115.676 193.459 117.387 193.354 119.013 193.759C120.639 194.164 122.101 195.058 123.202 196.322C124.303 197.585 124.99 199.156 125.168 200.822C125.169 200.942 125.123 201.057 125.041 201.144C124.959 201.231 124.846 201.283 124.727 201.289H124.676Z" fill="#263238"/>
<path d="M119.754 191.206C119.68 191.205 119.606 191.186 119.54 191.151C119.475 191.116 119.418 191.065 119.376 191.004C119.145 190.492 119.026 189.937 119.026 189.376C119.026 188.814 119.145 188.26 119.376 187.748C119.703 186.73 120.256 185.799 120.992 185.023C121.728 184.248 122.629 183.648 123.629 183.268C123.684 183.246 123.743 183.236 123.803 183.238C123.862 183.241 123.92 183.256 123.974 183.282C124.027 183.308 124.074 183.345 124.113 183.39C124.151 183.435 124.18 183.488 124.197 183.545C124.233 183.657 124.225 183.779 124.173 183.885C124.121 183.991 124.03 184.073 123.919 184.113C123.063 184.464 122.294 184.997 121.664 185.675C121.034 186.352 120.559 187.159 120.272 188.038C120.084 188.429 119.974 188.853 119.951 189.286C119.927 189.719 119.989 190.153 120.133 190.562C120.166 190.612 120.188 190.669 120.199 190.728C120.209 190.787 120.208 190.848 120.195 190.907C120.182 190.965 120.158 191.021 120.123 191.07C120.089 191.119 120.045 191.161 119.994 191.193C119.916 191.216 119.834 191.22 119.754 191.206Z" fill="#263238"/>
<path d="M115.073 225.57C114.859 226.39 115.073 227.173 115.679 227.311C116.285 227.45 116.84 226.882 117.042 226.049C117.244 225.216 116.966 224.434 116.424 224.308C115.881 224.182 115.275 224.737 115.073 225.57Z" fill="#263238"/>
<path d="M150.888 203.775C151.292 205.681 152.655 206.993 153.905 206.728C155.154 206.463 155.836 204.684 155.419 202.791C155.003 200.898 153.652 199.56 152.403 199.838C151.153 200.115 150.472 201.92 150.888 203.775Z" fill="#263238"/>
<path d="M154.838 203.182C154.78 203.184 154.723 203.174 154.668 203.153C154.614 203.133 154.564 203.101 154.522 203.062C154.48 203.022 154.446 202.974 154.422 202.921C154.399 202.868 154.386 202.811 154.384 202.753C154.119 195.774 151.469 187.104 146.307 184.542C146.201 184.488 146.12 184.394 146.082 184.281C146.044 184.167 146.053 184.044 146.105 183.936C146.131 183.883 146.167 183.834 146.212 183.795C146.256 183.755 146.308 183.725 146.365 183.706C146.422 183.687 146.482 183.68 146.541 183.685C146.6 183.69 146.658 183.707 146.711 183.735C152.239 186.473 155.002 195.244 155.28 202.665C155.285 202.724 155.278 202.784 155.259 202.84C155.24 202.897 155.209 202.949 155.169 202.993C155.128 203.037 155.079 203.072 155.024 203.096C154.97 203.12 154.911 203.132 154.851 203.132L154.838 203.182Z" fill="#263238"/>
<path d="M149.538 203.939C149.803 205.567 150.977 206.728 152.163 206.539C153.349 206.35 154.106 204.873 153.841 203.232C153.576 201.592 152.39 200.443 151.204 200.633C150.017 200.822 149.273 202.299 149.538 203.939Z" fill="white"/>
<path d="M149.437 204.078C149.815 206.097 150.875 207.586 151.797 207.41C152.718 207.233 153.134 205.466 152.756 203.447C152.377 201.428 151.317 199.939 150.396 200.115C149.475 200.292 149.046 202.059 149.437 204.078Z" fill="#263238"/>
<path d="M105.532 223.185C105.33 224.018 105.608 224.8 106.151 224.926C106.693 225.052 107.299 224.51 107.514 223.664C107.728 222.819 107.438 222.062 106.895 221.923C106.353 221.784 105.747 222.364 105.532 223.185Z" fill="#263238"/>
<path d="M243.772 120.42C235.783 121.846 234.774 121.114 234.673 115.372C234.572 109.63 231.669 100.051 235.708 97.0478C235.985 96.785 236.326 96.5994 236.697 96.5097C237.069 96.42 237.457 96.4292 237.824 96.5365C238.19 96.6438 238.522 96.8454 238.786 97.1211C239.051 97.3969 239.238 97.7371 239.33 98.1079C239.576 97.478 240.056 96.9676 240.67 96.6831C241.284 96.3986 241.984 96.362 242.624 96.5809C242.788 95.3946 242.977 92.3532 245.148 91.5329C247.318 90.7126 249.312 92.6813 249.312 92.6813C249.312 92.6813 249.148 87.9993 252.303 88.4536C253.245 88.6041 254.12 89.035 254.813 89.6901C255.506 90.3452 255.986 91.1941 256.19 92.126C256.19 92.126 258.007 89.4758 260.468 90.5233C262.929 91.5707 262.412 94.65 262.412 94.65C262.412 94.65 265.024 93.388 266.967 94.8141C268.911 96.2401 267.498 98.5244 267.498 98.5244C267.498 98.5244 269.264 93.9812 272.634 96.4925C275.663 98.7641 272.912 102.323 272.912 102.323C272.912 102.323 276.243 101.78 277.051 103.459C279.777 109.176 269.391 115.561 269.05 125.216C253.098 131.248 243.772 120.42 243.772 120.42Z" fill="#263238"/>
<path d="M186.199 273.854L180.874 272.87L173.832 279.596C173.448 279.961 173.146 280.402 172.944 280.891C172.742 281.381 172.644 281.907 172.658 282.436L172.759 287.938C172.771 288.879 173.134 289.781 173.775 290.47C174.417 291.158 175.292 291.582 176.229 291.661L178.678 291.875C179.568 291.96 180.46 291.726 181.195 291.215C181.929 290.705 182.459 289.95 182.691 289.086L183.953 284.594C183.953 284.594 190.907 276.378 186.199 273.854Z" fill="#FFB573"/>
<path d="M239.986 173.222C236.415 182.473 232.856 191.761 229.423 201.074C225.99 210.388 222.583 219.739 219.39 228.939L218.822 230.643L218.431 231.754C218.28 232.17 218.128 232.599 217.989 232.927C217.396 234.429 216.803 235.666 216.21 236.915C215.024 239.439 213.825 241.698 212.613 243.982C210.178 248.526 207.666 252.905 205.13 257.271C200.082 266.017 195.034 274.561 189.809 283.231L173.744 273.236C179.044 264.995 184.155 256.489 189.052 247.996C191.462 243.73 193.835 239.452 196.043 235.212C197.141 233.091 198.201 230.971 199.135 228.902C199.577 227.905 200.018 226.882 200.309 226.049C200.41 225.81 200.448 225.646 200.511 225.482L200.713 224.825L201.293 222.983C204.335 213.291 207.527 203.927 210.607 194.424L219.845 166.016L239.986 173.222Z" fill="#AB3D51"/>
<path opacity="0.6" d="M239.986 173.222C236.415 182.473 232.856 191.761 229.423 201.074C225.99 210.388 222.583 219.739 219.39 228.939L218.822 230.643L218.431 231.754C218.28 232.17 218.128 232.599 217.989 232.927C217.396 234.429 216.803 235.666 216.21 236.915C215.024 239.439 213.825 241.698 212.613 243.982C210.178 248.526 207.666 252.905 205.13 257.271C200.082 266.017 195.034 274.561 189.809 283.231L173.744 273.236C179.044 264.995 184.155 256.489 189.052 247.996C191.462 243.73 193.835 239.452 196.043 235.212C197.141 233.091 198.201 230.971 199.135 228.902C199.577 227.905 200.018 226.882 200.309 226.049C200.41 225.81 200.448 225.646 200.511 225.482L200.713 224.825L201.293 222.983C204.335 213.291 207.527 203.927 210.607 194.424L219.845 166.016L239.986 173.222Z" fill="white"/>
<path d="M191.853 510.996L180.533 511.552L185.884 482.071L196.648 484.545L191.853 510.996Z" fill="#FFB573"/>
<path d="M273.063 511.425H261.743L261.781 485.214H273.088L273.063 511.425Z" fill="#FFB573"/>
<path d="M260.67 510.113H274.464C274.685 510.11 274.901 510.185 275.072 510.326C275.243 510.467 275.359 510.665 275.398 510.883L277.215 520.979C277.255 521.229 277.241 521.484 277.172 521.728C277.104 521.971 276.983 522.197 276.818 522.389C276.654 522.581 276.449 522.735 276.219 522.841C275.989 522.946 275.739 522.999 275.486 522.998C271.044 522.922 267.813 522.657 262.222 522.657C258.79 522.657 248.34 523.011 243.646 523.011C238.951 523.011 238.471 518.316 240.428 517.887C249.262 515.981 255.912 513.356 258.802 510.845C259.314 510.381 259.979 510.12 260.67 510.113Z" fill="#263238"/>
<path opacity="0.2" d="M185.884 482.084L183.411 495.714L194.176 498.187L196.649 484.557L185.884 482.084Z" fill="black"/>
<path opacity="0.2" d="M273.088 485.214H261.768V498.717H273.088V485.214Z" fill="black"/>
<path d="M282.2 172.894C273.366 212.634 275.714 251.857 274.767 260.351L214.355 256.363C208.045 208.407 215.087 177.816 219.088 165.272C219.738 163.201 220.968 161.36 222.632 159.967C224.296 158.573 226.324 157.686 228.477 157.409C237.46 156.425 246.507 156.142 255.534 156.564C261.646 156.929 267.712 157.85 273.656 159.315C276.588 159.986 279.134 161.792 280.736 164.338C282.338 166.884 282.864 169.961 282.2 172.894Z" fill="#AB3D51"/>
<path d="M263.989 129.633C261.995 137.116 259.635 150.367 263.434 157.069C264.027 158.116 262.891 159.012 262.841 160.224C262.702 163.934 257.679 165.044 248.694 165.095C239.708 165.145 235.859 161.397 238.308 157.864C238.683 157.325 239.253 156.954 239.898 156.829C248.315 154.948 248.479 148.348 247.331 142.051L263.989 129.633Z" fill="#FFB573"/>
<path opacity="0.4" d="M248.05 163.038C250.41 166.32 251.907 170.144 252.404 174.156C261.377 169.941 265.655 159.706 265.655 159.706L262.954 156.816C262.954 156.816 252.984 158.697 248.05 163.038Z" fill="black"/>
<path opacity="0.4" d="M247.167 163.076C243.863 165.765 241.075 169.032 238.938 172.717C232.666 168.83 234.736 157.75 234.736 157.75L239.847 156.74C239.847 156.74 242.131 158.848 247.167 163.076Z" fill="black"/>
<path d="M247.57 162.798L245.64 162.987L242.371 165.145C242.163 166.445 242.394 167.777 243.027 168.931C244.926 169.302 246.863 169.433 248.795 169.323C250.09 168.697 251.123 167.633 251.71 166.319L249.312 163.252L247.57 162.798Z" fill="#263238"/>
<path d="M247.571 162.798C249.995 165.832 251.855 169.278 253.061 172.97C262.033 168.755 267.258 158.684 267.258 158.684L262.929 154.898C262.929 154.898 252.505 158.482 247.571 162.798Z" fill="#AB3D51"/>
<path d="M247.57 162.798C244.107 164.983 241.078 167.79 238.635 171.077C232.325 167.202 234.736 156.766 234.736 156.766L239.847 155.756C239.847 155.756 242.548 158.596 247.57 162.798Z" fill="#AB3D51"/>
<path opacity="0.2" d="M257.2 134.693L247.356 142.038C247.654 143.556 247.819 145.098 247.848 146.644C251.394 146.379 256.493 142.858 257.111 139.173C257.408 137.697 257.438 136.18 257.2 134.693Z" fill="black"/>
<path d="M265.793 117.265C264.367 128.408 264.102 134.933 258.07 140.372C248.996 148.436 235.531 142.404 233.6 131.059C231.858 120.849 234.483 104.342 245.728 100.619C248.203 99.7848 250.851 99.5972 253.42 100.074C255.988 100.552 258.392 101.678 260.403 103.346C262.414 105.014 263.964 107.168 264.908 109.605C265.851 112.041 266.156 114.678 265.793 117.265Z" fill="#FFB573"/>
<path d="M263.068 127.336C260.544 124.9 262.122 113.239 263.396 109.895C257.086 110.501 236.692 110.475 237.462 104.847C238.232 99.2185 245.653 94.4355 257.78 98.3855C267.876 101.679 270.4 106.715 270.4 110.829C270.552 119.284 263.068 127.336 263.068 127.336Z" fill="#263238"/>
<path d="M269.706 127.462C268.508 129.752 266.46 131.483 264.002 132.283C260.784 133.28 259.194 130.314 260.102 127.134C260.91 124.282 263.573 120.306 266.791 120.71C270.009 121.114 271.183 124.623 269.706 127.462Z" fill="#FFB573"/>
<path d="M179.726 492.256L198.441 496.382C198.441 496.382 216.639 425.067 222.04 390.21C223.694 379.61 227.53 364.478 231.026 348.564C235.43 328.499 240.97 306.792 245.514 289.793C250.309 271.885 253.868 259.013 253.868 259.013L214.355 256.401C214.355 256.401 195.968 349.675 192.257 384.014C188.383 419.703 179.726 492.256 179.726 492.256Z" fill="#263238"/>
<path opacity="0.2" d="M231.026 348.539C235.43 328.473 240.971 306.767 245.514 289.768L241.362 280.934C231.556 292.645 229.045 328.877 231.026 348.539Z" fill="black"/>
<path d="M233.184 257.612C233.184 257.612 241.361 352.931 244.542 385.932C248.075 422.076 257.553 496.117 257.553 496.117H276.559C276.559 496.117 277.417 417.268 274.035 382.361C273.555 313.733 274.754 260.363 274.754 260.363L233.184 257.612Z" fill="#263238"/>
<path d="M255.13 496.559H279.537V489.265L254.184 487.864L255.13 496.559Z" fill="#AB3D51"/>
<path d="M177.277 492.18L199.577 497.102L201.167 489.896L177.82 484.015L177.277 492.18Z" fill="#AB3D51"/>
<path d="M249.502 119.259C249.502 120.168 248.909 120.874 248.316 120.837C247.722 120.799 247.281 120.029 247.344 119.12C247.407 118.212 247.937 117.505 248.53 117.543C249.123 117.581 249.565 118.35 249.502 119.259Z" fill="#263238"/>
<path d="M239.204 118.628C239.204 119.537 238.61 120.243 238.017 120.205C237.424 120.168 236.982 119.398 237.046 118.489C237.109 117.581 237.639 116.874 238.232 116.912C238.825 116.95 239.267 117.669 239.204 118.628Z" fill="#263238"/>
<path d="M241.563 119.259C240.291 121.966 238.656 124.488 236.705 126.755C238.206 128.371 240.995 127.866 240.995 127.866L241.563 119.259Z" fill="#ED893E"/>
<path d="M244.68 130.554C245.703 130.496 246.704 130.232 247.621 129.776C248.539 129.321 249.354 128.684 250.019 127.904C250.066 127.854 250.092 127.789 250.092 127.721C250.092 127.653 250.066 127.587 250.019 127.538C249.967 127.49 249.9 127.463 249.829 127.463C249.759 127.463 249.692 127.49 249.64 127.538C248.891 128.393 247.951 129.06 246.897 129.485C245.842 129.91 244.703 130.082 243.57 129.986C243.535 129.983 243.5 129.986 243.466 129.996C243.433 130.006 243.402 130.023 243.375 130.045C243.348 130.068 243.325 130.095 243.309 130.126C243.293 130.157 243.283 130.191 243.28 130.226C243.276 130.297 243.3 130.368 243.347 130.422C243.394 130.476 243.461 130.51 243.532 130.516C243.914 130.552 244.297 130.564 244.68 130.554Z" fill="#263238"/>
<path d="M252.013 116.104C252.102 116.094 252.189 116.064 252.265 116.016C252.385 115.938 252.469 115.816 252.5 115.677C252.531 115.538 252.505 115.392 252.429 115.271C251.978 114.545 251.361 113.937 250.628 113.498C249.894 113.059 249.067 112.802 248.214 112.747C248.086 112.767 247.969 112.832 247.885 112.93C247.8 113.028 247.754 113.154 247.754 113.283C247.754 113.413 247.8 113.538 247.885 113.637C247.969 113.735 248.086 113.8 248.214 113.82C248.888 113.87 249.54 114.079 250.117 114.43C250.694 114.781 251.179 115.264 251.533 115.839C251.58 115.924 251.65 115.993 251.735 116.04C251.82 116.087 251.916 116.109 252.013 116.104Z" fill="#263238"/>
<path d="M234.118 114.754C234.206 114.748 234.291 114.72 234.365 114.674C234.44 114.628 234.503 114.564 234.547 114.489C234.869 113.902 235.325 113.4 235.878 113.023C236.43 112.646 237.064 112.404 237.728 112.318C237.868 112.305 237.999 112.239 238.092 112.134C238.186 112.028 238.236 111.891 238.232 111.75C238.223 111.608 238.158 111.476 238.052 111.382C237.945 111.287 237.806 111.238 237.664 111.245C236.817 111.348 236.007 111.652 235.302 112.133C234.597 112.614 234.018 113.258 233.613 114.009C233.545 114.131 233.528 114.276 233.566 114.41C233.604 114.545 233.694 114.66 233.815 114.728C233.91 114.771 234.017 114.78 234.118 114.754Z" fill="#263238"/>
<path d="M256.846 512.082C257.85 512.058 258.849 511.922 259.824 511.678C259.875 511.666 259.922 511.639 259.958 511.601C259.994 511.563 260.017 511.515 260.026 511.463C260.04 511.414 260.037 511.362 260.019 511.314C260.001 511.267 259.968 511.226 259.925 511.198C259.521 510.933 255.962 508.674 254.675 509.331C254.536 509.404 254.418 509.512 254.334 509.645C254.25 509.778 254.202 509.931 254.196 510.088C254.151 510.348 254.172 510.615 254.258 510.864C254.345 511.113 254.492 511.337 254.688 511.514C255.32 511.947 256.082 512.147 256.846 512.082ZM259.054 511.299C257.123 511.691 255.647 511.615 255.054 511.097C254.919 510.978 254.818 510.825 254.761 510.655C254.703 510.485 254.691 510.302 254.726 510.126C254.726 509.924 254.827 509.848 254.902 509.81C255.571 509.482 257.616 510.441 259.054 511.299Z" fill="#AB3D51"/>
<path d="M259.761 511.69C259.806 511.708 259.855 511.708 259.9 511.69C259.943 511.667 259.979 511.633 260.003 511.59C260.028 511.548 260.04 511.5 260.039 511.451C260.039 511.312 259.9 508.043 258.625 506.971C258.472 506.836 258.291 506.735 258.095 506.677C257.899 506.618 257.692 506.602 257.49 506.63C257.287 506.63 257.091 506.699 256.933 506.825C256.775 506.951 256.664 507.127 256.619 507.324C256.329 508.586 258.487 511.11 259.635 511.703C259.677 511.712 259.721 511.707 259.761 511.69ZM257.666 507.097C257.891 507.099 258.107 507.185 258.272 507.337C259.08 508.018 259.37 509.924 259.458 510.883C258.335 509.999 256.934 508.119 257.136 507.374C257.136 507.311 257.136 507.147 257.54 507.109H257.666V507.097Z" fill="#AB3D51"/>
<path d="M178.842 506.567L192.118 510.353C192.33 510.414 192.514 510.547 192.638 510.729C192.763 510.911 192.82 511.13 192.8 511.35L191.815 521.534C191.783 521.785 191.697 522.025 191.564 522.24C191.43 522.454 191.251 522.637 191.041 522.776C190.83 522.915 190.591 523.007 190.342 523.045C190.092 523.083 189.837 523.067 189.594 522.998C185.341 521.736 182.312 520.588 176.974 519.061C173.668 518.127 162.903 514.265 158.978 511.59C155.053 508.914 157.363 504.787 159.218 505.545C167.56 508.927 173.428 508.384 176.886 506.807C177.489 506.498 178.182 506.413 178.842 506.567Z" fill="#263238"/>
<path d="M174.614 507.425C175.59 507.668 176.588 507.807 177.593 507.841C177.647 507.845 177.701 507.832 177.748 507.805C177.795 507.779 177.833 507.738 177.858 507.69C177.888 507.648 177.904 507.597 177.904 507.545C177.904 507.493 177.888 507.442 177.858 507.4C177.542 507.046 174.728 503.917 173.327 504.182C173.171 504.216 173.027 504.29 172.908 504.396C172.788 504.502 172.698 504.637 172.646 504.787C172.536 505.024 172.487 505.283 172.503 505.543C172.518 505.803 172.598 506.055 172.734 506.277C173.215 506.859 173.877 507.263 174.614 507.425ZM176.962 507.274C174.993 507.122 173.592 506.643 173.176 506.012C173.091 505.855 173.046 505.679 173.046 505.5C173.046 505.322 173.091 505.146 173.176 504.989C173.252 504.787 173.352 504.75 173.441 504.737C174.16 504.573 175.801 506.062 176.962 507.324V507.274Z" fill="#AB3D51"/>
<path d="M177.53 507.829C177.579 507.842 177.631 507.842 177.681 507.829C177.73 507.817 177.774 507.791 177.81 507.756C177.845 507.72 177.871 507.676 177.883 507.627C177.883 507.501 178.665 504.32 177.744 502.932C177.631 502.763 177.484 502.619 177.313 502.511C177.141 502.402 176.948 502.331 176.747 502.301C176.551 502.247 176.343 502.259 176.156 502.337C175.968 502.415 175.812 502.553 175.712 502.73C175.081 503.866 176.495 506.844 177.416 507.778C177.449 507.804 177.488 507.822 177.53 507.829ZM176.76 502.844C176.976 502.904 177.16 503.044 177.277 503.235C177.883 504.118 177.63 506.037 177.466 507.021C176.621 505.873 175.813 503.689 176.204 503.02C176.204 502.957 176.318 502.819 176.671 502.869L176.76 502.844Z" fill="#AB3D51"/>
<path d="M264.179 156.084C264.044 156.063 263.907 156.072 263.777 156.111C263.647 156.151 263.527 156.219 263.428 156.312C263.328 156.404 263.251 156.518 263.201 156.645C263.152 156.772 263.133 156.908 263.144 157.043C263.586 163.808 253.048 175.973 250.524 212.407C249.022 234.568 247.646 303.662 248.656 339.604C248.671 340.076 248.793 340.538 249.013 340.955C249.233 341.373 249.545 341.734 249.926 342.013C250.307 342.292 250.746 342.48 251.21 342.563C251.675 342.646 252.152 342.623 252.606 342.494C271.233 337.295 280.029 349.902 283.613 335.036C283.424 317.229 278.035 253.296 279.424 238.139C280.812 222.983 286.579 181.804 288.018 170.824C289.292 161.284 269.391 157.031 264.179 156.084Z" fill="#AB3D51"/>
<path opacity="0.7" d="M264.179 156.084C264.044 156.063 263.907 156.072 263.777 156.111C263.647 156.151 263.527 156.219 263.428 156.312C263.328 156.404 263.251 156.518 263.201 156.645C263.152 156.772 263.133 156.908 263.144 157.043C263.586 163.808 253.048 175.973 250.524 212.407C249.022 234.568 247.646 303.662 248.656 339.604C248.671 340.076 248.793 340.538 249.013 340.955C249.233 341.373 249.545 341.734 249.926 342.013C250.307 342.292 250.746 342.48 251.21 342.563C251.675 342.646 252.152 342.623 252.606 342.494C271.233 337.295 280.029 349.902 283.613 335.036C283.424 317.229 278.035 253.296 279.424 238.139C280.812 222.983 286.579 181.804 288.018 170.824C289.292 161.284 269.391 157.031 264.179 156.084Z" fill="white"/>
<path opacity="0.2" d="M276.458 186.965C275.638 192.594 275.323 215.335 280.736 226.277C281.645 218.705 282.831 209.707 283.98 201.037L276.458 186.965Z" fill="#AB3D51"/>
<path d="M284.194 285.313L278.817 285.944L274.06 294.437C273.799 294.897 273.637 295.406 273.585 295.932C273.533 296.458 273.591 296.989 273.757 297.491L275.473 302.716C275.764 303.61 276.378 304.364 277.195 304.83C278.011 305.297 278.972 305.443 279.89 305.24L282.288 304.735C283.169 304.556 283.958 304.069 284.513 303.362C285.068 302.654 285.353 301.772 285.317 300.873L285.165 296.229C285.165 296.229 289.431 286.373 284.194 285.313Z" fill="#FFB573"/>
<path d="M287.147 166.584C288.863 171.632 290.453 176.617 292.031 181.665C293.608 186.713 295.186 191.761 296.675 196.809C298.164 201.857 299.603 207.019 300.928 212.281C301.584 214.919 302.19 217.581 302.77 220.37C303.036 221.771 303.301 223.197 303.515 224.712C303.616 225.494 303.73 226.214 303.793 227.084L303.906 228.346L303.969 229.772C303.995 230.252 303.995 230.732 303.969 231.211C303.969 231.716 303.969 232.195 303.906 232.587L303.793 233.849L303.654 234.984C303.477 236.511 303.25 237.9 303.023 239.288C302.569 242.039 302.039 244.689 301.496 247.314C300.411 252.564 299.199 257.7 297.975 262.812C296.751 267.923 295.451 273.021 294.189 278.107L290.403 293.365L272.129 288.405C274.956 278.549 277.53 268.516 279.916 258.546C281.077 253.498 282.162 248.551 283.134 243.616C283.613 241.092 284.068 238.695 284.396 236.322C284.585 235.136 284.737 233.962 284.837 232.902C284.936 232.065 284.969 231.221 284.938 230.378V229.848L284.85 229.167C284.85 228.738 284.699 228.17 284.623 227.677C284.446 226.617 284.219 225.494 283.967 224.346C283.449 222.049 282.831 219.676 282.162 217.291C280.9 212.508 279.297 207.662 277.669 202.841C274.451 193.2 270.829 183.495 267.094 174.055L287.147 166.584Z" fill="#AB3D51"/>
<path opacity="0.7" d="M287.147 166.584C288.863 171.632 290.453 176.617 292.031 181.665C293.608 186.713 295.186 191.761 296.675 196.809C298.164 201.857 299.603 207.019 300.928 212.281C301.584 214.919 302.19 217.581 302.77 220.37C303.036 221.771 303.301 223.197 303.515 224.712C303.616 225.494 303.73 226.214 303.793 227.084L303.906 228.346L303.969 229.772C303.995 230.252 303.995 230.732 303.969 231.211C303.969 231.716 303.969 232.195 303.906 232.587L303.793 233.849L303.654 234.984C303.477 236.511 303.25 237.9 303.023 239.288C302.569 242.039 302.039 244.689 301.496 247.314C300.411 252.564 299.199 257.7 297.975 262.812C296.751 267.923 295.451 273.021 294.189 278.107L290.403 293.365L272.129 288.405C274.956 278.549 277.53 268.516 279.916 258.546C281.077 253.498 282.162 248.551 283.134 243.616C283.613 241.092 284.068 238.695 284.396 236.322C284.585 235.136 284.737 233.962 284.837 232.902C284.936 232.065 284.969 231.221 284.938 230.378V229.848L284.85 229.167C284.85 228.738 284.699 228.17 284.623 227.677C284.446 226.617 284.219 225.494 283.967 224.346C283.449 222.049 282.831 219.676 282.162 217.291C280.9 212.508 279.297 207.662 277.669 202.841C274.451 193.2 270.829 183.495 267.094 174.055L287.147 166.584Z" fill="white"/>
<path d="M239.632 155.138C239.91 155.136 240.182 155.212 240.417 155.359C240.653 155.506 240.842 155.717 240.962 155.967C241.082 156.216 241.129 156.495 241.097 156.771C241.065 157.047 240.955 157.307 240.781 157.523C237.777 161.006 235.884 165.789 232.325 181.135C228.034 199.648 218.898 292.797 217.181 338.443C217.173 338.822 217.082 339.195 216.916 339.536C216.749 339.877 216.511 340.178 216.217 340.418C215.923 340.658 215.581 340.831 215.213 340.926C214.846 341.021 214.463 341.035 214.089 340.967C205.18 339.327 199.072 343.643 198.1 337.926C197.027 331.616 201.028 271.343 208.511 242.998C207.338 217.859 211.578 167.43 220.046 160.728C224.64 157.005 234.408 155.226 239.632 155.138Z" fill="#AB3D51"/>
<path opacity="0.7" d="M239.632 155.138C239.91 155.136 240.182 155.212 240.417 155.359C240.653 155.506 240.842 155.717 240.962 155.967C241.082 156.216 241.129 156.495 241.097 156.771C241.065 157.047 240.955 157.307 240.781 157.523C237.777 161.006 235.884 165.789 232.325 181.135C228.034 199.648 218.898 292.797 217.181 338.443C217.173 338.822 217.082 339.195 216.916 339.536C216.749 339.877 216.511 340.178 216.217 340.418C215.923 340.658 215.581 340.831 215.213 340.926C214.846 341.021 214.463 341.035 214.089 340.967C205.18 339.327 199.072 343.643 198.1 337.926C197.027 331.616 201.028 271.343 208.511 242.998C207.338 217.859 211.578 167.43 220.046 160.728C224.64 157.005 234.408 155.226 239.632 155.138Z" fill="white"/>
<path d="M244.542 167.644C244.542 167.644 233.638 198.273 229.802 223.942C229.499 230.921 232.818 244.437 235.506 250.33C241.122 238.102 244.63 230.896 245.185 223.942C246.081 213.48 247.558 167.846 247.558 167.846L244.542 167.644Z" fill="#263238"/>
<path d="M267.359 204.078C267.248 204.074 267.142 204.035 267.056 203.965C266.971 203.895 266.91 203.799 266.885 203.691C266.859 203.584 266.869 203.471 266.914 203.37C266.958 203.269 267.035 203.185 267.132 203.132L269.201 202.046C271.133 201.052 272.717 199.493 273.74 197.577C274.764 195.66 275.179 193.478 274.931 191.319L272.684 170.976C272.519 169.459 271.847 168.043 270.778 166.955C269.709 165.866 268.305 165.17 266.791 164.978C265.278 164.785 263.744 165.108 262.437 165.894C261.129 166.68 260.125 167.883 259.585 169.31L252.316 188.429C251.533 190.456 251.385 192.672 251.893 194.784C252.4 196.896 253.538 198.804 255.155 200.254L256.897 201.832C256.989 201.926 257.041 202.053 257.041 202.185C257.041 202.317 256.989 202.444 256.897 202.538C256.802 202.631 256.675 202.683 256.543 202.683C256.411 202.683 256.284 202.631 256.19 202.538L254.448 200.974C252.686 199.382 251.449 197.293 250.902 194.983C250.354 192.673 250.522 190.251 251.382 188.038L258.714 168.957C259.34 167.326 260.495 165.953 261.994 165.057C263.493 164.162 265.25 163.795 266.982 164.016C268.714 164.237 270.322 165.033 271.549 166.277C272.775 167.52 273.548 169.14 273.744 170.875L275.991 191.206C276.257 193.571 275.795 195.962 274.668 198.059C273.54 200.156 271.801 201.859 269.681 202.942L267.611 204.015C267.536 204.063 267.447 204.085 267.359 204.078Z" fill="#263238"/>
<path d="M273.618 175.418C273.498 175.419 273.381 175.376 273.291 175.297C273.2 175.218 273.141 175.108 273.126 174.989C272.832 173.353 272.002 171.861 270.765 170.75C269.528 169.639 267.957 168.973 266.299 168.856C263.497 168.502 259.686 169.386 258.159 173.071C258.137 173.136 258.102 173.196 258.056 173.247C258.01 173.299 257.954 173.34 257.891 173.369C257.828 173.398 257.761 173.413 257.692 173.415C257.623 173.416 257.554 173.404 257.49 173.378C257.427 173.352 257.369 173.313 257.32 173.264C257.272 173.215 257.234 173.157 257.209 173.092C257.184 173.028 257.173 172.96 257.176 172.891C257.178 172.822 257.195 172.754 257.225 172.692C258.078 171.042 259.418 169.694 261.063 168.83C262.709 167.967 264.579 167.63 266.422 167.866C268.265 168.102 269.991 168.898 271.366 170.147C272.741 171.396 273.699 173.038 274.11 174.85C274.128 174.979 274.095 175.11 274.017 175.214C273.939 175.318 273.823 175.387 273.694 175.405L273.618 175.418Z" fill="#263238"/>
<path d="M266.829 164.981C266.763 164.978 266.699 164.962 266.639 164.933C266.58 164.905 266.527 164.864 266.484 164.815C266.44 164.766 266.407 164.708 266.386 164.645C266.365 164.583 266.357 164.517 266.362 164.451C266.514 161.99 266.16 157.51 263.838 156.349C263.719 156.287 263.63 156.181 263.59 156.053C263.549 155.925 263.562 155.787 263.624 155.668C263.686 155.549 263.792 155.46 263.92 155.419C264.048 155.379 264.186 155.391 264.305 155.453C267.662 157.182 267.359 163.77 267.309 164.514C267.302 164.638 267.249 164.755 267.16 164.842C267.072 164.928 266.953 164.978 266.829 164.981Z" fill="#263238"/>
<path d="M257.679 202.336C257.553 203.283 256.96 203.977 256.341 203.889C255.723 203.8 255.319 202.993 255.445 202.059C255.572 201.125 256.152 200.418 256.771 200.507C257.389 200.595 257.793 201.403 257.679 202.336Z" fill="#263238"/>
<path d="M228.337 181.879C227.542 183.886 225.813 185.098 224.551 184.58C223.289 184.063 222.797 182.056 223.592 179.999C224.387 177.942 226.116 176.781 227.378 177.298C228.64 177.816 229.12 179.873 228.337 181.879Z" fill="#263238"/>
<path d="M224.186 180.58H224.085C223.954 180.552 223.84 180.475 223.767 180.364C223.694 180.252 223.667 180.117 223.693 179.986C225.359 171.695 232.25 158.532 238.32 154.746C238.375 154.699 238.44 154.664 238.51 154.644C238.58 154.623 238.653 154.619 238.725 154.629C238.797 154.64 238.866 154.667 238.927 154.706C238.987 154.746 239.039 154.799 239.078 154.86C239.116 154.922 239.141 154.991 239.15 155.064C239.16 155.136 239.153 155.209 239.132 155.279C239.11 155.348 239.074 155.412 239.025 155.466C238.977 155.52 238.917 155.563 238.85 155.592C232.982 159.29 226.306 171.998 224.678 180.163C224.657 180.279 224.597 180.384 224.507 180.46C224.417 180.536 224.303 180.578 224.186 180.58Z" fill="#263238"/>
<path d="M229.777 182.296C229.196 184.025 227.707 185.098 226.445 184.681C225.183 184.265 224.615 182.51 225.183 180.769C225.751 179.027 227.253 177.967 228.515 178.384C229.777 178.8 230.357 180.554 229.777 182.296Z" fill="white"/>
<path d="M229.865 182.473C229.095 184.605 227.669 186.057 226.697 185.703C225.725 185.35 225.561 183.331 226.344 181.185C227.126 179.04 228.539 177.601 229.511 177.955C230.483 178.308 230.647 180.327 229.865 182.473Z" fill="#263238"/>
<path d="M268.482 203.725C268.368 204.659 267.763 205.353 267.144 205.277C266.526 205.201 266.122 204.368 266.248 203.434C266.374 202.501 266.968 201.806 267.586 201.882C268.204 201.958 268.608 202.778 268.482 203.725Z" fill="#263238"/>
<path d="M417.718 149.042C413.503 160.564 424.71 166.357 432.055 183.331C439.399 200.305 421.681 220.547 394.485 220.989C367.289 221.431 366.431 195.383 370.646 176.693C374.861 158.002 366.052 154.961 367.92 140.688C370.318 121.934 397.337 107.724 408.064 124.938C417.605 124.042 421.403 138.971 417.718 149.042Z" fill="#263238"/>
<path d="M337.165 304.142V302.678C337.19 301.976 337.366 301.287 337.682 300.659L342.251 291.648L347.602 290.639C351.388 294.715 347.602 302.842 347.602 302.842V304.142C347.601 305.207 347.253 306.243 346.611 307.092C345.969 307.941 345.067 308.558 344.043 308.849L343.323 309.064C342.582 309.259 341.806 309.279 341.056 309.12C340.307 308.962 339.605 308.63 339.006 308.152C338.407 307.674 337.929 307.062 337.609 306.366C337.29 305.669 337.137 304.908 337.165 304.142Z" fill="#FFC3BD"/>
<path d="M359.843 188.227L357.875 202.034L355.805 215.802C355.124 220.408 354.404 224.989 353.672 229.583L351.489 243.263L351.224 244.613C351.136 245.055 350.984 245.623 350.871 246.115L350.492 247.667L350.05 249.27C349.482 251.39 348.788 253.586 348.183 255.757C346.921 260.111 345.469 264.515 344.043 268.894C341.141 277.64 338.112 286.424 334.881 295.056L352.726 301.366L361.661 274.687C363.137 270.232 364.639 265.777 366.065 261.234C366.772 258.95 367.479 256.691 368.147 254.331L368.665 252.577L369.157 250.747C369.321 250.116 369.498 249.56 369.649 248.866L370.116 246.797L372.754 232.915C373.595 228.338 374.474 223.761 375.391 219.184L378.092 205.454L380.906 191.824L359.843 188.227Z" fill="#AB3D51"/>
<path opacity="0.6" d="M359.843 188.227L357.875 202.034L355.805 215.802C355.124 220.408 354.404 224.989 353.672 229.583L351.489 243.263L351.224 244.613C351.136 245.055 350.984 245.623 350.871 246.115L350.492 247.667L350.05 249.27C349.482 251.39 348.788 253.586 348.183 255.757C346.921 260.111 345.469 264.515 344.043 268.894C341.141 277.64 338.112 286.424 334.881 295.056L352.726 301.366L361.661 274.687C363.137 270.232 364.639 265.777 366.065 261.234C366.772 258.95 367.479 256.691 368.147 254.331L368.665 252.577L369.157 250.747C369.321 250.116 369.498 249.56 369.649 248.866L370.116 246.797L372.754 232.915C373.595 228.338 374.474 223.761 375.391 219.184L378.092 205.454L380.906 191.824L359.843 188.227Z" fill="white"/>
<path d="M362.683 187.167C362.089 193.894 362.619 210.628 369.371 252.11H416.065C415.321 234.088 415.27 222.604 423.006 188.215C423.182 187.441 423.197 186.64 423.051 185.861C422.905 185.081 422.601 184.34 422.158 183.682C421.715 183.025 421.141 182.465 420.473 182.038C419.805 181.611 419.056 181.325 418.274 181.198C413.715 180.449 409.118 179.948 404.505 179.696C397.439 179.191 390.345 179.191 383.278 179.696C377.473 180.226 371.176 181.274 367.365 181.968C366.123 182.203 364.993 182.84 364.147 183.779C363.302 184.718 362.787 185.908 362.683 187.167Z" fill="#263238"/>
<path d="M402.448 155.794C401.11 162.621 399.773 175.14 404.556 179.696C404.556 179.696 398.574 186.965 389.412 186.965C380.25 186.965 383.316 179.696 383.316 179.696C390.888 177.879 390.737 172.225 389.412 166.925L402.448 155.794Z" fill="#FFC3BD"/>
<path opacity="0.2" d="M397.135 160.337L389.424 166.912C389.752 168.153 389.971 169.42 390.081 170.698C392.996 170.282 397.564 167.796 398.195 164.628C398.485 163.126 397.388 161.044 397.135 160.337Z" fill="black"/>
<path d="M410.487 142.391C408.708 153.674 408.19 158.482 401.906 163.757C392.441 171.695 378.975 167.038 377.347 155.453C375.883 145.029 379.051 128.32 390.586 124.875C393.127 124.102 395.823 123.991 398.419 124.553C401.015 125.116 403.424 126.332 405.418 128.087C407.412 129.842 408.924 132.077 409.811 134.58C410.699 137.084 410.931 139.773 410.487 142.391Z" fill="#FFC3BD"/>
<path d="M408.607 150.519C402.146 144.12 399.924 135.223 400.53 131.589C394.309 133.318 389.74 130.869 390.018 129.809C385.626 134.1 377.663 137.495 378.559 132.876C379.455 128.257 385.348 119.739 397.64 122.78C409.932 125.821 414.665 138.441 414.488 143.565C414.311 148.689 408.607 150.519 408.607 150.519Z" fill="#263238"/>
<path d="M394.296 143.666C394.208 144.6 393.652 145.294 393.034 145.244C392.416 145.193 392.012 144.385 392.1 143.464C392.188 142.543 392.756 141.836 393.362 141.887C393.968 141.937 394.296 142.745 394.296 143.666Z" fill="#263238"/>
<path d="M383.808 142.669C383.72 143.59 383.152 144.297 382.546 144.234C381.941 144.171 381.524 143.388 381.613 142.467C381.701 141.546 382.269 140.839 382.875 140.89C383.48 140.94 383.897 141.748 383.808 142.669Z" fill="#263238"/>
<path d="M383.127 140.965L380.969 140.12C380.969 140.12 381.953 141.962 383.127 140.965Z" fill="#263238"/>
<path d="M386.862 144.638C385.842 146.669 384.547 148.55 383.013 150.229C383.452 150.609 383.968 150.889 384.526 151.05C385.084 151.211 385.67 151.25 386.244 151.162L386.862 144.638Z" fill="#ED847E"/>
<path d="M390.939 155.226C390.481 155.257 390.022 155.257 389.564 155.226C389.492 155.217 389.427 155.18 389.382 155.123C389.338 155.067 389.317 154.995 389.324 154.923C389.325 154.888 389.334 154.853 389.35 154.821C389.366 154.789 389.388 154.761 389.415 154.738C389.443 154.716 389.475 154.699 389.509 154.69C389.543 154.68 389.579 154.678 389.614 154.683C390.763 154.816 391.926 154.678 393.011 154.279C394.096 153.88 395.072 153.232 395.861 152.387C395.91 152.342 395.973 152.317 396.038 152.315C396.104 152.313 396.169 152.334 396.22 152.375C396.272 152.416 396.307 152.474 396.32 152.538C396.333 152.603 396.322 152.67 396.29 152.727C395.607 153.477 394.783 154.083 393.865 154.512C392.946 154.941 391.952 155.184 390.939 155.226Z" fill="#263238"/>
<path d="M412.986 151.566C412.143 153.609 410.529 155.237 408.493 156.097C405.792 157.207 404.089 154.835 404.555 152.147C404.972 149.623 406.89 146.127 409.742 146.177C410.363 146.208 410.967 146.391 411.501 146.71C412.034 147.029 412.481 147.474 412.802 148.007C413.122 148.539 413.307 149.143 413.339 149.763C413.371 150.384 413.25 151.003 412.986 151.566Z" fill="#FFC3BD"/>
<path d="M397.893 138.82C397.784 138.858 397.666 138.862 397.555 138.83C397.444 138.799 397.346 138.733 397.274 138.643C395.684 136.687 392.441 136.877 392.416 136.877C392.272 136.884 392.132 136.835 392.024 136.741C391.916 136.647 391.848 136.515 391.835 136.372C391.828 136.3 391.836 136.228 391.858 136.159C391.88 136.091 391.915 136.027 391.963 135.973C392.01 135.919 392.068 135.875 392.133 135.843C392.197 135.812 392.268 135.794 392.34 135.791C392.491 135.791 396.189 135.564 398.12 137.962C398.21 138.075 398.252 138.218 398.238 138.362C398.224 138.506 398.154 138.638 398.044 138.732L397.893 138.82Z" fill="#263238"/>
<path d="M380.01 137.672C379.89 137.679 379.772 137.646 379.672 137.579C379.573 137.512 379.499 137.413 379.462 137.3C379.424 137.186 379.425 137.063 379.465 136.95C379.505 136.837 379.581 136.74 379.682 136.675C380.388 136.176 381.203 135.853 382.059 135.732C382.915 135.612 383.787 135.697 384.604 135.981C384.736 136.039 384.841 136.147 384.895 136.281C384.949 136.416 384.949 136.566 384.894 136.7C384.866 136.767 384.826 136.827 384.775 136.878C384.723 136.929 384.662 136.969 384.595 136.996C384.528 137.023 384.457 137.037 384.384 137.036C384.312 137.035 384.241 137.019 384.175 136.99C383.526 136.774 382.835 136.715 382.16 136.818C381.484 136.921 380.842 137.184 380.288 137.583C380.205 137.637 380.109 137.667 380.01 137.672Z" fill="#263238"/>
<path d="M340.358 513.369L328.735 512.814L332.18 486.564L343.791 487.132L340.358 513.369Z" fill="#FFC3BD"/>
<g opacity="0.2">
<path d="M332.181 486.577L330.401 500.105L342.024 500.661L343.804 487.132L332.181 486.577Z" fill="black"/>
</g>
<path d="M369.371 252.11C369.371 252.11 354.744 340.765 348.788 375.331C342.579 411.273 328.596 495.865 328.596 495.865L343.967 498.389C343.967 498.389 364.689 413.709 372.993 378.499C382.004 340.071 403.836 288.544 403.609 252.211L369.371 252.11Z" fill="#AB3D51"/>
<path opacity="0.2" d="M392.857 279.318C395.053 276.126 399.281 271.646 402.524 267.96C399.584 290.55 391.166 316.762 383.481 341.447C381.436 322.643 382.597 294.122 392.857 279.318Z" fill="black"/>
<path d="M412.065 511.59H400.556L399.786 484.936H411.308L412.065 511.59Z" fill="#FFC3BD"/>
<path d="M400.013 509.848H412.948C413.172 509.846 413.389 509.925 413.559 510.072C413.728 510.218 413.839 510.421 413.869 510.643L415.346 520.865C415.372 521.125 415.344 521.387 415.263 521.635C415.182 521.883 415.05 522.112 414.875 522.305C414.7 522.499 414.486 522.654 414.248 522.761C414.01 522.867 413.752 522.922 413.491 522.922C408.985 522.834 406.815 522.569 401.123 522.569C397.627 522.569 390.396 522.935 385.563 522.935C380.729 522.935 380.515 518.165 382.483 517.723C391.507 515.792 395.103 513.117 398.094 510.555C398.633 510.104 399.311 509.854 400.013 509.848Z" fill="#263238"/>
<g opacity="0.2">
<path d="M399.798 484.949L400.189 498.692H411.699L411.308 484.949H399.798Z" fill="black"/>
</g>
<path d="M382.509 252.11C382.509 252.11 387.179 341.901 390.334 376.858C393.628 413.229 397.59 495.651 397.59 495.651H413.163C413.163 495.651 415.94 413.545 414.854 377.679C413.681 338.557 423.083 288.443 416.735 252.11H382.509Z" fill="#AB3D51"/>
<path d="M414.513 496.206L396.252 496.547L395.974 485.416L414.589 486.577L414.513 496.206Z" fill="#263238"/>
<path d="M395.696 511.905C394.713 511.995 393.729 511.746 392.907 511.198C392.722 511.033 392.58 510.824 392.494 510.591C392.408 510.358 392.381 510.107 392.415 509.861C392.424 509.712 392.471 509.568 392.55 509.443C392.629 509.317 392.739 509.213 392.869 509.141C394.283 508.359 398.877 510.706 399.394 510.984C399.442 511.011 399.481 511.052 399.506 511.101C399.531 511.151 399.54 511.207 399.533 511.261C399.526 511.317 399.501 511.369 399.463 511.41C399.424 511.451 399.374 511.478 399.318 511.489C398.127 511.743 396.914 511.882 395.696 511.905ZM393.639 509.52C393.466 509.515 393.293 509.55 393.134 509.621C393.081 509.648 393.037 509.69 393.006 509.741C392.975 509.792 392.958 509.851 392.958 509.911C392.93 510.071 392.945 510.236 393 510.388C393.055 510.541 393.15 510.677 393.273 510.782C393.967 511.413 395.86 511.526 398.41 511.097C396.921 510.303 395.308 509.769 393.639 509.52Z" fill="#AB3D51"/>
<path d="M399.268 511.501H399.155C397.779 510.883 395.066 508.397 395.28 507.097C395.28 506.781 395.545 506.403 396.303 506.327C396.574 506.296 396.848 506.321 397.109 506.401C397.37 506.482 397.611 506.616 397.817 506.794C399.256 507.993 399.521 511.097 399.533 511.224C399.538 511.272 399.53 511.321 399.51 511.365C399.49 511.409 399.459 511.448 399.42 511.476C399.372 511.497 399.32 511.506 399.268 511.501ZM396.517 506.832H396.353C395.861 506.832 395.823 507.072 395.823 507.147C395.684 507.93 397.527 509.873 398.928 510.719C398.819 509.414 398.308 508.174 397.464 507.173C397.2 506.948 396.864 506.827 396.517 506.832Z" fill="#AB3D51"/>
<path d="M328.873 509.848H341.809C341.913 509.842 342.017 509.858 342.113 509.897C342.21 509.935 342.297 509.994 342.368 510.07C342.439 510.146 342.493 510.237 342.525 510.336C342.557 510.435 342.567 510.54 342.553 510.643L341.897 520.865C341.82 521.42 341.551 521.931 341.135 522.307C340.72 522.683 340.185 522.901 339.626 522.922C335.133 522.834 333.013 522.569 327.334 522.569C323.825 522.569 316.518 522.935 311.685 522.935C306.851 522.935 307.596 518.165 309.691 517.723C319.118 515.792 323.232 513.117 326.804 510.555C327.405 510.113 328.127 509.866 328.873 509.848Z" fill="#263238"/>
<path d="M324.557 511.905C323.57 511.995 322.582 511.746 321.756 511.198C321.572 511.032 321.431 510.823 321.346 510.59C321.26 510.357 321.232 510.107 321.264 509.861C321.275 509.711 321.324 509.567 321.405 509.441C321.487 509.316 321.599 509.213 321.731 509.141C323.144 508.359 327.725 510.706 328.242 510.984C328.293 511.009 328.335 511.049 328.362 511.099C328.389 511.149 328.4 511.205 328.394 511.261C328.384 511.316 328.358 511.366 328.32 511.406C328.282 511.447 328.233 511.475 328.179 511.489C326.988 511.743 325.775 511.882 324.557 511.905ZM322.5 509.52C322.326 509.513 322.153 509.547 321.996 509.621C321.941 509.648 321.895 509.689 321.861 509.74C321.828 509.791 321.809 509.85 321.806 509.911C321.785 510.071 321.802 510.234 321.857 510.385C321.912 510.537 322.003 510.673 322.122 510.782C322.829 511.413 324.722 511.526 327.271 511.097C325.782 510.304 324.169 509.771 322.5 509.52Z" fill="#AB3D51"/>
<path d="M328.117 511.501H328.003C326.64 510.883 323.927 508.397 324.141 507.097C324.141 506.781 324.406 506.403 325.164 506.327C325.433 506.296 325.705 506.321 325.964 506.402C326.223 506.482 326.461 506.616 326.665 506.794C328.117 507.993 328.382 511.097 328.394 511.224C328.396 511.272 328.386 511.319 328.367 511.363C328.347 511.407 328.318 511.445 328.281 511.476C328.229 511.497 328.173 511.506 328.117 511.501ZM325.378 506.832H325.214C324.722 506.832 324.684 507.072 324.671 507.147C324.545 507.93 326.388 509.873 327.789 510.719C327.676 509.415 327.165 508.177 326.325 507.173C326.06 506.95 325.724 506.829 325.378 506.832Z" fill="#AB3D51"/>
<path d="M345.254 499.108L327.22 496.206L329.252 486.564L347.122 490.779L345.254 499.108Z" fill="#263238"/>
<path d="M393.577 141.962L391.419 141.117C391.419 141.117 392.39 142.959 393.577 141.962Z" fill="#263238"/>
<path d="M416.823 249.371L418.009 253.561C418.173 253.877 417.795 254.217 417.252 254.217H369.145C368.716 254.217 368.375 254.003 368.35 253.738L367.92 249.56C367.92 249.27 368.261 249.018 368.716 249.018H416.053C416.201 249.005 416.35 249.031 416.485 249.093C416.62 249.155 416.736 249.251 416.823 249.371Z" fill="#263238"/>
<path d="M410.298 254.659H411.56C411.812 254.659 412.001 254.533 411.989 254.381L411.396 248.942C411.396 248.778 411.156 248.652 410.903 248.652H409.641C409.389 248.652 409.2 248.778 409.212 248.942L409.818 254.381C409.831 254.533 410.045 254.659 410.298 254.659Z" fill="#AB3D51"/>
<path d="M372.703 254.659H373.965C374.218 254.659 374.42 254.533 374.394 254.381L373.801 248.942C373.801 248.778 373.561 248.652 373.309 248.652H372.047C371.795 248.652 371.605 248.778 371.618 248.942L372.211 254.381C372.236 254.533 372.451 254.659 372.703 254.659Z" fill="#AB3D51"/>
<path d="M391.431 254.659H392.693C392.945 254.659 393.135 254.533 393.122 254.381L392.529 248.942C392.529 248.778 392.289 248.652 392.037 248.652H390.775C390.522 248.652 390.333 248.778 390.358 248.942L390.951 254.381C390.951 254.533 391.178 254.659 391.431 254.659Z" fill="#AB3D51"/>
<path d="M406.575 179.318C413.908 179.986 425.114 178.598 424.774 189.843C424.433 201.087 426.616 230.87 426.036 244.815C425.455 258.761 429.09 349.057 423.209 375.23C422.174 379.837 384.188 379.244 379.594 378.802V374.65C379.594 374.65 351.994 370.94 345.167 372.126C345.76 356.401 361.043 276.971 361.636 254.659C362.229 232.347 359.717 194.007 359.869 187.924C360.02 181.842 372.11 179.166 379.518 179.318C377.878 184.807 381.5 195.118 387.292 206.615C401.54 192.733 405.743 185.842 406.575 179.318Z" fill="#AB3D51"/>
<path opacity="0.7" d="M406.575 179.318C413.908 179.986 425.114 178.598 424.774 189.843C424.433 201.087 426.616 230.87 426.036 244.815C425.455 258.761 429.09 349.057 423.209 375.23C422.174 379.837 384.188 379.244 379.594 378.802V374.65C379.594 374.65 351.994 370.94 345.167 372.126C345.76 356.401 361.043 276.971 361.636 254.659C362.229 232.347 359.717 194.007 359.869 187.924C360.02 181.842 372.11 179.166 379.518 179.318C377.878 184.807 381.5 195.118 387.292 206.615C401.54 192.733 405.743 185.842 406.575 179.318Z" fill="white"/>
<path opacity="0.2" d="M420.532 205.984L425.227 209.303C425.593 219.02 426.085 229.911 426.136 238.329C421.769 228.674 419.308 214.742 420.532 205.984Z" fill="#AB3D51"/>
<path d="M405.578 195.9C405.816 196.254 406.073 196.596 406.348 196.922L406.613 197.225L406.752 197.377L407.004 197.642L407.509 198.184L408.519 199.308C409.2 200.052 409.856 200.822 410.513 201.605C411.825 203.169 413.087 204.764 414.299 206.387C416.774 209.63 419.078 213 421.202 216.483C425.375 222.914 428.39 230.025 430.111 237.496C430.43 239.162 430.628 240.849 430.705 242.544C430.626 243.387 430.382 244.206 429.985 244.954C428.383 248.347 426.456 251.576 424.231 254.596C421.896 257.928 419.246 261.171 416.532 264.376C415.169 265.992 413.756 267.557 412.33 269.109C410.904 270.661 409.415 272.251 408.026 273.627L421.631 286.777C423.284 284.972 424.748 283.332 426.275 281.603L430.73 276.391C433.683 272.895 436.522 269.26 439.324 265.449C442.366 261.424 444.996 257.103 447.174 252.551C447.811 251.142 448.355 249.691 448.802 248.21C449.064 247.328 449.271 246.43 449.42 245.522C449.517 245 449.584 244.474 449.622 243.945C449.673 243.391 449.694 242.835 449.685 242.279C449.655 239.569 449.423 236.865 448.991 234.189C448.117 229.135 446.704 224.189 444.776 219.437C442.962 214.937 440.854 210.561 438.466 206.337C436.144 202.172 433.595 198.197 430.957 194.31C429.619 192.367 428.256 190.461 426.83 188.581L424.672 185.766L423.549 184.353L422.981 183.646L422.691 183.306L422.565 183.141L422.741 183.343C422.969 183.634 423.183 183.924 423.385 184.227L405.578 195.9Z" fill="#AB3D51"/>
<path opacity="0.7" d="M405.578 195.9C405.816 196.254 406.073 196.596 406.348 196.922L406.613 197.225L406.752 197.377L407.004 197.642L407.509 198.184L408.519 199.308C409.2 200.052 409.856 200.822 410.513 201.605C411.825 203.169 413.087 204.764 414.299 206.387C416.774 209.63 419.078 213 421.202 216.483C425.375 222.914 428.39 230.025 430.111 237.496C430.43 239.162 430.628 240.849 430.705 242.544C430.626 243.387 430.382 244.206 429.985 244.954C428.383 248.347 426.456 251.576 424.231 254.596C421.896 257.928 419.246 261.171 416.532 264.376C415.169 265.992 413.756 267.557 412.33 269.109C410.904 270.661 409.415 272.251 408.026 273.627L421.631 286.777C423.284 284.972 424.748 283.332 426.275 281.603L430.73 276.391C433.683 272.895 436.522 269.26 439.324 265.449C442.366 261.424 444.996 257.103 447.174 252.551C447.811 251.142 448.355 249.691 448.802 248.21C449.064 247.328 449.271 246.43 449.42 245.522C449.517 245 449.584 244.474 449.622 243.945C449.673 243.391 449.694 242.835 449.685 242.279C449.655 239.569 449.423 236.865 448.991 234.189C448.117 229.135 446.704 224.189 444.776 219.437C442.962 214.937 440.854 210.561 438.466 206.337C436.144 202.172 433.595 198.197 430.957 194.31C429.619 192.367 428.256 190.461 426.83 188.581L424.672 185.766L423.549 184.353L422.981 183.646L422.691 183.306L422.565 183.141L422.741 183.343C422.969 183.634 423.183 183.924 423.385 184.227L405.578 195.9Z" fill="white"/>
<path opacity="0.3" d="M387.279 206.615C385.954 233.546 378.761 327.464 379.581 374.65L377.385 374.36C377.385 374.36 380.793 301.795 382.332 270.043C383.872 238.291 387.279 206.615 387.279 206.615Z" fill="#AB3D51"/>
<path opacity="0.3" d="M409.086 273.854L422.564 288.443C422.564 293.339 425.984 303.132 416.923 306.691C407.862 310.25 407.622 284.43 409.086 273.854Z" fill="#AB3D51"/>
<path opacity="0.3" d="M365.144 273.4L359.212 288.266C359.036 293.314 357.307 303.41 360.815 307.259C364.323 311.108 365.346 284.341 365.144 273.4Z" fill="#AB3D51"/>
<path d="M379.871 215.991L365.068 215.89C364.92 215.897 364.773 215.871 364.636 215.815C364.5 215.759 364.377 215.675 364.276 215.567C364.175 215.459 364.099 215.33 364.053 215.19C364.006 215.05 363.991 214.901 364.007 214.755L364.828 207.738C364.877 207.434 365.029 207.156 365.259 206.952C365.489 206.747 365.782 206.628 366.09 206.615L380.906 206.703C381.053 206.699 381.199 206.726 381.334 206.782C381.47 206.839 381.592 206.924 381.692 207.031C381.793 207.139 381.869 207.266 381.916 207.406C381.963 207.545 381.98 207.693 381.966 207.839L381.145 214.868C381.094 215.173 380.939 215.451 380.707 215.655C380.475 215.86 380.18 215.978 379.871 215.991Z" fill="white" stroke="#AB3D51" stroke-width="0.631" stroke-miterlimit="10"/>
</g>
<defs>
<clipPath id="clip0_321_2425">
<rect width="526" height="631" fill="white"/>
</clipPath>
</defs>
</svg>
