<svg width="20" height="19" viewBox="0 0 20 19" fill="none" xmlns="http://www.w3.org/2000/svg">
<path d="M7.16683 18.25L5.5835 15.5833L2.5835 14.9167L2.87516 11.8333L0.833496 9.5L2.87516 7.16667L2.5835 4.08333L5.5835 3.41667L7.16683 0.75L10.0002 1.95833L12.8335 0.75L14.4168 3.41667L17.4168 4.08333L17.1252 7.16667L19.1668 9.5L17.1252 11.8333L17.4168 14.9167L14.4168 15.5833L12.8335 18.25L10.0002 17.0417L7.16683 18.25ZM7.87516 16.125L10.0002 15.2083L12.1668 16.125L13.3335 14.125L15.6252 13.5833L15.4168 11.25L16.9585 9.5L15.4168 7.70833L15.6252 5.375L13.3335 4.875L12.1252 2.875L10.0002 3.79167L7.8335 2.875L6.66683 4.875L4.37516 5.375L4.5835 7.70833L3.04183 9.5L4.5835 11.25L4.37516 13.625L6.66683 14.125L7.87516 16.125ZM9.12516 12.4583L13.8335 7.75L12.6668 6.54167L9.12516 10.0833L7.3335 8.33333L6.16683 9.5L9.12516 12.4583Z" fill="white"/>
</svg>
