<svg width="14" height="15" viewBox="0 0 14 15" fill="none" xmlns="http://www.w3.org/2000/svg">
<path d="M7.00016 7.49998C6.0835 7.49998 5.29877 7.17359 4.646 6.52081C3.99322 5.86803 3.66683 5.08331 3.66683 4.16665C3.66683 3.24998 3.99322 2.46526 4.646 1.81248C5.29877 1.1597 6.0835 0.833313 7.00016 0.833313C7.91683 0.833313 8.70155 1.1597 9.35433 1.81248C10.0071 2.46526 10.3335 3.24998 10.3335 4.16665C10.3335 5.08331 10.0071 5.86803 9.35433 6.52081C8.70155 7.17359 7.91683 7.49998 7.00016 7.49998ZM0.333496 14.1666V11.8333C0.333496 11.3611 0.455163 10.9269 0.698496 10.5308C0.941274 10.1353 1.26405 9.83331 1.66683 9.62498C2.52794 9.19442 3.40294 8.87137 4.29183 8.65581C5.18072 8.44081 6.0835 8.33331 7.00016 8.33331C7.91683 8.33331 8.81961 8.44081 9.7085 8.65581C10.5974 8.87137 11.4724 9.19442 12.3335 9.62498C12.7363 9.83331 13.0591 10.1353 13.3018 10.5308C13.5452 10.9269 13.6668 11.3611 13.6668 11.8333V14.1666H0.333496ZM2.00016 12.5H12.0002V11.8333C12.0002 11.6805 11.9621 11.5416 11.886 11.4166C11.8093 11.2916 11.7085 11.1944 11.5835 11.125C10.8335 10.75 10.0766 10.4686 9.31266 10.2808C8.54877 10.0936 7.77794 9.99998 7.00016 9.99998C6.22238 9.99998 5.45155 10.0936 4.68766 10.2808C3.92377 10.4686 3.16683 10.75 2.41683 11.125C2.29183 11.1944 2.19127 11.2916 2.11516 11.4166C2.0385 11.5416 2.00016 11.6805 2.00016 11.8333V12.5ZM7.00016 5.83331C7.4585 5.83331 7.851 5.66998 8.17766 5.34331C8.50377 5.0172 8.66683 4.62498 8.66683 4.16665C8.66683 3.70831 8.50377 3.31609 8.17766 2.98998C7.851 2.66331 7.4585 2.49998 7.00016 2.49998C6.54183 2.49998 6.14961 2.66331 5.8235 2.98998C5.49683 3.31609 5.3335 3.70831 5.3335 4.16665C5.3335 4.62498 5.49683 5.0172 5.8235 5.34331C6.14961 5.66998 6.54183 5.83331 7.00016 5.83331Z" fill="white"/>
</svg>
