<svg width="18" height="17" viewBox="0 0 18 17" fill="none" xmlns="http://www.w3.org/2000/svg">
<path d="M6.70833 16.8334L6.375 14.1667C6.19444 14.0972 6.02444 14.0139 5.865 13.9167C5.705 13.8195 5.54861 13.7153 5.39583 13.6042L2.91667 14.6459L0.625 10.6875L2.77083 9.06252C2.75694 8.9653 2.75 8.87141 2.75 8.78085V8.21835C2.75 8.12835 2.75694 8.03474 2.77083 7.93752L0.625 6.31252L2.91667 2.35419L5.39583 3.39585C5.54861 3.28474 5.70833 3.18058 5.875 3.08335C6.04167 2.98613 6.20833 2.9028 6.375 2.83335L6.70833 0.166687H11.2917L11.625 2.83335C11.8056 2.9028 11.9758 2.98613 12.1358 3.08335C12.2953 3.18058 12.4514 3.28474 12.6042 3.39585L15.0833 2.35419L17.375 6.31252L15.2292 7.93752C15.2431 8.03474 15.25 8.12835 15.25 8.21835V8.78085C15.25 8.87141 15.2361 8.9653 15.2083 9.06252L17.3542 10.6875L15.0625 14.6459L12.6042 13.6042C12.4514 13.7153 12.2917 13.8195 12.125 13.9167C11.9583 14.0139 11.7917 14.0972 11.625 14.1667L11.2917 16.8334H6.70833ZM9.04167 11.4167C9.84722 11.4167 10.5347 11.132 11.1042 10.5625C11.6736 9.99308 11.9583 9.30558 11.9583 8.50002C11.9583 7.69446 11.6736 7.00696 11.1042 6.43752C10.5347 5.86808 9.84722 5.58335 9.04167 5.58335C8.22222 5.58335 7.53111 5.86808 6.96833 6.43752C6.40611 7.00696 6.125 7.69446 6.125 8.50002C6.125 9.30558 6.40611 9.99308 6.96833 10.5625C7.53111 11.132 8.22222 11.4167 9.04167 11.4167ZM9.04167 9.75002C8.69444 9.75002 8.39944 9.62835 8.15667 9.38502C7.91333 9.14224 7.79167 8.84724 7.79167 8.50002C7.79167 8.1528 7.91333 7.8578 8.15667 7.61502C8.39944 7.37169 8.69444 7.25002 9.04167 7.25002C9.38889 7.25002 9.68417 7.37169 9.9275 7.61502C10.1703 7.8578 10.2917 8.1528 10.2917 8.50002C10.2917 8.84724 10.1703 9.14224 9.9275 9.38502C9.68417 9.62835 9.38889 9.75002 9.04167 9.75002ZM8.16667 15.1667H9.8125L10.1042 12.9584C10.5347 12.8472 10.9342 12.6839 11.3025 12.4684C11.6703 12.2534 12.0069 11.9931 12.3125 11.6875L14.375 12.5417L15.1875 11.125L13.3958 9.77085C13.4653 9.57641 13.5139 9.37141 13.5417 9.15585C13.5694 8.94085 13.5833 8.72224 13.5833 8.50002C13.5833 8.2778 13.5694 8.05891 13.5417 7.84335C13.5139 7.62835 13.4653 7.42363 13.3958 7.22919L15.1875 5.87502L14.375 4.45835L12.3125 5.33335C12.0069 5.01391 11.6703 4.74641 11.3025 4.53085C10.9342 4.31585 10.5347 4.1528 10.1042 4.04169L9.83333 1.83335H8.1875L7.89583 4.04169C7.46528 4.1528 7.06611 4.31585 6.69833 4.53085C6.33 4.74641 5.99306 5.00696 5.6875 5.31252L3.625 4.45835L2.8125 5.87502L4.60417 7.20835C4.53472 7.41669 4.48611 7.62502 4.45833 7.83335C4.43056 8.04169 4.41667 8.26391 4.41667 8.50002C4.41667 8.72224 4.43056 8.93752 4.45833 9.14585C4.48611 9.35419 4.53472 9.56252 4.60417 9.77085L2.8125 11.125L3.625 12.5417L5.6875 11.6667C5.99306 11.9861 6.33 12.2534 6.69833 12.4684C7.06611 12.6839 7.46528 12.8472 7.89583 12.9584L8.16667 15.1667Z" fill="white"/>
</svg>
