<svg width="16" height="15" viewBox="0 0 16 15" fill="none" xmlns="http://www.w3.org/2000/svg">
<path d="M3.83333 11.6667H9.66667V10H3.83333V11.6667ZM3.83333 8.33333H12.1667V6.66667H3.83333V8.33333ZM3.83333 5H12.1667V3.33333H3.83333V5ZM2.16667 15C1.70833 15 1.31583 14.8369 0.989167 14.5108C0.663055 14.1842 0.5 13.7917 0.5 13.3333V1.66667C0.5 1.20833 0.663055 0.815833 0.989167 0.489167C1.31583 0.163055 1.70833 0 2.16667 0H13.8333C14.2917 0 14.6842 0.163055 15.0108 0.489167C15.3369 0.815833 15.5 1.20833 15.5 1.66667V13.3333C15.5 13.7917 15.3369 14.1842 15.0108 14.5108C14.6842 14.8369 14.2917 15 13.8333 15H2.16667ZM2.16667 13.3333H13.8333V1.66667H2.16667V13.3333Z" fill="white"/>
</svg>
