<svg width="28" height="28" viewBox="0 0 28 28" fill="none" xmlns="http://www.w3.org/2000/svg">
<path fill-rule="evenodd" clip-rule="evenodd" d="M20.8047 1C24.5625 1 27 3.4375 27 7.19532V20.8047C27 24.5625 24.5625 27 20.8047 27H7.19532C3.4375 27 1 24.5625 1 20.8047V7.19532C1 3.4375 3.4375 1 7.19532 1H20.8047Z" fill="white"/>
<path fill-rule="evenodd" clip-rule="evenodd" d="M20.8047 1C24.5625 1 27 3.4375 27 7.19532V20.8047C27 24.5625 24.5625 27 20.8047 27H7.19532C3.4375 27 1 24.5625 1 20.8047V7.19532C1 3.4375 3.4375 1 7.19532 1H20.8047Z" fill="white" stroke="#A4A4A4" stroke-width="0.5"/>
<path fill-rule="evenodd" clip-rule="evenodd" d="M11.5139 5.80756C9.41258 6.52785 7.62209 8.10317 6.6248 10.0967C6.27692 10.7845 6.02643 11.5141 5.87335 12.2715C5.493 14.1489 5.75739 16.1518 6.62016 17.8619C7.18144 18.9772 7.98854 19.9716 8.96265 20.7477C9.88572 21.4819 10.9572 22.0303 12.0983 22.3323C13.5363 22.718 15.067 22.7087 16.5142 22.3788C17.8223 22.0767 19.0608 21.4494 20.0488 20.5386C21.0925 19.5766 21.8393 18.3127 22.2336 16.9511C22.6649 15.4687 22.7206 13.8841 22.4517 12.3598C19.7473 12.3598 17.0384 12.3598 14.3341 12.3598C14.3341 13.4844 14.3341 14.609 14.3341 15.7336C15.9019 15.7336 17.4698 15.7336 19.0376 15.7336C18.8567 16.8117 18.2166 17.7968 17.3121 18.4056C16.7415 18.7913 16.0875 19.0376 15.4103 19.1584C14.733 19.2746 14.028 19.2885 13.3507 19.1538C12.6596 19.0143 12.0055 18.7262 11.4304 18.3219C10.5119 17.676 9.81151 16.7327 9.45433 15.6685C9.08789 14.5857 9.08325 13.3822 9.45433 12.3041C9.7141 11.542 10.1408 10.8403 10.7068 10.264C11.4025 9.5484 12.3071 9.03722 13.2858 8.82811C14.1207 8.65153 15.0021 8.68405 15.8185 8.93034C16.5142 9.13946 17.1544 9.52515 17.6785 10.027C18.2073 9.49729 18.7361 8.96752 19.2649 8.43777C19.5432 8.1543 19.8355 7.88011 20.1045 7.58735C19.302 6.84384 18.3558 6.24436 17.326 5.86331C15.4706 5.17557 13.3832 5.16161 11.5139 5.80756Z" fill="white"/>
<path fill-rule="evenodd" clip-rule="evenodd" d="M11.5138 5.80712C13.3785 5.16117 15.4705 5.17513 17.3259 5.85823C18.3557 6.23929 19.2973 6.8341 20.1044 7.58227C19.8354 7.87503 19.5432 8.1492 19.2649 8.43267C18.7361 8.96244 18.2073 9.49219 17.6785 10.0219C17.1543 9.52007 16.5142 9.13902 15.8184 8.92526C15.002 8.67897 14.1207 8.64179 13.2857 8.82301C12.3116 9.03214 11.4071 9.5433 10.7067 10.259C10.1408 10.8305 9.71403 11.5369 9.45429 12.299C8.51266 11.5648 7.57103 10.8352 6.62476 10.101C7.62205 8.10273 9.41254 6.52741 11.5138 5.80712Z" fill="#EA4335"/>
<path fill-rule="evenodd" clip-rule="evenodd" d="M5.87799 12.2666C6.03107 11.5138 6.28156 10.7795 6.62946 10.0918C7.57107 10.826 8.5127 11.5556 9.45897 12.2898C9.08789 13.3726 9.08789 14.5761 9.45897 15.6543C8.51734 16.3885 7.57573 17.1227 6.63409 17.8523C5.76203 16.1468 5.49763 14.144 5.87799 12.2666Z" fill="#FBBC05"/>
<path fill-rule="evenodd" clip-rule="evenodd" d="M14.3342 12.355C17.0385 12.355 19.7474 12.355 22.4518 12.355C22.7207 13.8746 22.6605 15.4592 22.2337 16.9462C21.8394 18.3078 21.0926 19.5718 20.0489 20.5337C19.1351 19.8227 18.2213 19.1117 17.3075 18.4007C18.2121 17.792 18.8522 16.8068 19.0331 15.7287C17.4653 15.7287 15.8974 15.7287 14.3296 15.7287C14.3342 14.6041 14.3342 13.4795 14.3342 12.355Z" fill="#4285F4"/>
<path fill-rule="evenodd" clip-rule="evenodd" d="M6.62476 17.8572C7.56639 17.1276 8.50802 16.3934 9.44963 15.6592C9.81145 16.7234 10.5072 17.6667 11.4257 18.3126C12.0009 18.7169 12.6595 19.005 13.346 19.1444C14.0233 19.2839 14.7237 19.2653 15.4056 19.1491C16.0828 19.0283 16.7368 18.782 17.3074 18.3963C18.2212 19.1073 19.135 19.8182 20.0488 20.5292C19.0608 21.4447 17.8223 22.0674 16.5142 22.3695C15.067 22.6994 13.5362 22.7087 12.0983 22.323C10.9572 22.0209 9.88568 21.4772 8.96259 20.7384C7.99314 19.967 7.18603 18.9725 6.62476 17.8572Z" fill="#34A853"/>
</svg>
