<svg width="20" height="24" viewBox="0 0 20 24" fill="none" xmlns="http://www.w3.org/2000/svg">
<path d="M15.3701 18.2039L15.0491 18.6319H14.1931L12.6951 18.3109L11.4111 19.7019L10.6621 21.4139L10.1271 22.1629H9.48507L8.84306 21.4139L8.30806 20.3439L8.20106 18.6319L8.52207 17.4549L8.41507 15.7429L6.91707 14.8869L2.95806 11.5699L1.88806 9.42992L3.38606 7.71792L8.62908 6.43392L10.4481 5.04292L11.6251 3.43792L12.5881 1.19092L13.2301 1.40492L13.9791 3.75892L14.8351 5.57792L16.4401 7.28992L17.6171 8.89492L18.2591 10.1789L17.9381 10.9279L16.8681 11.4629L16.3331 12.6399L15.2631 13.4959L15.0491 15.1009V16.7059L15.3701 18.2039Z" fill="#D1E5F2" stroke="white" stroke-width="2.14" stroke-linecap="round" stroke-linejoin="round"/>
</svg>
