<svg width="439" height="283" viewBox="0 0 439 283" fill="none" xmlns="http://www.w3.org/2000/svg">
<path d="M437.799 168.669L435.231 173.698L433.84 175.731L432.449 177.336L422.605 185.789L420.893 186.431L418.967 186.217L415.115 184.505L402.489 182.686L399.065 182.793L395.748 183.863L383.015 190.711L381.517 191.246L379.698 191.46L374.776 191.139L367.286 193.279L364.611 193.172L361.722 191.674L356.265 189.32L350.808 188.25L347.705 188.357L342.141 190.176L330.05 189.32L327.161 188.357L322.025 185.682L319.35 185.147L308.971 187.608L305.119 189.213L302.658 191.674L301.267 193.707L297.629 196.382L296.024 197.987L295.061 200.448L295.489 202.909L296.131 205.37L296.452 207.938L295.596 210.506L294.098 212.111L290.246 214.251L287.036 217.14L284.468 220.992L282.863 225.593L282.221 238.54L281.9 240.68L280.83 242.499L275.694 246.458L273.233 250.417L270.13 259.405L267.883 263.043L265.208 265.611L256.862 271.175L253.759 274.278L252.154 274.813L250.763 273.208L249.265 265.397L248.302 263.257L245.413 262.401L242.631 265.504L239.742 269.677L236.425 271.71L234.606 271.282L230.968 269.249L229.149 268.607L226.795 268.821L218.128 273.101L216.844 274.813L215.774 277.06L214.169 279.2L212.243 280.484L210.21 280.912L208.07 280.805L201.864 279.2L199.724 279.093L197.691 279.307L193.197 281.233L190.95 281.447L189.345 279.628L188.489 277.381L186.991 271.817L186.777 269.356L187.526 266.895L188.81 265.183L189.773 263.471L189.559 261.224L188.596 259.833L185.921 257.265L184.851 255.66L184.102 253.199L183.567 246.03L181.855 240.573L179.18 237.898H175.649L171.583 240.359L150.504 257.372L149.541 257.907L148.364 258.228L147.187 258.656L146.652 259.619L146.331 260.903L145.582 261.973L143.763 262.401L141.944 261.438L140.125 260.261L138.306 259.512L135.952 259.833L131.244 262.08L128.783 262.401L125.252 261.545L121.721 260.047L113.268 254.269L111.128 253.199L109.095 253.413L108.774 253.841L106.206 252.771L98.7161 252.878L97.0041 252.664L95.8271 252.343L95.2921 251.915L93.7941 249.882L86.6251 248.705L85.2341 247.956L84.4851 247.207L85.4481 244.318L85.5551 243.569V242.178L84.6991 240.466L83.4151 239.182L82.3451 238.54L68.9701 233.618L66.9371 232.334L62.9781 229.017L61.3731 227.091L60.6241 226.021L59.8751 224.416L59.1261 223.346L52.2781 216.712L50.6731 215.749L49.7101 214.786L49.1751 214.144L48.9611 211.897L48.7471 210.934L48.2121 209.543L47.6771 208.687L47.0351 208.045L44.5741 206.44L33.9811 197.024L32.2691 194.456L40.8291 184.077L42.1131 182.044L42.2201 180.974L34.8371 174.875L34.6231 173.912L34.8371 173.056L35.5861 171.237L36.2281 170.488L36.9771 170.06L38.4751 170.167H39.4381L40.2941 169.739L41.3641 168.455L42.7551 167.492L44.3601 167.171L45.1091 166.743L47.6771 165.031L48.1051 164.924L53.0271 164.71L60.7311 162.998L62.1221 163.212L63.8341 163.961L64.9041 164.282L66.2951 163.961L66.9371 163.319L65.7601 161.928L63.1921 158.183L62.6571 157.22L61.3731 154.01V152.94L61.8011 152.405L62.8711 151.87L70.5751 149.088L73.0361 147.59L74.6411 146.948L76.0321 146.52L82.0241 145.557L83.6291 145.022L87.0531 143.31L89.9421 142.347L90.7981 141.705L91.5471 140.956L94.9711 136.248L95.5061 135.071L96.6831 131.433L97.8601 126.511L98.7161 123.836L99.0371 122.445L99.2511 118.165L99.4651 116.881L100.749 113.992L101.07 113.136L100.963 111.852L100.107 110.996L97.3251 109.177H95.3991L94.6501 109.391L93.7941 110.14L93.4731 111.317L92.2961 112.28L80.2051 117.523L78.6001 117.737L76.9951 117.095L75.8181 116.988L73.8921 117.095L72.9291 117.523L70.8961 119.235L68.8631 120.305L67.5791 120.412L66.6161 120.091L65.3321 119.235L60.0891 118.593L55.1671 118.807L52.9201 119.128L51.4221 119.663L50.4591 120.305H49.1751L48.6401 119.984L47.1421 118.593L46.0721 117.844L44.7881 117.309L42.5411 116.988L40.9361 117.095L37.8331 118.058L36.7631 118.165L35.5861 117.951L33.5531 116.881L31.4131 114.848L30.9851 114.527L29.0591 113.992L28.4171 113.564L27.4541 112.28L26.8121 111.531L25.8491 111.103L24.6721 110.675L22.9601 110.996L22.4251 110.033L21.0341 106.395L20.0711 104.79H19.6431L19.4291 104.041L19.9641 103.613L22.4251 101.366L22.9601 100.938L24.2441 100.724L28.2031 101.259L30.0221 101.794L30.8781 102.115L31.7341 102.757L32.5901 103.613L33.1251 104.576L33.5531 105.753L33.6601 106.716V108.428L33.4461 110.354L34.0881 111.424L35.2651 112.28L38.4751 113.35L39.7591 113.457L40.4011 113.029V112.066L39.2241 101.794L38.6891 99.0119L38.2611 97.9419L37.8331 97.2999L37.1911 96.9789L34.0881 96.2299L29.9151 96.0159L26.4911 95.2669L25.9561 94.7319V94.0899L26.4911 87.0279L26.3841 84.9949L26.1701 83.0689L25.4211 81.3569L24.5651 80.6079L22.3181 79.8589L21.2481 79.3239L20.4991 79.2169L17.9311 80.6079L17.2891 80.7149L16.7541 80.5009L14.9351 78.8959L11.7251 77.5049L11.4041 77.7189L11.5111 79.0029L11.0831 80.6079L10.5481 81.3569L9.7991 81.9989L8.94308 82.2129L8.08709 82.1059L7.01709 81.5709L5.84008 80.6079L3.70008 77.8259L2.95107 77.1839L1.56008 76.1139L1.34607 75.0439L2.09508 74.6159H3.3791L4.55607 74.1879L5.09107 73.6529L6.0541 71.7269L8.30107 68.5169L8.94308 66.9119L20.4991 65.7349L22.1041 65.8419L23.9231 65.0929L27.8821 61.8829L28.8451 63.4879L29.7011 65.8419L30.1291 66.4839L31.5201 67.8749L32.5901 69.9079L33.7671 71.0849L35.2651 71.7269L36.8701 71.6199L39.2241 70.8709H39.7591L40.4011 71.6199L40.5081 73.2249L39.9731 76.1139L40.1871 77.7189L40.7221 78.7889L41.5781 79.1099L42.2201 78.5749L42.6481 77.8259L43.1831 74.6159L43.3971 73.5459L43.8251 72.6899L44.6811 71.8339L47.3561 69.9079L47.9981 69.6939L48.9611 69.9079L50.2451 70.9779L51.4221 71.5129H52.1711L53.2411 70.9779L54.3111 70.1219L54.9531 69.2659L55.2741 68.3029L55.0601 66.0559L55.1671 65.0929L55.4881 64.2369L56.2371 63.0599L58.6981 60.3849L59.1261 59.3149L59.2331 58.2449L58.8051 56.1049L58.9121 54.4999L59.2331 53.2159L60.0891 51.7179L61.2661 50.0059L62.2291 49.1499L63.4061 48.2939V47.3309L62.7641 46.4749L61.9081 46.0469L59.4471 45.4049L59.2331 43.9069L59.1261 42.5159L60.8381 31.6019L61.1591 30.3179L62.5501 29.7829H64.9041L68.7561 30.4249L70.3611 31.1739L71.4311 31.4949L88.5511 28.8199L90.7981 28.9269L91.3331 29.4619L92.0821 31.3879L93.3661 31.2809L95.6131 27.9639L99.3581 22.8279L101.284 21.8649L108.774 21.1159H109.523L111.663 21.9719L112.412 22.1859L113.054 22.0789L113.589 21.6509L113.482 20.2599L112.733 18.5479L108.239 11.2719L106.42 6.56387L107.49 5.92187L121.507 3.67487L122.791 3.13987L124.075 1.96287L124.931 2.06987L125.894 2.49787L128.462 5.70787L131.565 4.63787L132.849 3.56787L133.277 3.13987L134.775 2.71187L138.627 3.99587L153.393 4.63787L154.463 4.42387L157.245 3.46087L158.422 2.60487L159.813 2.28387L163.772 4.20987L164.521 4.42387L165.912 4.31687L172.974 2.60487L174.579 1.85587L175.114 1.74887L175.97 2.71187L176.398 3.88887L176.505 4.63787L176.184 7.74087L176.826 7.84787L178.217 7.41987L183.246 4.10287L184.53 2.60487L184.851 2.06987L186.67 1.21387L186.884 2.39087L188.168 6.67087L188.917 7.63387L191.378 7.84787L192.769 8.38287L193.411 8.81087L196.193 10.0949L197.37 11.2719L198.868 14.3749L199.724 15.3379L200.58 15.4449L207.642 15.0169L209.354 14.1609L210.21 13.4119L210.959 12.2349L211.601 10.9509L212.029 10.4159H213.42L215.881 11.0579L216.737 11.4859L217.379 12.2349L217.807 13.7329L218.128 15.6589V17.0499L218.663 18.3339L220.375 19.5109L221.552 20.7949L222.087 22.0789L222.515 23.3629L222.408 24.9679L220.803 29.5689L220.589 30.3179L220.054 33.5279L220.161 34.9189L220.589 35.4539L221.338 35.7749L222.943 36.2029L223.371 36.8449L223.478 37.8079L223.264 39.5199L223.585 40.2689L224.334 41.1249L227.865 43.4789L229.363 44.8699L230.326 46.4749L230.54 47.5449V48.5079L230.005 50.8619L229.363 52.1459L228.4 53.1089L226.474 54.8209L224.334 56.2119L223.478 57.2819L223.05 58.6729L223.371 59.3149L223.906 59.9569L225.404 60.3849L227.116 60.2779L234.499 58.1379L236.853 57.0679L237.388 56.9609L238.351 57.2819L239.635 58.0309L241.989 59.8499L243.38 60.5989L244.45 61.0269L245.841 60.9199L248.195 60.0639L249.693 60.1709L253.438 61.2409L255.578 62.6319L258.467 63.8089L259.216 63.9159L266.385 64.1299L267.883 64.4509L275.801 68.7309L278.904 69.9079L280.402 70.3359L281.793 70.2289L284.04 69.0519H285.11L285.431 69.4799L283.505 73.7599L282.649 76.9699L282.328 79.8589L281.9 80.5009L281.044 81.0359L278.048 81.3569L271.949 80.9289L269.809 81.1429L269.06 81.3569L267.883 81.9989L266.92 82.8549L265.422 85.6369L267.027 87.5629L267.455 88.9539L267.883 89.3819L280.83 90.0239L282.756 89.5959L284.361 88.7399L285.003 88.5259L286.073 88.8469L287.571 89.2749L290.139 90.6659L292.279 92.0569L292.921 93.1269V94.5179L292.493 96.8719L292.172 97.5139L290.674 99.9749L290.353 100.724L289.818 102.329L289.604 104.576L288.962 106.93L287.892 108.963L286.287 111.317L285.752 112.601L286.073 113.136L286.715 113.35L288.32 112.922L290.139 112.173H290.888L292.065 112.708L293.135 113.778L293.67 114.955L294.312 115.276L295.061 115.597L299.876 116.239L302.123 116.025L304.156 115.49L307.152 114.099L308.329 113.671H309.506L316.354 114.313L321.811 115.704L339.252 115.276L340.215 115.062L341.606 114.42L343.532 113.029L344.281 112.601L347.491 111.745L349.417 110.996L350.915 109.926H351.878L352.627 112.387L352.092 117.844L351.343 121.054L349.631 125.548L348.882 126.19L348.24 126.511L347.384 126.404L346.314 125.869L345.993 126.404L347.491 130.47L347.919 133.038L348.026 134.429L349.417 135.82L354.339 138.067L357.549 140.1L358.833 141.277L358.94 141.812L358.619 142.882L357.014 145.236L356.693 146.627L356.479 148.125L355.409 152.298L355.088 153.047L354.232 154.117L352.841 155.401L352.52 156.043V156.578L352.948 157.006L356.051 156.578L371.994 152.084L375.311 150.479L376.381 150.265L379.591 150.372L381.089 150.693L381.945 151.442L382.266 152.191L382.159 153.689L380.875 156.578L380.447 158.076V159.467L380.768 160.751L381.089 161.286L381.945 161.714L383.229 161.928L392.324 161.821L404.736 165.138H411.905L416.506 164.603L418.86 163.961L423.247 161.5L424.638 160.323L426.778 159.039L427.848 158.504H429.453L431.272 159.253L432.021 159.895L432.663 160.858L433.412 162.784L434.161 164.817L434.696 165.887L435.766 167.278L437.799 168.669Z" fill="#D1E5F2" stroke="white" stroke-width="2.14" stroke-linecap="round" stroke-linejoin="round"/>
</svg>
