<svg width="405" height="187" viewBox="0 0 405 187" fill="none" xmlns="http://www.w3.org/2000/svg">
<path d="M402.145 47.8291L403.108 51.1461L402.68 53.1791L402.038 53.3931H401.396L400.005 52.9651H399.47L398.4 53.7141L395.939 56.3891L395.511 57.4591L394.976 59.8131L394.441 60.6691L393.692 61.3111L391.124 62.1671L389.198 62.5951L366.3 62.0601L365.123 62.2741L364.16 63.5581L363.625 65.2701L362.555 66.8751L361.164 67.3031L358.061 66.8751L353.567 64.9491L352.604 64.7351L351.855 64.9491L346.719 67.7311L345.328 68.0521H344.258L341.262 66.9821L338.694 67.0891L332.595 65.6981L331.632 65.5911L330.99 65.9121L330.455 66.4471L328.636 70.6201L327.459 71.2621L320.183 72.9741L313.442 76.0771L311.302 77.3611L309.269 78.9661L304.026 85.3861L303.384 86.0281L301.03 87.7401L300.067 88.1681L299.211 88.3821L297.82 88.2751L296.643 87.9541L295.038 86.9911H292.791L279.309 90.3081L277.597 90.4151L270.321 89.7731L268.93 89.9871L268.074 90.5221L267.218 92.7691L265.613 93.9461L263.259 95.0161L261.975 95.8721L259.621 97.9051L258.337 98.3331L257.267 98.6541L255.876 98.7611L255.341 99.1891L255.127 99.8311V101.864L254.592 103.576L254.271 104.111L253.415 104.753L249.67 107.214L247.851 108.07L247.53 108.605L246.246 110.103L241.217 113.42L239.826 113.848L239.184 113.741L239.505 110.638L239.398 109.889L238.97 108.712L238.114 107.749L237.579 107.856L235.974 108.605L228.912 110.317L227.521 110.424L226.772 110.21L222.813 108.284L221.422 108.605L220.245 109.461L217.463 110.424L216.393 110.638L201.627 109.996L197.775 108.712L196.277 109.14L195.849 109.568L194.565 110.638L191.462 111.708L188.894 108.498L187.931 108.07L187.075 107.963L185.791 109.14L184.507 109.675L170.49 111.922L169.42 112.564L171.239 117.272L175.733 124.548L176.482 126.26L176.589 127.651L176.054 128.079L175.412 128.186L174.663 127.972L172.523 127.116H171.774L164.284 127.865L162.358 128.828L158.613 133.964L156.366 137.281L155.082 137.388L154.333 135.462L153.798 134.927L151.551 134.82L134.431 137.495L133.361 137.174L131.756 136.425L127.904 135.783H125.55L124.159 136.318L123.838 137.602L122.126 148.516L122.233 149.907L122.447 151.405L124.908 152.047L125.764 152.475L126.406 153.331V154.294L125.229 155.15L124.266 156.006L123.089 157.718L122.233 159.216L121.912 160.5L121.805 162.105L122.233 164.245L122.126 165.315L121.698 166.385L119.237 169.06L118.488 170.237L118.167 171.093L118.06 172.056L118.274 174.303L117.953 175.266L117.311 176.122L116.241 176.978L115.171 177.513H114.422L113.245 176.978L111.961 175.908L110.998 175.694L110.356 175.908L107.681 177.834L106.825 178.69L106.397 179.546L106.183 180.616L105.648 183.826L105.22 184.575L104.578 185.11L103.722 184.789L103.187 183.719L102.973 182.114L103.508 179.225L103.401 177.62L102.759 176.871H102.224L99.87 177.62L98.265 177.727L96.7671 177.085L95.59 175.908L94.52 173.875L93.1291 172.484L92.701 171.842L91.845 169.488L90.882 167.883L86.923 171.093L85.104 171.842L83.4991 171.735L71.943 172.912L70.338 167.455L69.375 165.636L67.984 164.887L67.128 164.673L65.095 164.245L64.239 164.138L63.062 164.459L60.815 165.636L60.28 166.064L58.889 167.776L58.461 168.204L57.605 168.632L56.107 168.846L55.037 168.739L46.156 165.208L44.872 164.994L43.481 165.101L40.592 165.743H39.201L36.098 164.459L34.065 164.138L31.283 164.887L30.641 164.245L29.999 161.677L29.571 160.5L28.608 159.323L27.752 158.574L26.04 157.504L24.863 157.076L23.793 156.755H22.188L21.546 156.434L20.155 154.936L18.978 154.508L14.698 153.759L9.66904 151.833L8.38503 151.512H7.31503L6.67302 151.726L5.92404 150.87L5.28203 149.158L6.24503 147.232L6.56601 146.483L6.35203 145.627L5.60302 145.092L2.07203 144.022L1.43003 143.487L1.10904 142.845V141.24L1.96503 137.281L2.28601 136.318L2.92802 135.569L3.99802 135.141L7.20802 135.248L8.49203 135.034L9.56203 134.071L10.632 132.68L11.381 132.038L14.163 130.647L16.41 130.005L18.229 129.791L20.048 129.256L21.439 129.042L23.258 129.363L24.435 129.791L25.826 130.112L27.324 129.898L31.069 128.293L32.781 127.865L35.028 127.758L38.666 128.293L39.415 128.614L42.09 130.112H43.695L45.728 129.577L51.613 127.009L53.004 126.26L55.786 122.515L56 120.375L56.535 119.198L58.14 116.951L60.708 114.49L61.136 113.741L61.457 112.671L61.35 111.173L61.136 110.21L59.852 108.391L58.354 108.07L55.572 108.391H54.609L53.004 107.856L52.041 107L51.506 105.823L50.864 103.576L50.543 103.148H50.115L49.366 104.111L48.938 105.288L48.724 106.893L49.152 108.819L48.403 110.317L46.049 112.564L43.267 112.136L36.312 98.6541L34.814 94.4811L34.065 90.0941L34.279 85.0651L35.456 80.4641L40.592 68.8011L43.16 63.1301L43.481 61.0971L43.16 58.6361L41.983 54.2491L41.769 52.0021L42.09 49.7551L42.839 47.8291L44.872 44.2981L48.51 33.5981L49.687 31.5651L51.185 30.2811L55.786 27.6061L72.371 20.6511L73.976 20.2231L78.042 20.4371L81.68 18.5111L84.89 9.30907L87.7791 7.06207L89.812 7.70407L93.236 11.1281L95.055 11.6631L110.249 9.84407L111.854 8.88107L112.175 7.06207L111.105 4.70807L108.43 1.07007L111.319 2.67507L116.241 7.16907L118.916 8.34607L122.126 9.09507L124.908 10.4861L129.937 14.6591L131.863 15.7291L135.929 16.1571L139.46 18.4041L143.419 19.5811L145.238 20.5441L146.522 22.2561L148.983 26.5361L150.374 28.1411L160.325 35.8451L163.642 37.1291L174.663 39.0551L183.009 43.1211L185.791 45.5821L188.466 46.9731L194.351 48.7921L197.133 50.3971L199.38 52.2161L205.265 55.7471L207.833 56.3891L214.253 56.2821L236.081 59.1711L239.826 58.7431L241.752 58.9571L248.065 61.6321L250.526 61.5251L253.308 60.2411L256.09 58.3151L258.444 55.8541L259.407 54.1421L262.617 45.6891L263.687 44.7261L265.185 44.2981L271.177 43.8701L274.922 44.4051L282.519 46.6521L284.659 46.7591L291.079 44.6191L293.54 44.5121L300.602 46.3311H309.376L317.722 48.8991L318.792 48.6851L320.718 47.8291L321.895 47.7221L322.858 48.3641L323.928 50.5041L324.891 51.0391L326.603 50.5041L329.492 47.6151L331.311 46.8661L333.879 47.1871L338.908 49.3271L341.369 49.7551L343.402 49.3271L347.147 47.6151L351.427 47.7221L353.353 47.2941L356.991 45.2611L357.419 44.8331L357.74 43.6561L358.489 43.5491L360.201 43.8701H360.843L361.592 43.4421L363.625 40.9811L365.444 39.5901L367.37 39.2691H371.65L375.502 37.6641L377.428 37.3431L379.354 38.1991L390.268 40.0181L393.585 41.3021L394.655 42.2651L397.437 46.2241L398.935 47.4011L400.433 47.7221L402.145 47.8291ZM153.37 61.2041L153.049 59.7061V58.1011L153.263 56.4961L154.333 55.6401L154.868 54.4631L155.938 53.9281L156.259 53.1791L155.617 51.8951L154.44 50.2901L152.835 48.5781L151.979 46.7591L151.23 44.4051L150.588 44.1911L149.625 46.4381L148.448 48.0431L146.629 49.4341L141.386 50.7181L139.888 52.4301L140.958 54.5701L144.917 57.8871L146.415 58.7431L146.522 60.4551L146.201 61.6321L146.308 63.3441L146.843 64.4141L147.485 65.1631H148.127L148.662 64.4141L149.411 62.7021L150.695 61.3111L152.193 61.6321H153.049L153.37 61.2041Z" fill="#D1E5F2" stroke="white" stroke-width="2.14" stroke-linecap="round" stroke-linejoin="round"/>
</svg>
