<svg version="1.2" xmlns="http://www.w3.org/2000/svg" viewBox="0 0 278 105" width="278" height="105">
	<title>KGZ1121Talas-svg</title>
	<style>
		.s0 { fill: #d1e5f2;stroke: #ff0000;paint-order:stroke fill markers;stroke-linecap: round;stroke-linejoin: round;stroke-width: 4.3 } 
		.s1 { fill: #d1e5f2;stroke: #ff0000;paint-order:stroke fill markers;stroke-linecap: round;stroke-linejoin: round;stroke-width: 6.2 } 
		.s2 { fill: #d1e5f2;stroke: #ff0000;stroke-linecap: round;stroke-linejoin: round;stroke-width: 2.1 } 
		.s3 { fill: #d1e5f2;stroke: #ffffff;stroke-linecap: round;stroke-linejoin: round;stroke-width: 2.1 } 
	</style>
	<path id="Layer" class="s0" d="m258.3 56.1l2.7 0.5l2.4-2.3l0.8-1.5l-0.5-1.9l0.2-1.6l0.5-1.2l0.7-1h0.4l0.4 0.5l0.6 2.2l0.5 1.2l1 0.9l1.6 0.5h1l2.8-0.3l1.5 0.3l1.2 1.8l0.3 1l0.1 1.5l-0.4 1l-0.4 0.8l-2.6 2.5l-1.6 2.2l-0.5 1.2l-0.2 2.1l-2.8 3.8l-1.4 0.7l-5.9 2.6l-2 0.5h-1.6l-2.7-1.5l-0.7-0.3l-3.7-0.5l-2.2 0.1l-1.7 0.4l-3.8 1.6l-1.5 0.2l-1.4-0.3l-1.1-0.4l-1.9-0.4l-1.4 0.3l-1.8 0.5l-1.8 0.2l-2.2 0.6l-2.8 1.4l-0.8 0.7l-1 1.4l-1.1 0.9l-1.3 0.2l-3.2-0.1l-1.1 0.5l-0.6 0.7l-0.3 1l-0.9 3.9v1.6l0.3 0.7l0.7 0.5l3.5 1.1l0.8 0.5l0.2 0.9l-0.4 0.7l-0.9 2l-3.1 1l-2.2-0.9l-0.7-0.9l-0.8-0.1l-9.3 2.4l-2.5 1l-1.6 1.4l-0.3 1.4l-0.1 1.5l-0.2 1.2l-1.2 1.2l-2 0.7l-3 0.4l-1.6-0.1l-1.4-0.6l-4.6-4.9l-1.8-1.4l-2-1.1l-5.4-2l-3.1-2l-1.6 0.2l-3.8 1.2l-1.8-0.5l-3.3-2.1l-3.3-0.3l-3.1 0.3l-1.7-0.5l-1.2-0.7l-0.5-1.4l-0.8-1.4l-1.4-1.4l-1.2-0.4h-3.1l-7.3 1.2l-1.7 0.5l-2.3 1l-1.3 1.2l-0.8 1.6l-0.7 1.8l-0.9 4l-1 2.5l-2.1 2.6l-1.8 1l-1.9 0.5l-6.3-0.3l-2.3-2.1l-1.8-1.1l-1.9-0.7l-10.8-4.5l-3.1-0.7l-1.9 0.5l-1.4-0.5l-16.2-7.2l-2.6-0.8l-12.1 0.3l-1 0.4l-2 1l-3.5 1.1l-1.4 0.1l-1.2-0.2l-12.9-2.9l-2.4 0.8l-3.1-1.1l-13.6-9.8l-3.1-1.2l-3.1 0.4l-4.3 3.1l-2.1 2l-2.8-0.6l-2-1.1l-3.9-3.8l-0.5-2.1l1.1-2l3.6-3.3l3.1-3.9l0.6-1.5l-0.2-0.9l-0.5-0.9l-0.2-1.4l0.6-2.5l1.1-2.6l1.4-2.3l1.5-1.4l4.6 3l1.6 0.3l1.2-0.8l1-1.3l0.2-1.6l-0.8-1.5l-3.5-3l-0.9-1.3l-0.9-4.9l3.6-2.2l8.4-1.3l1.5-1.6l0.5-1.9l-0.2-5.3l0.2-2.8l0.9-1.3l3.6-1.2l1.6-1.1l1.2-1.6l2.2-3.9l1.6-0.8l2.1 0.6l2.4 1.1l2 0.4l1.7-0.7l1.5-1.5l1.3-1.8l1.1-2.1l1.7-1.5l2.3-0.1l4.6 1.6l1.6-0.7l1.1-0.1l1 0.5l3.8 3.3l1.2 0.4l1.7-0.3l10.6-6.8l3.2-1.1l6.7-0.3l3.5-1.3l1.6-0.3l1.5 0.7l1.5 1l1.6 0.7l5.9 1.5l11.2 6.2l3.1 1l1.5-0.2l2.8-1.4l1.5-0.3l12.4 0.5l6.4 2.6l11.5 7.7l3.3 0.7l7-0.1l13.7 3.3l3 1.8l2.4 2.5l3.3 6.2l2.5 2.4l3.3 1.5l3.2 0.9l3.3 0.2l12.4-2.2l4.3 0.2l3.6 1.5l2 1.5l1.6 1l1.7 0.4l6.9 0.6l2.3 0.7l1.4 1.8l-0.2 4l0.1 2.9l1 1.7l8.9 1.5l5.8 2.3l2.7-0.5z" />
	<path id="форма 3" class="s1" d="m160-14" />
	<path id="форма 4" class="s1" d="m119-41" />
	<path id="форма 2" class="s2" d="m155-19" />
	<path id="форма 1" class="s3" d="m117-16" />
</svg>