<svg width="329" height="251" viewBox="0 0 329 251" fill="none" xmlns="http://www.w3.org/2000/svg">
<path d="M248.269 23.4559L249.981 26.024L260.574 35.44L263.035 37.045L263.677 37.687L264.212 38.543L264.747 39.934L264.961 40.897L265.175 43.144L265.71 43.7859L266.673 44.749L268.278 45.712L275.126 52.346L275.875 53.416L276.624 55.021L277.373 56.091L278.978 58.017L282.937 61.334L284.97 62.618L298.345 67.54L299.415 68.182L300.699 69.466L301.555 71.178V72.569L301.448 73.318L300.485 76.207L301.234 76.956L302.625 77.705L309.794 78.882L311.292 80.915L311.827 81.343L313.004 81.664L314.716 81.878L322.206 81.771L324.774 82.841L323.597 84.66L323.062 86.372L322.313 88.726L321.136 91.401L320.387 93.969L321.136 95.895L325.63 100.175L326.807 101.887L327.663 106.06L324.667 106.809L316.428 104.669L314.288 104.562L312.469 105.311L307.547 110.447L305.942 111.624L302.09 113.657L298.88 116.118L290.32 125.534L279.941 133.987L276.517 135.485L273.521 136.02L270.525 135.485L267.208 134.201L263.891 133.452L260.36 133.88L257.043 135.378L253.94 137.411L250.944 138.802L244.524 139.658L241.956 141.905L240.886 143.189L240.137 144.687L239.495 146.399L239.281 148.218L238.746 151.214L237.141 153.354L235.215 155.28L233.824 157.741L233.075 162.984L232.647 164.482L231.898 165.552L229.116 167.906L227.939 169.725L227.083 171.972L226.655 174.433L226.762 176.894L227.725 179.355L229.009 180.211L230.614 180.639L232.54 181.816L233.824 183.956L234.466 186.631L234.894 192.088L237.141 198.829L236.606 200.113L234.466 201.504L232.861 202.788L231.684 204.607L230.507 207.389L229.437 211.776L228.474 213.488L226.869 214.451L208.572 216.912L205.897 215.521L196.909 214.558L193.592 214.879L182.999 217.554L180.645 219.159L179.896 221.085L179.682 222.904L178.933 224.188L173.476 225.258L163.632 228.575L160.529 228.896L157.105 227.933L155.5 227.077L154.216 226.649L153.039 226.97L148.331 229.431L146.833 229.538L145.121 229.003L139.129 227.719L137.096 227.505L132.923 228.468L131.425 228.575L113.556 223.76H111.951L110.239 224.188L109.276 225.151L107.35 227.398L106.28 228.147H104.675L102.321 226.542L100.823 226.114L99.753 226.542L96.7571 229.752L95.1521 230.073L93.5471 229.966L90.3371 229.11L88.625 229.217L84.9871 231.036L82.9541 231.357L81.2421 231.999L80.065 233.818L77.818 240.666L73.8591 249.333L72.6821 249.44L71.7191 247.942L70.863 245.909L70.5421 244.732V243.769L70.221 243.02L68.188 241.95L66.7971 240.773L65.941 240.238L61.768 239.596L59.735 238.74L58.8791 236.814L58.665 234.139L58.13 230.929L57.06 228.254L55.348 226.97L53.6361 227.184L50.2121 229.11L46.574 229.859L44.969 230.715L35.446 237.456L31.915 238.954L28.384 239.382L26.458 238.847L24.746 237.456L23.355 235.423L22.606 232.962L22.82 230.394L23.783 228.789L25.0671 227.505L26.1371 225.579L26.565 223.118L26.351 219.801L25.388 216.912L23.89 215.521L21.964 215.628L12.12 217.661L7.41205 217.447L3.45304 215.628L1.42004 211.241L2.27605 209.315L4.73705 205.677L5.16504 203.751L4.63004 201.825L3.13205 199.792L3.98804 197.652L4.73705 194.121L5.05804 193.265L7.09105 189.199L9.44504 187.059L16.935 185.24L18.6471 184.17L19.824 182.993L20.7871 181.495L21.643 180.853L22.82 180.425H24.5321L25.923 180.746L26.6721 181.281L27.2071 182.993L27.956 183.742L29.3471 184.491L30.845 185.026L45.076 188.022L46.574 188.664L47.858 189.627L49.998 191.232L51.2821 191.767L53.315 192.195L54.813 192.302L56.2041 192.088L56.953 192.409L58.8791 193.693L59.8421 193.8L60.9121 193.586L62.945 192.73L64.55 192.302L67.546 191.981L73.6451 193.051L77.0691 192.409L79.2091 191.446L82.3121 190.59L83.703 189.948L84.8801 189.199L87.448 186.952L92.0491 184.812L96.8641 183.207L100.181 181.495L101.679 180.318L102.107 179.676L102.535 178.285L103.819 176.68L101.679 172.614L99.5391 170.046L98.2551 168.869L97.72 167.585L97.1851 164.91L96.543 164.161L95.58 163.947L94.6171 164.375L92.9051 165.659H91.9421L90.3371 164.91L88.3041 161.7L86.806 158.597L85.843 157.099L84.773 156.243L83.168 155.173L81.7771 154.638L79.316 154.103L78.246 153.568L77.925 152.819L77.818 151.963L78.0321 150.893L78.46 149.716L78.995 148.646L79.316 147.469L79.1021 146.078L78.246 144.152L77.925 142.868L78.0321 141.905L78.46 141.049L78.781 140.193L78.6741 138.909L78.1391 137.946L77.176 137.09L74.073 135.592L73.8591 134.95L74.2871 134.415L76.32 132.596L76.9621 131.205L76.855 129.172L76.213 127.888L74.8221 126.818L70.756 125.106L69.9 124.25L69.5791 123.394L70.1141 122.859L71.0771 122.324L71.7191 121.468L71.933 120.291L71.291 118.9L71.0771 117.83V116.546L71.7191 114.192L71.826 112.908L71.0771 110.982L70.1141 110.019L68.616 109.805L60.056 112.159L55.348 113.978L51.8171 114.192L51.175 113.657L48.393 112.373L46.574 111.089L45.825 109.163L46.36 107.344L54.7061 103.064L57.2741 100.496L58.665 96.965L59.3071 94.611L60.163 93.22L66.583 89.689L68.295 89.261L73.431 88.94L75.143 89.154L76.106 89.903L75.678 91.187L74.2871 91.722L72.6821 91.829L71.5051 92.15L71.0771 93.327L72.2541 93.755L76.641 93.541L78.1391 94.076L83.8101 97.5L86.485 98.463L88.7321 97.928L90.658 95.253L91.728 92.043L91.835 89.047L90.765 86.479L86.5921 83.483L85.736 82.306V80.915L86.378 78.775V76.528L84.345 72.997L84.666 70.857L87.555 69.573L90.765 72.355L93.9751 76.207L96.7571 77.598L100.502 78.026L107.243 82.734L111.095 82.52L112.593 81.343L113.556 79.738L113.984 77.919L114.091 76.1L114.84 73.96H116.659L120.19 75.565L122.972 74.281L124.149 65.828L126.503 62.19L129.82 60.799L136.775 58.98L145.121 53.737L154.216 50.313L158.817 47.745L161.813 43.7859L161.278 41.218L160.422 41.004L162.134 39.506L164.809 36.724L170.48 34.1559L171.764 33.086L172.62 32.123L172.941 31.374V29.8759L172.192 27.629V26.987L172.62 24.74L172.406 22.9209L172.299 21.851L172.727 20.353L173.476 19.39L174.332 18.427L179.361 14.682L180.538 14.3609L180.966 14.682L181.929 15.859L182.571 17.0359L183.106 17.5709L184.497 17.357L185.353 17.0359L186.209 15.217L186.851 14.04L187.6 13.2909L188.777 12.542L189.419 11.6859L191.238 8.68996L192.201 7.61996L193.271 7.94095L196.481 7.83397L204.72 8.58296L205.79 8.47595L207.181 8.04796L207.716 7.72697L208.037 7.19197L207.93 6.12197L207.395 4.19595L207.716 3.12595L208.786 2.48397L211.675 1.94897H212.21L214.564 4.94496L214.992 5.90796V7.19197L214.457 8.04796L206.218 15.859L205.041 17.25L204.506 18.534L205.041 19.1759L207.502 19.39L208.251 20.2459L208.572 22.386L208.893 22.9209L209.535 23.242L211.247 23.4559L212.424 23.9909L214.35 25.5959L215.634 25.917L216.597 25.489L216.704 24.312L216.597 21.637L216.704 20.674L217.025 19.604L217.881 18.534L219.058 17.357L222.696 14.8959L223.338 14.254L228.474 5.69397L230.079 3.76796L231.577 3.55397L232.647 3.98197L233.075 4.40996L233.182 5.05197L232.861 6.87095L233.075 8.04796L233.717 8.79697L235.643 10.295L236.071 11.258L236.178 12.435L236.071 14.147L236.285 16.073L236.713 17.0359L237.141 17.678L248.269 23.4559Z" fill="#D1E5F2" stroke="white" stroke-width="2.14" stroke-linecap="round" stroke-linejoin="round"/>
</svg>
