<svg width="449" height="183" viewBox="0 0 449 183" fill="none" xmlns="http://www.w3.org/2000/svg">
<path d="M288.282 10.1578L288.924 11.8698L289.673 12.7258L290.315 12.5118H291.385L292.669 12.8328L297.698 14.7588L301.978 15.5078L303.155 15.9358L304.546 17.4338L305.188 17.7548H306.793L307.863 18.0758L309.04 18.5038L310.752 19.5738L311.608 20.3228L312.571 21.4998L312.999 22.6768L313.641 25.2448L314.283 25.8868L317.065 25.1378L319.098 25.4588L322.201 26.7428H323.592L326.481 26.1008L327.872 25.9938L329.156 26.2078L338.037 29.7388L339.107 29.8458L340.605 29.6318L341.461 29.2038L341.889 28.7758L343.28 27.0638L343.815 26.6358L346.062 25.4588L347.239 25.1378L348.095 25.2448L350.128 25.6728L350.984 25.8868L352.375 26.6358L353.338 28.4548L354.943 33.9118L354.301 35.5168L352.054 38.7268L351.091 40.6528L350.556 41.1878L349.379 41.6158H348.095L347.346 42.0438L347.56 43.1138L348.951 44.1838L349.7 44.8258L351.84 47.6078L353.017 48.5708L354.087 49.1058L354.943 49.2128L355.799 48.9988L356.548 48.3568L357.083 47.6078L357.511 46.0028L357.404 44.7188L357.725 44.5048L360.935 45.8958L362.754 47.5008L363.289 47.7148L363.931 47.6078L366.499 46.2168L367.248 46.3238L368.318 46.8588L370.565 47.6078L371.421 48.3568L372.17 50.0688L372.384 51.9948L372.491 54.0278L371.956 61.0898V61.7318L372.491 62.2668L375.915 63.0158L380.088 63.2298L383.191 63.9788L383.833 64.2998L384.261 64.9418L384.689 66.0118L385.224 68.7938L386.401 79.0658V80.0288L385.759 80.4568L384.475 80.3498L381.265 79.2798L380.088 78.4238L379.446 77.3538L379.66 75.4278V73.7158L379.553 72.7528L379.125 71.5758L378.59 70.6128L377.734 69.7568L376.878 69.1148L376.022 68.7938L374.203 68.2588L370.244 67.7238L368.96 67.9378L368.425 68.3658L365.964 70.6128L365.429 71.0408L365.643 71.7898H366.071L367.034 73.3948L368.425 77.0328L368.96 77.9958L370.672 77.6748L371.849 78.1028L372.812 78.5308L373.454 79.2798L374.417 80.5638L375.059 80.9918L376.985 81.5268L377.413 81.8478L379.553 83.8808L381.586 84.9508L382.763 85.1648L383.833 85.0578L386.936 84.0948L388.541 83.9878L390.788 84.3088L392.072 84.8438L393.142 85.5928L394.64 86.9838L395.175 87.3048H396.459L397.422 86.6628L398.92 86.1278L401.167 85.8068L406.089 85.5928L411.332 86.2348L412.616 87.0908L413.579 87.4118L414.863 87.3048L416.896 86.2348L418.929 84.5228L419.892 84.0948L421.818 83.9878L422.995 84.0948L424.6 84.7368L426.205 84.5228L438.296 79.2798L439.473 78.3168L439.794 77.1398L440.65 76.3908L441.399 76.1768H443.325L446.107 77.9958L446.963 78.8518L447.07 80.1358L446.749 80.9918L445.465 83.8808L445.251 85.1648L445.037 89.4448L444.716 90.8358L443.86 93.5108L442.683 98.4328L441.506 102.071L440.971 103.248L437.547 107.956L436.798 108.705L435.942 109.347L433.053 110.31L429.629 112.022L428.024 112.557L422.032 113.52L420.641 113.948L419.036 114.59L416.575 116.088L408.871 118.87L407.801 119.405L407.373 119.94V121.01L408.657 124.22L409.192 125.183L411.76 128.928L412.937 130.319L412.295 130.961L410.904 131.282L409.834 130.961L408.122 130.212L406.731 129.998L399.027 131.71L394.105 131.924L393.677 132.031L391.109 133.743L390.36 134.171L388.755 134.492L387.364 135.455L386.294 136.739L385.438 137.167H384.475L382.977 137.06L382.228 137.488L381.586 138.237L380.837 140.056L380.623 140.912L380.837 141.875L388.22 147.974L388.113 149.044L386.829 151.077L378.269 161.456L367.141 155.678L366.713 155.036L366.285 154.073L366.071 152.147L366.178 150.435L366.071 149.258L365.643 148.295L363.717 146.797L363.075 146.048L362.861 144.871L363.182 143.052L363.075 142.41L362.647 141.982L361.577 141.554L360.079 141.768L358.474 143.694L353.338 152.254L352.696 152.896L349.058 155.357L347.881 156.534L347.025 157.604L346.704 158.674L346.597 159.637L346.704 162.312L346.597 163.489L345.634 163.917L344.35 163.596L342.424 161.991L341.247 161.456L339.535 161.242L338.893 160.921L338.572 160.386L338.251 158.246L337.502 157.39L335.041 157.176L334.506 156.534L335.041 155.25L336.218 153.859L344.457 146.048L344.992 145.192V143.908L344.564 142.945L342.21 139.949H341.675L338.786 140.484L337.716 141.126L337.395 142.196L337.93 144.122L338.037 145.192L337.716 145.727L337.181 146.048L335.79 146.476L334.72 146.583L326.481 145.834L323.271 145.941L322.201 145.62L321.238 146.69L319.419 149.686L318.777 150.542L317.6 151.291L316.851 152.04L316.209 153.217L315.353 155.036L314.497 155.357L313.106 155.571L312.571 155.036L311.929 153.859L310.966 152.682L310.538 152.361L309.361 152.682L304.332 156.427L303.476 157.39L302.727 158.353L302.299 159.851L302.406 160.921L302.62 162.74L302.192 164.987V165.629L302.941 167.876V169.374L302.62 170.123L301.764 171.086L300.48 172.156L294.809 174.724L292.134 177.506L290.422 179.004L288.282 178.469L282.611 178.897L280.578 177.506L279.294 175.58L277.689 174.51L270.52 177.827L266.026 181.037L264.849 181.251L265.063 179.111L264.635 175.259L260.89 174.296L248.478 175.473L244.305 174.938L240.56 173.226L237.564 169.909L233.391 163.489L231.465 162.74L229.111 162.526L227.399 161.67V158.674L227.506 157.283L226.757 156.32L221.621 155.892L218.839 155.036L216.806 153.752L214.024 149.365L212.74 148.509L211.028 149.9L210.493 150.863L209.316 154.287L208.674 154.822L205.036 155.357L196.583 157.925L197.867 154.929L198.509 152.575V150.114L197.653 143.373L197.439 139.628L197.011 136.204L195.941 133.743L193.48 132.245L191.126 132.566L188.772 134.064L186.739 135.99L183.85 137.702L182.138 136.846L180.64 134.706L178.393 132.78L170.689 134.064L168.121 132.887L167.586 127.43L167.907 121.866L167.265 117.693L165.767 113.841L156.672 100.145L155.923 99.5028L155.067 99.1818L154.425 99.7168V102.392L153.676 103.141L152.713 102.713L152.178 100.573L151.108 100.145L150.68 100.894L150.359 102.285L149.717 103.355L148.861 103.034L148.754 101.429L150.466 94.1528V91.4778L150.038 89.0168L148.754 87.1978L146.614 86.8768L144.474 87.7328L143.297 89.2308L141.371 94.1528L142.441 96.3998L145.116 99.9308L145.437 102.285L145.009 104.853L143.725 109.133L140.408 116.195L137.733 118.977L134.523 119.619L130.243 117.8L125.642 113.413L124.358 113.092L123.716 114.804L124.572 137.06L124.037 141.447L121.897 143.373L115.263 137.595L112.802 140.805L111.839 143.266H110.555L109.271 141.982L108.308 140.163L107.131 135.348L106.061 133.743L103.707 133.529L101.781 134.706L101.46 136.418L101.995 138.772L102.209 141.447L101.246 144.015L99.641 142.945L97.287 138.772L95.682 137.488L92.044 137.06L90.332 135.99L88.299 134.492L86.159 133.422L81.558 132.566L77.385 133.208L75.459 132.994L73.747 131.389L72.356 129.463L70.751 127.858L69.039 126.574L67.22 125.825L64.973 126.039L63.154 126.895L61.549 127.216L60.372 125.397L60.158 123.15L61.656 115.232L61.442 112.557L60.479 109.882L55.022 100.466L53.417 98.2188L51.598 97.0418L48.281 97.5768L36.511 104.425L33.194 105.709L30.84 105.602L29.342 104.211L26.988 99.7168L25.597 97.8978L23.992 96.3998L20.354 94.1528L6.65801 92.6548L3.12701 90.7288L1.30801 86.5558L3.34102 83.2388L19.07 73.9298L24.848 69.3288L27.951 67.8308L30.84 65.9048L33.194 62.4808L35.976 56.2748L40.256 51.3528L49.779 43.1138L52.775 41.2948L62.405 40.1178L65.722 38.8338L66.792 36.6938L67.113 29.2038L68.825 24.3888L72.784 23.3188L77.599 23.5328L81.558 22.5698L95.254 12.2978L103.279 9.94379L106.81 7.48279L108.308 2.5608L107.987 2.45379L110.448 1.70479L123.288 4.59379L124.465 4.80779L125.856 4.7008L129.387 3.6308L131.42 2.5608L132.383 2.23979L144.474 1.91879L147.149 2.66779L163.306 9.94379L164.697 10.3718L166.623 9.94379L169.726 10.5858L180.533 15.0798L182.352 15.8288L184.171 16.8988L186.525 19.0388L192.838 19.2528L194.657 18.8248L196.476 17.7548L198.616 15.1868L199.579 12.7258L200.542 8.65979L201.184 6.94779L202.04 5.34279L203.324 4.05879L205.571 3.0958L207.283 2.5608L214.559 1.38379H217.662L218.946 1.8118L220.337 3.20279L221.086 4.59379L221.621 5.98479L222.798 6.73379L224.51 7.1618L227.613 6.94779L230.93 7.1618L234.247 9.3018L235.959 9.8368L239.811 8.55279L241.416 8.4458L244.519 10.3718L249.869 12.4048L251.902 13.4748L253.721 14.8658L258.322 19.7878L259.713 20.4298L261.318 20.5368L264.314 20.1088L266.347 19.3598L267.524 18.1828L267.738 17.0058L267.845 15.5078L268.059 14.1168L269.664 12.7258L272.232 11.6558L281.541 9.3018L282.29 9.40879L283.039 10.2648L285.179 11.2278L288.282 10.1578Z" fill="#D1E5F2" stroke="white" stroke-width="2.14" stroke-linecap="round" stroke-linejoin="round"/>
</svg>
