<svg width="450" height="231" viewBox="0 0 450 231" fill="none" xmlns="http://www.w3.org/2000/svg">
<path d="M252.799 229.669L250.766 228.278L249.696 226.887L249.161 225.817L248.412 223.784L247.663 221.858L247.021 220.895L246.272 220.253L244.453 219.504H242.848L241.778 220.039L239.638 221.323L238.247 222.5L233.86 224.961L231.506 225.603L226.905 226.138H219.736L207.324 222.821L198.229 222.928L196.945 222.714L196.089 222.286L195.768 221.751L195.447 220.467V219.076L195.875 217.578L197.159 214.689L197.266 213.191L196.945 212.442L196.089 211.693L194.591 211.372L191.381 211.265L190.311 211.479L186.994 213.084L171.051 217.578L167.948 218.006L167.52 217.578V217.043L167.841 216.401L169.232 215.117L170.088 214.047L170.409 213.298L171.479 209.125L171.693 207.627L172.014 206.236L173.619 203.882L173.94 202.812L173.833 202.277L172.549 201.1L169.339 199.067L164.417 196.82L163.026 195.429L162.919 194.038L162.491 191.47L160.993 187.404L161.314 186.869L162.384 187.404L163.24 187.511L163.882 187.19L164.631 186.548L166.343 182.054L167.092 178.844L167.627 173.387L166.878 170.926H165.915L164.417 171.996L162.491 172.745L159.281 173.601L158.532 174.029L156.606 175.42L155.215 176.062L154.252 176.276L136.811 176.704L131.354 175.313L124.506 174.671H123.329L122.152 175.099L119.156 176.49L117.123 177.025L114.876 177.239L110.061 176.597L109.312 176.276L108.67 175.955L108.135 174.778L107.065 173.708L105.888 173.173H105.139L103.32 173.922L101.715 174.35L101.073 174.136L100.752 173.601L101.287 172.317L102.892 169.963L103.962 167.93L104.604 165.576L104.818 163.329L105.353 161.724L105.674 160.975L107.172 158.514L107.493 157.872L107.921 155.518V154.127L107.279 153.057L105.139 151.666L102.571 150.275L101.073 149.847L100.003 149.526L99.361 149.74L97.756 150.596L95.83 151.024L82.8831 150.382L82.455 149.954L82.027 148.563L80.422 146.637L81.9201 143.855L82.8831 142.999L84.0601 142.357L84.8091 142.143L86.9491 141.929L93.0481 142.357L96.0441 142.036L96.9 141.501L97.3281 140.859L97.6491 137.97L98.5051 134.76L100.431 130.48L100.11 130.052H99.04L96.7931 131.229L95.402 131.336L93.9041 130.908L90.801 129.731L82.8831 125.451L81.385 125.13L74.216 124.916L73.467 124.809L70.5781 123.632L68.4381 122.241L64.6931 121.171L63.195 121.064L60.841 121.92L59.45 122.027L58.38 121.599L56.9891 120.85L54.635 119.031L53.351 118.282L52.3881 117.961L51.8531 118.068L49.4991 119.138L42.116 121.278L40.4041 121.385L38.906 120.957L38.371 120.315L38.05 119.673L38.4781 118.282L39.3341 117.212L41.4741 115.821L43.4 114.109L44.3631 113.146L45.005 111.862L45.54 109.508V108.545L45.326 107.475L44.3631 105.87L42.865 104.479L39.3341 102.125L38.585 101.269L38.2641 100.52L38.4781 98.808L38.371 97.845L37.9431 97.203L36.3381 96.775L35.5891 96.454L35.161 95.919L35.0541 94.528L35.5891 91.318L35.8031 90.569L37.4081 85.968L37.515 84.363L37.087 83.079L36.552 81.795L35.375 80.511L33.6631 79.334L33.1281 78.05V76.659L32.807 74.733L32.3791 73.235L31.737 72.486L30.881 72.058L28.42 71.416H27.0291L26.601 71.951L25.9591 73.235L25.21 74.412L24.3541 75.161L22.642 76.017L15.58 76.445L14.7241 76.338L13.8681 75.375L12.37 72.272L11.1931 71.095L8.41103 69.811L7.76906 69.383L6.37807 68.848L3.91702 68.6339L3.16807 67.671L1.88406 63.391L1.67004 62.214L5.41504 59.753L6.27103 59.111L6.59202 58.576L7.12702 56.8639V54.831L7.34103 54.1889L7.87603 53.761L9.26702 53.6539L10.337 53.333L11.621 52.905L13.975 50.872L15.2591 50.016L17.6131 48.946L19.2181 47.7689L20.0741 45.5219L20.93 44.9869L22.321 44.773L29.597 45.415L31.3091 45.308L44.791 41.991H47.0381L48.6431 42.9539L49.82 43.275L51.211 43.382L52.067 43.168L53.03 42.74L55.3841 41.028L56.026 40.386L61.2691 33.966L63.302 32.361L65.442 31.0769L72.1831 27.9739L79.4591 26.2619L80.636 25.6199L82.455 21.4469L82.9901 20.9119L83.632 20.5909L84.595 20.698L90.6941 22.0889L93.262 21.9819L96.2581 23.0519H97.3281L98.7191 22.7309L103.855 19.9489L104.604 19.7349L105.567 19.9489L110.061 21.8749L113.164 22.3029L114.555 21.8749L115.625 20.2699L116.16 18.5579L117.123 17.2739L118.3 17.0599L141.198 17.5949L143.124 17.1669L145.692 16.3109L146.441 15.6689L146.976 14.8129L147.511 12.4589L147.939 11.3889L150.4 8.71395L151.47 7.96495H152.005L153.396 8.39295H154.038L154.68 8.17895L155.108 6.14595L154.145 2.82895H155.857L165.38 4.43395L168.483 3.47094L172.656 1.43795L174.154 1.11694L175.545 1.22395L178.327 2.18694H182.179L183.998 3.14995L185.71 4.54094L187.636 5.71795H189.241L194.27 3.25694L196.303 2.82895L202.723 3.04295L209.25 4.64795L209.785 5.50395L210.213 6.35995L210.855 7.10895L212.032 7.85795L214.493 6.78795L216.098 5.71795L216.954 5.28995L219.201 4.96895L221.341 5.28995L223.588 6.03895L229.045 9.35595L233.325 10.1049L243.704 9.14194L248.198 9.35595L252.585 8.71395L254.511 9.03495L258.47 10.5329L260.503 10.6399L262.215 9.99795L265.639 7.75095L267.672 7.00194L271.952 6.68094L278.372 7.32295L287.895 10.6399L291.854 12.9939L295.278 15.8829L296.883 16.7389L308.653 17.9159L316.357 21.1259L322.777 21.4469L326.522 22.9449L330.16 23.1589L337.757 19.3069L341.502 18.5579L343.963 19.1999L344.712 20.5909L344.177 25.6199L344.284 28.723L344.819 31.398L345.782 33.8589L347.173 36.32L350.597 39.7439L358.301 43.382L361.404 46.6989L365.791 57.292L368.359 60.823L373.281 62.963L382.59 63.498L390.401 62L394.574 62.107L416.081 66.815L420.147 69.597L421.431 71.095L425.176 76.659L431.489 82.437L434.699 86.61L437.267 91.104L440.156 95.063L444.329 97.631L444.971 99.557L445.292 103.837L445.72 105.977L446.79 107.903L447.967 109.508L448.823 111.327L448.93 113.895L446.362 117.961L441.654 119.673L417.258 119.352L412.336 120.636L408.805 122.134L407.2 123.418L405.916 125.344L405.06 127.591L403.883 132.406L403.027 134.76L399.603 138.077L395.216 138.719L390.722 138.612L386.335 139.682L380.878 143.534L374.565 145.888L366.968 151.238L365.042 151.987H362.795L356.589 150.061L354.556 150.596L352.844 151.773L348.243 156.053L346.21 157.551L344.07 158.514L339.576 159.584L335.831 161.082L324.917 169L319.032 170.07L317.213 171.033L308.546 177.239L295.492 182.375L294.101 183.124L292.817 184.301L292.068 185.692L291.319 188.902L290.356 190.186L286.932 191.791L279.763 193.289L270.775 200.244L266.923 202.063L265.211 203.24L263.606 205.273L263.285 207.52L264.89 212.549L265.211 214.903L264.248 217.043L262.429 218.541L258.577 220.895L257.079 222.393L254.618 226.031L252.799 229.669Z" fill="#D1E5F2" stroke="white" stroke-width="2.14" stroke-linecap="round" stroke-linejoin="round"/>
</svg>
