<svg width="278" height="105" viewBox="0 0 278 105" fill="none" xmlns="http://www.w3.org/2000/svg">
<path d="M258.267 56.1358L261.049 56.5638L263.403 54.3168L264.152 52.8188L263.724 50.8928L263.938 49.2878L264.366 48.1108L265.115 47.1478H265.543L265.864 47.5758L266.506 49.8228L267.041 50.9998L268.004 51.8558L269.609 52.3908H270.572L273.354 52.0698L274.852 52.3908L276.136 54.2098L276.35 55.1728L276.457 56.6708L276.136 57.7408L275.708 58.4898L273.14 60.9508L271.535 63.1978L271 64.3748L270.786 66.5148L268.004 70.2598L266.613 71.0088L260.728 73.5768L258.695 74.1118H257.09L254.415 72.6138L253.666 72.2928L250.028 71.7578L247.781 71.8648L246.069 72.2928L242.324 73.8978L240.826 74.1118L239.435 73.7908L238.258 73.3628L236.439 73.0418L235.048 73.2558L233.229 73.7908L231.41 74.0048L229.163 74.6468L226.381 76.0378L225.632 76.6798L224.562 78.0708L223.492 79.0338L222.208 79.2478L218.998 79.1408L217.928 79.5688L217.286 80.3178L216.965 81.2808L216.109 85.2398V86.8448L216.43 87.4868L217.072 88.0218L220.603 89.0918L221.352 89.6268L221.566 90.4828L221.245 91.2318L220.282 93.1578L217.179 94.2278L215.039 93.2648L214.29 92.4088L213.541 92.3018L204.232 94.6558L201.664 95.7258L200.059 97.1168L199.845 98.5078L199.738 100.006L199.524 101.183L198.347 102.36L196.314 103.109L193.318 103.537L191.713 103.43L190.322 102.788L185.721 97.8658L183.902 96.4748L181.869 95.4048L176.519 93.3718L173.416 91.4458L171.811 91.5528L167.959 92.8368L166.247 92.3018L162.93 90.1618L159.613 89.9478L156.51 90.1618L154.798 89.7338L153.621 88.9848L153.086 87.5938L152.337 86.2028L150.946 84.8118L149.662 84.3838H146.559L139.283 85.5608L137.571 86.0958L135.324 87.0588L134.04 88.3428L133.184 89.9478L132.542 91.6598L131.579 95.7258L130.616 98.1868L128.476 100.755L126.657 101.825L124.838 102.253L118.525 102.039L116.171 99.8988L114.352 98.8288L112.533 98.0798L101.726 93.5858L98.623 92.9438L96.697 93.3718L95.306 92.9438L79.149 85.6678L76.474 84.9188L64.383 85.2398L63.42 85.5608L61.387 86.6308L57.856 87.7008L56.465 87.8078L55.288 87.5938L42.448 84.7048L39.987 85.4538L36.884 84.3838L23.295 74.6468L20.192 73.3628L17.089 73.7908L12.809 76.8938L10.669 78.9268L7.88703 78.2848L5.85402 77.2148L2.00203 73.3628L1.46703 71.3298L2.64402 69.2968L6.17502 65.9798L9.27801 62.1278L9.92002 60.6298L9.70602 59.6668L9.17102 58.8108L8.95703 57.4198L9.59902 54.8518L10.669 52.2838L12.06 50.0368L13.558 48.6458L18.159 51.6418L19.764 51.8558L21.048 51.1068L22.011 49.8228L22.225 48.2178L21.369 46.7198L17.945 43.7238L16.982 42.4398L16.126 37.5178L19.657 35.2708L28.11 33.9868L29.608 32.3818L30.143 30.4558L29.929 25.2128L30.143 22.4308L30.999 21.1468L34.637 19.8628L36.242 18.7928L37.419 17.1878L39.559 13.3358L41.164 12.4798L43.304 13.1218L45.658 14.1918L47.691 14.6198L49.403 13.8708L50.901 12.3728L52.185 10.5538L53.255 8.52079L54.967 7.02279L57.321 6.91579L61.922 8.52079L63.527 7.77178L64.597 7.66479L65.56 8.19979L69.412 11.5168L70.589 11.9448L72.301 11.6238L82.894 4.77578L86.104 3.70578L92.845 3.38479L96.269 2.10078L97.874 1.77979L99.372 2.52879L100.87 3.49178L102.475 4.24078L108.36 5.73879L119.595 11.9448L122.698 12.9078L124.196 12.6938L126.978 11.3028L128.476 10.9818L140.888 11.5168L147.308 14.0848L158.757 21.7888L162.074 22.5378L169.136 22.4308L182.832 25.7478L185.828 27.4598L188.182 30.0278L191.499 36.2338L193.96 38.5878L197.277 40.0858L200.487 41.0488L203.804 41.1558L216.216 39.0158L220.496 39.2298L224.134 40.7278L226.06 42.2258L227.665 43.1888L229.377 43.6168L236.332 44.1518L238.579 44.9008L239.97 46.7198L239.756 50.6788L239.863 53.5678L240.933 55.2798L249.814 56.7778L255.592 59.1318L258.267 58.5968V56.1358Z" fill="#D1E5F2" stroke="white" stroke-width="2.14" stroke-linecap="round" stroke-linejoin="round"/>
</svg>
