<svg width="324" height="122" viewBox="0 0 324 122" fill="none" xmlns="http://www.w3.org/2000/svg">
<path d="M270.817 9.19192L274.348 8.97791L279.056 7.15893L287.616 4.80491L289.114 5.01893L290.077 5.98192L290.826 7.90791L290.719 9.19192L290.077 11.5459V12.8299L290.291 13.8999L290.933 15.2909L290.719 16.4679L290.077 17.3239L289.114 17.8589L288.579 18.3939L288.9 19.2499L289.756 20.1059L293.822 21.8179L295.213 22.8879L295.855 24.1719L295.962 26.2049L295.32 27.5959L293.287 29.4149L292.859 29.9499L293.073 30.5919L296.176 32.0899L297.139 32.9459L297.674 33.9089L297.781 35.1929L297.46 36.0489L297.032 36.9049L296.925 37.8679L297.246 39.1519L298.102 41.0779L298.316 42.4689L297.995 43.6459L297.46 44.7159L297.032 45.8929L296.818 46.9629L296.925 47.8189L297.246 48.5679L298.316 49.1029L300.777 49.6379L302.168 50.1729L303.773 51.2429L304.843 52.0989L305.806 53.5969L307.304 56.6999L309.337 59.9099L310.942 60.6589H311.905L313.617 59.3749L314.58 58.9469L315.543 59.1609L316.185 59.9099L316.72 62.5849L317.255 63.8689L318.539 65.0459L320.679 67.6139L322.819 71.6799L321.535 73.2849L321.107 74.6759L320.679 75.3179L319.181 76.4949L315.864 78.2069L311.049 79.8119L306.448 81.9519L303.88 84.1989L302.703 84.9479L301.312 85.5899L298.209 86.4459L296.069 87.4089L292.645 88.0509L286.546 86.9809L283.55 87.3019L281.945 87.7299L279.912 88.5859L278.842 88.7999L277.879 88.6929L275.953 87.4089L275.204 87.0879L273.813 87.3019L272.315 87.1949L270.282 86.7669L268.998 86.2319L266.858 84.6269L265.574 83.6639L264.076 83.0219L249.845 80.0259L248.347 79.4909L246.956 78.7419L246.207 77.9929L245.672 76.2809L244.923 75.7459L243.532 75.4249H241.82L240.643 75.8529L239.787 76.4949L238.824 77.9929L237.647 79.1699L235.935 80.2399L228.445 82.0589L226.091 84.1989L224.058 88.2649L223.737 89.1209L222.988 92.6519L222.132 94.7919L220.527 93.4009L217.21 91.3679L215.498 91.5819L212.181 93.0799L209.399 93.6149L208.436 93.9359L207.794 94.4709L206.403 95.8619L205.761 96.5039L202.337 98.3229L201.053 99.2859L197.95 102.924L196.88 103.673H195.703L190.139 102.603L186.073 102.817L182.007 103.887L178.904 106.027L176.871 109.558L175.48 113.624L173.661 117.048L170.558 118.653L167.883 117.904L165.529 116.406L163.389 115.443L161.57 116.299L160.393 117.69L159.644 117.904L158.788 117.797H157.29L156.113 118.225L153.224 119.83L150.549 120.258L147.553 119.723L144.985 118.225L143.594 115.657V114.052L144.022 112.447L144.236 110.628L143.701 108.916L142.738 108.06L140.491 107.097L139.421 106.241L137.495 100.142L136.211 97.4669L133.857 95.6479L132.145 95.4339L128.614 96.0759L126.902 95.9689L125.725 95.2199L123.478 93.2939L122.194 92.7589L120.482 92.9729L117.379 94.1499L115.774 94.4709L114.811 94.7919L113.741 96.1829L113.206 96.6109L112.243 96.5039L110.21 95.9689L109.14 95.7549L107.963 96.2899L99.296 102.603L97.584 103.031L95.872 102.389L95.765 100.677L96.835 96.1829L96.728 94.0429L96.3 91.6889L95.444 90.4049L93.946 91.5819L91.164 97.4669L90.415 98.6439L88.81 99.1789L87.205 98.6439L83.995 96.7179L81.962 96.1829H79.822L77.896 96.8249L76.184 98.3229L74.686 100.463L73.937 101.105L70.941 99.8209L67.089 99.3929L59.599 100.891L55.747 99.7139L51.788 97.4669L47.936 96.1829L43.977 95.6479L35.524 96.1829L33.812 96.9319L30.602 99.7139L28.997 100.784L27.178 101.426L25.359 101.64H23.219L19.046 102.282L17.013 101.64L14.659 99.1789L14.124 98.8579L13.268 99.1789L12.626 100.998L12.091 101.961L8.23901 103.459L6.84801 100.463L7.38301 85.4829L6.95501 83.1289L6.31301 80.9889L4.92201 79.2769L3.21001 77.8859L1.71201 76.1739L1.07001 73.8199L1.39101 68.8979L2.46101 64.0829L6.84801 50.4939L8.77401 46.3209L9.20201 45.1439V44.2879L9.52301 44.0739L10.914 44.2879L13.803 47.4979L18.404 55.5229L27.713 52.2059L27.606 50.4939L25.359 46.4279L25.466 45.5719L25.145 43.9669L24.824 43.2179L23.968 39.1519L24.61 35.9419L26.215 33.0529L28.141 30.1639L28.462 29.3079L28.89 27.0609L29.318 26.5259L30.067 26.8469L31.137 28.7729L31.779 29.3079L33.277 29.5219L34.882 29.3079L72.974 15.6119L76.398 15.9329L90.201 25.0279L92.341 25.6699L97.156 25.4559L99.296 25.5629L101.436 26.6329L102.827 28.2379L104.111 29.9499L105.609 31.6619L107.321 32.6249L110.745 33.0529L114.49 34.6579L122.194 35.8349L124.548 36.5839L126.795 38.1889L127.865 40.4359L126.367 43.2179L124.869 44.2879L123.264 45.1439L121.766 46.2139L120.482 47.9259L119.626 50.2799L119.305 52.5269L120.054 54.2389L122.194 54.9879L123.05 53.8109L123.799 51.0289L124.441 49.9589L125.618 49.3169L129.684 49.2099L131.824 48.4609L133.75 47.1769L135.355 45.4649L136.746 43.2179L137.495 38.8309L137.388 34.8719L137.816 31.6619L140.384 29.2009L146.59 27.0609L147.981 26.3119L151.726 23.1019L152.689 21.9249H153.224L154.08 22.5669L155.792 21.7109L156.541 21.0689L157.825 20.6409L162.961 21.8179L165.957 20.7479L169.167 18.3939L170.772 15.2909L168.846 12.1879L172.27 8.54991L177.941 7.58692L189.176 9.29893L192.279 8.97791L193.563 6.83791L194.419 3.94893L195.917 1.70192L197.308 1.27393L198.271 2.02291L199.234 3.30692L200.197 4.5909L201.481 5.1259L203.086 5.23291L206.189 4.91192L208.115 5.1259L211.111 7.90791L215.498 9.29893L216.461 10.7969L217.21 12.7229L218.922 14.4349L221.062 15.7189L223.202 16.5749L227.803 17.4309L230.157 17.2169L231.013 15.8259L231.227 13.5789L231.869 11.1179L233.581 9.61991L235.293 11.0109L236.684 13.8999L237.326 16.4679V21.7109L237.968 23.6369L239.894 24.4929L241.178 24.1719L246.314 21.0689L247.919 19.5709L248.882 17.8589L250.701 13.7929L253.697 10.7969L257.228 10.5829L261.08 11.5459L264.932 11.8669L266.537 11.4389L268.463 12.0809L270.068 12.2949L271.352 11.9739L271.994 10.5829L271.459 9.61991L270.817 9.19192ZM189.176 37.0119L188.427 36.4769L183.077 34.2299L180.402 32.4109L178.797 30.3779L177.406 26.8469L175.801 23.7439L173.554 22.4599L170.558 24.0649L168.846 28.0239L168.311 30.2709L168.204 32.4109L168.739 34.4439L171.093 39.6869L172.27 41.2919L173.554 41.9339L176.122 42.4689L177.192 43.4319L177.62 47.0699L173.554 53.5969L173.661 56.8069L174.838 57.4489L176.229 56.5929L177.62 55.3089L178.69 54.5599L180.509 54.6669L180.937 55.7369L181.258 57.1279L182.328 58.1979L183.826 58.3049L188.32 57.0209H191.637L192.921 56.4859L193.991 54.9879L194.205 51.0289L189.925 46.4279L189.711 43.1109L191.209 41.6129L195.703 38.5099L196.345 36.4769L195.703 35.2999L194.419 35.0859L191.958 35.7279L190.353 36.9049L189.176 37.0119ZM246.1 54.6669L247.063 53.0619L249.203 45.0369L248.775 43.7529L246.421 44.5019L242.89 47.1769L241.178 47.9259L238.717 48.1399L237.219 49.9589L238.182 51.7779L240.215 53.2759L242.141 54.2389L244.602 54.9879L246.1 54.6669ZM135.997 61.3009L124.227 57.3419H122.836L122.729 59.2679L123.371 61.3009L124.655 63.2269L127.972 65.4739L128.935 66.7579L131.717 71.4659L132.252 71.8939L137.281 67.8279L140.063 66.4369L143.166 65.7949L144.236 64.9389L144.343 62.5849L143.594 60.3379L142.417 60.0169L139.421 61.4079L135.997 61.3009Z" fill="#D1E5F2" stroke="white" stroke-width="2.14" stroke-linecap="round" stroke-linejoin="round"/>
</svg>
