<svg width="40" height="40" viewBox="0 0 40 40" fill="none" xmlns="http://www.w3.org/2000/svg">
<mask id="mask0_322_266" style="mask-type:alpha" maskUnits="userSpaceOnUse" x="0" y="0" width="40" height="40">
<rect width="40" height="40" fill="#D9D9D9"/>
</mask>
<g mask="url(#mask0_322_266)">
<path d="M19.0833 28.3333C19.5833 28.3333 20.0767 28.2705 20.5633 28.145C21.0489 28.0205 21.5 27.8333 21.9167 27.5833L26 31.6666L28.3333 29.3333L24.25 25.25C24.5 24.8333 24.6872 24.3816 24.8117 23.895C24.9372 23.4094 25 22.9166 25 22.4166C25 20.8055 24.4306 19.4444 23.2917 18.3333C22.1528 17.2222 20.7778 16.6666 19.1667 16.6666C17.5556 16.6666 16.1806 17.2361 15.0417 18.375C13.9028 19.5139 13.3333 20.8889 13.3333 22.5C13.3333 24.1111 13.8889 25.4861 15 26.625C16.1111 27.7639 17.4722 28.3333 19.0833 28.3333ZM19.1667 25C18.4722 25 17.8822 24.7566 17.3967 24.27C16.91 23.7844 16.6667 23.1944 16.6667 22.5C16.6667 21.8055 16.91 21.2155 17.3967 20.73C17.8822 20.2433 18.4722 20 19.1667 20C19.8611 20 20.4511 20.2433 20.9367 20.73C21.4233 21.2155 21.6667 21.8055 21.6667 22.5C21.6667 23.1944 21.4233 23.7844 20.9367 24.27C20.4511 24.7566 19.8611 25 19.1667 25ZM10 36.6666C9.08333 36.6666 8.29889 36.3405 7.64667 35.6883C6.99333 35.035 6.66667 34.25 6.66667 33.3333V6.66665C6.66667 5.74998 6.99333 4.96498 7.64667 4.31165C8.29889 3.65942 9.08333 3.33331 10 3.33331H23.3333L33.3333 13.3333V33.3333C33.3333 34.25 33.0072 35.035 32.355 35.6883C31.7017 36.3405 30.9167 36.6666 30 36.6666H10ZM21.6667 15V6.66665H10V33.3333H30V15H21.6667Z" fill="#AB3D51"/>
</g>
</svg>
