<svg width="40" height="40" viewBox="0 0 40 40" fill="none" xmlns="http://www.w3.org/2000/svg">
<mask id="mask0_322_188" style="mask-type:alpha" maskUnits="userSpaceOnUse" x="0" y="0" width="40" height="40">
<rect width="40" height="40" fill="#D9D9D9"/>
</mask>
<g mask="url(#mask0_322_188)">
<path d="M20 36.6666C16.1389 35.6944 12.9517 33.4789 10.4384 30.02C7.92391 26.5622 6.66669 22.7222 6.66669 18.5V8.33331L20 3.33331L33.3334 8.33331V17.7916C32.8056 17.5694 32.2639 17.3678 31.7084 17.1866C31.1528 17.0066 30.5834 16.875 30 16.7916V10.6666L20 6.91665L10 10.6666V18.5C10 19.8055 10.1734 21.1111 10.52 22.4166C10.8678 23.7222 11.3545 24.9655 11.98 26.1466C12.6045 27.3266 13.3611 28.4166 14.25 29.4166C15.1389 30.4166 16.125 31.25 17.2084 31.9166C17.5139 32.8055 17.9167 33.6528 18.4167 34.4583C18.9167 35.2639 19.4861 35.9861 20.125 36.625C20.0972 36.625 20.0767 36.6322 20.0634 36.6466C20.0489 36.66 20.0278 36.6666 20 36.6666ZM28.3334 36.6666C26.0278 36.6666 24.0628 35.8544 22.4384 34.23C20.8128 32.6044 20 30.6389 20 28.3333C20 26.0278 20.8128 24.0622 22.4384 22.4366C24.0628 20.8122 26.0278 20 28.3334 20C30.6389 20 32.6045 20.8122 34.23 22.4366C35.8545 24.0622 36.6667 26.0278 36.6667 28.3333C36.6667 30.6389 35.8545 32.6044 34.23 34.23C32.6045 35.8544 30.6389 36.6666 28.3334 36.6666ZM27.5 33.3333H29.1667V29.1666H33.3334V27.5H29.1667V23.3333H27.5V27.5H23.3334V29.1666H27.5V33.3333Z" fill="#AB3D51"/>
</g>
</svg>
