<svg width="40" height="40" viewBox="0 0 40 40" fill="none" xmlns="http://www.w3.org/2000/svg">
<mask id="mask0_322_256" style="mask-type:alpha" maskUnits="userSpaceOnUse" x="0" y="0" width="40" height="40">
<rect width="40" height="40" fill="#D9D9D9"/>
</mask>
<g mask="url(#mask0_322_256)">
<path d="M23.3333 26.6667H26.6667V23.3334H30V20H26.6667V16.6667H23.3333V20H20V23.3334H23.3333V26.6667ZM6.66668 33.3334C5.75001 33.3334 4.96557 33.0072 4.31334 32.355C3.66001 31.7017 3.33334 30.9167 3.33334 30V10C3.33334 9.08335 3.66001 8.29891 4.31334 7.64669C4.96557 6.99335 5.75001 6.66669 6.66668 6.66669H16.6667L20 10H33.3333C34.25 10 35.035 10.3267 35.6883 10.98C36.3406 11.6322 36.6667 12.4167 36.6667 13.3334V30C36.6667 30.9167 36.3406 31.7017 35.6883 32.355C35.035 33.0072 34.25 33.3334 33.3333 33.3334H6.66668ZM6.66668 10V30H33.3333V13.3334H18.625L15.2917 10H6.66668Z" fill="#AB3D51"/>
</g>
</svg>
