<svg width="98" height="101" viewBox="0 0 98 101" fill="none" xmlns="http://www.w3.org/2000/svg">
<path d="M97.5894 53.6664C96.9611 63.4969 93.4968 72.9162 87.6344 80.7327C81.7721 88.5492 73.7751 94.4119 64.6549 97.5793C55.5347 100.747 45.7011 101.076 36.3977 98.5268C27.0943 95.9772 18.739 90.6628 12.3888 83.2558C6.03847 75.8488 1.9784 66.6819 0.722044 56.9145C-0.53431 47.1471 1.06949 37.218 5.33061 28.383C9.59172 19.548 16.3187 12.204 24.6608 7.27983C33.0029 2.35567 42.5853 0.0725574 52.1961 0.719272C58.5758 1.14651 64.8107 2.85501 70.5448 5.74721C76.2789 8.63941 81.3998 12.6587 85.6151 17.5754C89.8304 22.4921 93.0574 28.21 95.112 34.4026C97.1666 40.5951 98.0084 47.141 97.5894 53.6664Z" fill="#C53A3F"/>
<g opacity="0.1">
<path d="M52.1961 0.71945C39.3194 -0.133179 26.6387 4.27845 16.9407 12.9848C7.24273 21.6911 1.32112 33.9796 0.477306 47.1497C0.477306 47.1497 34.5185 50.9942 43.6399 37.4917C52.7614 23.9893 52.1961 0.71945 52.1961 0.71945Z" fill="white"/>
</g>
<path d="M85.2135 52.0568C84.7324 59.5265 82.0967 66.6825 77.6396 72.62C73.1825 78.5575 67.1042 83.0099 60.1732 85.4141C53.2423 87.8183 45.77 88.0664 38.7013 86.127C31.6325 84.1877 25.2847 80.1479 20.4605 74.5186C15.6363 68.8892 12.5523 61.9231 11.5986 54.5011C10.6449 47.0791 11.8643 39.5345 15.1025 32.8213C18.3407 26.1081 23.4524 20.5278 29.7911 16.7859C36.1299 13.0441 43.4111 11.3089 50.714 11.7996C55.5644 12.1234 60.3049 13.4219 64.6644 15.6208C69.0239 17.8197 72.9169 20.8759 76.1209 24.6147C79.325 28.3534 81.7772 32.7014 83.3373 37.4102C84.8975 42.1189 85.5351 47.0959 85.2135 52.0568Z" fill="#C53A3F"/>
<g opacity="0.2">
<path d="M85.2135 52.0568C84.7324 59.5265 82.0967 66.6825 77.6396 72.62C73.1825 78.5575 67.1042 83.0099 60.1732 85.4141C53.2423 87.8183 45.77 88.0664 38.7013 86.127C31.6325 84.1877 25.2847 80.1479 20.4605 74.5186C15.6363 68.8892 12.5523 61.9231 11.5986 54.5011C10.6449 47.0791 11.8643 39.5345 15.1025 32.8213C18.3407 26.1081 23.4524 20.5278 29.7911 16.7859C36.1299 13.0441 43.4111 11.3089 50.714 11.7996C55.5644 12.1234 60.3049 13.4219 64.6644 15.6208C69.0239 17.8197 72.9169 20.8759 76.1209 24.6147C79.325 28.3534 81.7772 32.7014 83.3373 37.4102C84.8975 42.1189 85.5351 47.0959 85.2135 52.0568Z" fill="black"/>
</g>
<path d="M86.1608 53.6978C85.6859 61.0688 83.0848 68.1303 78.6864 73.9893C74.288 79.8483 68.2898 84.2417 61.4503 86.614C54.6108 88.9863 47.2372 89.2308 40.2618 87.3168C33.2864 85.4027 27.0225 81.416 22.2622 75.8608C17.502 70.3056 14.4591 63.4313 13.5183 56.1072C12.5776 48.7831 13.7812 41.3382 16.977 34.7138C20.1729 28.0894 25.2174 22.5831 31.4727 18.8911C37.728 15.199 44.9132 13.4871 52.1196 13.9719C56.9051 14.2938 61.5817 15.5767 65.8824 17.7473C70.1831 19.918 74.0237 22.934 77.1847 26.6229C80.3458 30.3119 82.7655 34.6016 84.3056 39.2472C85.8457 43.8927 86.4761 48.8031 86.1608 53.6978Z" fill="#C53A3F"/>
<g opacity="0.2">
<path d="M86.1608 53.6978C85.6859 61.0688 83.0848 68.1303 78.6864 73.9893C74.288 79.8483 68.2898 84.2417 61.4503 86.614C54.6108 88.9863 47.2372 89.2308 40.2618 87.3168C33.2864 85.4027 27.0225 81.416 22.2622 75.8608C17.502 70.3056 14.4591 63.4313 13.5183 56.1072C12.5776 48.7831 13.7812 41.3382 16.977 34.7138C20.1729 28.0894 25.2174 22.5831 31.4727 18.8911C37.728 15.199 44.9132 13.4871 52.1196 13.9719C56.9051 14.2938 61.5817 15.5767 65.8824 17.7473C70.1831 19.918 74.0237 22.934 77.1847 26.6229C80.3458 30.3119 82.7655 34.6016 84.3056 39.2472C85.8457 43.8927 86.4761 48.8031 86.1608 53.6978Z" fill="white"/>
</g>
<path d="M6.13046 70.9351C6.13046 70.9351 6.13047 70.8101 5.93184 70.5444L5.41237 69.3723C5.13281 68.7515 4.88795 68.1149 4.67898 67.4657C4.41924 66.7156 4.0831 65.9029 3.83864 64.9184L3.39557 63.3556C3.25806 62.8243 3.15111 62.2773 3.0136 61.6991C2.7233 60.5582 2.53995 59.308 2.32605 58.0109C1.92714 55.1647 1.75342 52.2903 1.80657 49.4156C1.89983 46.5397 2.21658 43.676 2.75385 40.8515C3.04415 39.5544 3.28861 38.3198 3.64002 37.1946C3.80809 36.632 3.93032 36.0851 4.11366 35.6318C4.29701 35.1786 4.4498 34.616 4.61787 34.1472C4.92344 33.1939 5.29013 32.3656 5.59571 31.6311C5.90128 30.8966 6.1763 30.2715 6.42077 29.787L7.00136 28.6306L7.21527 28.2399C7.1823 28.3867 7.13094 28.5285 7.06247 28.6618L6.55828 29.8339C6.31382 30.3444 6.05408 30.9695 5.77906 31.7092C5.50404 32.4438 5.15263 33.272 4.86233 34.2253C4.70954 34.7098 4.54148 35.1943 4.37341 35.71C4.20534 36.2257 4.08311 36.7727 3.93032 37.3509C3.59419 38.4605 3.365 39.6951 3.08999 40.9766C2.57259 43.7823 2.26612 46.6245 2.17326 49.4781C2.12056 52.3357 2.27888 55.1933 2.6469 58.0265C2.8608 59.3236 3.02887 60.5582 3.30389 61.6991C3.4414 62.2617 3.53307 62.8243 3.67058 63.34C3.80809 63.8557 3.9456 64.3714 4.08311 64.9028C4.31229 65.8717 4.63315 66.7156 4.86233 67.4657C5.09151 68.2159 5.33597 68.8566 5.54987 69.3723C5.76378 69.888 5.88601 70.2631 5.99296 70.5757C6.05314 70.6892 6.09932 70.8099 6.13046 70.9351Z" fill="white"/>
<path d="M54.1059 10.9869C54.1059 10.9869 53.6781 10.9869 52.9295 10.8618C52.5475 10.8618 52.0891 10.7368 51.5391 10.6899C50.989 10.6431 50.3932 10.5649 49.7056 10.5493C49.0181 10.5337 48.2847 10.5493 47.4749 10.5493C46.6651 10.5493 45.8248 10.5493 44.9234 10.6431C42.9761 10.7927 41.0412 11.0799 39.1327 11.5026C37.2295 11.959 35.3607 12.5544 33.5407 13.2842C32.7003 13.628 31.9058 13.9562 31.1877 14.3156C30.4696 14.675 29.7974 15.0189 29.2015 15.3627C28.6056 15.7065 28.0709 16.019 27.6736 16.3003C27.2684 16.5283 26.8757 16.7787 26.4971 17.0505C26.1737 17.2925 25.8314 17.5068 25.4735 17.6912C25.768 17.4208 26.0793 17.1703 26.4055 16.9411C26.7722 16.6409 27.1603 16.3693 27.5667 16.1284C28.058 15.7671 28.568 15.4333 29.0945 15.1282C29.6904 14.7844 30.3474 14.3937 31.0808 14.0499C31.8142 13.7061 32.6087 13.331 33.4337 12.956C35.2653 12.2063 37.1501 11.6003 39.0716 11.1432C40.9996 10.7174 42.9554 10.4353 44.9234 10.2992C45.8248 10.2992 46.6957 10.2055 47.4902 10.2992C48.2847 10.393 49.0181 10.2993 49.7362 10.4086C50.4543 10.518 51.0502 10.5493 51.5849 10.6118C52.1197 10.6743 52.5933 10.7524 52.96 10.8306C53.3461 10.8444 53.7299 10.8967 54.1059 10.9869Z" fill="white"/>
<path d="M51.8905 97.9243C51.6088 98.0232 51.3163 98.0862 51.0196 98.1118C50.439 98.2056 49.6139 98.2993 48.575 98.3775C45.8784 98.5418 43.1722 98.3951 40.5078 97.9399C37.8428 97.4742 35.2386 96.6982 32.7461 95.627C31.7989 95.205 31.0349 94.83 30.5307 94.5487C30.257 94.418 29.9961 94.261 29.7515 94.0798C30.0435 94.1613 30.3254 94.2767 30.5918 94.4236C31.1113 94.6737 31.8905 95.0019 32.8378 95.3769C35.3363 96.3706 37.9264 97.1036 40.5689 97.5648C43.2082 98.0174 45.885 98.2007 48.5597 98.1118C49.5834 98.1118 50.4237 98.0181 50.989 97.9712C51.2881 97.9345 51.5893 97.9189 51.8905 97.9243Z" fill="white"/>
<path d="M29.5419 68.5676V38.9388L22.7052 43.2381V35.4683L29.5419 31.2726H36.5811V68.5676H29.5419Z" fill="#9E2E32"/>
<path d="M59.2426 69.3446C56.5417 69.3446 54.1784 68.7662 52.1527 67.6093C50.1271 66.4525 48.5487 64.8381 47.4177 62.7662C46.2867 60.6942 45.7212 58.2769 45.7212 55.5144V44.3258C45.7212 41.5632 46.2867 39.146 47.4177 37.074C48.5487 35.0021 50.1271 33.3877 52.1527 32.2309C54.1784 31.074 56.5417 30.4956 59.2426 30.4956C61.9435 30.4956 64.3068 31.074 66.3324 32.2309C68.3581 33.3877 69.9364 35.0021 71.0674 37.074C72.1984 39.146 72.7639 41.5632 72.7639 44.3258V55.5144C72.7639 58.2769 72.1984 60.6942 71.0674 62.7662C69.9364 64.8381 68.3581 66.4525 66.3324 67.6093C64.3068 68.7662 61.9435 69.3446 59.2426 69.3446ZM59.2426 62.6626C60.458 62.6626 61.5552 62.369 62.5343 61.782C63.5134 61.1949 64.2899 60.4007 64.8638 59.3993C65.4378 58.3978 65.7247 57.2755 65.7247 56.0323V43.7561C65.7247 42.5129 65.4378 41.3906 64.8638 40.3891C64.2899 39.3877 63.5134 38.5935 62.5343 38.0064C61.5552 37.4194 60.458 37.1258 59.2426 37.1258C58.0272 37.1258 56.9299 37.4194 55.9509 38.0064C54.9718 38.5935 54.1953 39.3877 53.6213 40.3891C53.0474 41.3906 52.7604 42.5129 52.7604 43.7561V56.0323C52.7604 57.2755 53.0474 58.3978 53.6213 59.3993C54.1953 60.4007 54.9718 61.1949 55.9509 61.782C56.9299 62.369 58.0272 62.6626 59.2426 62.6626Z" fill="#9E2E32"/>
<path d="M32.4635 68.5676V38.9388L25.6269 43.2381V35.4683L32.4635 31.2726H39.5027V68.5676H32.4635Z" fill="#C53A3F"/>
<path d="M62.1642 69.3446C59.4633 69.3446 57.1 68.7662 55.0744 67.6093C53.0487 66.4525 51.4704 64.8381 50.3394 62.7662C49.2084 60.6942 48.6429 58.2769 48.6429 55.5144V44.3258C48.6429 41.5632 49.2084 39.146 50.3394 37.074C51.4704 35.0021 53.0487 33.3877 55.0744 32.2309C57.1 31.074 59.4633 30.4956 62.1642 30.4956C64.8651 30.4956 67.2284 31.074 69.2541 32.2309C71.2797 33.3877 72.8581 35.0021 73.9891 37.074C75.1201 39.146 75.6856 41.5632 75.6856 44.3258V55.5144C75.6856 58.2769 75.1201 60.6942 73.9891 62.7662C72.8581 64.8381 71.2797 66.4525 69.2541 67.6093C67.2284 68.7662 64.8651 69.3446 62.1642 69.3446ZM62.1642 62.6626C63.3796 62.6626 64.4769 62.369 65.4559 61.782C66.435 61.1949 67.2115 60.4007 67.7855 59.3993C68.3594 58.3978 68.6464 57.2755 68.6464 56.0323V43.7561C68.6464 42.5129 68.3594 41.3906 67.7855 40.3891C67.2115 39.3877 66.435 38.5935 65.4559 38.0064C64.4769 37.4194 63.3796 37.1258 62.1642 37.1258C60.9488 37.1258 59.8516 37.4194 58.8725 38.0064C57.8934 38.5935 57.1169 39.3877 56.543 40.3891C55.969 41.3906 55.6821 42.5129 55.6821 43.7561V56.0323C55.6821 57.2755 55.969 58.3978 56.543 59.3993C57.1169 60.4007 57.8934 61.1949 58.8725 61.782C59.8516 62.369 60.9488 62.6626 62.1642 62.6626Z" fill="#C53A3F"/>
</svg>
