<svg width="314" height="352" viewBox="0 0 314 352" fill="none" xmlns="http://www.w3.org/2000/svg">
<g clip-path="url(#clip0_167_1432)">
<path d="M164.996 351.625C247.486 351.625 314.358 333.587 314.358 311.336C314.358 289.086 247.486 271.048 164.996 271.048C82.5052 271.048 15.6334 289.086 15.6334 311.336C15.6334 333.587 82.5052 351.625 164.996 351.625Z" fill="#2A5573"/>
<path opacity="0.5" d="M164.996 351.625C247.486 351.625 314.358 333.587 314.358 311.336C314.358 289.086 247.486 271.048 164.996 271.048C82.5052 271.048 15.6334 289.086 15.6334 311.336C15.6334 333.587 82.5052 351.625 164.996 351.625Z" fill="white"/>
<path d="M183.203 21.1033H7.60452C3.48758 21.1033 0.150146 24.4456 0.150146 28.5687V127.154C0.150146 131.277 3.48758 134.619 7.60452 134.619H183.203C187.32 134.619 190.657 131.277 190.657 127.154V28.5687C190.657 24.4456 187.32 21.1033 183.203 21.1033Z" fill="white"/>
<path d="M190.657 28.5688V31.5216H0.150146V28.5688C0.150116 26.5849 0.934156 24.6818 2.33094 23.2751C3.72772 21.8685 5.62368 21.0727 7.60452 21.0616H183.236C184.216 21.0649 185.186 21.2619 186.09 21.6412C186.993 22.0206 187.814 22.5749 188.503 23.2723C189.192 23.9697 189.738 24.7966 190.107 25.7055C190.477 26.6144 190.664 27.5874 190.657 28.5688Z" fill="#2A5573"/>
<path d="M183.203 21.1033H7.60452C3.48758 21.1033 0.150146 24.4456 0.150146 28.5687V127.154C0.150146 131.277 3.48758 134.619 7.60452 134.619H183.203C187.32 134.619 190.657 131.277 190.657 127.154V28.5687C190.657 24.4456 187.32 21.1033 183.203 21.1033Z" stroke="#263238" stroke-width="0.834123" stroke-linecap="round" stroke-linejoin="round"/>
<path d="M190.657 28.5688V31.5216H0.150146V28.5688C0.150116 26.585 0.934156 24.6818 2.33094 23.2751C3.72772 21.8685 5.62368 21.0727 7.60452 21.0616H183.236C184.216 21.0649 185.186 21.2619 186.09 21.6412C186.993 22.0206 187.814 22.5749 188.503 23.2723C189.192 23.9697 189.738 24.7966 190.107 25.7055C190.477 26.6144 190.664 27.5874 190.657 28.5688Z" stroke="#263238" stroke-width="0.834123" stroke-linecap="round" stroke-linejoin="round"/>
<path d="M21.5469 26.3083C21.5486 26.6864 21.4381 27.0566 21.2295 27.3718C21.021 27.687 20.7237 27.9331 20.3753 28.079C20.0269 28.2248 19.6432 28.2638 19.2726 28.1911C18.9021 28.1183 18.5615 27.9371 18.2939 27.6703C18.0263 27.4035 17.8438 27.0631 17.7696 26.6924C17.6953 26.3216 17.7326 25.9371 17.8767 25.5876C18.0208 25.2381 18.2653 24.9393 18.5791 24.729C18.8929 24.5187 19.262 24.4065 19.6396 24.4065C20.144 24.4065 20.6279 24.6066 20.9853 24.963C21.3428 25.3194 21.5447 25.8031 21.5469 26.3083Z" fill="#263238"/>
<path d="M31.4999 26.3083C31.5016 26.6864 31.3911 27.0566 31.1825 27.3718C30.974 27.687 30.6767 27.9331 30.3283 28.079C29.9799 28.2248 29.5962 28.2638 29.2256 28.1911C28.8551 28.1183 28.5145 27.9371 28.2469 27.6703C27.9793 27.4035 27.7968 27.0631 27.7226 26.6924C27.6483 26.3216 27.6856 25.9371 27.8297 25.5876C27.9738 25.2381 28.2183 24.9393 28.5321 24.729C28.8459 24.5187 29.215 24.4065 29.5926 24.4065C30.097 24.4065 30.5809 24.6066 30.9384 24.963C31.2958 25.3194 31.4977 25.8031 31.4999 26.3083Z" fill="#263238"/>
<path d="M39.5457 28.2184C40.5991 28.2184 41.453 27.3632 41.453 26.3082C41.453 25.2533 40.5991 24.3981 39.5457 24.3981C38.4923 24.3981 37.6384 25.2533 37.6384 26.3082C37.6384 27.3632 38.4923 28.2184 39.5457 28.2184Z" fill="#263238"/>
<path d="M68.3804 39.7877H14.5173C12.8199 39.7877 11.4439 41.1658 11.4439 42.8656V68.8152C11.4439 70.5151 12.8199 71.8931 14.5173 71.8931H68.3804C70.0777 71.8931 71.4537 70.5151 71.4537 68.8152V42.8656C71.4537 41.1658 70.0777 39.7877 68.3804 39.7877Z" stroke="#263238" stroke-width="0.834123" stroke-linecap="round" stroke-linejoin="round"/>
<path d="M14.9754 67.856H67.0061" stroke="#263238" stroke-width="0.834123" stroke-linecap="round" stroke-linejoin="round"/>
<path d="M24.8785 61.7251H18.84V67.7725H24.8785V61.7251Z" fill="#2A5573" stroke="#263238" stroke-width="0.834123" stroke-miterlimit="10"/>
<path d="M33.7155 53.7759H27.677V67.8559H33.7155V53.7759Z" fill="#2A5573" stroke="#263238" stroke-width="0.834123" stroke-miterlimit="10"/>
<path d="M43.6685 56.1948H37.63V67.9977H43.6685V56.1948Z" fill="#2A5573" stroke="#263238" stroke-width="0.834123" stroke-miterlimit="10"/>
<path d="M54.1296 44.442H48.0912V67.5889H54.1296V44.442Z" fill="#2A5573" stroke="#263238" stroke-width="0.834123" stroke-miterlimit="10"/>
<path d="M64.5824 44.6256H58.5439V67.7725H64.5824V44.6256Z" fill="#2A5573" stroke="#263238" stroke-width="0.834123" stroke-miterlimit="10"/>
<path d="M145.856 73.553C155.18 73.553 162.739 65.9832 162.739 56.6454C162.739 47.3075 155.18 39.7377 145.856 39.7377C136.532 39.7377 128.973 47.3075 128.973 56.6454C128.973 65.9832 136.532 73.553 145.856 73.553Z" fill="#2A5573" stroke="#263238" stroke-width="0.834123" stroke-miterlimit="10"/>
<path d="M147.239 67.1887V68.9236H144.407V67.1887C143.244 66.9069 142.215 66.2282 141.498 65.2691C140.78 64.3101 140.419 63.1307 140.475 61.9337V61.1496L143.682 60.7993V61.6334C143.682 63.2433 144.515 64.2192 145.823 64.2192C146.106 64.2428 146.392 64.2046 146.66 64.1072C146.927 64.0099 147.171 63.8556 147.373 63.6552C147.576 63.4547 147.733 63.2127 147.833 62.9458C147.934 62.6789 147.975 62.3934 147.955 62.1089C147.955 60.5657 146.514 59.2395 144.815 57.8298C142.799 56.1616 140.792 54.1763 140.792 51.3737C140.792 48.571 142.108 46.6776 144.407 46.1104V44.3671H147.239V46.0937C149.562 46.6359 150.912 48.5961 150.912 51.3904V51.9576L147.705 52.2996V51.7157C147.705 50.0474 147.047 49.1299 145.881 49.1299C144.715 49.1299 144.057 49.8556 144.057 51.2402C144.057 52.7834 145.539 54.0763 147.205 55.5193C149.188 57.1875 151.228 59.1728 151.228 61.9754C151.277 63.1745 150.905 64.3528 150.176 65.3053C149.447 66.2579 148.407 66.9243 147.239 67.1887Z" fill="#263238"/>
<path d="M10.0447 88.2919H14.9754" stroke="#263238" stroke-width="0.834123" stroke-linecap="round" stroke-linejoin="round"/>
<path d="M10.0447 97.8344H14.9754" stroke="#263238" stroke-width="0.834123" stroke-linecap="round" stroke-linejoin="round"/>
<path d="M10.0447 107.385H14.9754" stroke="#263238" stroke-width="0.834123" stroke-linecap="round" stroke-linejoin="round"/>
<path d="M10.0447 116.927H14.9754" stroke="#263238" stroke-width="0.834123" stroke-linecap="round" stroke-linejoin="round"/>
<path d="M25.8446 124.134V120.297" stroke="#263238" stroke-width="0.834123" stroke-linecap="round" stroke-linejoin="round"/>
<path d="M33.6572 124.134V120.297" stroke="#263238" stroke-width="0.834123" stroke-linecap="round" stroke-linejoin="round"/>
<path d="M41.4697 124.134V120.297" stroke="#263238" stroke-width="0.834123" stroke-linecap="round" stroke-linejoin="round"/>
<path d="M49.2905 124.134V120.297" stroke="#263238" stroke-width="0.834123" stroke-linecap="round" stroke-linejoin="round"/>
<path d="M57.103 124.134V120.297" stroke="#263238" stroke-width="0.834123" stroke-linecap="round" stroke-linejoin="round"/>
<path d="M64.9155 124.134V120.297" stroke="#263238" stroke-width="0.834123" stroke-linecap="round" stroke-linejoin="round"/>
<path d="M72.7281 124.134V120.297" stroke="#263238" stroke-width="0.834123" stroke-linecap="round" stroke-linejoin="round"/>
<path d="M80.549 124.134V120.297" stroke="#263238" stroke-width="0.834123" stroke-linecap="round" stroke-linejoin="round"/>
<path d="M88.3615 124.134V120.297" stroke="#263238" stroke-width="0.834123" stroke-linecap="round" stroke-linejoin="round"/>
<path d="M96.174 124.134V120.297" stroke="#263238" stroke-width="0.834123" stroke-linecap="round" stroke-linejoin="round"/>
<path d="M103.987 124.134V120.297" stroke="#263238" stroke-width="0.834123" stroke-linecap="round" stroke-linejoin="round"/>
<path d="M111.807 124.134V120.297" stroke="#263238" stroke-width="0.834123" stroke-linecap="round" stroke-linejoin="round"/>
<path d="M119.62 124.134V120.297" stroke="#263238" stroke-width="0.834123" stroke-linecap="round" stroke-linejoin="round"/>
<path d="M127.432 124.134V120.297" stroke="#263238" stroke-width="0.834123" stroke-linecap="round" stroke-linejoin="round"/>
<path d="M135.245 124.134V120.297" stroke="#263238" stroke-width="0.834123" stroke-linecap="round" stroke-linejoin="round"/>
<path d="M142.766 124.134V120.297" stroke="#263238" stroke-width="0.834123" stroke-linecap="round" stroke-linejoin="round"/>
<path d="M150.287 124.134V120.297" stroke="#263238" stroke-width="0.834123" stroke-linecap="round" stroke-linejoin="round"/>
<path d="M157.8 124.134V120.297" stroke="#263238" stroke-width="0.834123" stroke-linecap="round" stroke-linejoin="round"/>
<path d="M177.689 82.4531V119.538C177.689 122.082 175.107 124.134 171.925 124.134H15.8249C14.8744 124.168 13.929 123.982 13.0622 123.589C12.1954 123.197 11.4307 122.61 10.8276 121.874C10.3065 121.205 10.0144 120.386 9.99469 119.538V82.4531C9.99469 79.9507 12.5767 77.8571 15.7583 77.8571H171.925C175.107 77.8571 177.689 79.909 177.689 82.4531Z" stroke="#2A5573" stroke-width="0.834123" stroke-linecap="round" stroke-linejoin="round"/>
<path d="M130.181 10.6267L80.3491 77.857L61.2925 103.565L40.4702 90.2855L14.9921 124.134H14.6256C13.8268 124.135 13.0416 123.927 12.3477 123.53C11.6538 123.134 11.0753 122.563 10.6694 121.874L39.2958 83.8294L60.1181 97.0836L74.3689 77.8988L126.333 7.8324L130.181 10.6267Z" fill="#263238"/>
<path d="M117.538 11.4775L135.853 0.358643L130.789 19.5935L127.557 10.6934L117.538 11.4775Z" fill="#263238"/>
<path d="M273.238 84.847C273.238 84.847 273.238 81.4104 268.433 76.6059C263.627 71.8013 260.545 69.0487 260.545 69.0487C260.545 69.0487 258.138 76.9479 262.602 81.7607C265.881 85.151 269.439 88.2594 273.238 91.0529V84.847Z" fill="#E0E0E0"/>
<path d="M266.267 106.309C266.267 106.309 266.267 102.872 261.461 98.0595C256.655 93.2466 253.574 90.5023 253.574 90.5023C253.574 90.5023 251.175 98.4015 255.631 103.214C258.914 106.603 262.472 109.714 266.267 112.515V106.309Z" fill="#E0E0E0"/>
<path d="M272.93 90.7025C272.93 90.7025 273.297 87.2826 278.577 83.0036C283.858 78.7245 287.223 76.3306 287.223 76.3306C287.223 76.3306 288.772 84.4633 283.833 88.7507C280.214 91.7679 276.35 94.4771 272.28 96.85L272.93 90.7025Z" fill="#E0E0E0"/>
<path d="M264.51 116.043C264.51 116.043 265.234 112.707 270.931 108.986C276.628 105.266 280.218 103.248 280.218 103.248C280.218 103.248 280.909 111.48 275.57 115.251C271.657 117.87 267.531 120.155 263.235 122.082L264.51 116.043Z" fill="#E0E0E0"/>
<path d="M266.1 143.661C266.1 143.661 266.1 140.224 270.898 135.42C275.695 130.615 278.785 127.863 278.785 127.863C278.785 127.863 281.192 135.77 276.728 140.575C273.454 143.97 269.899 147.081 266.1 149.875V143.661Z" fill="#E0E0E0"/>
<path d="M266.017 150.409C266.017 150.409 266.5 147.006 262.427 141.567C258.355 136.129 255.698 132.959 255.698 132.959C255.698 132.959 252.216 140.466 255.939 145.838C258.707 149.653 261.788 153.23 265.151 156.532L266.017 150.409Z" fill="#E0E0E0"/>
<path d="M261.278 170.386C261.278 170.386 261.278 166.958 266.084 162.145C270.89 157.332 273.971 154.638 273.971 154.638C273.971 154.638 276.378 162.537 271.914 167.342C268.635 170.735 265.077 173.846 261.278 176.642V170.386Z" fill="#E0E0E0"/>
<path d="M264.485 188.512C264.485 188.512 263.652 185.175 267.058 179.336C270.465 173.498 272.78 170.036 272.78 170.036C272.78 170.036 277.095 177.076 274.005 182.856C271.687 186.965 269.029 190.871 266.059 194.534L264.485 188.512Z" fill="#E0E0E0"/>
<path d="M273.671 83.9962C273.429 87.5711 272.99 91.1299 272.355 94.6563C270.456 104.482 265.692 110.822 263.81 119.68C261.928 128.538 267.366 139.991 265.909 151.377C264.451 162.762 260.012 169.11 261.261 176.717C262.511 184.325 269.174 204.911 269.174 204.911" stroke="#EBEBEB" stroke-width="0.982172" stroke-linecap="round" stroke-linejoin="round"/>
<path d="M272.889 92.988L278.061 89.0009" stroke="#EBEBEB" stroke-width="0.982172" stroke-linecap="round" stroke-linejoin="round"/>
<path d="M273.122 88.4087L270.965 84.5468" stroke="#EBEBEB" stroke-width="0.982172" stroke-linecap="round" stroke-linejoin="round"/>
<path d="M264.102 119.28C264.102 119.28 268.433 116.018 272.889 112.765" stroke="#EBEBEB" stroke-width="0.982172" stroke-linecap="round" stroke-linejoin="round"/>
<path d="M266.267 112.473C266.267 112.473 262.652 105.383 258.563 100.679" stroke="#EBEBEB" stroke-width="0.982172" stroke-linecap="round" stroke-linejoin="round"/>
<path d="M266.267 148.549C268.749 143.985 271.877 139.804 275.554 136.137" stroke="#EBEBEB" stroke-width="0.982172" stroke-linecap="round" stroke-linejoin="round"/>
<path d="M265.426 153.37C264.098 150.267 262.515 147.279 260.695 144.437C258.196 140.7 257.797 140.216 257.797 140.216" stroke="#EBEBEB" stroke-width="0.982172" stroke-linecap="round" stroke-linejoin="round"/>
<path d="M261.278 176.709C262.378 173.978 263.684 171.334 265.184 168.801C266.683 166.443 268.371 164.211 270.232 162.128" stroke="#EBEBEB" stroke-width="0.982172" stroke-linecap="round" stroke-linejoin="round"/>
<path d="M266.05 194.492C265.799 191.886 266.248 189.26 267.35 186.885C269.157 183.39 271.198 178.803 272.047 177.001" stroke="#EBEBEB" stroke-width="0.982172" stroke-linecap="round" stroke-linejoin="round"/>
<path d="M241.788 130.74C241.788 130.74 241.414 128.597 243.904 125.052C246.394 121.507 248.068 119.446 248.068 119.446C248.068 119.446 250.425 124.134 248.152 127.638C246.462 130.117 244.568 132.45 242.488 134.611L241.788 130.74Z" fill="#E0E0E0"/>
<path d="M248.485 143.469C248.485 143.469 248.11 141.309 250.6 137.772C253.091 134.235 254.765 132.175 254.765 132.175C254.765 132.175 257.122 136.871 254.848 140.366C253.161 142.847 251.266 145.18 249.184 147.34L248.485 143.469Z" fill="#E0E0E0"/>
<path d="M242.613 134.377C242.613 134.377 242.03 132.275 238.24 130.207C234.451 128.138 232.093 126.953 232.093 126.953C232.093 126.953 232.002 132.183 235.575 134.377C238.17 135.876 240.887 137.154 243.696 138.197L242.613 134.377Z" fill="#E0E0E0"/>
<path d="M250.642 149.35C250.642 149.35 249.809 147.323 245.845 145.63C241.88 143.936 239.39 143.044 239.39 143.044C239.39 143.044 239.848 148.274 243.621 150.059C246.36 151.275 249.196 152.26 252.1 153.003L250.642 149.35Z" fill="#E0E0E0"/>
<path d="M252.641 166.825C252.641 166.825 252.266 164.673 248.735 162.179C245.203 159.684 242.963 158.292 242.963 158.292C242.963 158.292 242.313 163.521 245.636 166.041C248.058 167.802 250.624 169.357 253.307 170.687L252.641 166.825Z" fill="#E0E0E0"/>
<path d="M253.415 171.07C253.415 171.07 252.741 168.993 254.706 165.14C256.672 161.286 258.038 159.009 258.038 159.009C258.038 159.009 261.036 163.313 259.287 167.108C257.954 169.801 256.399 172.379 254.64 174.815L253.415 171.07Z" fill="#E0E0E0"/>
<path d="M259.446 188.445C259.446 188.445 259.695 186.276 263.077 183.582C266.459 180.888 268.616 179.411 268.616 179.411C268.616 179.411 269.565 184.583 266.392 187.302C264.074 189.2 261.603 190.902 259.004 192.39L259.446 188.445Z" fill="#E0E0E0"/>
<path d="M258.554 183.09C258.554 183.09 258.18 180.93 254.648 178.436C251.117 175.942 248.885 174.557 248.885 174.557C248.885 174.557 248.235 179.787 251.55 182.306C253.975 184.067 256.544 185.621 259.229 186.952L258.554 183.09Z" fill="#E0E0E0"/>
<path d="M258.504 194.801C258.504 194.801 258.696 192.616 255.906 189.313C253.116 186.009 251.308 184.083 251.308 184.083C251.308 184.083 249.359 188.962 251.933 192.257C253.834 194.58 255.923 196.743 258.18 198.721L258.504 194.801Z" fill="#E0E0E0"/>
<path d="M241.414 130.24C241.956 132.458 242.62 134.644 243.404 136.788C245.653 142.735 249.318 146.197 251.467 151.552C253.615 156.907 251.467 164.673 253.59 171.654C255.714 178.636 259.212 182.114 259.237 187.044C259.262 191.973 257.363 205.595 257.363 205.595" stroke="#EBEBEB" stroke-width="0.982172" stroke-linecap="round" stroke-linejoin="round"/>
<path d="M242.888 135.804L239.215 133.877" stroke="#EBEBEB" stroke-width="0.982172" stroke-linecap="round" stroke-linejoin="round"/>
<path d="M242.238 132.959L243.179 130.307" stroke="#EBEBEB" stroke-width="0.982172" stroke-linecap="round" stroke-linejoin="round"/>
<path d="M251.25 151.327C251.25 151.327 248.177 149.758 245.037 148.199" stroke="#EBEBEB" stroke-width="0.982172" stroke-linecap="round" stroke-linejoin="round"/>
<path d="M249.151 147.339C250.055 144.484 251.246 141.728 252.708 139.115" stroke="#EBEBEB" stroke-width="0.982172" stroke-linecap="round" stroke-linejoin="round"/>
<path d="M253.066 169.927C251.016 167.336 248.604 165.055 245.903 163.154" stroke="#EBEBEB" stroke-width="0.982172" stroke-linecap="round" stroke-linejoin="round"/>
<path d="M254.115 172.864C254.602 170.779 255.262 168.74 256.089 166.766C257.247 164.139 257.447 163.797 257.447 163.797" stroke="#EBEBEB" stroke-width="0.982172" stroke-linecap="round" stroke-linejoin="round"/>
<path d="M259.079 190.764C260.271 189.281 261.592 187.908 263.027 186.66C263.941 185.982 264.799 185.232 265.592 184.416" stroke="#EBEBEB" stroke-width="0.982172" stroke-linecap="round" stroke-linejoin="round"/>
<path d="M259.237 187.044C258.242 185.452 257.128 183.938 255.906 182.514C254.71 181.206 253.409 179.998 252.016 178.903" stroke="#EBEBEB" stroke-width="0.982172" stroke-linecap="round" stroke-linejoin="round"/>
<path d="M258.196 198.721C258.064 197.052 257.489 195.448 256.531 194.075C255.015 192.073 253.199 189.421 252.516 188.378" stroke="#EBEBEB" stroke-width="0.982172" stroke-linecap="round" stroke-linejoin="round"/>
<path d="M274.171 229.084H252.299C251.865 229.084 251.447 228.914 251.136 228.61C250.825 228.306 250.645 227.892 250.634 227.457L247.494 203.217H278.91L275.77 227.457C275.76 227.881 275.589 228.285 275.292 228.587C274.995 228.889 274.594 229.067 274.171 229.084Z" fill="#E0E0E0"/>
<path d="M278.66 207.313H247.527C246.879 207.315 246.256 207.06 245.796 206.604C245.335 206.147 245.074 205.526 245.07 204.877C245.081 204.229 245.342 203.611 245.798 203.152C246.255 202.693 246.872 202.43 247.519 202.417H278.66C278.983 202.416 279.302 202.478 279.6 202.601C279.898 202.724 280.169 202.904 280.397 203.132C280.626 203.36 280.807 203.63 280.93 203.929C281.054 204.227 281.117 204.546 281.117 204.869C281.116 205.191 281.052 205.51 280.928 205.807C280.804 206.104 280.623 206.374 280.394 206.601C280.166 206.828 279.896 207.007 279.598 207.129C279.301 207.252 278.982 207.314 278.66 207.313Z" fill="#E0E0E0"/>
<path d="M208.473 110.363C208.471 117.208 206.155 123.852 201.9 129.21C197.645 134.567 191.703 138.324 185.043 139.866H184.952C184.161 140.041 183.369 140.199 182.553 140.316C181.121 140.52 179.677 140.623 178.23 140.625C170.325 140.596 162.745 137.469 157.114 131.913C151.482 126.356 148.247 118.813 148.102 110.897C147.956 102.981 150.91 95.3231 156.333 89.5623C161.756 83.8016 169.215 80.3963 177.114 80.0758C177.389 80.0758 177.681 80.0758 177.947 80.0758C178.036 80.0675 178.125 80.0675 178.214 80.0758C178.316 80.0675 178.419 80.0675 178.522 80.0758C182.602 80.1022 186.633 80.9681 190.366 82.6199C195.749 84.9818 200.329 88.8637 203.545 93.7907C206.76 98.7178 208.473 104.477 208.473 110.363Z" fill="#AB3D51"/>
<path opacity="0.4" d="M190.382 82.6282C155.459 80.8098 155.293 119.638 155.293 119.638C155.293 119.638 149.962 106.968 158.666 92.9463C163.53 85.0972 171.992 81.6356 178.539 80.1008C182.618 80.1219 186.649 80.9822 190.382 82.6282Z" fill="white"/>
<path d="M208.473 110.363C208.472 117.225 206.145 123.884 201.872 129.249C197.598 134.613 191.633 138.366 184.952 139.891C182.747 140.399 180.492 140.654 178.23 140.65C170.21 140.798 162.459 137.749 156.682 132.174C150.906 126.599 147.578 118.954 147.43 110.922C147.282 102.889 150.326 95.1266 155.893 89.3418C161.46 83.5571 169.094 80.224 177.114 80.0758C177.481 80.0758 177.856 80.0758 178.23 80.0758C186.25 80.078 193.941 83.2697 199.612 88.9491C205.284 94.6285 208.47 102.331 208.473 110.363Z" stroke="#263238" stroke-width="0.834123" stroke-linecap="round" stroke-linejoin="round"/>
<path d="M208.473 110.363C208.472 117.225 206.145 123.884 201.872 129.249C197.598 134.613 191.633 138.366 184.952 139.891C184.585 139.891 184.211 139.891 183.836 139.891C176.412 139.871 169.255 137.119 163.727 132.157C158.199 127.195 154.685 120.371 153.855 112.983C153.025 105.596 154.936 98.1601 159.225 92.0921C163.514 86.0241 169.881 81.7473 177.114 80.0758C177.481 80.0758 177.856 80.0758 178.23 80.0758C186.25 80.078 193.941 83.2697 199.612 88.9491C205.284 94.6285 208.47 102.331 208.473 110.363Z" stroke="#263238" stroke-width="0.834123" stroke-linecap="round" stroke-linejoin="round"/>
<path d="M188.65 129.289L189.433 132.492L184.202 133.768L183.419 130.574C178.738 130.574 174.982 127.529 173.783 122.641L173.425 121.19L179.197 119.096L179.563 120.606C180.288 123.575 182.245 125.002 184.685 124.401C185.221 124.318 185.732 124.119 186.184 123.818C186.635 123.518 187.016 123.123 187.3 122.66C187.585 122.198 187.765 121.68 187.83 121.14C187.895 120.601 187.842 120.055 187.675 119.538C186.976 116.685 183.711 114.9 179.929 113.057C175.457 110.888 170.843 108.136 169.577 102.956C168.344 97.901 169.893 93.6887 173.883 91.6034L173.1 88.4004L178.322 87.1241L179.105 90.3188C183.644 90.2521 187.026 93.2466 188.267 98.4182L188.525 99.4692L182.761 101.563L182.47 100.403C181.704 97.2587 180.088 95.9325 177.939 96.458C175.79 96.9835 174.899 98.6267 175.523 101.179C176.223 104.032 179.53 105.75 183.269 107.669C187.692 109.912 192.356 112.59 193.622 117.761C194.897 122.741 192.864 127.179 188.65 129.289Z" stroke="#263238" stroke-width="0.834123" stroke-miterlimit="10"/>
<path opacity="0.3" d="M188.65 129.289L189.433 132.492L184.202 133.768L183.419 130.574C178.738 130.574 174.982 127.529 173.783 122.641L173.425 121.19L179.197 119.096L179.563 120.606C180.288 123.575 182.245 125.002 184.685 124.401C185.221 124.318 185.732 124.119 186.184 123.818C186.635 123.518 187.016 123.123 187.3 122.66C187.585 122.198 187.765 121.68 187.83 121.14C187.895 120.601 187.842 120.055 187.675 119.538C186.976 116.685 183.711 114.9 179.929 113.057C175.457 110.888 170.843 108.136 169.577 102.956C168.344 97.901 169.893 93.6887 173.883 91.6034L173.1 88.4004L178.322 87.1241L179.105 90.3188C183.644 90.2521 187.026 93.2466 188.267 98.4182L188.525 99.4692L182.761 101.563L182.47 100.403C181.704 97.2587 180.088 95.9325 177.939 96.458C175.79 96.9835 174.899 98.6267 175.523 101.179C176.223 104.032 179.53 105.75 183.269 107.669C187.692 109.912 192.356 112.59 193.622 117.761C194.897 122.741 192.864 127.179 188.65 129.289Z" fill="black"/>
<path d="M162.772 136.404L169.16 136.112" stroke="#263238" stroke-width="0.834123" stroke-linecap="round" stroke-linejoin="round"/>
<path d="M159.699 134.277L165.271 133.802" stroke="#263238" stroke-width="0.834123" stroke-linecap="round" stroke-linejoin="round"/>
<path d="M157.2 132.033L162.772 131.558" stroke="#263238" stroke-width="0.834123" stroke-linecap="round" stroke-linejoin="round"/>
<path d="M156.434 89.3596H161.206" stroke="#263238" stroke-width="0.834123" stroke-linecap="round" stroke-linejoin="round"/>
<path d="M158.791 87.1576L163.547 86.9407" stroke="#263238" stroke-width="0.834123" stroke-linecap="round" stroke-linejoin="round"/>
<path d="M161.773 84.9471L166.787 84.4717" stroke="#263238" stroke-width="0.834123" stroke-linecap="round" stroke-linejoin="round"/>
<path opacity="0.3" d="M185.043 139.866H184.952C182.747 140.374 180.492 140.629 178.23 140.625C170.325 140.596 162.745 137.469 157.114 131.913C151.482 126.356 148.247 118.813 148.102 110.897C147.956 102.981 150.91 95.3231 156.333 89.5623C161.756 83.8016 169.215 80.3963 177.114 80.0758C177.389 80.0758 177.681 80.0758 177.947 80.0758C170.576 82.403 158.208 88.3503 154.901 100.754C150.229 118.379 160.748 138.389 185.043 139.866Z" fill="black"/>
<path opacity="0.1" d="M208.473 110.363C208.471 117.209 206.155 123.852 201.9 129.21C197.645 134.567 191.703 138.324 185.043 139.866H184.952C184.161 140.041 183.369 140.199 182.553 140.316L190.382 82.6033C195.765 84.9689 200.343 88.8544 203.556 93.7845C206.769 98.7146 208.478 104.476 208.473 110.363Z" fill="black"/>
<path d="M225.63 62.6844C223.236 66.0719 219.765 68.5463 215.785 69.7037C211.805 70.8612 207.551 70.6332 203.717 69.0571L203.609 69.007C203.04 68.7567 202.484 68.4783 201.943 68.1729C201.332 67.8438 200.742 67.4761 200.177 67.0719C196.488 64.25 194.005 60.1309 193.231 55.5466C192.457 50.9624 193.45 46.2549 196.008 42.3752C198.566 38.4956 202.5 35.7331 207.013 34.6458C211.527 33.5586 216.285 34.2277 220.325 36.5179L220.733 36.7765C220.924 36.8849 221.108 37.0184 221.299 37.1519C221.491 37.2853 221.857 37.5606 222.132 37.7775C225.773 40.702 228.162 44.9077 228.812 49.5363C229.462 54.1649 228.324 58.8675 225.63 62.6844Z" fill="#2A5573"/>
<path opacity="0.4" d="M198.028 62.9346C198.028 62.9346 195.038 54.1179 199.011 47.6285C204.008 39.4958 211.663 35.7839 222.082 37.7858C222.082 37.7858 216.435 33.9655 206.982 36.6764C197.528 39.3873 192.456 52.4163 198.028 62.9346Z" fill="white"/>
<path d="M225.63 62.6927C223.233 66.0773 219.762 68.5483 215.782 69.7027C211.802 70.857 207.549 70.6265 203.717 69.0487C202.452 68.5312 201.251 67.8707 200.135 67.0802C196.423 64.2279 193.94 60.0614 193.197 55.4348C192.454 50.8082 193.506 46.0722 196.138 42.1977C198.77 38.3233 202.783 35.6041 207.353 34.5976C211.923 33.5911 216.704 34.3737 220.716 36.7848C220.899 36.8932 221.091 37.0184 221.274 37.1518C225.227 39.9651 227.906 44.2332 228.722 49.0208C229.539 53.8083 228.427 58.7247 225.63 62.6927Z" stroke="#263238" stroke-width="0.834123" stroke-linecap="round" stroke-linejoin="round"/>
<path d="M225.63 62.6928C223.233 66.0774 219.762 68.5484 215.782 69.7028C211.802 70.8571 207.549 70.6266 203.717 69.0488L203.159 68.6818C199.54 66.055 197.005 62.1944 196.03 57.8265C195.056 53.4586 195.708 48.8844 197.866 44.9648C200.023 41.0452 203.537 38.0504 207.745 36.5439C211.954 35.0374 216.567 35.1231 220.716 36.7849C220.899 36.8933 221.091 37.0185 221.274 37.1519C225.227 39.9653 227.906 44.2333 228.722 49.0209C229.539 53.8084 228.427 58.7248 225.63 62.6928Z" stroke="#263238" stroke-width="0.834123" stroke-linecap="round" stroke-linejoin="round"/>
<path d="M209.231 65.1283L208.506 66.98L205.474 65.7873L206.199 63.9272C205.074 63.134 204.26 61.9738 203.895 60.6454C203.53 59.3169 203.638 57.9028 204.2 56.6453L204.533 55.8111L208.115 56.7871L207.773 57.6712C207.098 59.3895 207.557 60.7742 208.972 61.333C209.266 61.4795 209.589 61.5603 209.917 61.5697C210.245 61.5792 210.571 61.5171 210.873 61.3878C211.175 61.2585 211.445 61.065 211.665 60.8208C211.884 60.5766 212.049 60.2874 212.146 59.9734C212.795 58.3052 211.804 56.2949 210.58 54.0678C209.131 51.432 207.815 48.4625 208.989 45.4597C210.164 42.4568 212.379 40.9888 215.069 41.3558L215.802 39.504L218.826 40.6968L218.101 42.5402C220.366 44.0917 220.991 46.7109 219.817 49.7554L219.575 50.356L215.994 49.38L216.26 48.7044C216.977 46.886 216.643 45.6599 215.427 45.1677C214.211 44.6756 213.17 45.1677 212.587 46.6608C211.938 48.3291 212.979 50.3143 214.153 52.5664C215.561 55.2272 216.927 58.18 215.752 61.1745C215.307 62.499 214.408 63.6228 213.214 64.3465C212.02 65.0703 210.609 65.3472 209.231 65.1283Z" stroke="#263238" stroke-width="0.834123" stroke-miterlimit="10"/>
<path opacity="0.3" d="M209.231 65.1283L208.506 66.98L205.474 65.7873L206.199 63.9272C205.074 63.134 204.26 61.9738 203.895 60.6454C203.53 59.3169 203.638 57.9028 204.2 56.6453L204.533 55.8111L208.115 56.7871L207.773 57.6712C207.098 59.3895 207.557 60.7742 208.972 61.333C209.266 61.4795 209.589 61.5603 209.917 61.5697C210.245 61.5792 210.571 61.5171 210.873 61.3878C211.175 61.2585 211.445 61.065 211.665 60.8208C211.884 60.5766 212.049 60.2874 212.146 59.9734C212.795 58.3052 211.804 56.2949 210.58 54.0678C209.131 51.432 207.815 48.4625 208.989 45.4597C210.164 42.4568 212.379 40.9888 215.069 41.3558L215.802 39.504L218.826 40.6968L218.101 42.5402C220.366 44.0917 220.991 46.7109 219.817 49.7554L219.575 50.356L215.994 49.38L216.26 48.7044C216.977 46.886 216.643 45.6599 215.427 45.1677C214.211 44.6756 213.17 45.1677 212.587 46.6608C211.938 48.3291 212.979 50.3143 214.153 52.5664C215.561 55.2272 216.927 58.18 215.752 61.1745C215.307 62.499 214.408 63.6228 213.214 64.3465C212.02 65.0703 210.609 65.3472 209.231 65.1283Z" fill="black"/>
<path opacity="0.3" d="M220.283 36.5262C215.286 35.6337 208.956 35.1416 205.541 37.3604C199.269 41.3892 195.363 46.469 195.421 54.7018C195.48 62.9346 203.159 68.7067 203.159 68.7067L203.609 69.032C202.384 68.5197 201.219 67.8735 200.135 67.1052C196.446 64.2833 193.963 60.1642 193.19 55.5799C192.416 50.9957 193.408 46.2882 195.967 42.4086C198.525 38.5289 202.458 35.7664 206.972 34.6792C211.486 33.5919 216.243 34.261 220.283 36.5513V36.5262Z" fill="black"/>
<path opacity="0.1" d="M225.63 62.6843C223.236 66.0718 219.765 68.5463 215.785 69.7037C211.805 70.8611 207.551 70.6332 203.717 69.057L203.609 69.007C203.04 68.7566 202.484 68.4782 201.943 68.1729L222.082 37.7858C225.728 40.703 228.126 44.9036 228.785 49.5306C229.445 54.1575 228.316 58.8621 225.63 62.6843Z" fill="black"/>
<path d="M216.202 297.582C208.449 306.921 199.207 314.911 188.85 321.229C185.623 323.163 182.285 324.906 178.855 326.451C155.193 337.102 128.224 337.795 103.004 331.672C49.9735 318.802 21.8385 271.924 18.2654 219.883C17.3075 205.82 15.1587 190.63 20.8473 177.251C26.536 163.872 38.0382 155.564 51.0479 149.792C60.4929 145.579 70.6959 142.752 79.9659 140.441C96.7421 136.291 114.438 138.119 130.014 145.613C140.917 150.793 148.679 159.793 157.85 167.375C158.821 168.176 159.799 168.974 160.781 169.769C170.045 177.236 179.782 184.093 189.933 190.297C205.349 199.714 221.133 208.597 230.986 224.412C246.702 249.62 233.443 277.062 216.202 297.582Z" fill="#2A5573"/>
<path opacity="0.4" d="M216.202 297.582C208.449 306.921 199.207 314.911 188.85 321.229C185.623 323.163 182.285 324.906 178.855 326.451C155.193 337.102 128.224 337.795 103.004 331.672C49.9735 318.802 21.8385 271.924 18.2654 219.883C17.3075 205.82 15.1587 190.63 20.8473 177.251C26.536 163.872 38.0382 155.564 51.0479 149.792C60.4929 145.579 70.6959 142.752 79.9659 140.441C96.7421 136.291 114.438 138.119 130.014 145.613C140.917 150.793 148.679 159.793 157.85 167.375C158.821 168.176 159.799 168.974 160.781 169.769C170.045 177.236 179.782 184.093 189.933 190.297C205.349 199.714 221.133 208.597 230.986 224.412C246.702 249.62 233.443 277.062 216.202 297.582Z" fill="white"/>
<path d="M160.748 169.769C159.765 168.979 158.788 168.179 157.816 167.367C148.654 159.768 140.875 150.793 129.981 145.613C114.403 138.123 96.709 136.295 79.9326 140.441C57.8859 145.922 30.5421 154.363 20.7973 177.26C15.1086 190.606 17.2575 205.82 18.2236 219.883C21.8384 271.924 49.9735 318.802 103.004 331.672C131.855 338.679 162.972 336.761 188.85 321.229C199.207 314.911 208.449 306.921 216.202 297.582C233.443 277.062 246.702 249.62 231.002 224.413C221.158 208.564 205.374 199.714 189.949 190.297C179.782 184.095 170.027 177.238 160.748 169.769Z" stroke="#263238" stroke-width="0.834123" stroke-miterlimit="10"/>
<path d="M80.4156 262.565C76.0006 263.903 71.7158 265.64 67.6141 267.754" stroke="#263238" stroke-width="0.834123" stroke-linecap="round" stroke-linejoin="round"/>
<path d="M107.443 257.41C100.993 257.969 94.5918 258.987 88.2864 260.455" stroke="#263238" stroke-width="0.834123" stroke-linecap="round" stroke-linejoin="round"/>
<path d="M101.821 256.076C101.821 256.076 76.9341 241.579 46.9001 253.198" stroke="#263238" stroke-width="0.834123" stroke-linecap="round" stroke-linejoin="round"/>
<path opacity="0.1" d="M216.202 297.582C208.449 306.921 199.207 314.911 188.85 321.229C185.622 323.163 182.285 324.906 178.855 326.451C176.147 325.62 173.486 324.643 170.884 323.523C155.343 316.85 142.299 305.564 129.556 294.437C121.869 287.764 114.056 280.924 104.853 276.528C92.407 270.635 78.248 269.467 65.0072 273.242C71.8552 265.501 81.1657 260.371 91.3598 258.72C84.78 252.723 75.6265 250.204 66.7312 250.045C57.836 249.887 52.9386 250.979 44.2432 252.931C47.15 247.576 54.8625 242.73 60.951 242.872C55.1631 242.795 49.3845 242.385 43.6435 241.645C35.7893 240.378 32.2745 231.119 31.1001 223.245C27.8519 201.557 31.1418 178.461 42.9605 160.026C45.3004 156.35 48.0073 152.92 51.0396 149.792C60.4845 145.579 70.6875 142.752 79.9576 140.441C96.7337 136.291 114.429 138.119 130.006 145.613C140.909 150.793 148.671 159.793 157.841 167.375C158.813 168.176 159.79 168.974 160.773 169.769C170.036 177.236 179.774 184.093 189.924 190.297C205.341 199.714 221.124 208.597 230.977 224.412C246.702 249.62 233.443 277.062 216.202 297.582Z" fill="black"/>
<path d="M224.881 296.948C229.551 300.836 234.436 304.456 239.515 307.791C249.418 308.459 244.978 320.445 244.978 320.445L236.499 325.909C236.499 325.909 221.982 314.356 214.053 310.611C206.124 306.865 224.881 296.948 224.881 296.948Z" fill="white"/>
<path opacity="0.3" d="M154.51 170.745C154.51 170.745 153.152 157.291 150.987 153.512L118.104 146.806V144.253C118.104 144.253 118.862 139.816 111.532 137.038C104.203 134.26 88.9278 137.872 84.9882 140.858C81.0486 143.845 82.4895 148.983 82.4895 148.983C82.4895 148.983 69.2466 155.681 63.2997 158.233C58.4317 160.483 53.6859 162.988 49.0823 165.74C49.0823 165.74 46.3837 196.67 46.9168 203.851C47.4498 211.033 46.4837 217.79 47.1 221.768C47.7163 225.747 48.1994 228.008 52.3639 231.394C56.5283 234.781 60.318 239.735 71.2372 234.822L69.713 233.613L141.592 209.365L154.51 170.745Z" fill="black"/>
<path d="M154.51 170.745C154.51 170.745 153.152 157.291 150.987 153.512L118.104 146.806V144.253C118.104 144.253 118.862 139.816 111.532 137.038C104.203 134.26 88.9278 137.872 84.9882 140.858C81.0486 143.845 82.4895 148.983 82.4895 148.983C82.4895 148.983 69.2466 155.681 63.2997 158.233C58.4317 160.483 53.6859 162.988 49.0823 165.74C49.0823 165.74 46.3837 196.67 46.9168 203.851C47.4498 211.033 46.4837 217.79 47.1 221.768C47.7163 225.747 48.1994 228.008 52.3639 231.394C56.5283 234.781 60.318 239.735 71.2372 234.822L69.713 233.613L141.592 209.365L154.51 170.745Z" fill="#AB3D51"/>
<path opacity="0.05" d="M154.51 170.745C154.51 170.745 153.152 157.291 150.987 153.512L118.104 146.806V144.253C118.104 144.253 118.862 139.816 111.532 137.038C104.203 134.26 88.9278 137.872 84.9882 140.858C81.0486 143.845 82.4895 148.983 82.4895 148.983C82.4895 148.983 69.2466 155.681 63.2997 158.233C58.4317 160.483 53.6859 162.988 49.0823 165.74C49.0823 165.74 46.3837 196.67 46.9168 203.851C47.4498 211.033 46.4837 217.79 47.1 221.768C47.7163 225.747 48.1994 228.008 52.3639 231.394C56.5283 234.781 60.318 239.735 71.2372 234.822L69.713 233.613L141.592 209.365L154.51 170.745Z" fill="#2A5573"/>
<path opacity="0.1" d="M151.42 155.147H137.66C136.366 155.149 135.115 155.61 134.129 156.448C133.142 157.287 132.484 158.448 132.271 159.726L125.492 200.598C125.492 200.598 116.155 201.374 109.542 206.204C102.929 211.033 86.6623 176.575 60.9593 176.559C60.9593 176.559 68.3554 193.492 69.9962 207.004C69.9962 207.004 53.9297 205.253 51.2645 211.55C48.5992 217.848 52.4722 229.651 59.2685 225.08C66.0649 220.509 72.4615 212.885 77.0008 217.706C81.5401 222.527 101.821 225.121 101.821 225.121L133.029 209.365L145.131 203.668L151.42 155.147Z" fill="black"/>
<path opacity="0.4" d="M107.734 134.886C107.734 134.886 115.547 137.055 116.813 139.682C118.079 142.31 117.946 148.958 117.946 148.958C116.05 153.401 113.177 157.358 109.542 160.535L103.712 148.958L104.236 162.087C104.236 162.087 93.1755 160.243 88.478 156.707L83.7888 153.162C83.7888 153.162 81.7649 146.489 82.0564 144.228C82.3479 141.968 90.7851 137.38 90.7851 137.38L107.734 134.886Z" fill="white"/>
<path d="M237.865 337.336C237.649 336.861 241.072 330.805 238.39 324.641C235.708 318.477 231.435 320.854 231.435 320.854C231.435 320.854 219.267 313.097 214.153 310.644C210.468 308.791 206.92 306.678 203.534 304.322L198.128 311.612L203.126 327.093L237.865 337.336Z" fill="#2A5573"/>
<path d="M230.994 320.478L246.619 330.037C246.619 330.037 257.605 322.981 262.844 318.109C268.083 313.238 279.851 302.862 279.851 302.862L287.347 292.76C287.347 292.76 282.15 286.321 273.488 291.493C262.294 298.166 248.643 307.858 239.54 307.766C239.54 307.766 241.33 318.969 231.052 320.478" fill="#2A5573"/>
<path d="M105.086 94.4478C105.086 94.4478 112.174 105.191 113.465 108.67C114.756 112.148 115.797 117.294 115.539 119.772C115.28 122.249 112.682 135.52 111.374 135.904L110.117 137.33L110.949 142.952C110.949 142.952 105.402 152.553 89.0944 145.513C89.0944 145.513 88.4614 134.302 86.4791 130.782C84.4968 127.262 81.5317 131.449 78.5583 121.281C75.5849 111.114 85.0548 100.428 85.0548 100.428L105.086 94.4478Z" fill="white"/>
<path opacity="0.5" d="M280.543 289.624C280.543 289.624 272.505 291.025 269.898 295.788C267.291 300.551 262.286 309.401 260.578 313.68C258.871 317.959 244.753 328.294 244.753 328.294L246.627 330.037C246.627 330.037 258.121 322.922 265.059 316.158C271.997 309.393 287.298 292.377 287.298 292.377C287.298 292.377 286.198 291.284 280.543 289.624Z" fill="white"/>
<path opacity="0.5" d="M200.119 308.934L198.128 311.612L204.242 324.307L237.865 336.41L239.423 331.481C239.423 331.481 239.939 326.476 228.137 322.672C216.335 318.869 209.139 316.358 205.782 313.747C202.426 311.136 200.119 308.934 200.119 308.934Z" fill="white"/>
<path d="M89.1193 214.645C89.1193 214.645 78.8248 213.093 74.019 221.526C69.2132 229.959 69.7047 233.613 69.7047 233.613C69.7047 233.613 76.5094 239.802 85.8627 239.452C95.2161 239.101 108.834 228.375 113.273 224.88C117.713 221.385 128.907 211.383 136.544 213.452L137.377 206.22C137.377 206.22 136.627 202.975 130.098 203.851C123.568 204.727 121.002 208.456 118.895 208.456C116.788 208.456 114.797 206.429 110.566 213.669C110.558 213.669 95.7075 216.305 89.1193 214.645Z" fill="white"/>
<path d="M102.496 109.896C102.715 111.247 103.026 112.582 103.428 113.891C103.579 114.53 103.863 115.13 104.261 115.651C105.044 116.485 106.31 116.702 107.468 116.877C107.659 116.891 107.841 116.967 107.984 117.094C108.078 117.244 108.122 117.419 108.109 117.595C108.102 118.908 107.708 120.191 106.977 121.281" stroke="#263238" stroke-width="0.834123" stroke-linecap="round" stroke-linejoin="round"/>
<path opacity="0.1" d="M207.023 300.284L200.119 308.901C200.119 308.901 207.698 315.916 215.544 318.518C223.39 321.121 237.124 326.025 239.423 329.804L238.54 325.308C238.54 325.308 217.06 312.112 212.129 308.959C210.671 308.002 209.453 306.721 208.567 305.217C207.682 303.713 207.154 302.025 207.023 300.284Z" fill="black"/>
<path opacity="0.1" d="M230.994 320.478L244.745 328.294C244.745 328.294 251.533 323.64 254.865 320.211C258.196 316.783 262.302 312.98 264.859 305.297C268.349 294.679 278.344 289.624 278.344 289.624C278.344 289.624 264.443 296.18 257.205 301.302C249.967 306.423 242.913 308.592 238.815 308.242C238.773 308.267 242.063 318.693 230.994 320.478Z" fill="black"/>
<path d="M97.6482 123.175C97.6482 123.175 103.054 127.421 108.667 125.827C108.667 125.827 103.37 136.337 97.6482 123.175Z" fill="white" stroke="#263238" stroke-width="0.834123" stroke-linecap="round" stroke-linejoin="round"/>
<path d="M97.4483 114C97.6065 115.167 97.2484 116.177 96.6653 116.26C96.0823 116.343 95.4743 115.426 95.3161 114.283C95.1578 113.14 95.5076 112.106 96.099 112.023C96.6903 111.939 97.3233 112.832 97.4483 114Z" fill="#263238"/>
<path d="M109.217 111.873C109.367 113.049 109.017 114.058 108.434 114.133C107.851 114.208 107.235 113.299 107.085 112.165C106.935 111.03 107.276 109.979 107.868 109.904C108.459 109.829 109.059 110.705 109.217 111.873Z" fill="#263238"/>
<path d="M96.6154 109.045C96.6154 109.045 93.467 107.418 91.2266 110.905" stroke="#263238" stroke-width="0.834123" stroke-linecap="round" stroke-linejoin="round"/>
<path d="M104.686 106.876C104.686 106.876 108.018 104.015 109.942 106.876" stroke="#263238" stroke-width="0.834123" stroke-linecap="round" stroke-linejoin="round"/>
<path d="M85.921 119.78C85.921 119.78 83.8971 116.786 81.7566 116.877C79.6161 116.969 78.7665 119.972 79.5328 122.875C80.299 125.777 83.489 129.831 85.9044 129.448C87.2668 129.272 88.51 128.579 89.3775 127.512" stroke="#263238" stroke-width="0.834123" stroke-linecap="round" stroke-linejoin="round"/>
<path d="M105.327 96.8667C107.601 98.7602 110.008 100.82 111.158 103.606C112.174 105.975 112.399 108.611 113.331 111.005C114.323 113.566 115.405 116.243 115.489 119.038C115.445 121.623 115.107 124.195 114.481 126.703C114.135 128.878 113.62 131.023 112.94 133.118C111.816 136.112 109.742 137.956 106.96 139.374C104.936 140.408 101.563 141.876 99.3722 140.491C98.0979 139.657 96.1823 137.272 94.5914 135.078" stroke="#263238" stroke-width="0.834123" stroke-linecap="round" stroke-linejoin="round"/>
<path d="M85.9211 129.448C85.9211 129.448 89.5025 138.239 88.6363 144.42" stroke="#263238" stroke-width="0.834123" stroke-linecap="round" stroke-linejoin="round"/>
<path d="M85.0049 118.304C85.4816 117.95 85.8593 117.48 86.1015 116.938C86.3437 116.396 86.4422 115.8 86.3875 115.209C86.2542 113.858 85.3214 112.607 85.5046 111.255C85.6578 110.608 85.8988 109.985 86.2209 109.404C86.7059 108.281 86.9195 107.06 86.8443 105.84C86.769 104.62 86.407 103.434 85.7878 102.38C85.7878 102.38 97.1651 102.914 102.496 99.5192C107.826 96.1243 111.891 87.4411 108.667 83.2955C105.444 79.1499 99.164 84.8053 94.5082 85.4309C89.8523 86.0565 73.2944 88.7006 70.6542 95.09C68.0139 101.479 72.0368 103.773 72.1617 109.871C72.2866 115.968 72.2866 127.521 81.3901 126.461C81.3901 126.461 77.9836 122.049 80.349 117.503C81.9565 115.593 85.0049 118.304 85.0049 118.304Z" fill="#263238"/>
<path d="M107.318 90.5023C108.863 91.7074 110.144 93.2179 111.081 94.9398C112.018 96.6618 112.591 98.5584 112.765 100.512C113.273 105.083 121.369 113.966 115.53 119.029C115.53 119.029 114.173 113.649 113.373 110.997C112.574 108.344 111.549 103.49 110.208 101.821C108.867 100.153 101.754 94.3143 101.754 94.3143L107.318 90.5023Z" fill="#263238"/>
<path d="M86.9705 144.228C86.9705 144.228 92.5841 147.932 103.012 148.082L104.236 162.087C104.236 162.087 92.5092 161.194 83.7888 153.162C83.7888 153.162 81.4317 146.914 82.0564 144.228C82.6811 141.542 88.2864 138.881 88.2864 138.881" stroke="#263238" stroke-width="0.834123" stroke-linecap="round" stroke-linejoin="round"/>
<path d="M110.558 137.964L110.891 142.969C108.693 145.262 105.997 147.017 103.012 148.098L109.542 160.552C109.542 160.552 117.329 154.48 118.104 148.098C118.104 148.098 118.171 141.567 116.813 139.699C115.455 137.83 110.508 136.955 110.508 136.955" stroke="#263238" stroke-width="0.834123" stroke-linecap="round" stroke-linejoin="round"/>
<path opacity="0.8" d="M78.9581 99.2606C79.791 97.167 82.0731 95.9241 84.2969 95.5905C86.5207 95.2568 88.8028 95.4904 91.0517 95.432C94.1655 95.4069 97.2151 94.5425 99.8803 92.9296C101.204 92.122 102.357 91.061 103.271 89.8073C104.186 88.5535 104.845 87.1316 105.211 85.6227" stroke="white" stroke-width="0.834123" stroke-linecap="round" stroke-linejoin="round"/>
<path opacity="0.8" d="M73.5859 98.8519C74.9935 94.5729 79.5578 91.9287 84.0471 91.5534C86.2709 91.3615 88.5197 91.6201 90.7102 91.3615C92.9007 91.1029 95.2328 90.1854 96.3905 88.2753" stroke="white" stroke-width="0.834123" stroke-linecap="round" stroke-linejoin="round"/>
<path d="M71.2205 234.822C60.3929 240.444 56.545 234.655 50.5148 229.868C44.4847 225.08 48.4409 216.522 47.1833 202.8C45.9256 189.079 49.0573 165.74 49.0573 165.74C49.0573 165.74 51.7558 165.123 59.2435 160.535C66.7312 155.948 82.4895 148.958 82.4895 148.958" stroke="#263238" stroke-width="0.834123" stroke-linecap="round" stroke-linejoin="round"/>
<path d="M81.9482 214.053C81.9482 214.053 80.2324 208.606 75.385 208.464C70.5376 208.322 62.8916 210.508 57.4445 220.826" stroke="#263238" stroke-width="0.834123" stroke-linecap="round" stroke-linejoin="round"/>
<path d="M74.2772 208.139C73.9761 208.119 73.6804 208.049 73.4027 207.93C69.4066 206.49 65.0694 206.293 60.9593 207.363" stroke="#263238" stroke-width="0.834123" stroke-linecap="round" stroke-linejoin="round"/>
<path d="M58.1691 173.189C66.9894 182.948 71.2872 195.86 75.36 208.372" stroke="#263238" stroke-width="0.834123" stroke-linecap="round" stroke-linejoin="round"/>
<path d="M118.104 146.806C118.104 146.806 134.096 150.626 141.908 151.535C149.721 152.444 150.987 153.537 150.987 153.537L152.444 158.992" stroke="#263238" stroke-width="0.834123" stroke-linecap="round" stroke-linejoin="round"/>
<path d="M192.623 156.298L138.16 158.392L133.712 214.486H143.041L190.332 203.885L196.279 157.641L192.623 156.298Z" fill="white"/>
<path d="M136.544 216.146L196.113 158.967L190.332 203.885L136.544 216.146Z" fill="#2A5573"/>
<path opacity="0.7" d="M136.544 216.146L196.113 158.967L190.332 203.885L136.544 216.146Z" fill="white"/>
<path d="M136.544 214.645L141.308 160.535L196.279 157.641L190.332 203.885L136.544 214.645Z" stroke="#263238" stroke-width="0.834123" stroke-linecap="round" stroke-linejoin="round"/>
<path d="M173.108 183.857C172.742 187.152 170.984 189.655 169.185 189.454C167.386 189.254 166.237 186.41 166.603 183.115C166.97 179.82 168.735 177.318 170.534 177.518C172.334 177.718 173.483 180.563 173.108 183.857Z" fill="#263238"/>
<path d="M190.332 203.885C190.332 203.885 215.502 203.167 223.373 208.372C231.244 213.577 235.866 239.677 234.775 253.54C233.684 267.403 224.189 299.217 224.189 299.217L205.999 278.597C205.999 278.597 197.037 245.966 201.926 233.187C201.926 233.187 177.772 234.547 168.261 231.561C168.261 231.561 159.74 217.589 145.131 212.968L190.332 203.885Z" fill="#263238"/>
<path d="M228.029 299.759C221.568 293.719 215.766 287.008 210.721 279.74C201.918 266.119 189.749 253.048 177.231 242.847C167.145 234.656 164.862 221.31 152.419 214.612C131.805 203.543 113.981 225.539 107.318 229.993C100.655 234.447 89.1193 239.493 89.1193 239.493C89.1193 239.493 93.3338 255.342 105.711 257.219C118.087 259.095 130.606 250.546 136.527 254.674C142.449 258.803 146.83 277.238 166.387 288.039C182.37 296.864 204.15 305.473 215.386 311.278C217.884 312.579 219.75 313.947 221.166 314.723C225.047 316.842 229.195 319.336 233.11 321.805L246.594 330.029C246.594 330.029 260.129 322.013 265.326 314.623C266.017 313.63 267.458 310.986 268.807 308.434C271.747 302.853 275.47 297.849 280.626 295.088C284.191 293.161 287.364 292.585 287.289 292.385C286.948 291.751 280.484 288.44 276.095 290.25C266.8 294.095 248.218 308.867 239.448 307.766C235.369 305.511 231.541 302.826 228.029 299.759Z" stroke="#263238" stroke-width="0.834123" stroke-miterlimit="10"/>
<path d="M228.029 299.759C219.925 303.037 216.66 308.1 215.411 311.286C204.175 305.448 182.395 296.873 166.412 288.048C146.855 277.204 142.508 258.803 136.552 254.683C130.597 250.562 118.071 259.137 105.736 257.227C93.4004 255.317 89.1193 239.485 89.1193 239.485C89.1193 239.485 100.663 234.48 107.326 230.026C113.989 225.572 129.356 203.568 152.419 214.645C165.154 220.759 167.145 234.664 177.231 242.88C189.724 253.048 201.918 266.152 210.721 279.773C215.754 287.041 221.557 293.742 228.029 299.759Z" fill="#263238"/>
<path d="M167.128 229.042C167.128 229.042 160.89 216.347 150.887 213.886" stroke="white" stroke-width="0.834123" stroke-linecap="round" stroke-linejoin="round"/>
<path d="M134.429 203.768C127.549 202.266 119.995 209.882 116.813 208.456C114.448 207.396 110.558 213.669 110.558 213.669C104.156 214.595 97.6811 214.921 91.2183 214.645C81.9482 214.053 77.5588 215.863 74.2773 220.826L69.6964 232.979C69.6964 232.979 81.7816 243.822 94.6831 237.508C107.585 231.194 124.725 212.142 136.536 212.209" stroke="#263238" stroke-width="0.834123" stroke-linecap="round" stroke-linejoin="round"/>
<path d="M230.469 320.153C230.469 320.153 241.763 321.079 239.115 307.566" stroke="#263238" stroke-width="0.834123" stroke-miterlimit="10"/>
<path d="M283.691 299.217C282.858 300.885 272.505 309.71 263.585 317.426C263.585 317.309 266.084 312.596 267.117 310.586C269.49 306.148 275.62 293.978 287.289 292.377C288.947 293.378 283.691 299.217 283.691 299.217Z" fill="#263238"/>
<path d="M279.252 289.716C267.45 292.068 264.768 307.233 260.578 313.68C256.389 320.128 244.753 328.895 244.753 328.895" stroke="#263238" stroke-width="0.834123" stroke-miterlimit="10"/>
<path d="M238.39 325.024C240.314 328.544 239.406 332.632 238.39 335.192C237.892 336.464 237.273 337.685 236.541 338.838C219.833 336.085 203.126 327.093 203.126 327.093L198.819 313.747L198.128 311.612L204.616 302.862" stroke="#263238" stroke-width="0.834123" stroke-miterlimit="10"/>
<path d="M238.39 335.192C237.892 336.464 237.273 337.685 236.541 338.837C219.833 336.085 203.126 327.093 203.126 327.093L198.819 313.747C200.977 316.566 204.975 320.695 210.971 322.389C219.109 324.699 234.126 327.402 238.39 335.192Z" fill="#263238"/>
<path d="M133.712 212.535L138.16 158.392L192.623 156.298L196.279 157.641" stroke="#263238" stroke-width="0.834123" stroke-linecap="round" stroke-linejoin="round"/>
<path d="M239.04 313.68C239.04 313.68 246.486 315.015 252.208 310.344C257.93 305.673 267.15 295.104 267.15 295.104" stroke="#263238" stroke-width="0.834123" stroke-miterlimit="10"/>
<path d="M246.619 306.957C246.619 306.957 244.82 309.668 246.619 315.107" stroke="#263238" stroke-width="0.834123" stroke-linecap="round" stroke-linejoin="round"/>
<path d="M251.9 304.363C251.081 307.067 251.322 309.981 252.574 312.513" stroke="#263238" stroke-width="0.834123" stroke-linecap="round" stroke-linejoin="round"/>
<path d="M258.197 300.71C258.197 300.71 256.687 305.239 258.197 309.234" stroke="#263238" stroke-width="0.834123" stroke-linecap="round" stroke-linejoin="round"/>
<path d="M206.091 301.736L200.119 308.934C200.119 308.934 206.132 315.515 214.619 318.251C223.107 320.987 238.265 325.633 239.523 330.58" stroke="#263238" stroke-width="0.834123" stroke-miterlimit="10"/>
</g>
<defs>
<clipPath id="clip0_167_1432">
<rect width="314" height="352" fill="white"/>
</clipPath>
</defs>
</svg>
