<svg width="98" height="101" viewBox="0 0 98 101" fill="none" xmlns="http://www.w3.org/2000/svg">
<path d="M97.5894 53.6664C96.9611 63.4969 93.4968 72.9162 87.6344 80.7327C81.7721 88.5492 73.7751 94.4119 64.6549 97.5793C55.5347 100.747 45.7011 101.076 36.3977 98.5268C27.0943 95.9772 18.739 90.6628 12.3888 83.2558C6.03847 75.8488 1.9784 66.6819 0.722044 56.9145C-0.53431 47.1471 1.06949 37.218 5.33061 28.383C9.59172 19.548 16.3187 12.204 24.6608 7.27983C33.0029 2.35567 42.5853 0.0725574 52.1961 0.719272C58.5758 1.14651 64.8107 2.85501 70.5448 5.74721C76.2789 8.63941 81.3998 12.6587 85.6151 17.5754C89.8304 22.4921 93.0574 28.21 95.112 34.4026C97.1666 40.5951 98.0084 47.141 97.5894 53.6664Z" fill="#C53A3F"/>
<g opacity="0.1">
<path d="M52.196 0.71945C39.3194 -0.133179 26.6386 4.27845 16.9407 12.9848C7.24272 21.6911 1.32111 33.9796 0.477295 47.1497C0.477295 47.1497 34.5185 50.9942 43.6399 37.4917C52.7613 23.9893 52.196 0.71945 52.196 0.71945Z" fill="white"/>
</g>
<path d="M85.2135 52.0568C84.7325 59.5265 82.0967 66.6825 77.6396 72.62C73.1825 78.5575 67.1042 83.0099 60.1733 85.4141C53.2423 87.8183 45.77 88.0664 38.7013 86.127C31.6325 84.1877 25.2847 80.1479 20.4605 74.5186C15.6363 68.8892 12.5523 61.9231 11.5986 54.5011C10.6449 47.0791 11.8643 39.5345 15.1025 32.8213C18.3407 26.1081 23.4524 20.5278 29.7911 16.7859C36.1299 13.0441 43.4111 11.3089 50.714 11.7996C55.5644 12.1234 60.3049 13.4219 64.6644 15.6208C69.0239 17.8197 72.9169 20.8759 76.1209 24.6147C79.325 28.3534 81.7772 32.7014 83.3373 37.4102C84.8975 42.1189 85.5351 47.0959 85.2135 52.0568Z" fill="#C53A3F"/>
<g opacity="0.2">
<path d="M85.2135 52.0568C84.7325 59.5265 82.0967 66.6825 77.6396 72.62C73.1825 78.5575 67.1042 83.0099 60.1733 85.4141C53.2423 87.8183 45.77 88.0664 38.7013 86.127C31.6325 84.1877 25.2847 80.1479 20.4605 74.5186C15.6363 68.8892 12.5523 61.9231 11.5986 54.5011C10.6449 47.0791 11.8643 39.5345 15.1025 32.8213C18.3407 26.1081 23.4524 20.5278 29.7911 16.7859C36.1299 13.0441 43.4111 11.3089 50.714 11.7996C55.5644 12.1234 60.3049 13.4219 64.6644 15.6208C69.0239 17.8197 72.9169 20.8759 76.1209 24.6147C79.325 28.3534 81.7772 32.7014 83.3373 37.4102C84.8975 42.1189 85.5351 47.0959 85.2135 52.0568Z" fill="black"/>
</g>
<path d="M86.1608 53.6978C85.6859 61.0688 83.0848 68.1303 78.6864 73.9893C74.288 79.8483 68.2898 84.2417 61.4503 86.614C54.6108 88.9863 47.2372 89.2308 40.2618 87.3168C33.2864 85.4027 27.0225 81.416 22.2623 75.8608C17.502 70.3056 14.4591 63.4313 13.5183 56.1072C12.5776 48.7831 13.7812 41.3382 16.977 34.7138C20.1729 28.0894 25.2174 22.5831 31.4727 18.8911C37.728 15.199 44.9132 13.4871 52.1196 13.9719C56.9051 14.2938 61.5817 15.5767 65.8824 17.7473C70.1831 19.918 74.0237 22.934 77.1847 26.6229C80.3458 30.3119 82.7655 34.6016 84.3056 39.2472C85.8458 43.8927 86.4762 48.8031 86.1608 53.6978Z" fill="#C53A3F"/>
<g opacity="0.2">
<path d="M86.1608 53.6978C85.6859 61.0688 83.0848 68.1303 78.6864 73.9893C74.288 79.8483 68.2898 84.2417 61.4503 86.614C54.6108 88.9863 47.2372 89.2308 40.2618 87.3168C33.2864 85.4027 27.0225 81.416 22.2623 75.8608C17.502 70.3056 14.4591 63.4313 13.5183 56.1072C12.5776 48.7831 13.7812 41.3382 16.977 34.7138C20.1729 28.0894 25.2174 22.5831 31.4727 18.8911C37.728 15.199 44.9132 13.4871 52.1196 13.9719C56.9051 14.2938 61.5817 15.5767 65.8824 17.7473C70.1831 19.918 74.0237 22.934 77.1847 26.6229C80.3458 30.3119 82.7655 34.6016 84.3056 39.2472C85.8458 43.8927 86.4762 48.8031 86.1608 53.6978Z" fill="white"/>
</g>
<path d="M6.13048 70.9351C6.13048 70.9351 6.13048 70.8101 5.93186 70.5444L5.41238 69.3723C5.13283 68.7515 4.88797 68.1149 4.67899 67.4657C4.41925 66.7156 4.08312 65.9029 3.83866 64.9184L3.39558 63.3556C3.25807 62.8243 3.15112 62.2773 3.01361 61.6991C2.72331 60.5582 2.53996 59.308 2.32606 58.0109C1.92715 55.1647 1.75343 52.2903 1.80658 49.4156C1.89984 46.5397 2.21659 43.676 2.75386 40.8515C3.04416 39.5544 3.28862 38.3198 3.64004 37.1946C3.8081 36.632 3.93033 36.0851 4.11367 35.6318C4.29702 35.1786 4.44981 34.616 4.61788 34.1472C4.92345 33.1939 5.29014 32.3656 5.59572 31.6311C5.9013 30.8966 6.17632 30.2715 6.42078 29.787L7.00137 28.6306L7.21528 28.2399C7.18231 28.3867 7.13095 28.5285 7.06248 28.6618L6.55829 29.8339C6.31383 30.3444 6.05409 30.9695 5.77907 31.7092C5.50405 32.4438 5.15264 33.272 4.86234 34.2253C4.70956 34.7098 4.54149 35.1943 4.37342 35.71C4.20536 36.2257 4.08312 36.7727 3.93034 37.3509C3.5942 38.4605 3.36502 39.6951 3.09 40.9766C2.5726 43.7823 2.26613 46.6245 2.17327 49.4781C2.12057 52.3357 2.2789 55.1933 2.64691 58.0265C2.86081 59.3236 3.02888 60.5582 3.3039 61.6991C3.44141 62.2617 3.53308 62.8243 3.67059 63.34C3.8081 63.8557 3.94561 64.3714 4.08312 64.9028C4.3123 65.8717 4.63316 66.7156 4.86234 67.4657C5.09153 68.2159 5.33598 68.8566 5.54989 69.3723C5.76379 69.888 5.88602 70.2631 5.99297 70.5757C6.05315 70.6892 6.09934 70.8099 6.13048 70.9351Z" fill="white"/>
<path d="M54.1059 10.9869C54.1059 10.9869 53.6781 10.9869 52.9295 10.8618C52.5475 10.8618 52.0891 10.7368 51.5391 10.6899C50.989 10.6431 50.3932 10.5649 49.7056 10.5493C49.0181 10.5337 48.2847 10.5493 47.4749 10.5493C46.6651 10.5493 45.8248 10.5493 44.9234 10.6431C42.9761 10.7927 41.0412 11.0799 39.1327 11.5026C37.2295 11.959 35.3606 12.5544 33.5407 13.2842C32.7003 13.628 31.9058 13.9562 31.1877 14.3156C30.4696 14.675 29.7974 15.0189 29.2015 15.3627C28.6056 15.7065 28.0708 16.019 27.6736 16.3003C27.2684 16.5283 26.8757 16.7787 26.4971 17.0505C26.1737 17.2925 25.8314 17.5068 25.4734 17.6912C25.768 17.4208 26.0793 17.1703 26.4055 16.9411C26.7722 16.6409 27.1603 16.3693 27.5666 16.1284C28.058 15.7671 28.568 15.4333 29.0945 15.1282C29.6904 14.7844 30.3474 14.3937 31.0808 14.0499C31.8141 13.7061 32.6086 13.331 33.4337 12.956C35.2653 12.2063 37.1501 11.6003 39.0716 11.1432C40.9996 10.7174 42.9554 10.4353 44.9234 10.2992C45.8248 10.2992 46.6957 10.2055 47.4902 10.2992C48.2847 10.393 49.0181 10.2993 49.7362 10.4086C50.4543 10.518 51.0502 10.5493 51.5849 10.6118C52.1197 10.6743 52.5933 10.7524 52.96 10.8306C53.346 10.8444 53.7298 10.8967 54.1059 10.9869Z" fill="white"/>
<path d="M51.8905 97.9243C51.6088 98.0232 51.3163 98.0862 51.0196 98.1118C50.439 98.2056 49.6139 98.2993 48.575 98.3775C45.8784 98.5418 43.1722 98.3951 40.5078 97.9399C37.8428 97.4742 35.2386 96.6982 32.7461 95.627C31.7989 95.205 31.0349 94.83 30.5307 94.5487C30.257 94.418 29.9961 94.261 29.7515 94.0798C30.0435 94.1613 30.3254 94.2767 30.5918 94.4236C31.1113 94.6737 31.8905 95.0019 32.8378 95.3769C35.3363 96.3706 37.9264 97.1036 40.5689 97.5648C43.2082 98.0174 45.885 98.2007 48.5597 98.1118C49.5834 98.1118 50.4237 98.0181 50.989 97.9712C51.2881 97.9345 51.5893 97.9189 51.8905 97.9243Z" fill="white"/>
<path d="M35.3657 68.7868V31.4918H47.1652C47.4522 31.4918 48.043 31.5005 48.9377 31.5177C49.8323 31.535 50.6932 31.5954 51.5204 31.699C54.4576 32.0616 56.9475 33.1062 58.9901 34.8328C61.0326 36.5595 62.5856 38.7523 63.6491 41.4113C64.7126 44.0703 65.2443 46.9796 65.2443 50.1393C65.2443 53.2991 64.7126 56.2084 63.6491 58.8674C62.5856 61.5264 61.0326 63.7192 58.9901 65.4458C56.9475 67.1725 54.4576 68.2171 51.5204 68.5797C50.6932 68.6832 49.8323 68.7437 48.9377 68.7609C48.043 68.7782 47.4522 68.7868 47.1652 68.7868H35.3657ZM42.3542 62.1566H47.1652C47.621 62.1566 48.2371 62.148 49.0136 62.1307C49.7901 62.0962 50.4907 62.0185 51.1153 61.8976C52.702 61.5696 53.9934 60.8099 54.9894 59.6185C56.0022 58.4271 56.7449 56.994 57.2176 55.3192C57.7071 53.6444 57.9519 51.9178 57.9519 50.1393C57.9519 48.2746 57.6987 46.5048 57.1923 44.83C56.7027 43.1551 55.9515 41.7393 54.9387 40.5825C53.9259 39.4256 52.6514 38.6918 51.1153 38.381C50.4907 38.2429 49.7901 38.1652 49.0136 38.1479C48.2371 38.1307 47.621 38.122 47.1652 38.122H42.3542V62.1566Z" fill="#9E2E32"/>
<path d="M38.2873 68.7868V31.4918H50.0868C50.3738 31.4918 50.9646 31.5005 51.8593 31.5177C52.754 31.535 53.6149 31.5954 54.442 31.699C57.3793 32.0616 59.8691 33.1062 61.9117 34.8328C63.9543 36.5595 65.5073 38.7523 66.5707 41.4113C67.6342 44.0703 68.166 46.9796 68.166 50.1393C68.166 53.2991 67.6342 56.2084 66.5707 58.8674C65.5073 61.5264 63.9543 63.7192 61.9117 65.4458C59.8691 67.1725 57.3793 68.2171 54.442 68.5797C53.6149 68.6832 52.754 68.7437 51.8593 68.7609C50.9646 68.7782 50.3738 68.7868 50.0868 68.7868H38.2873ZM45.2759 62.1566H50.0868C50.5426 62.1566 51.1588 62.148 51.9353 62.1307C52.7118 62.0962 53.4123 62.0185 54.0369 61.8976C55.6237 61.5696 56.915 60.8099 57.911 59.6185C58.9238 58.4271 59.6666 56.994 60.1392 55.3192C60.6288 53.6444 60.8735 51.9178 60.8735 50.1393C60.8735 48.2746 60.6203 46.5048 60.1139 44.83C59.6244 43.1551 58.8732 41.7393 57.8604 40.5825C56.8475 39.4256 55.573 38.6918 54.0369 38.381C53.4123 38.2429 52.7118 38.1652 51.9353 38.1479C51.1588 38.1307 50.5426 38.122 50.0868 38.122H45.2759V62.1566Z" fill="#C53A3F"/>
</svg>
