<svg width="98" height="100" viewBox="0 0 98 100" fill="none" xmlns="http://www.w3.org/2000/svg">
<path d="M97.5894 53.0545C96.9611 62.8851 93.4968 72.3043 87.6344 80.1209C81.7721 87.9374 73.7751 93.8001 64.6549 96.9674C55.5347 100.135 45.7011 100.465 36.3977 97.9149C27.0943 95.3654 18.739 90.051 12.3888 82.644C6.03847 75.237 1.9784 66.0701 0.722044 56.3027C-0.53431 46.5353 1.06949 36.6062 5.33061 27.7712C9.59172 18.9362 16.3187 11.5922 24.6608 6.66801C33.0029 1.74386 42.5853 -0.539259 52.1961 0.107456C58.5758 0.534693 64.8107 2.2432 70.5448 5.1354C76.2789 8.02759 81.3998 12.0468 85.6151 16.9636C89.8304 21.8803 93.0574 27.5982 95.112 33.7908C97.1666 39.9833 98.0084 46.5292 97.5894 53.0545Z" fill="#C53A3F"/>
<g opacity="0.1">
<path d="M52.1961 0.107633C39.3194 -0.744996 26.6387 3.66663 16.9407 12.3729C7.24273 21.0792 1.32113 33.3678 0.47731 46.5379C0.47731 46.5379 34.5185 50.3824 43.6399 36.8799C52.7614 23.3775 52.1961 0.107633 52.1961 0.107633Z" fill="white"/>
</g>
<path d="M85.2135 51.445C84.7324 58.9147 82.0967 66.0707 77.6396 72.0082C73.1825 77.9457 67.1042 82.3981 60.1732 84.8023C53.2423 87.2065 45.77 87.4546 38.7013 85.5152C31.6325 83.5759 25.2847 79.5361 20.4605 73.9067C15.6362 68.2774 12.5523 61.3113 11.5986 53.8893C10.6449 46.4673 11.8642 38.9227 15.1025 32.2095C18.3407 25.4963 23.4524 19.9159 29.7911 16.1741C36.1299 12.4323 43.4111 10.6971 50.714 11.1877C55.5644 11.5116 60.3049 12.8101 64.6644 15.009C69.0239 17.2079 72.9169 20.2641 76.1209 24.0028C79.325 27.7416 81.7772 32.0896 83.3373 36.7983C84.8975 41.5071 85.535 46.4841 85.2135 51.445Z" fill="#C53A3F"/>
<g opacity="0.2">
<path d="M85.2135 51.445C84.7324 58.9147 82.0967 66.0707 77.6396 72.0082C73.1825 77.9457 67.1042 82.3981 60.1732 84.8023C53.2423 87.2065 45.77 87.4546 38.7013 85.5152C31.6325 83.5759 25.2847 79.5361 20.4605 73.9067C15.6362 68.2774 12.5523 61.3113 11.5986 53.8893C10.6449 46.4673 11.8642 38.9227 15.1025 32.2095C18.3407 25.4963 23.4524 19.9159 29.7911 16.1741C36.1299 12.4323 43.4111 10.6971 50.714 11.1877C55.5644 11.5116 60.3049 12.8101 64.6644 15.009C69.0239 17.2079 72.9169 20.2641 76.1209 24.0028C79.325 27.7416 81.7772 32.0896 83.3373 36.7983C84.8975 41.5071 85.535 46.4841 85.2135 51.445Z" fill="black"/>
</g>
<path d="M86.1608 53.086C85.6859 60.457 83.0848 67.5185 78.6864 73.3775C74.288 79.2365 68.2898 83.6299 61.4503 86.0022C54.6108 88.3745 47.2372 88.619 40.2618 86.705C33.2864 84.7909 27.0225 80.8042 22.2623 75.249C17.502 69.6938 14.4591 62.8195 13.5183 55.4954C12.5776 48.1713 13.7812 40.7264 16.977 34.102C20.1729 27.4776 25.2174 21.9713 31.4727 18.2792C37.728 14.5872 44.9132 12.8753 52.1196 13.3601C56.9051 13.6819 61.5817 14.9648 65.8824 17.1355C70.1831 19.3062 74.0237 22.3222 77.1847 26.0111C80.3458 29.7001 82.7655 33.9898 84.3056 38.6354C85.8457 43.2809 86.4762 48.1912 86.1608 53.086Z" fill="#C53A3F"/>
<g opacity="0.2">
<path d="M86.1608 53.086C85.6859 60.457 83.0848 67.5185 78.6864 73.3775C74.288 79.2365 68.2898 83.6299 61.4503 86.0022C54.6108 88.3745 47.2372 88.619 40.2618 86.705C33.2864 84.7909 27.0225 80.8042 22.2623 75.249C17.502 69.6938 14.4591 62.8195 13.5183 55.4954C12.5776 48.1713 13.7812 40.7264 16.977 34.102C20.1729 27.4776 25.2174 21.9713 31.4727 18.2792C37.728 14.5872 44.9132 12.8753 52.1196 13.3601C56.9051 13.6819 61.5817 14.9648 65.8824 17.1355C70.1831 19.3062 74.0237 22.3222 77.1847 26.0111C80.3458 29.7001 82.7655 33.9898 84.3056 38.6354C85.8457 43.2809 86.4762 48.1912 86.1608 53.086Z" fill="white"/>
</g>
<path d="M6.13046 70.3233C6.13046 70.3233 6.13046 70.1983 5.93184 69.9326L5.41237 68.7605C5.13281 68.1397 4.88795 67.5031 4.67898 66.8539C4.41924 66.1038 4.0831 65.2911 3.83864 64.3066L3.39557 62.7438C3.25806 62.2124 3.1511 61.6655 3.0136 61.0872C2.7233 59.9464 2.53995 58.6962 2.32604 57.3991C1.92713 54.5529 1.75341 51.6785 1.80657 48.8038C1.89982 45.9279 2.21658 43.0642 2.75385 40.2397C3.04414 38.9426 3.28861 37.708 3.64002 36.5828C3.80809 36.0202 3.93031 35.4732 4.11366 35.02C4.297 34.5668 4.4498 34.0042 4.61786 33.5354C4.92344 32.5821 5.29013 31.7538 5.5957 31.0193C5.90128 30.2848 6.1763 29.6597 6.42076 29.1752L7.00135 28.0187L7.21527 27.6281C7.1823 27.7748 7.13093 27.9167 7.06247 28.05L6.55828 29.2221C6.31382 29.7326 6.05407 30.3577 5.77905 31.0974C5.50404 31.8319 5.15263 32.6602 4.86233 33.6135C4.70954 34.098 4.54147 34.5825 4.37341 35.0982C4.20534 35.6139 4.08311 36.1608 3.93032 36.7391C3.59419 37.8487 3.365 39.0833 3.08998 40.3647C2.57259 43.1705 2.26612 46.0127 2.17326 48.8663C2.12055 51.7239 2.27888 54.5815 2.6469 57.4147C2.8608 58.7118 3.02887 59.9464 3.30388 61.0872C3.44139 61.6498 3.53306 62.2124 3.67057 62.7282C3.80808 63.2439 3.9456 63.7596 4.08311 64.2909C4.31229 65.2599 4.63315 66.1038 4.86233 66.8539C5.09151 67.604 5.33597 68.2448 5.54987 68.7605C5.76377 69.2762 5.886 69.6513 5.99296 69.9639C6.05314 70.0774 6.09932 70.1981 6.13046 70.3233Z" fill="white"/>
<path d="M54.1059 10.3751C54.1059 10.3751 53.6781 10.3751 52.9295 10.25C52.5475 10.25 52.0891 10.125 51.5391 10.0781C50.989 10.0312 50.3932 9.9531 49.7056 9.93748C49.0181 9.92185 48.2847 9.93748 47.4749 9.93748C46.6651 9.93748 45.8248 9.93747 44.9234 10.0312C42.9761 10.1809 41.0412 10.4681 39.1327 10.8908C37.2295 11.3472 35.3606 11.9426 33.5407 12.6723C32.7003 13.0162 31.9058 13.3443 31.1877 13.7038C30.4696 14.0632 29.7974 14.407 29.2015 14.7509C28.6056 15.0947 28.0708 15.4072 27.6736 15.6885C27.2684 15.9165 26.8757 16.1669 26.4971 16.4387C26.1737 16.6807 25.8314 16.895 25.4734 17.0794C25.768 16.809 26.0793 16.5585 26.4055 16.3293C26.7722 16.0291 27.1603 15.7575 27.5666 15.5166C28.058 15.1553 28.568 14.8214 29.0945 14.5164C29.6904 14.1726 30.3474 13.7819 31.0808 13.4381C31.8141 13.0943 32.6086 12.7192 33.4337 12.3442C35.2653 11.5945 37.1501 10.9885 39.0716 10.5313C40.9996 10.1055 42.9554 9.82349 44.9234 9.68743C45.8248 9.68743 46.6957 9.59366 47.4902 9.68743C48.2847 9.78119 49.0181 9.68744 49.7362 9.79683C50.4543 9.90623 51.0502 9.93747 51.5849 9.99998C52.1197 10.0625 52.5933 10.1406 52.96 10.2188C53.3461 10.2325 53.7298 10.2849 54.1059 10.3751Z" fill="white"/>
<path d="M51.8905 97.3125C51.6088 97.4114 51.3163 97.4744 51.0196 97.5C50.439 97.5938 49.6139 97.6875 48.575 97.7657C45.8784 97.93 43.1722 97.7832 40.5078 97.3281C37.8428 96.8624 35.2386 96.0864 32.7461 95.0152C31.7989 94.5932 31.0349 94.2182 30.5307 93.9369C30.257 93.8062 29.9961 93.6492 29.7515 93.468C30.0435 93.5495 30.3254 93.6649 30.5918 93.8118C31.1113 94.0619 31.8905 94.3901 32.8378 94.7651C35.3363 95.7588 37.9264 96.4918 40.5689 96.953C43.2082 97.4056 45.885 97.5889 48.5597 97.5C49.5834 97.5 50.4237 97.4062 50.989 97.3594C51.2881 97.3227 51.5893 97.307 51.8905 97.3125Z" fill="white"/>
<path d="M33.4179 67.1788V29.8838H40.3052V45.2162H56.6118V29.8838H63.4991V67.1788H56.6118V51.7946H40.3052V67.1788H33.4179Z" fill="#9E2E32"/>
<path d="M35.3657 70.1673V32.8722H42.253V48.2046H58.5596V32.8722H65.4469V70.1673H58.5596V54.7831H42.253V70.1673H35.3657Z" fill="#C53A3F"/>
</svg>
