<svg width="505" height="408" viewBox="0 0 505 408" fill="none" xmlns="http://www.w3.org/2000/svg">
<g clip-path="url(#clip0_24_762)">
<path d="M93.8694 368.563C95.2733 363.005 91.5969 357.467 87.4862 353.432C83.3755 349.398 78.477 345.847 76.3257 340.541C72.8311 331.927 77.3963 320.74 71.4777 313.568C68.0033 309.362 61.7918 307.98 58.7012 303.481C57.0852 301.121 56.5398 298.206 55.8934 295.412C52.5463 281.098 45.4133 267.944 35.2389 257.323C34.6065 270.098 37.4363 282.807 43.43 294.11C45.8338 298.619 48.7729 303.017 49.591 308.061C50.9242 316.252 46.3893 324.725 48.4497 332.764C50.803 341.963 61.1959 348.066 61.7413 357.538C62.2059 365.557 55.247 372.669 55.8227 380.627C56.055 384.037 57.6609 387.194 59.4385 390.119C65.7005 400.378 74.8612 407.419 88.6679 407.116L105.596 407.61L93.8694 368.563Z" fill="#F5F5F5"/>
<path d="M109.08 408.034C110.631 408.259 112.21 408.215 113.746 407.903C115.618 407.623 117.456 407.15 119.231 406.491C121.681 405.628 123.969 404.359 125.998 402.738C127.22 401.744 128.175 400.462 128.775 399.006C129.276 397.371 129.534 395.672 129.543 393.962C129.561 392.135 129.683 390.309 129.906 388.495C130.218 386.566 130.905 384.715 131.926 383.048C133.896 379.538 137.188 376.209 138.239 371.448C139.289 366.687 138.501 361.714 137.693 356.64C136.885 351.566 136.087 346.049 137.996 340.763C139.905 335.477 143.46 330.676 145.289 324.704C147.117 318.733 146.198 312.207 146.551 305.821C146.655 302.582 147.386 299.393 148.702 296.43C150.056 293.404 151.944 290.6 153.409 287.443C156.368 281.058 156.863 273.835 157.641 266.764C158.025 263.207 158.408 259.606 158.792 255.961C159.022 252.303 159.632 248.68 160.61 245.148C161.736 241.577 163.068 238.074 164.6 234.657C165.397 232.893 166.043 231.064 166.529 229.19C166.809 227.261 166.981 225.318 167.044 223.37C167.21 219.465 167.037 215.554 166.529 211.679C166.044 207.785 165.317 203.922 164.882 200.018C164.882 199.786 164.822 199.554 164.802 199.342L164.711 198.565L164.014 198.908C160.427 200.752 157.315 203.4 154.924 206.645C152.596 209.809 150.729 213.287 149.379 216.974C146.601 224.247 145.622 231.863 144.238 239.166C142.854 246.469 141.097 253.58 137.4 259.643C135.572 262.669 133.36 265.423 131.391 268.368C129.31 271.239 127.895 274.536 127.25 278.021C126.24 285.173 130.28 291.427 129.482 297.762C129.118 300.877 128.084 303.878 126.452 306.558C124.937 309.261 123.149 311.773 121.402 314.305C119.667 316.768 118.163 319.384 116.908 322.122C115.738 324.809 115.055 327.681 114.888 330.605C114.504 336.305 115.342 341.701 114.958 346.815C114.52 351.676 113.127 356.403 110.858 360.725C108.838 364.901 106.585 368.664 104.697 372.326C103.747 374.151 102.879 375.937 102.162 377.722C101.509 379.451 101.039 381.242 100.758 383.068C100.271 386.263 100.247 389.51 100.687 392.712C101.162 397.176 102.86 401.424 105.596 404.988C106.016 405.515 106.479 406.007 106.979 406.46C107.313 406.811 107.686 407.122 108.09 407.388C108.727 407.852 109.1 408.064 109.1 408.064C107.892 407.11 106.788 406.032 105.808 404.846C103.174 401.284 101.564 397.07 101.152 392.661C100.749 389.499 100.804 386.296 101.313 383.149C101.616 381.361 102.107 379.609 102.778 377.924C103.485 376.179 104.373 374.403 105.323 372.598C107.232 368.977 109.504 365.214 111.575 361.018C113.898 356.632 115.339 351.835 115.817 346.896C116.231 341.681 115.413 336.254 115.817 330.686C115.995 327.857 116.679 325.083 117.837 322.495C119.082 319.81 120.569 317.244 122.281 314.829C123.978 312.317 125.796 309.786 127.331 307.022C129.03 304.237 130.111 301.121 130.502 297.883C131.28 291.135 127.331 284.83 128.31 278.183C128.954 274.845 130.334 271.692 132.35 268.953C134.259 266.058 136.501 263.294 138.41 260.198C142.218 253.964 144.046 246.681 145.41 239.378C146.773 232.075 147.783 224.53 150.52 217.408C151.825 213.805 153.642 210.408 155.914 207.321C158.195 204.218 161.165 201.684 164.59 199.917L163.812 199.483C163.812 199.705 163.862 199.937 163.893 200.169C164.337 204.123 165.064 207.987 165.539 211.84C166.042 215.658 166.215 219.512 166.054 223.36C165.988 225.246 165.826 227.128 165.569 228.998C165.095 230.806 164.47 232.57 163.701 234.274C162.12 237.724 160.744 241.264 159.58 244.875C158.586 248.466 157.97 252.151 157.742 255.87C157.358 259.515 156.978 263.119 156.601 266.684C155.833 273.744 155.338 280.896 152.48 287.049C151.076 290.126 149.197 292.96 147.803 296.057C146.444 299.132 145.693 302.441 145.591 305.801C145.258 312.328 146.147 318.693 144.41 324.483C142.673 330.273 139.027 335.054 137.188 340.521C135.35 345.988 136.087 351.748 136.926 356.791C137.764 361.835 138.612 366.818 137.552 371.317C136.491 375.816 133.401 379.165 131.381 382.776C130.344 384.516 129.658 386.442 129.361 388.445C129.147 390.28 129.039 392.125 129.038 393.972C129.044 395.638 128.809 397.296 128.341 398.895C127.777 400.28 126.882 401.506 125.735 402.466C123.755 404.074 121.523 405.345 119.129 406.228C117.378 406.902 115.565 407.406 113.716 407.731C112.582 407.939 111.434 408.057 110.282 408.084C109.464 408.024 109.08 408.034 109.08 408.034Z" fill="#E0E0E0"/>
<path d="M161.398 208.653C161.317 208.814 161.262 208.988 161.236 209.167C161.135 209.571 161.014 210.075 160.873 210.69C160.54 212.022 160.156 214.039 159.53 216.551C158.903 219.062 157.368 221.897 156.075 225.397C154.783 228.897 153.369 232.882 152.116 237.401C150.864 241.92 149.743 246.923 148.571 252.299C147.399 257.676 146.167 263.395 143.248 268.832C141.875 271.586 140.329 274.37 139.107 277.416C137.909 280.541 137.112 283.805 136.734 287.13C135.917 294.006 134.737 300.835 133.199 307.587C129.886 321.456 126.725 334.671 123.856 346.694C120.988 358.718 118.251 369.481 116.019 378.58C113.787 387.678 112.07 394.941 110.827 400.105L109.464 405.976C109.333 406.591 109.221 407.096 109.141 407.499C109.096 407.674 109.069 407.853 109.06 408.034C109.146 407.875 109.211 407.705 109.252 407.53L109.676 406.027C110.06 404.614 110.575 402.668 111.231 400.206C112.565 395.062 114.443 387.759 116.766 378.771L124.846 346.936C127.745 334.903 130.906 321.719 134.28 307.819C135.817 301.027 136.987 294.158 137.784 287.241C138.152 284.001 138.923 280.819 140.077 277.769C141.259 274.804 142.774 272.03 144.117 269.246C147.066 263.708 148.268 257.787 149.419 252.451C150.571 247.115 151.621 242.081 152.833 237.572C154.045 233.063 155.328 229.049 156.611 225.579C157.893 222.109 159.307 219.214 159.913 216.621C160.519 214.029 160.792 212.062 161.055 210.7C161.156 210.075 161.247 209.571 161.307 209.157C161.356 208.993 161.386 208.824 161.398 208.653Z" fill="#E0E0E0"/>
<path d="M112.049 408.074C123.069 401.447 126.129 381.515 121.442 369.552C116.756 357.588 108.636 346.684 107.302 333.914C106.292 324.099 109.454 313.992 107.1 304.409C103.939 291.468 91.2131 281.502 91.2838 268.176C91.2838 260.702 95.546 253.651 95.1622 246.187C94.6976 237.028 87.6175 229.805 83.2038 221.756C76.4671 209.449 75.9419 194.843 73.5785 181.014C71.2151 167.185 65.8722 152.387 53.53 145.649C51.7827 157.41 48.7325 165.48 49.793 181.397C50.1768 187.117 56.863 198.031 57.873 210.559C58.4588 218.044 58.883 225.548 59.3779 233.043C59.8627 240.336 60.3879 247.76 63.0341 254.569C65.0541 259.794 68.3265 264.525 69.8415 269.922C72.7099 280.059 69.084 291.104 71.407 301.363C73.427 310.078 79.487 317.502 80.7495 326.379C82.5473 338.796 74.5683 351.748 78.7295 363.58C80.8101 369.451 85.6783 374.141 87.0923 380.204C88.1831 384.914 87.0923 389.907 88.0417 394.638C89.6375 402.254 104.202 408.084 112.009 407.57" fill="#E0E0E0"/>
<path d="M56.661 157.299C56.6364 157.521 56.6364 157.744 56.661 157.965C56.7317 158.459 56.8125 159.095 56.9236 159.892C57.1862 161.586 57.4892 164.078 58.075 167.306C58.6608 170.534 60.4081 174.175 61.7716 178.573C63.1351 182.971 64.6299 188.004 65.9025 193.704C67.1751 199.403 68.2861 205.627 69.4375 212.365C70.5889 219.103 71.8312 226.487 75.2248 233.447C76.7903 236.967 78.5477 240.508 79.8809 244.24C81.1758 248.098 81.98 252.104 82.2746 256.163C82.9439 264.781 84.0768 273.358 85.6682 281.855C89.1527 299.255 92.4655 315.818 95.4854 330.908C98.6669 345.928 101.545 359.465 103.939 370.863L109.736 397.775C110.423 400.892 110.969 403.344 111.363 405.078C111.544 405.865 111.696 406.491 111.807 406.975C111.846 407.193 111.911 407.407 111.999 407.61C111.997 407.389 111.97 407.169 111.918 406.955C111.827 406.46 111.716 405.835 111.575 405.038C111.231 403.283 110.757 400.822 110.151 397.685C108.848 391.249 106.989 382.04 104.697 370.702C102.404 359.364 99.6163 345.746 96.5156 330.666C93.4149 315.586 90.2334 299.013 86.7893 281.623C85.197 273.139 84.0608 264.576 83.3856 255.971C83.0725 251.849 82.2411 247.782 80.9111 243.867C79.5375 240.034 77.7599 236.503 76.1843 233.013C72.821 226.103 71.609 218.891 70.3768 212.173C69.1446 205.455 68.0538 199.171 66.7105 193.502C65.3672 187.833 63.8926 182.769 62.3978 178.371C60.903 173.973 59.2264 170.302 58.5396 167.195C57.8528 164.088 57.5296 161.526 57.1862 159.851C57.0347 159.054 56.9135 158.429 56.8226 157.935C56.7919 157.718 56.7377 157.505 56.661 157.299Z" fill="#EBEBEB"/>
<path d="M215.453 -0.422363H100.798V118.938H215.453V-0.422363Z" fill="#E0E0E0"/>
<path d="M207.686 -0.422363H93.0311V118.938H207.686V-0.422363Z" fill="#FAFAFA"/>
<path d="M207.717 118.978H93.0008V-0.452637H207.717V118.978ZM93.0715 118.908H207.646V-0.382027H93.0715V118.908Z" fill="#E0E0E0"/>
<path d="M192.274 15.6262H108.444V102.9H192.274V15.6262Z" fill="#FAFAFA"/>
<path d="M108.444 103.475C107.855 104.357 107.16 105.164 106.373 105.875C105.04 107.288 103.161 109.204 101.051 111.272C98.9396 113.34 97.0105 115.196 95.5763 116.507C94.8481 117.27 94.0348 117.947 93.1523 118.525C93.7278 117.65 94.4059 116.847 95.1723 116.134C96.5156 114.722 98.4043 112.805 100.515 110.727C102.626 108.649 104.555 106.793 106 105.482C106.736 104.723 107.556 104.05 108.444 103.475Z" fill="#E0E0E0"/>
<path d="M192.274 103.263C193.149 103.842 193.956 104.518 194.677 105.28C196.091 106.612 198 108.498 200.081 110.596C202.162 112.694 204.01 114.631 205.323 116.073C206.092 116.795 206.77 117.608 207.343 118.494C206.47 117.916 205.667 117.239 204.949 116.477C203.535 115.135 201.616 113.249 199.536 111.141C197.455 109.033 195.597 107.106 194.284 105.663C193.52 104.947 192.845 104.141 192.274 103.263Z" fill="#E0E0E0"/>
<path d="M192.041 15.8986C192.637 15.0214 193.332 14.2158 194.112 13.4978C195.455 12.0856 197.334 10.1792 199.445 8.10125C201.556 6.02331 203.485 4.17737 204.919 2.86605C205.645 2.1006 206.458 1.42344 207.343 0.848633C206.768 1.72356 206.09 2.52621 205.323 3.23927C203.98 4.65146 202.101 6.56801 199.98 8.64595C197.859 10.7239 195.94 12.5799 194.496 13.8912C193.762 14.6575 192.938 15.3315 192.041 15.8986Z" fill="#E0E0E0"/>
<path d="M108.211 16.07C107.335 15.492 106.529 14.8151 105.808 14.0526C104.394 12.7211 102.485 10.8449 100.404 8.73673C98.3235 6.62853 96.4752 4.7019 95.1622 3.26953C94.3921 2.54824 93.7137 1.73519 93.1422 0.848633C94.0151 1.42697 94.8183 2.10391 95.5359 2.86605C96.9499 4.20763 98.8588 6.09391 100.95 8.20211C103.04 10.3103 104.889 12.2369 106.202 13.6895C106.966 14.3986 107.641 15.198 108.211 16.07Z" fill="#E0E0E0"/>
<path d="M192.041 102.9C192.041 102.9 192.041 102.748 192.041 102.476C192.041 102.204 192.041 101.77 192.041 101.255C192.041 100.156 192.041 98.5823 192.041 96.5447C192.041 92.409 192.041 86.3972 191.951 78.7612C191.951 63.4692 191.86 41.7013 191.789 15.6262L192.112 15.9489H108.524L108.898 15.5757C108.898 47.6123 108.898 77.5709 108.898 102.849L108.575 102.526L169.104 102.688L186.113 102.779H190.607H191.769H192.173H191.809H190.678H186.244L169.306 102.859L108.575 103.021H108.262V102.708C108.262 77.4297 108.262 47.4711 108.201 15.4345V15.0613H108.585H192.173H192.496V15.3841C192.425 41.5399 192.375 63.3885 192.334 78.7209C192.334 86.3265 192.274 92.3183 192.254 96.4338C192.254 98.4512 192.254 100.005 192.254 101.084C192.254 101.588 192.254 101.982 192.254 102.264C192.208 102.483 192.136 102.697 192.041 102.9Z" fill="#E0E0E0"/>
<path d="M164.347 45.2922H136.37V73.2234H164.347V45.2922Z" fill="#EBEBEB"/>
<path d="M425.644 57.8206V161.97H275.871L270.478 58.5468L425.644 57.8206Z" fill="#E0E0E0"/>
<path d="M270.468 58.5469V161.748H420.241V58.5469L270.468 58.5469Z" fill="white"/>
<path d="M420.958 162.464H269.761V57.8406H420.958V162.464ZM271.185 161.042H419.534V59.2729H271.185V161.042Z" fill="#E0E0E0"/>
<path d="M404.03 71.3774H286.699V148.937H404.03V71.3774Z" fill="white"/>
<path d="M404 71.3773H403.414H401.748H395.304L371.125 71.4681L286.668 71.6295L287.002 71.2966C287.002 94.9912 287.002 121.248 287.002 148.836L286.638 148.473L403.97 148.544L403.667 148.836C403.737 125.232 403.788 105.885 403.828 92.4089C403.828 85.6708 403.889 80.4154 403.899 76.8042C403.899 75.0188 403.899 73.657 403.899 72.7088C403.899 71.7607 403.899 71.2866 403.899 71.2866C403.899 71.2866 403.899 71.7304 403.899 72.6483C403.899 73.5662 403.899 74.928 403.899 76.6831C403.899 80.2742 403.899 85.5094 403.98 92.2173C403.98 105.734 404.061 125.152 404.131 148.826V149.119H404L286.668 149.199H286.295V148.826C286.295 121.238 286.295 94.9811 286.295 71.2866V70.9436H286.638L371.316 71.1151L395.425 71.2059H401.798H403.424C403.849 71.3774 404 71.3773 404 71.3773Z" fill="#E0E0E0"/>
<path d="M270.478 58.2642C271.402 58.7107 272.267 59.2698 273.054 59.9285C274.579 61.0381 276.669 62.6016 278.922 64.3971C281.174 66.1926 283.154 67.9074 284.547 69.1784C285.352 69.8203 286.075 70.5589 286.699 71.3774C286.557 71.5287 282.952 68.5631 278.457 64.9822C273.963 61.4012 270.347 58.4356 270.478 58.2642Z" fill="#E0E0E0"/>
<path d="M420.251 58.5568C420.372 58.7081 416.847 61.7141 412.363 65.2547C407.878 68.7952 404.152 71.5288 404.03 71.3775C403.909 71.2262 407.424 68.2102 411.908 64.6696C416.393 61.129 420.16 58.3954 420.251 58.5568Z" fill="#E0E0E0"/>
<path d="M420.16 161.768L403.465 148.251L420.16 161.768Z" fill="white"/>
<path d="M403.434 148.251C403.556 148.09 407.404 150.985 412.009 154.717C416.615 158.449 420.261 161.606 420.089 161.778C419.918 161.949 416.12 159.034 411.504 155.302C406.889 151.57 403.303 148.402 403.434 148.251Z" fill="#E0E0E0"/>
<path d="M270.478 161.748C270.347 161.586 273.841 158.621 278.275 155.12C282.709 151.62 286.406 148.907 286.527 149.068C286.648 149.23 283.164 152.195 278.73 155.695C274.296 159.196 270.599 161.909 270.478 161.748Z" fill="#E0E0E0"/>
<path d="M310.525 95.5461V121.51H384.356V95.5461H310.525Z" fill="#E0E0E0"/>
<path d="M414.019 202.903L426.523 187.772C426.523 187.772 429.664 167.285 429.23 164.401C428.309 160.562 427.156 156.782 425.776 153.083C425.69 152.837 425.659 152.576 425.685 152.317C425.712 152.058 425.795 151.808 425.929 151.584C426.063 151.361 426.244 151.17 426.46 151.024C426.676 150.879 426.922 150.783 427.18 150.743C429.452 150.369 433.169 150.743 436.057 156.22C438.704 161.264 440.097 168.062 440.764 172.49C440.853 173.031 441.057 173.547 441.363 174.001C441.669 174.456 442.069 174.84 442.537 175.127C443.004 175.414 443.528 175.598 444.072 175.665C444.617 175.732 445.17 175.681 445.693 175.517C451.438 173.695 457.304 172.276 463.247 171.27C466.671 170.876 470.529 174.135 471.276 176.576C471.842 178.412 468.963 181.922 468.963 181.922C468.963 181.922 471.943 183.092 473.003 185.2C473.145 185.473 473.276 185.735 473.387 185.997C473.747 186.855 473.877 187.792 473.764 188.715C473.651 189.639 473.298 190.517 472.741 191.263L471.953 192.271C471.953 192.271 475.589 192.887 476.225 194.874C476.615 196.333 476.728 197.852 476.558 199.352L473.579 203.105C474.567 203.864 475.277 204.928 475.599 206.131C475.952 207.977 471.428 213.091 471.428 213.091L448.491 221.786L440.411 229.482L414.019 202.903Z" fill="#FFBE9D"/>
<path d="M470.943 182.487C470.797 182.6 470.638 182.695 470.468 182.769L469.044 183.485L463.782 186.047L455.944 189.78C454.46 190.455 452.914 191.273 451.238 191.878C450.352 192.251 449.389 192.408 448.43 192.336C447.472 192.264 446.544 191.965 445.723 191.464C444.921 190.859 444.366 189.985 444.158 189.003C443.963 188.074 443.997 187.111 444.259 186.199C444.797 184.503 445.893 183.038 447.369 182.043C448.655 181.152 450.005 180.36 451.409 179.672L454.985 177.786L460.176 175.093L461.6 174.377C461.762 174.285 461.935 174.213 462.115 174.165C461.973 174.283 461.817 174.385 461.651 174.467L460.277 175.264L455.167 178.109L451.622 180.056C450.253 180.751 448.937 181.543 447.683 182.426C446.306 183.369 445.283 184.742 444.774 186.33C444.493 187.152 444.465 188.039 444.694 188.876C444.922 189.714 445.397 190.464 446.056 191.03C446.785 191.531 447.646 191.805 448.531 191.817C449.404 191.829 450.273 191.686 451.096 191.394C452.743 190.819 454.268 190.002 455.763 189.376L463.641 185.745L468.973 183.334L470.438 182.698C470.596 182.606 470.766 182.535 470.943 182.487Z" fill="#AA6550"/>
<path d="M473.438 192.937C473.091 193.168 472.722 193.364 472.337 193.522C471.609 193.865 470.559 194.339 469.236 194.894C466.61 196.013 462.923 197.456 458.793 198.858C457.784 199.221 456.755 199.527 455.712 199.776C454.714 200.015 453.67 199.995 452.682 199.715C451.844 199.437 451.102 198.928 450.543 198.246C449.983 197.564 449.629 196.737 449.521 195.862C449.402 194.686 449.746 193.511 450.48 192.584C450.676 192.339 450.899 192.119 451.147 191.928C451.319 191.807 451.42 191.757 451.43 191.767C451.44 191.777 451.086 192.069 450.642 192.705C450.025 193.616 449.756 194.719 449.884 195.812C450.008 196.6 450.348 197.339 450.867 197.946C451.386 198.554 452.063 199.005 452.823 199.251C453.744 199.489 454.71 199.489 455.631 199.251C456.657 198.999 457.668 198.693 458.661 198.333C462.792 196.941 466.479 195.559 469.135 194.53L472.296 193.31C472.663 193.148 473.046 193.023 473.438 192.937Z" fill="#AA6550"/>
<path d="M474.104 202.762C473.757 202.927 473.391 203.049 473.013 203.125L469.983 203.932C467.418 204.588 463.873 205.455 459.954 206.383C458.992 206.634 458.018 206.832 457.035 206.978C456.081 207.123 455.106 207.001 454.217 206.625C453.802 206.455 453.43 206.195 453.128 205.863C452.826 205.532 452.601 205.137 452.47 204.709C452.258 203.968 452.308 203.177 452.611 202.469C453.044 201.47 453.812 200.653 454.783 200.159C455.106 199.943 455.47 199.795 455.853 199.726C455.853 199.726 455.49 199.927 454.843 200.331C453.975 200.863 453.299 201.658 452.914 202.6C452.666 203.246 452.641 203.956 452.844 204.618C452.969 204.978 453.171 205.308 453.436 205.583C453.701 205.858 454.023 206.072 454.379 206.212C455.189 206.536 456.072 206.637 456.934 206.504C457.897 206.353 458.851 206.151 459.792 205.899C463.711 204.971 467.277 204.164 469.892 203.599L472.922 202.953C473.309 202.849 473.705 202.785 474.104 202.762Z" fill="#AA6550"/>
<path d="M473.751 211.679C472.626 211.829 471.491 211.886 470.357 211.85C468.266 211.85 465.368 211.85 462.176 211.85H459.833C459.09 211.878 458.347 211.814 457.621 211.659C456.921 211.509 456.294 211.124 455.843 210.569C455.648 210.32 455.512 210.03 455.446 209.721C455.379 209.411 455.384 209.091 455.46 208.784C455.588 208.366 455.805 207.982 456.096 207.656C456.387 207.331 456.746 207.072 457.146 206.897C457.424 206.745 457.74 206.678 458.055 206.706C458.055 206.756 457.732 206.797 457.237 207.079C456.891 207.266 456.587 207.522 456.344 207.83C456.101 208.139 455.924 208.495 455.823 208.874C455.772 209.125 455.779 209.384 455.842 209.632C455.904 209.88 456.022 210.111 456.187 210.307C456.596 210.757 457.137 211.067 457.732 211.195C458.429 211.315 459.136 211.363 459.843 211.336H462.176C465.368 211.336 468.236 211.416 470.357 211.477C471.492 211.459 472.626 211.526 473.751 211.679Z" fill="#AA6550"/>
<path d="M452.672 202.973C450.858 202.192 448.97 201.593 447.036 201.188C445.074 200.964 443.094 200.94 441.128 201.117C443.063 200.504 445.116 200.352 447.121 200.675C449.126 200.997 451.027 201.784 452.672 202.973Z" fill="#AA6550"/>
<path d="M340.653 252.673L417.13 197.728L444.319 228.847L384.467 290.459C357.722 314.617 348.359 320.72 304.02 295.502L275.882 279.363L286.274 407.54H159.014C145.036 407.096 177.194 372.073 174.993 372.073L147.076 277.951L103.889 306.941L144.824 338.907L129.674 373.919L59.6809 341.61C34.3097 324.755 37.7134 291.921 59.3577 270.496C98.3437 231.913 128.512 203.841 161.842 198.152C179.012 192.997 189.112 192.1 189.112 192.1C215.938 191.716 217.938 191.807 232.31 192.483C235.107 192.628 237.892 192.965 240.643 193.492C256.323 195.825 271.199 201.939 283.982 211.305L340.653 252.673Z" fill="#AB3D51"/>
<path d="M342.491 278.364C342.251 278.085 342.054 277.773 341.905 277.436C341.427 276.561 341.009 275.654 340.653 274.723C340.115 273.343 339.686 271.923 339.37 270.476C338.994 268.703 338.764 266.901 338.683 265.09C338.63 263.276 338.731 261.46 338.986 259.663C339.21 258.197 339.548 256.75 339.996 255.336C340.27 254.383 340.607 253.449 341.006 252.541C341.133 252.184 341.306 251.845 341.521 251.533C341.622 251.533 340.996 252.995 340.34 255.396C339.972 256.806 339.692 258.238 339.501 259.683C339.28 261.453 339.196 263.237 339.249 265.019C339.326 266.801 339.536 268.574 339.875 270.325C340.17 271.75 340.555 273.155 341.027 274.531C341.855 276.942 342.582 278.314 342.491 278.364Z" fill="#263238"/>
<path d="M273.155 308.948C277.072 304.234 279.893 298.709 281.411 292.773C282.93 286.837 283.109 280.639 281.935 274.625C280.762 268.612 278.266 262.934 274.627 258.001C270.988 253.069 266.297 249.006 260.893 246.106" fill="#AB3D51"/>
<path d="M260.853 248.093C261.048 248.176 261.231 248.285 261.398 248.416C261.731 248.648 262.267 248.971 262.883 249.425C264.679 250.757 266.367 252.227 267.933 253.822C273.042 259.157 277.172 265.347 280.134 272.11C281.873 275.828 282.783 279.879 282.8 283.983C282.778 287.309 282.246 290.612 281.224 293.777C280.558 295.907 279.748 297.99 278.8 300.011L277.982 301.635C277.896 301.83 277.791 302.015 277.669 302.19C277.719 301.983 277.793 301.783 277.891 301.595C278.073 301.161 278.316 300.586 278.609 299.931C279.476 297.889 280.232 295.801 280.871 293.677C281.821 290.532 282.307 287.267 282.315 283.983C282.258 279.963 281.342 276.001 279.629 272.363C276.679 265.655 272.63 259.484 267.65 254.105C266.116 252.501 264.476 251.002 262.741 249.616C262.135 249.112 261.63 248.769 261.317 248.496C261.149 248.378 260.993 248.243 260.853 248.093Z" fill="#263238"/>
<path d="M232.613 284.285C232.641 284.429 232.641 284.576 232.613 284.719C232.613 285.002 232.613 285.415 232.532 285.95C232.374 287.457 232.076 288.946 231.644 290.398C230.235 295.251 227.476 299.605 223.688 302.953C219.899 306.301 215.236 308.506 210.242 309.311C208.744 309.567 207.226 309.682 205.707 309.654C205.171 309.654 204.747 309.594 204.475 309.584C204.327 309.583 204.18 309.559 204.04 309.513C204.594 309.461 205.15 309.437 205.707 309.443C207.206 309.396 208.698 309.23 210.171 308.948C215.065 308.06 219.621 305.848 223.344 302.555C227.067 299.261 229.816 295.011 231.29 290.267C231.738 288.836 232.076 287.372 232.3 285.889C232.375 285.349 232.48 284.814 232.613 284.285Z" fill="#263238"/>
<path d="M182.669 331.876C182.742 332.057 182.789 332.247 182.81 332.441C182.891 332.875 182.982 333.45 183.103 334.086C183.27 334.953 183.392 335.828 183.467 336.708C183.557 337.717 183.719 338.907 183.739 340.208C183.739 340.854 183.79 341.54 183.81 342.226C183.83 342.912 183.81 343.668 183.81 344.435C183.81 345.968 183.638 347.592 183.497 349.307C183.07 353.016 182.337 356.683 181.305 360.272C180.218 363.844 178.833 367.32 177.164 370.661C176.356 372.174 175.609 373.637 174.77 374.918C174.366 375.564 174.003 376.209 173.599 376.794L172.427 378.469C171.7 379.548 170.932 380.486 170.296 381.253C169.66 382.019 169.064 382.725 168.569 383.27C168.074 383.815 167.721 384.168 167.418 384.491C167.294 384.643 167.152 384.778 166.993 384.894C167.095 384.727 167.209 384.568 167.337 384.42L168.407 383.139C168.882 382.594 169.417 381.918 170.064 381.122C170.71 380.325 171.427 379.397 172.084 378.297L173.215 376.623C173.609 376.038 173.962 375.392 174.356 374.747C175.174 373.455 175.902 372.003 176.689 370.5C180.003 363.858 182.129 356.69 182.972 349.317C183.123 347.612 183.315 345.998 183.325 344.485C183.325 343.729 183.406 342.992 183.396 342.286C183.386 341.58 183.396 340.904 183.396 340.269C183.396 338.978 183.265 337.818 183.204 336.789C183.143 335.76 183.032 334.882 182.931 334.166C182.83 333.45 182.79 332.946 182.739 332.512C182.697 332.303 182.673 332.09 182.669 331.876Z" fill="#263238"/>
<path d="M76.9519 301.766C77.2962 301.592 77.6634 301.466 78.0427 301.393C78.4777 301.262 78.9193 301.154 79.3658 301.07C79.8809 300.969 80.4768 300.828 81.1333 300.758C82.6845 300.528 84.2517 300.423 85.8197 300.445C87.7356 300.484 89.6447 300.687 91.5262 301.05C93.406 301.444 95.2503 301.99 97.0408 302.684C98.4923 303.269 99.8969 303.964 101.242 304.762C101.828 305.085 102.313 305.448 102.757 305.771C103.202 306.094 103.555 306.336 103.848 306.568C104.169 306.785 104.461 307.043 104.717 307.334C104.656 307.415 103.363 306.396 101.051 305.115C99.7003 304.37 98.2997 303.719 96.859 303.168C95.0908 302.506 93.2742 301.98 91.4252 301.595C89.5721 301.242 87.6948 301.029 85.8096 300.959C84.2651 300.923 82.7199 300.987 81.1838 301.151C78.5578 301.413 76.9721 301.857 76.9519 301.766Z" fill="#263238"/>
<path d="M163.62 248.214C163.621 248.013 163.648 247.813 163.701 247.619C163.792 247.175 163.893 246.61 164.034 245.924C164.423 243.862 164.703 241.782 164.872 239.69C165.12 236.589 165.025 233.47 164.59 230.39C164.052 226.623 162.83 222.986 160.984 219.657C159.153 216.323 156.574 213.458 153.449 211.285C150.874 209.549 147.958 208.384 144.895 207.866C142.828 207.527 140.72 207.527 138.653 207.866C137.178 208.108 136.401 208.39 136.38 208.33C136.562 208.243 136.752 208.172 136.946 208.118C137.491 207.929 138.047 207.777 138.612 207.664C140.702 207.249 142.848 207.198 144.955 207.513C148.092 207.982 151.086 209.14 153.722 210.902C156.933 213.09 159.577 216.008 161.438 219.415C163.312 222.798 164.542 226.499 165.064 230.33C165.484 233.446 165.541 236.601 165.236 239.731C165.037 241.835 164.7 243.924 164.226 245.985C164.064 246.711 163.923 247.266 163.812 247.649C163.767 247.843 163.702 248.032 163.62 248.214Z" fill="#263238"/>
<g opacity="0.3">
<path d="M230.007 293.636C225.967 304.258 214.979 309.039 204.757 309.715H204.172C199.517 309.496 194.86 310.083 190.405 311.45C193.154 316.042 197.495 319.467 202.605 321.073C207.715 322.679 213.238 322.354 218.125 320.161C223.011 317.968 226.921 314.059 229.111 309.177C231.302 304.294 231.621 298.778 230.007 293.677V293.636Z" fill="black"/>
</g>
<g opacity="0.3">
<path d="M158.903 318.037C161.368 327.216 164.852 338.01 167.317 347.189C169.478 355.258 172.781 364.085 174.942 372.124L175.892 372.033C180.053 353.332 172.983 331.039 158.903 318.037Z" fill="black"/>
</g>
<g opacity="0.3">
<path d="M291.89 276.468C287.705 267.87 280.356 261.221 271.377 257.908C276.427 265.17 282.133 273.936 282.709 283.347L290.234 287.665C292.577 285.405 293.304 279.383 291.89 276.468Z" fill="black"/>
</g>
<path d="M184.052 205.586C183.042 205.889 182.075 206.319 181.174 206.867C180.368 207.545 179.658 208.329 179.063 209.197C179.002 209.197 179.063 208.794 179.315 208.239C179.682 207.522 180.215 206.903 180.871 206.433C181.52 205.964 182.271 205.653 183.063 205.526C183.679 205.445 184.052 205.536 184.052 205.586Z" fill="#263238"/>
<path d="M196.354 221.352C196.294 221.352 196.122 220.928 196.061 220.172C196.008 219.176 196.177 218.18 196.556 217.257C196.925 216.328 197.502 215.497 198.243 214.826C198.808 214.321 199.253 214.13 199.253 214.18C198.34 215.147 197.584 216.249 197.011 217.448C196.598 218.709 196.376 220.025 196.354 221.352Z" fill="#263238"/>
<path d="M183.224 220.666C183.158 220.01 183.227 219.348 183.426 218.719C184.195 215.598 186.147 212.897 188.87 211.184C189.402 210.799 190.007 210.524 190.648 210.377C188.758 211.478 187.121 212.962 185.842 214.735C184.563 216.507 183.671 218.528 183.224 220.666Z" fill="#263238"/>
<path d="M174.538 201.955C174.488 201.955 174.669 201.511 175.174 200.946C175.854 200.289 176.691 199.817 177.605 199.576C178.519 199.334 179.48 199.33 180.396 199.564C181.093 199.766 181.406 200.028 181.406 200.089C180.19 199.84 178.936 199.84 177.72 200.089C176.546 200.495 175.465 201.129 174.538 201.955Z" fill="#263238"/>
<path d="M210.403 220.475C210.112 219.643 209.906 218.785 209.787 217.912C209.501 217.082 209.292 216.228 209.161 215.36C209.773 216.04 210.167 216.886 210.292 217.791C210.583 218.657 210.621 219.588 210.403 220.475Z" fill="#263238"/>
<path d="M224.907 220.666C224.217 217.479 222.638 214.552 220.352 212.223C221.804 213.083 222.968 214.354 223.695 215.875C224.576 217.312 224.999 218.983 224.907 220.666Z" fill="#263238"/>
<path d="M231.017 209.389C230.876 209.449 230.492 208.642 229.593 208.128C228.694 207.614 227.826 207.634 227.806 207.482C227.785 207.331 228.008 207.311 228.401 207.291C228.914 207.279 229.419 207.416 229.856 207.684C230.293 207.94 230.644 208.319 230.866 208.774C231.068 209.117 231.078 209.369 231.017 209.389Z" fill="#263238"/>
<path d="M242.622 204.527C242.098 204.19 241.593 203.827 241.107 203.437C239.884 202.628 238.51 202.072 237.067 201.803C235.611 201.544 234.117 201.579 232.674 201.904C231.573 202.166 230.926 202.479 230.886 202.398C231.376 201.985 231.958 201.695 232.583 201.551C234.065 201.097 235.634 201.004 237.159 201.279C238.684 201.555 240.121 202.191 241.35 203.135C241.869 203.502 242.303 203.977 242.622 204.527Z" fill="#263238"/>
<path d="M239.441 195.519C238.462 195.365 237.472 195.294 236.481 195.307C235.507 195.486 234.548 195.739 233.613 196.064C234.382 195.333 235.375 194.881 236.432 194.782C237.49 194.683 238.549 194.943 239.441 195.519Z" fill="#263238"/>
<path d="M185.618 182.265C174.882 182.507 159.489 181.256 153.086 172.632C146.682 164.007 149.46 148.322 152.803 138.134C143.289 127.522 143.713 109.486 153.813 99.359C155.621 97.5231 157.722 95.8991 159.045 93.69C161.539 89.5341 160.802 84.2989 161.408 79.4773C161.902 75.5524 163.33 71.8026 165.572 68.5418C167.815 65.2809 170.806 62.6037 174.297 60.7342C177.788 58.8647 181.676 57.8572 185.636 57.796C189.597 57.7348 193.514 58.6217 197.061 60.3825C203.04 55.1674 209.262 49.902 216.756 47.2692C224.25 44.6365 233.411 45.3224 239.047 50.9006C242.137 53.9267 244.097 58.3449 247.955 60.3219C251.813 62.299 256.651 61.26 260.934 62.2687C269.104 64.1954 273.619 72.9409 275.76 81.0509C277.902 89.1609 278.962 98.0376 284.456 104.382C287.315 107.691 291.223 110.082 293.546 113.773C294.849 115.827 295.594 118.184 295.71 120.612C295.826 123.04 295.308 125.457 294.207 127.625C293.107 129.794 291.461 131.639 289.431 132.981C287.401 134.322 285.057 135.114 282.628 135.279C287.608 141.563 288.688 150.41 286.487 158.116C284.285 165.823 279.679 175.577 271.69 178.099C266.39 179.69 260.689 179.281 255.671 176.949C255.671 176.949 251.52 184.837 232.441 184.07C202.667 182.86 190.163 193.381 185.628 182.224" fill="#263238"/>
<path d="M254.358 146.688C255.752 134.25 254.187 114.046 252.338 97.5433C250.712 82.6952 239.996 64.8814 225.21 67.1409L179.356 80.9904C177.19 81.3192 175.226 82.448 173.853 84.1533C172.481 85.8587 171.799 88.0165 171.942 90.1999L181.618 199.665C181.731 200.996 182.21 202.27 183.002 203.347C186.033 207.598 190.19 210.922 195.007 212.946C199.823 214.97 205.109 215.614 210.272 214.806C228.29 212.476 232.33 200.936 233.159 197.254C233.3 196.639 233.361 196.009 233.34 195.378C232.886 181.185 232.623 175.627 232.633 175.728C232.643 175.829 251.561 171.693 254.358 146.688Z" fill="#FFBE9D"/>
<path d="M244.572 113.854C244.616 114.685 244.336 115.5 243.789 116.127C243.242 116.754 242.472 117.144 241.643 117.213C241.238 117.267 240.827 117.238 240.434 117.128C240.041 117.019 239.674 116.832 239.355 116.577C239.036 116.323 238.772 116.007 238.579 115.648C238.385 115.29 238.266 114.895 238.229 114.49C238.181 113.661 238.46 112.847 239.005 112.222C239.551 111.596 240.32 111.208 241.148 111.141C241.552 111.086 241.964 111.113 242.357 111.221C242.751 111.329 243.119 111.515 243.438 111.769C243.758 112.022 244.023 112.338 244.218 112.696C244.413 113.054 244.533 113.448 244.572 113.854Z" fill="#263238"/>
<path d="M248.995 110.253C248.622 110.687 246.117 109.012 242.693 109.184C239.269 109.355 236.825 111.201 236.431 110.778C236.239 110.596 236.613 109.829 237.673 108.982C239.108 107.887 240.848 107.263 242.652 107.197C244.439 107.103 246.209 107.584 247.702 108.569C248.783 109.325 249.177 110.061 248.995 110.253Z" fill="#263238"/>
<path d="M211.918 115.357C211.966 116.186 211.687 117.002 211.142 117.629C210.597 118.256 209.828 118.646 208.999 118.716C208.594 118.771 208.182 118.743 207.788 118.635C207.393 118.526 207.025 118.339 206.705 118.084C206.385 117.83 206.12 117.513 205.926 117.154C205.732 116.794 205.613 116.399 205.575 115.993C205.53 115.164 205.81 114.35 206.354 113.723C206.899 113.096 207.666 112.706 208.494 112.634C208.9 112.579 209.312 112.606 209.706 112.715C210.1 112.824 210.469 113.011 210.788 113.265C211.108 113.52 211.373 113.836 211.568 114.196C211.762 114.555 211.881 114.95 211.918 115.357Z" fill="#263238"/>
<path d="M215.029 111.383C214.655 111.816 212.151 110.152 208.727 110.314C205.303 110.475 202.859 112.331 202.475 111.907C202.283 111.736 202.646 110.959 203.707 110.112C205.144 109.021 206.882 108.398 208.686 108.326C210.473 108.233 212.243 108.714 213.736 109.698C214.817 110.455 215.211 111.191 215.029 111.383Z" fill="#263238"/>
<path d="M228.412 135.299C228.412 135.108 230.502 134.644 233.936 134.038C234.805 133.907 235.623 133.695 235.744 133.09C235.778 132.185 235.535 131.292 235.047 130.528C234.118 128.45 233.159 126.271 232.149 123.992C228.109 114.671 225.149 106.995 225.523 106.844C225.897 106.692 229.482 114.106 233.512 123.427C234.522 125.727 235.421 127.916 236.3 130.014C236.902 131.042 237.12 132.25 236.916 133.423C236.804 133.738 236.621 134.023 236.381 134.256C236.141 134.488 235.851 134.663 235.532 134.765C235.054 134.92 234.559 135.015 234.057 135.047C230.593 135.38 228.432 135.491 228.412 135.299Z" fill="#263238"/>
<path d="M232.654 175.728C220.963 176.444 209.302 173.905 198.97 168.395C198.97 168.395 208.171 185.543 232.946 182.063L232.654 175.728Z" fill="#AA6550"/>
<path d="M227.341 143.621C226.647 142.836 225.765 142.24 224.778 141.887C223.791 141.534 222.73 141.437 221.695 141.604C220.942 141.708 220.217 141.962 219.565 142.352C218.912 142.742 218.345 143.26 217.897 143.873C217.465 144.465 217.225 145.176 217.211 145.908C217.196 146.641 217.408 147.36 217.817 147.969C218.827 149.23 220.746 149.441 222.362 148.897C223.955 148.249 225.403 147.293 226.624 146.082C226.991 145.804 227.306 145.463 227.553 145.074C227.671 144.88 227.728 144.655 227.717 144.429C227.706 144.203 227.628 143.985 227.492 143.803" fill="#AA6550"/>
<path d="M218.423 138.134C218.978 138.073 219.16 141.795 222.463 144.287C225.765 146.778 229.714 146.193 229.765 146.708C229.826 146.94 228.917 147.474 227.24 147.595C225.069 147.719 222.924 147.077 221.18 145.78C219.499 144.531 218.369 142.68 218.029 140.615C217.796 139.072 218.16 138.124 218.423 138.134Z" fill="#263238"/>
<path d="M216.059 104.402C215.756 105.351 212.312 105.068 208.313 105.734C204.313 106.4 201.111 107.65 200.536 106.844C200.273 106.45 200.808 105.552 202.071 104.584C203.772 103.398 205.721 102.615 207.77 102.294C209.819 101.972 211.915 102.121 213.898 102.728C215.403 103.253 216.14 103.959 216.059 104.402Z" fill="#263238"/>
<path d="M248.268 104.191C247.703 104.998 245.299 104.302 242.461 104.392C239.623 104.483 237.239 105.159 236.643 104.392C236.38 104.009 236.724 103.212 237.744 102.375C239.114 101.426 240.737 100.906 242.404 100.881C244.071 100.856 245.708 101.327 247.107 102.234C248.147 103.011 248.521 103.797 248.268 104.191Z" fill="#263238"/>
<path d="M192.445 66.7171C192.546 69.2113 193.195 71.6528 194.347 73.8681C195.499 76.0834 197.125 78.0181 199.11 79.5347C201.096 81.0513 203.391 82.1125 205.833 82.6431C208.275 83.1736 210.805 83.1604 213.241 82.6043C217.009 81.7469 221.089 79.6488 224.462 81.525C228.018 83.5424 228.381 88.6969 231.532 91.2187C236.077 94.8298 242.885 90.9564 248.521 92.3585C252.874 93.4479 255.742 97.4021 258.742 100.751C261.741 104.1 266.165 107.166 270.407 105.704C270.11 101.842 269.367 98.0276 268.195 94.3356C267.015 90.5987 264.569 87.3888 261.277 85.2572C259.449 84.1779 257.358 83.5626 255.651 82.3017C251.955 79.5883 250.904 74.6153 248.581 70.7015C247.02 68.182 244.88 66.0706 242.338 64.5426C239.797 63.0146 236.927 62.114 233.966 61.9157C229.058 61.6333 224.079 63.3178 219.261 62.3293C215.706 61.5929 212.524 59.4444 208.929 58.9198C201.919 57.9111 195.677 63.1766 190.85 68.3613" fill="#263238"/>
<path d="M178.346 121.813C177.952 121.641 162.6 117.163 163.105 132.808C163.61 148.453 179.265 144.731 179.265 144.277C179.265 143.823 178.346 121.813 178.346 121.813Z" fill="#FFBE9D"/>
<path d="M174.265 138.527C174.195 138.527 174.003 138.719 173.548 138.951C172.912 139.239 172.19 139.275 171.528 139.052C169.852 138.497 168.377 135.925 168.205 133.1C168.127 131.762 168.344 130.422 168.842 129.176C168.977 128.679 169.231 128.223 169.583 127.847C169.935 127.47 170.374 127.186 170.862 127.018C171.173 126.923 171.507 126.941 171.807 127.068C172.106 127.196 172.351 127.424 172.498 127.714C172.72 128.147 172.629 128.46 172.72 128.48C172.811 128.501 173.043 128.208 172.892 127.573C172.806 127.169 172.577 126.81 172.245 126.564C172.028 126.41 171.782 126.3 171.522 126.241C171.262 126.182 170.993 126.175 170.73 126.221C170.09 126.366 169.498 126.673 169.012 127.113C168.525 127.553 168.161 128.111 167.953 128.733C167.329 130.111 167.052 131.621 167.145 133.131C167.347 136.278 169.054 139.183 171.347 139.758C171.771 139.866 172.215 139.878 172.645 139.793C173.075 139.707 173.48 139.526 173.831 139.263C174.245 138.9 174.316 138.547 174.265 138.527Z" fill="#AA6550"/>
<path d="M172.094 120.734C174.704 121.307 177.413 121.265 180.004 120.609C182.595 119.953 184.997 118.702 187.018 116.955C189.04 115.208 190.625 113.015 191.648 110.548C192.671 108.082 193.103 105.411 192.91 102.748C198.687 102.466 203.677 98.0074 205.969 92.6612C208.262 87.3151 208.272 81.3334 207.565 75.5838C207.5 74.2271 207.094 72.9087 206.383 71.7507C204.666 69.3702 201.172 69.3903 198.243 69.6425C190.698 70.2982 182.921 71.0345 176.265 74.686C169.609 78.3376 164.347 85.5902 165.539 93.0546C166.125 96.7062 168.155 100.297 167.246 103.878C166.569 106.541 164.327 108.7 164.064 111.433C164.023 112.492 164.209 113.547 164.612 114.526C165.015 115.506 165.624 116.388 166.398 117.112C167.948 118.557 169.704 119.763 171.609 120.693" fill="#263238"/>
<path d="M174.892 145.649C177.922 146.133 181.073 147.031 182.8 149.573C183.659 150.846 184.251 152.28 184.541 153.788C184.831 155.296 184.812 156.848 184.487 158.348C186.921 158.227 188.91 160.366 189.84 162.605C192.203 168.375 189.537 175.385 184.618 179.229C182.891 180.57 180.76 181.629 178.558 181.337C176.356 181.044 174.871 179.672 173.367 178.311C170.841 176.167 168.616 173.694 166.751 170.957C164.817 168.335 163.859 165.121 164.044 161.869C164.228 158.617 165.543 155.531 167.761 153.143C169.781 150.743 172.245 147.434 174.831 145.659" fill="#263238"/>
<path d="M154.227 97.0895C155.001 97.3395 155.83 97.3709 156.621 97.1802C157.536 96.9264 158.388 96.4868 159.126 95.8891C160.103 95.0781 160.987 94.1613 161.762 93.1555C162.719 91.9065 163.93 90.875 165.317 90.1294C166.923 89.3527 168.842 89.514 170.68 89.6855C171.62 89.7915 172.568 89.7915 173.508 89.6855C174.471 89.5421 175.393 89.1985 176.215 88.6768C177.959 87.5348 179.356 85.9369 180.255 84.0569C181.131 82.1528 181.877 80.1913 182.487 78.1863C183.1 76.3065 183.892 74.4893 184.85 72.7594C186.463 69.7647 188.922 67.3093 191.92 65.6985C193.947 64.6445 196.225 64.1665 198.505 64.3165C199.336 64.3532 200.154 64.5377 200.919 64.8612C200.121 64.6894 199.311 64.5748 198.495 64.5183C196.264 64.448 194.055 64.9701 192.092 66.0313C189.209 67.6519 186.858 70.0732 185.325 73.0015C184.391 74.7129 183.623 76.5099 183.032 78.3678C182.418 80.3986 181.662 82.3839 180.77 84.3091C179.845 86.2691 178.394 87.9346 176.578 89.1207C175.688 89.653 174.698 89.9964 173.67 90.1294C172.692 90.2305 171.708 90.2305 170.73 90.1294C168.872 89.9377 167.064 89.7864 165.59 90.4824C164.247 91.2027 163.07 92.1957 162.135 93.3976C161.324 94.3987 160.407 95.3086 159.398 96.111C158.614 96.7114 157.713 97.1409 156.752 97.3719C156.145 97.5211 155.511 97.5211 154.904 97.3719C154.664 97.3175 154.435 97.222 154.227 97.0895Z" fill="#455A64"/>
<path d="M146.147 115.761C146.135 115.684 146.135 115.606 146.147 115.529C146.111 115.305 146.111 115.077 146.147 114.853C146.257 113.986 146.502 113.142 146.874 112.351C147.433 111.086 148.127 109.886 148.945 108.77C149.446 108.061 149.996 107.387 150.591 106.753C151.253 106.032 152.019 105.413 152.864 104.917C153.887 104.427 155.006 104.168 156.14 104.16C157.275 104.151 158.398 104.392 159.429 104.867C160.581 105.344 161.662 105.979 162.64 106.753C163.662 107.536 164.762 108.212 165.923 108.77C168.397 109.992 171.169 110.479 173.912 110.172C176.857 109.823 179.545 108.33 181.396 106.017C183.224 103.646 183.658 100.378 185.981 98.2898C186.567 97.7901 187.257 97.4282 188.001 97.2307C188.707 97.0498 189.434 96.9616 190.163 96.9684C191.51 97.031 192.86 96.9973 194.203 96.8675C196.68 96.5185 199.035 95.5697 201.061 94.1037C202.835 92.8362 204.299 91.1844 205.343 89.272C206.85 86.4732 207.457 83.2785 207.08 80.123C206.976 79.2709 206.807 78.4279 206.575 77.6012C206.466 77.3166 206.381 77.0229 206.323 76.7236C206.838 77.789 207.179 78.9298 207.333 80.1028C207.63 82.0902 207.528 84.1169 207.033 86.0646C206.538 88.0123 205.659 89.8419 204.448 91.4467C203.237 93.0515 201.718 94.3993 199.98 95.4114C198.242 96.4235 196.319 97.0797 194.324 97.3416C192.956 97.4864 191.578 97.5302 190.203 97.4728C189.522 97.4681 188.844 97.5495 188.183 97.7149C187.522 97.9129 186.914 98.2577 186.406 98.7236C184.264 100.6 183.81 103.838 181.901 106.37C179.965 108.796 177.149 110.362 174.063 110.727C171.221 111.038 168.349 110.523 165.792 109.244C164.604 108.672 163.48 107.975 162.438 107.166C161.494 106.413 160.451 105.792 159.338 105.321C158.365 104.866 157.305 104.631 156.232 104.631C155.159 104.631 154.098 104.866 153.126 105.321C152.307 105.79 151.561 106.378 150.914 107.066C150.322 107.672 149.768 108.315 149.258 108.992C148.439 110.082 147.732 111.251 147.147 112.482C146.757 113.248 146.481 114.067 146.329 114.913C146.303 115.135 146.303 115.358 146.329 115.579C146.278 115.649 146.217 115.71 146.147 115.761Z" fill="#455A64"/>
<path d="M276.286 82.5438C275.839 81.5197 275.193 80.594 274.387 79.8203C272.841 78.3274 269.862 76.9757 266.014 76.6428C264.085 76.4613 261.974 76.4613 259.661 76.2494C257.184 76.1106 254.777 75.3808 252.641 74.1211C250.412 72.5534 248.483 70.5992 246.945 68.3512C245.331 65.9815 243.476 63.7843 241.41 61.7946C239.236 59.9456 236.601 58.7187 233.785 58.244C231.149 57.8008 228.466 57.7058 225.806 57.9615C223.261 58.1633 220.857 58.5567 218.594 58.9703C216.332 59.3838 214.221 59.6562 212.282 59.8277C209.211 60.1986 206.1 60.0451 203.081 59.3737C201.977 59.1222 200.908 58.736 199.899 58.2238C200.182 58.2931 200.459 58.3842 200.727 58.4962C201.058 58.6233 201.395 58.7311 201.737 58.819C202.196 58.9605 202.661 59.0784 203.131 59.172C206.126 59.7513 209.195 59.8501 212.221 59.4645C214.15 59.2628 216.261 58.9299 218.503 58.5466C220.746 58.1633 223.17 57.7396 225.745 57.5379C228.438 57.2681 231.155 57.3563 233.825 57.8002C236.733 58.2902 239.455 59.5553 241.703 61.4618C243.801 63.4741 245.68 65.7023 247.309 68.1092C248.809 70.3096 250.686 72.2286 252.854 73.7781C254.922 75.0112 257.256 75.7307 259.661 75.8762C261.923 76.0981 264.054 76.1284 266.004 76.3301C269.902 76.7134 272.932 78.1559 274.478 79.7396C275.081 80.3208 275.576 81.0038 275.942 81.757C276.031 81.9577 276.108 82.1631 276.174 82.3723C276.262 82.4866 276.299 82.5438 276.286 82.5438Z" fill="#455A64"/>
<path d="M287.85 107.792C287.85 107.792 287.769 107.792 287.598 107.893C287.349 107.986 287.097 108.067 286.84 108.135C285.852 108.392 284.828 108.484 283.81 108.407C283.066 108.341 282.333 108.181 281.628 107.933C280.799 107.627 280.011 107.217 279.285 106.712C277.546 105.432 276.077 103.821 274.962 101.972C273.69 99.9541 272.942 97.4122 271.67 94.9711C271.042 93.7069 270.166 92.5818 269.094 91.6626C267.909 90.7456 266.525 90.117 265.054 89.8267C262.024 89.1408 258.722 89.4232 255.308 88.929C252.643 88.5115 250.103 87.518 247.863 86.0179C245.623 84.5177 243.738 82.5472 242.339 80.244C241.474 78.758 240.534 77.317 239.522 75.9267C238.531 74.6147 237.225 73.5737 235.724 72.9006C234.273 72.2887 232.73 71.9206 231.159 71.8112C228.208 71.7358 225.255 71.8639 222.321 72.1945C215.91 72.6872 209.542 70.7937 204.444 66.8786C203.334 66.0619 202.318 65.1248 201.414 64.0845C201.49 64.1345 201.562 64.1919 201.626 64.256L202.202 64.7906C205.697 68.0132 209.989 70.2483 214.635 71.2665C217.143 71.8027 219.715 71.9692 222.271 71.7607C225.223 71.405 228.196 71.2601 231.169 71.327C232.799 71.4352 234.4 71.8136 235.906 72.4467C237.5 73.1286 238.891 74.209 239.946 75.5837C240.97 76.9899 241.92 78.4477 242.794 79.9515C243.715 81.4505 244.848 82.8094 246.157 83.9863C248.75 86.3168 251.964 87.8477 255.409 88.3943C258.732 88.8987 262.065 88.6264 265.186 89.3324C266.719 89.6506 268.158 90.3205 269.387 91.2893C270.502 92.2502 271.409 93.4273 272.054 94.7492C273.336 97.2508 274.074 99.7927 275.286 101.76C276.354 103.582 277.771 105.176 279.457 106.45C280.146 106.955 280.896 107.372 281.689 107.691C282.369 107.945 283.078 108.112 283.8 108.185C285.163 108.297 286.534 108.164 287.85 107.792Z" fill="#455A64"/>
<path d="M280.467 170.049C281.24 169.312 281.918 168.482 282.487 167.578C283.886 165.028 284.554 162.141 284.416 159.236C284.389 157.239 284.013 155.263 283.305 153.396C282.908 152.367 282.375 151.397 281.719 150.511C281.008 149.571 280.213 148.697 279.346 147.898C277.588 146.224 275.488 144.731 273.518 142.855C271.369 141.041 269.774 138.661 268.913 135.985C268.59 134.597 268.521 133.162 268.711 131.749C268.872 130.357 269.175 129.035 269.448 127.714C269.737 126.453 269.926 125.171 270.013 123.881C270.084 122.661 269.92 121.438 269.529 120.28C268.697 118.153 267.33 116.277 265.559 114.833C264.023 113.534 262.418 112.319 260.752 111.191C258.271 109.62 256.137 107.561 254.48 105.139C254.06 104.45 253.722 103.716 253.47 102.95C253.388 102.684 253.33 102.41 253.298 102.133C253.61 103.15 254.051 104.123 254.611 105.028C256.309 107.39 258.454 109.398 260.923 110.939C262.617 112.048 264.246 113.254 265.802 114.55C267.645 116.034 269.071 117.97 269.943 120.169C270.36 121.388 270.542 122.675 270.478 123.962C270.389 125.275 270.2 126.58 269.912 127.865C269.377 130.458 268.69 133.201 269.387 135.884C270.216 138.466 271.756 140.763 273.831 142.512C275.76 144.307 277.871 145.82 279.639 147.555C280.523 148.375 281.331 149.273 282.053 150.238C282.724 151.17 283.268 152.188 283.669 153.264C284.381 155.179 284.747 157.204 284.749 159.246C284.861 162.208 284.125 165.14 282.628 167.699C282.386 168.096 282.109 168.471 281.8 168.819C281.593 169.084 281.36 169.328 281.103 169.545C280.909 169.734 280.696 169.903 280.467 170.049Z" fill="#455A64"/>
<path d="M153.894 138.416C153.302 137.819 152.832 137.114 152.51 136.338C151.591 134.237 151.372 131.896 151.884 129.661C152.279 128.012 153 126.459 154.005 125.093C155.009 123.726 156.276 122.573 157.732 121.702C159.42 120.629 161.288 119.867 163.246 119.452C165.336 119.039 167.459 118.826 169.589 118.817C173.912 118.726 178.103 118.817 181.608 117.526C184.717 116.391 187.422 114.366 189.385 111.706C190.73 109.926 191.721 107.906 192.304 105.754C192.698 104.221 192.748 103.333 192.809 103.343C192.836 103.554 192.836 103.768 192.809 103.979C192.762 104.593 192.671 105.203 192.536 105.805C191.875 108.554 190.551 111.1 188.68 113.222C186.809 115.344 184.447 116.977 181.8 117.98C178.184 119.341 173.922 119.251 169.619 119.341C167.524 119.352 165.435 119.558 163.378 119.957C161.477 120.353 159.662 121.08 158.015 122.105C155.162 123.79 153.095 126.536 152.268 129.741C151.742 131.907 151.897 134.183 152.712 136.258C153.053 137.005 153.447 137.726 153.894 138.416Z" fill="#455A64"/>
<path d="M192.011 130.286L185.608 144.337C185.608 144.337 196.415 162 204.798 167.971C209.645 171.483 215.269 173.775 221.193 174.653C227.117 175.531 233.165 174.969 238.825 173.015C238.825 173.015 256.904 166.337 255.54 134.775C255.54 134.775 243.319 130.225 235.532 129.519C227.745 128.813 210.434 133.554 203.858 132.707C199.86 132.161 195.902 131.353 192.011 130.286Z" fill="#F5F5F5"/>
<path d="M191.9 130.609C189.35 129.235 186.884 127.709 184.517 126.039C182.063 124.498 179.702 122.814 177.447 120.996C179.997 122.37 182.463 123.896 184.83 125.565C187.284 127.106 189.645 128.79 191.9 130.609Z" fill="#263238"/>
<path d="M185.658 144.004C184.175 144.413 182.65 144.653 181.113 144.721C179.594 144.958 178.052 145.025 176.518 144.922C178.001 144.513 179.525 144.27 181.063 144.196C182.582 143.959 184.124 143.895 185.658 144.004Z" fill="#263238"/>
<path d="M249.016 161.959C248.822 162.077 248.615 162.172 248.399 162.242C247.985 162.413 247.389 162.666 246.592 162.968C244.336 163.761 242.023 164.382 239.673 164.824C236.175 165.48 232.615 165.75 229.058 165.631C224.702 165.479 220.386 164.753 216.221 163.473C214.065 162.805 211.959 161.986 209.918 161.021C208.031 160.111 206.193 159.101 204.414 157.995C201 155.897 198.061 153.809 195.576 152.114C193.092 150.42 191.042 149.088 189.597 148.191L187.941 147.182C187.736 147.079 187.546 146.951 187.375 146.799C187.589 146.873 187.795 146.968 187.991 147.081C188.385 147.283 189.001 147.585 189.708 148.009C191.173 148.836 193.264 150.127 195.768 151.792C198.273 153.456 201.243 155.514 204.646 157.572C206.353 158.58 208.181 159.589 210.131 160.547C212.153 161.494 214.238 162.3 216.372 162.958C223.889 165.278 231.849 165.79 239.602 164.451C241.944 164.041 244.255 163.475 246.521 162.756L248.359 162.131C248.572 162.053 248.792 161.996 249.016 161.959Z" fill="#E0E0E0"/>
<path d="M253.571 148.382C253.371 148.446 253.164 148.483 252.955 148.493L251.157 148.715C249.591 148.887 247.329 149.098 244.531 149.31C237.227 149.897 229.888 149.897 222.584 149.31C215.264 148.719 208.06 147.131 201.172 144.589C199.101 143.808 197.077 142.905 195.112 141.886C194.405 141.543 193.88 141.22 193.516 141.019C193.33 140.926 193.154 140.814 192.991 140.686C193.193 140.741 193.386 140.822 193.567 140.928C193.95 141.099 194.486 141.382 195.203 141.705C196.617 142.38 198.687 143.288 201.323 144.247C208.208 146.671 215.378 148.197 222.655 148.786C229.934 149.358 237.245 149.405 244.531 148.927L251.157 148.493L252.965 148.382C253.166 148.361 253.369 148.361 253.571 148.382Z" fill="#263238"/>
<path d="M252.732 140.484C246.854 138.568 240.915 136.671 234.754 136.137C228.593 135.602 222.705 136.409 216.685 136.792C210.666 137.176 203.949 136.792 198.314 134.654H196.799C214.005 143.659 233.935 145.997 252.763 141.221C252.924 141.221 253.116 141.11 253.157 140.948C253.197 140.787 252.934 140.555 252.732 140.484Z" fill="#E0E0E0"/>
<path d="M255.126 140.676C254.911 140.649 254.698 140.605 254.49 140.544L252.702 140.101C251.147 139.707 248.904 139.092 246.117 138.466C242.865 137.682 239.57 137.09 236.249 136.691C232.175 136.276 228.073 136.208 223.988 136.489C219.625 136.721 215.453 137.024 211.656 136.964C208.28 136.962 204.916 136.58 201.626 135.824C199.411 135.303 197.27 134.507 195.253 133.453C194.546 133.06 194.011 132.747 193.668 132.505C193.479 132.396 193.303 132.268 193.142 132.122C193.142 132.071 193.91 132.566 195.344 133.272C197.377 134.243 199.516 134.977 201.717 135.461C204.983 136.157 208.316 136.495 211.656 136.469C215.433 136.469 219.584 136.187 223.957 135.955C228.071 135.676 232.2 135.757 236.3 136.197C239.639 136.618 242.949 137.252 246.208 138.093C248.995 138.789 251.258 139.435 252.753 139.889L254.52 140.433C254.731 140.489 254.935 140.57 255.126 140.676Z" fill="#263238"/>
<path d="M192.304 144.479C197.576 147.505 202.747 150.823 208.525 152.639C220.001 156.342 232.05 157.955 244.097 157.4C245.026 157.4 246.258 157.561 246.359 158.479C246.46 159.397 245.521 159.811 244.723 160.043C242.087 160.748 239.372 161.114 236.643 161.132C228.562 161.468 220.49 160.284 212.847 157.642C205.182 154.988 198.259 150.552 192.647 144.7" fill="#E0E0E0"/>
<path d="M241.39 156.391C240.445 156.719 239.466 156.939 238.471 157.047C236.088 157.401 233.679 157.556 231.27 157.511C228.859 157.464 226.456 157.21 224.089 156.754C223.1 156.606 222.132 156.349 221.2 155.988C222.194 156.061 223.182 156.196 224.159 156.391C228.882 157.09 233.674 157.185 238.421 156.674C239.403 156.517 240.395 156.422 241.39 156.391Z" fill="#263238"/>
<path d="M143.683 341.651C143.864 341.984 147.925 345.131 147.925 345.131L155.368 342.448L164.66 347.189C164.66 347.189 173.003 348.066 173.074 351.072C173.144 354.078 178.033 368.846 171.69 378.953C165.347 389.06 160.853 392.409 160.853 392.409L138.309 371.378L131.381 369.955L143.683 341.651Z" fill="#FFBE9D"/>
<path d="M460.954 407.974C460.954 408.115 366.256 408.236 249.48 408.236C132.704 408.236 37.9861 408.115 37.9861 407.974C37.9861 407.832 132.653 407.711 249.48 407.711C366.307 407.711 460.954 407.822 460.954 407.974Z" fill="#263238"/>
<path d="M367.064 4.1167C357.695 4.11356 348.528 6.83309 340.68 11.9437C332.832 17.0543 326.642 24.3351 322.866 32.8983C319.089 41.4616 317.889 50.9372 319.412 60.1698C320.935 69.4024 325.115 77.993 331.442 84.8941C331.633 85.1059 331.846 85.3076 332.048 85.5195L322.887 108.972L352.177 98.673L352.248 98.2494C356.914 99.7423 361.822 101.659 366.983 101.659C393.647 101.659 415.322 78.973 415.322 52.333C415.322 39.5487 410.238 27.2878 401.189 18.246C392.139 9.20432 379.865 4.12205 367.064 4.1167Z" fill="white"/>
<path d="M367.014 4.80248C367.303 4.77356 367.594 4.77356 367.882 4.80248L370.418 4.87309C371.793 4.89579 373.165 5.03073 374.518 5.27657C375.326 5.39762 376.205 5.47831 377.134 5.66997L380.043 6.38615C387.282 8.36319 393.967 11.9798 399.579 16.9553C405.192 21.9308 409.58 28.1312 412.405 35.0751C415.229 42.019 416.413 49.5196 415.864 56.9945C415.316 64.4694 413.05 71.7174 409.242 78.1759C403.822 87.3551 395.564 94.5273 385.709 98.6124C380.52 100.751 374.996 101.967 369.387 102.203C363.615 102.558 357.828 101.84 352.318 100.085L351.813 99.9237H352.207L323.675 109.708L322.513 110.112L322.887 108.942L330.27 85.2369L330.391 85.8018C325.326 80.1444 321.653 73.3836 319.666 66.0581C317.68 58.7325 317.434 51.0448 318.948 43.6075C320.201 37.3224 322.701 31.3513 326.301 26.0459C329.391 21.5254 333.21 17.5476 337.603 14.2743C339.487 12.8651 341.464 11.5845 343.521 10.4412C345.372 9.46213 347.277 8.58985 349.228 7.8286C350.898 7.16704 352.613 6.62105 354.359 6.1945C355.804 5.78917 357.275 5.48248 358.762 5.27657C360.095 5.10509 361.277 4.90335 362.297 4.81256L364.893 4.73187H366.479C366.656 4.70982 366.836 4.70982 367.014 4.73187C366.839 4.77988 366.66 4.80697 366.479 4.81256L364.903 4.9437L362.327 5.11518C361.317 5.23622 360.146 5.46823 358.833 5.66997C357.364 5.90787 355.913 6.24488 354.49 6.67868C352.768 7.12235 351.08 7.68868 349.44 8.37331C347.535 9.14215 345.674 10.0143 343.865 10.9859C341.848 12.1575 339.911 13.4616 338.067 14.8896C333.779 18.1514 330.059 22.0981 327.058 26.5704C323.58 31.8023 321.176 37.6723 319.988 43.8395C318.543 51.1072 318.812 58.611 320.771 65.7574C322.731 72.9038 326.329 79.4968 331.28 85.015L331.502 85.2672L331.401 85.5899C329.048 93.1956 326.584 101.134 324.048 109.335L323.25 108.568L351.773 98.683L351.975 98.6124L352.177 98.6729L352.672 98.8343C358.042 100.542 363.681 101.243 369.307 100.902C374.771 100.673 380.154 99.495 385.214 97.4221C394.842 93.4532 402.922 86.4736 408.242 77.5304C414.465 66.976 416.429 54.4506 413.735 42.5014C411.041 30.5523 403.891 20.0767 393.738 13.205C389.498 10.3578 384.83 8.20246 379.912 6.8199L377.043 6.05328C376.134 5.84145 375.266 5.75066 374.468 5.59936C373.135 5.3298 371.785 5.15786 370.428 5.08492L367.903 4.89326C367.604 4.89269 367.306 4.86228 367.014 4.80248Z" fill="#263238"/>
<path d="M338.33 56.7411L345.834 49.2464L360.317 62.0973L388.729 34.7815L395.708 42.2863L359.247 76.5521L338.33 56.7411Z" fill="#AB3D51"/>
<path d="M394.294 357.851C391.88 361.149 387.335 359.939 385.264 357.851C383.194 355.763 382.366 352.807 381.618 349.932C379.901 343.446 378.174 336.627 379.699 330.091C380.083 328.107 381.001 326.266 382.356 324.765C383.04 324.026 383.908 323.481 384.87 323.183C385.833 322.886 386.857 322.847 387.84 323.07C390.133 323.726 391.506 326.016 392.496 328.174C395.402 334.562 396.844 341.516 396.718 348.53C396.657 351.788 396.203 355.198 394.294 357.851Z" fill="#E0E0E0"/>
<g opacity="0.2">
<path d="M394.294 357.851C391.88 361.149 387.335 359.939 385.264 357.851C383.194 355.763 382.366 352.807 381.618 349.932C379.901 343.446 378.174 336.627 379.699 330.091C380.083 328.107 381.001 326.266 382.356 324.765C383.04 324.026 383.908 323.481 384.87 323.183C385.833 322.886 386.857 322.847 387.84 323.07C390.133 323.726 391.506 326.016 392.496 328.174C395.402 334.562 396.844 341.516 396.718 348.53C396.657 351.788 396.203 355.198 394.294 357.851Z" fill="black"/>
</g>
<path d="M385.133 374.575C381.24 372.642 376.83 372.006 372.549 372.759C370.246 373.092 367.842 373.768 366.246 375.402C364.65 377.036 364.287 380.103 366.044 381.616C367.181 382.421 368.563 382.807 369.953 382.705C373.296 382.705 377.023 382.231 379.629 384.299C381.123 385.469 382.093 387.396 383.901 388.001C384.809 388.229 385.766 388.156 386.628 387.792C387.49 387.428 388.21 386.793 388.678 385.984C389.577 384.33 389.808 382.395 389.325 380.577C389.135 379.322 388.657 378.128 387.931 377.087C387.204 376.046 386.246 375.187 385.133 374.575Z" fill="#E0E0E0"/>
<path d="M400.637 362.753C398.152 359.676 397.768 355.268 398.98 351.506C400.354 347.775 402.73 344.495 405.848 342.024C409.389 339.009 413.486 336.713 417.908 335.266C419.621 334.62 421.454 334.352 423.281 334.479C424.193 334.553 425.074 334.848 425.846 335.339C426.619 335.829 427.26 336.5 427.715 337.293C428.917 339.704 427.644 342.569 426.301 344.909C423.919 349.018 421.218 352.934 418.221 356.62C415.817 359.646 413.06 362.511 409.464 363.792C405.869 365.073 402.152 364.801 400.314 362.319" fill="#E0E0E0"/>
<path d="M393.345 408.286C393.229 407.786 393.168 407.276 393.163 406.763C393.082 405.653 392.971 404.261 392.85 402.597C392.69 400.55 392.423 398.513 392.052 396.494C391.573 394.03 390.898 391.608 390.032 389.252C389.175 386.902 387.985 384.687 386.497 382.675C385.294 381.03 383.737 379.676 381.942 378.711C380.722 378.076 379.409 377.637 378.053 377.409C377.541 377.376 377.033 377.292 376.538 377.157C377.052 377.102 377.57 377.102 378.083 377.157C379.487 377.301 380.855 377.69 382.123 378.307C384.017 379.266 385.666 380.646 386.941 382.342C388.484 384.389 389.716 386.653 390.597 389.06C391.482 391.448 392.158 393.909 392.617 396.414C392.968 398.459 393.194 400.524 393.294 402.597C393.385 404.362 393.405 405.795 393.405 406.783C393.435 407.285 393.414 407.788 393.345 408.286Z" fill="#263238"/>
<path d="M393.122 405.119C393.094 404.884 393.094 404.647 393.122 404.413C393.122 403.878 393.122 403.212 393.173 402.395C393.173 400.64 393.274 398.108 393.244 394.971C393.244 388.707 392.88 380.052 392.042 370.53C391.203 361.008 390.022 352.424 388.87 346.271C388.597 344.727 388.325 343.335 388.072 342.115C387.82 340.894 387.618 339.845 387.416 338.988C387.214 338.13 387.103 337.535 386.981 337.021C386.919 336.794 386.885 336.56 386.88 336.325C386.986 336.536 387.064 336.76 387.113 336.99C387.254 337.495 387.436 338.14 387.648 338.937C387.86 339.734 388.143 340.824 388.416 342.044C388.688 343.265 389.012 344.647 389.305 346.18C390.863 354.213 391.985 362.325 392.668 370.48C393.506 380.022 393.789 388.697 393.678 394.971C393.678 398.108 393.526 400.65 393.405 402.405C393.334 403.222 393.284 403.888 393.233 404.423C393.232 404.659 393.195 404.894 393.122 405.119Z" fill="#263238"/>
<path d="M393.456 388.394C393.416 387.691 393.436 386.986 393.516 386.286C393.675 384.374 393.931 382.472 394.284 380.587C394.804 377.791 395.478 375.027 396.304 372.305C397.3 368.966 398.535 365.703 400 362.541C402.545 356.71 406.132 351.392 410.585 346.845C411.357 346.069 412.177 345.341 413.04 344.667C413.423 344.364 413.757 344.051 414.05 343.819L414.999 343.194C415.571 342.78 416.176 342.413 416.807 342.094C414.722 343.652 412.735 345.337 410.858 347.138C406.554 351.731 403.063 357.021 400.536 362.783C399.12 365.931 397.916 369.169 396.93 372.477C395.92 375.503 395.284 378.317 394.769 380.678C394.254 383.038 393.991 384.975 393.809 386.316C393.747 387.017 393.628 387.712 393.456 388.394Z" fill="#263238"/>
</g>
<defs>
<clipPath id="clip0_24_762">
<rect width="505" height="408" rx="150.746" fill="white"/>
</clipPath>
</defs>
</svg>
