<svg width="86" height="86" viewBox="0 0 86 86" fill="none" xmlns="http://www.w3.org/2000/svg">
<path d="M76.7008 51.0274C81.3684 32.1808 69.874 13.1189 51.0274 8.45136C32.1809 3.78381 13.1189 15.2782 8.45135 34.1247C3.7838 52.9713 15.2782 72.0333 34.1247 76.7009C52.9713 81.3684 72.0333 69.874 76.7008 51.0274Z" fill="#1D324E"/>
<path d="M66.5766 27.3574H18.5852V57.7925H66.5766V27.3574Z" fill="white"/>
<path d="M66.5766 27.3574C64.6379 29.2096 62.6632 30.9609 60.7101 32.8059C58.757 34.6509 56.7679 36.4094 54.786 38.1463C52.804 39.8832 50.6419 41.8146 48.5663 43.6308L48.3789 43.8038L42.8512 48.6036L42.5773 48.8271L42.3107 48.6036L36.7901 43.7966L36.5955 43.6308C34.5127 41.8146 32.4371 40.0273 30.3687 38.1319C28.3003 36.2364 26.4192 34.5932 24.4517 32.8059C22.4842 31.0186 20.5239 29.2024 18.5852 27.3574C20.6464 28.943 22.6716 30.615 24.7111 32.2438C26.7507 33.8725 28.7759 35.559 30.7939 37.2454C33.0424 39.1048 35.291 41.0003 37.5324 42.9101C39.2116 44.3515 40.8909 45.7929 42.5773 47.1911C44.2493 45.7497 45.9286 44.3083 47.6222 42.9101C49.866 40.9882 52.1121 39.0976 54.3607 37.2382C56.3787 35.5662 58.4038 33.8942 60.4362 32.251C62.4686 30.6078 64.5154 28.943 66.5766 27.3574Z" fill="#DBDBDB"/>
<path d="M37.6116 43.6021L37.5539 43.6525L36.8332 44.2939C35.6296 45.3101 34.3972 46.2831 33.1432 47.2272C31.6153 48.3947 30.0514 49.5118 28.4803 50.6217C26.9092 51.7315 25.3164 52.7838 23.6949 53.836C22.0733 54.8882 20.4373 55.89 18.7437 56.8197C20.1851 55.544 21.7129 54.3549 23.2408 53.2162C24.7687 52.0775 26.3398 50.9316 27.9038 49.8145C29.4677 48.6974 31.0748 47.6524 32.6964 46.6002C33.9864 45.7714 35.2981 44.957 36.6386 44.193L37.5755 43.6669L37.6116 43.6021Z" fill="#DBDBDB"/>
<path d="M66.4396 56.8197C64.7459 55.89 63.1027 54.8738 61.4884 53.836C59.874 52.7982 58.2812 51.7171 56.6957 50.6217C55.1102 49.5262 53.5607 48.3947 52.0328 47.2272C50.786 46.2831 49.5536 45.3173 48.3572 44.3011L47.5933 43.6525L47.5356 43.6021H47.6077L48.5446 44.1354C49.8851 44.8993 51.1896 45.7137 52.4868 46.5425C54.1084 47.5803 55.694 48.6614 57.2723 49.7568C58.8506 50.8523 60.4073 51.991 61.9352 53.1585C63.4631 54.3261 64.9982 55.544 66.4396 56.8197Z" fill="#DBDBDB"/>
<path d="M63.837 34.6953C67.8806 33.3085 70.0344 28.9062 68.6476 24.8625C67.2608 20.8189 62.8585 18.6651 58.8149 20.0519C54.7712 21.4387 52.6174 25.841 54.0042 29.8847C55.391 33.9283 59.7933 36.0821 63.837 34.6953Z" fill="#FF7F2C"/>
<path d="M60.4722 29.0579V22.759C60.4741 22.5321 60.565 22.3151 60.7255 22.1546C60.8859 21.9942 61.1029 21.9033 61.3298 21.9014C61.4415 21.9023 61.5519 21.9252 61.6547 21.9689C61.7576 22.0125 61.8507 22.0759 61.929 22.1555C62.0074 22.2352 62.0692 22.3295 62.1111 22.433C62.1529 22.5365 62.174 22.6473 62.1731 22.759V29.0579C62.175 29.1695 62.1545 29.2804 62.1129 29.3839C62.0713 29.4875 62.0094 29.5817 61.9308 29.661C61.8522 29.7402 61.7586 29.803 61.6554 29.8454C61.5521 29.8879 61.4414 29.9093 61.3298 29.9083C61.2175 29.9093 61.1062 29.888 61.0022 29.8457C60.8982 29.8034 60.8036 29.7409 60.7238 29.6618C60.6441 29.5828 60.5808 29.4887 60.5376 29.385C60.4944 29.2814 60.4722 29.1702 60.4722 29.0579ZM61.3298 32.8128C61.2172 32.8128 61.1057 32.7906 61.0016 32.7475C60.8976 32.7044 60.803 32.6412 60.7234 32.5616C60.6437 32.4819 60.5806 32.3874 60.5375 32.2833C60.4944 32.1793 60.4722 32.0677 60.4722 31.9551V31.6452C60.4722 31.4171 60.5623 31.1982 60.7229 31.0362C60.8836 30.8742 61.1017 30.7823 61.3298 30.7804C61.4415 30.7813 61.5519 30.8043 61.6547 30.8479C61.7576 30.8915 61.8507 30.9549 61.929 31.0346C62.0074 31.1142 62.0692 31.2085 62.1111 31.312C62.1529 31.4156 62.174 31.5263 62.1731 31.638V31.9479C62.1759 32.0605 62.1562 32.1724 62.1152 32.2772C62.0741 32.3821 62.0124 32.4776 61.9338 32.5582C61.8553 32.6388 61.7613 32.7028 61.6576 32.7466C61.5539 32.7903 61.4424 32.8128 61.3298 32.8128Z" fill="white"/>
</svg>
