<svg width="37" height="28" viewBox="0 0 37 28" fill="none" xmlns="http://www.w3.org/2000/svg">
<path d="M2.26841 12.1941C2.26841 12.1941 18.6326 6.04754 24.308 3.8832C26.4837 3.01754 33.8617 0.247167 33.8617 0.247167C33.8617 0.247167 37.267 -0.964764 36.9832 1.97862C36.8885 3.19067 36.1319 7.43261 35.3752 12.0209C34.24 18.5138 33.0104 25.6127 33.0104 25.6127C33.0104 25.6127 32.8212 27.6039 31.2132 27.9501C29.6052 28.2964 26.9565 26.7382 26.4837 26.3918C26.1052 26.1322 19.3893 22.2364 16.93 20.3318C16.2678 19.8124 15.5111 18.7736 17.0245 17.5616C20.4298 14.7047 24.4972 11.1553 26.9565 8.90442C28.0917 7.8655 29.2267 5.44152 24.4972 8.3849C17.7813 12.627 11.1599 16.6093 11.1599 16.6093C11.1599 16.6093 9.64645 17.4749 6.80876 16.6958C3.97094 15.9167 0.660263 14.8778 0.660263 14.8778C0.660263 14.8778 -1.60978 13.5793 2.26841 12.1941Z" fill="#2A5573"/>
</svg>
