<svg width="156" height="27" viewBox="0 0 156 27" fill="none" xmlns="http://www.w3.org/2000/svg">
<path d="M11.6543 14.5576H5.44531L5.41211 10.9385H10.542C11.4495 10.9385 12.1855 10.8278 12.75 10.6064C13.3255 10.3851 13.7461 10.0641 14.0117 9.64355C14.2773 9.21191 14.4102 8.68066 14.4102 8.0498C14.4102 7.3304 14.2773 6.74935 14.0117 6.30664C13.7461 5.86393 13.3255 5.54297 12.75 5.34375C12.1855 5.13346 11.4551 5.02832 10.5586 5.02832H7.4043V25H1.99219V0.828125H10.5586C12.0085 0.828125 13.3034 0.960938 14.4434 1.22656C15.5833 1.49219 16.5518 1.90169 17.3486 2.45508C18.1566 3.00846 18.7708 3.7002 19.1914 4.53027C19.612 5.36035 19.8223 6.33984 19.8223 7.46875C19.8223 8.45378 19.6009 9.3724 19.1582 10.2246C18.7266 11.0768 18.0293 11.7686 17.0664 12.2998C16.1035 12.8311 14.8141 13.1188 13.1982 13.1631L11.6543 14.5576ZM11.4385 25H4.06738L6.02637 20.8164H11.4385C12.2686 20.8164 12.9437 20.6836 13.4639 20.418C13.984 20.1523 14.3659 19.7926 14.6094 19.3389C14.8529 18.8851 14.9746 18.376 14.9746 17.8115C14.9746 17.1475 14.8584 16.5719 14.626 16.085C14.4046 15.598 14.0505 15.2217 13.5635 14.9561C13.0876 14.6904 12.4512 14.5576 11.6543 14.5576H6.80664L6.83984 10.9385H12.7666L14.0283 12.3662C15.5667 12.333 16.7952 12.582 17.7139 13.1133C18.6436 13.6335 19.3132 14.3197 19.7227 15.1719C20.1322 16.0241 20.3369 16.9261 20.3369 17.8779C20.3369 19.4495 19.9993 20.7666 19.3242 21.8291C18.6491 22.8805 17.6475 23.6719 16.3193 24.2031C15.0023 24.7344 13.3753 25 11.4385 25ZM40.2754 20.8164V25H27.4092V20.8164H40.2754ZM29.252 0.828125V25H23.8398V0.828125H29.252ZM38.6152 10.5566V14.6074H27.4092V10.5566H38.6152ZM40.292 0.828125V5.02832H27.4092V0.828125H40.292Z" fill="white"/>
<path d="M50.6348 25H45.2725L45.3057 20.5176H50.6348C51.7415 20.5176 52.6768 20.252 53.4404 19.7207C54.2152 19.1895 54.8018 18.3981 55.2002 17.3467C55.6097 16.2842 55.8145 14.9782 55.8145 13.4287V12.3828C55.8145 11.2207 55.6982 10.2025 55.4658 9.32812C55.2445 8.44271 54.9124 7.70671 54.4697 7.12012C54.027 6.52246 53.4736 6.07422 52.8096 5.77539C52.1566 5.47656 51.404 5.32715 50.5518 5.32715H45.1729V0.828125H50.5518C52.1898 0.828125 53.6895 1.11035 55.0508 1.6748C56.4232 2.22819 57.6074 3.02507 58.6035 4.06543C59.6107 5.09473 60.3854 6.31771 60.9277 7.73438C61.4811 9.13997 61.7578 10.7005 61.7578 12.416V13.4287C61.7578 15.1331 61.4811 16.6937 60.9277 18.1104C60.3854 19.527 59.6162 20.75 58.6201 21.7793C57.624 22.8086 56.4453 23.6055 55.084 24.1699C53.7337 24.7233 52.2507 25 50.6348 25ZM48.6094 0.828125V25H42.7822V0.828125H48.6094ZM85.249 12.4326V13.4121C85.249 15.2604 84.9889 16.9206 84.4688 18.3926C83.9596 19.8535 83.2347 21.1042 82.2939 22.1445C81.3532 23.1738 80.2409 23.9652 78.957 24.5186C77.6732 25.0609 76.2565 25.332 74.707 25.332C73.1465 25.332 71.7188 25.0609 70.4238 24.5186C69.14 23.9652 68.0221 23.1738 67.0703 22.1445C66.1296 21.1042 65.3991 19.8535 64.8789 18.3926C64.3698 16.9206 64.1152 15.2604 64.1152 13.4121V12.4326C64.1152 10.5843 64.3698 8.92415 64.8789 7.45215C65.3991 5.98014 66.124 4.72949 67.0537 3.7002C67.9945 2.65983 69.1068 1.86849 70.3906 1.32617C71.6855 0.772786 73.1133 0.496094 74.6738 0.496094C76.2233 0.496094 77.64 0.772786 78.9238 1.32617C80.2188 1.86849 81.3366 2.65983 82.2773 3.7002C83.2181 4.72949 83.9486 5.98014 84.4688 7.45215C84.9889 8.92415 85.249 10.5843 85.249 12.4326ZM79.3389 13.4121V12.3994C79.3389 11.2041 79.2337 10.1527 79.0234 9.24512C78.8242 8.3265 78.5254 7.55729 78.127 6.9375C77.7285 6.31771 77.236 5.85286 76.6494 5.54297C76.0739 5.22201 75.4154 5.06152 74.6738 5.06152C73.8991 5.06152 73.224 5.22201 72.6484 5.54297C72.0729 5.85286 71.5915 6.31771 71.2041 6.9375C70.8167 7.55729 70.5234 8.3265 70.3242 9.24512C70.1361 10.1527 70.042 11.2041 70.042 12.3994V13.4121C70.042 14.5964 70.1361 15.6478 70.3242 16.5664C70.5234 17.474 70.8167 18.2432 71.2041 18.874C71.6025 19.5049 72.0895 19.9808 72.665 20.3018C73.2516 20.6227 73.9323 20.7832 74.707 20.7832C75.4486 20.7832 76.1071 20.6227 76.6826 20.3018C77.2581 19.9808 77.7396 19.5049 78.127 18.874C78.5254 18.2432 78.8242 17.474 79.0234 16.5664C79.2337 15.6478 79.3389 14.5964 79.3389 13.4121ZM108.458 0.828125V25H102.647L94.0977 9.95898V25H88.2705V0.828125H94.0977L102.647 15.8691V0.828125H108.458ZM132.597 12.4326V13.4121C132.597 15.2604 132.337 16.9206 131.816 18.3926C131.307 19.8535 130.582 21.1042 129.642 22.1445C128.701 23.1738 127.589 23.9652 126.305 24.5186C125.021 25.0609 123.604 25.332 122.055 25.332C120.494 25.332 119.066 25.0609 117.771 24.5186C116.488 23.9652 115.37 23.1738 114.418 22.1445C113.477 21.1042 112.747 19.8535 112.227 18.3926C111.717 16.9206 111.463 15.2604 111.463 13.4121V12.4326C111.463 10.5843 111.717 8.92415 112.227 7.45215C112.747 5.98014 113.472 4.72949 114.401 3.7002C115.342 2.65983 116.454 1.86849 117.738 1.32617C119.033 0.772786 120.461 0.496094 122.021 0.496094C123.571 0.496094 124.988 0.772786 126.271 1.32617C127.566 1.86849 128.684 2.65983 129.625 3.7002C130.566 4.72949 131.296 5.98014 131.816 7.45215C132.337 8.92415 132.597 10.5843 132.597 12.4326ZM126.687 13.4121V12.3994C126.687 11.2041 126.581 10.1527 126.371 9.24512C126.172 8.3265 125.873 7.55729 125.475 6.9375C125.076 6.31771 124.584 5.85286 123.997 5.54297C123.422 5.22201 122.763 5.06152 122.021 5.06152C121.247 5.06152 120.572 5.22201 119.996 5.54297C119.421 5.85286 118.939 6.31771 118.552 6.9375C118.164 7.55729 117.871 8.3265 117.672 9.24512C117.484 10.1527 117.39 11.2041 117.39 12.3994V13.4121C117.39 14.5964 117.484 15.6478 117.672 16.5664C117.871 17.474 118.164 18.2432 118.552 18.874C118.95 19.5049 119.437 19.9808 120.013 20.3018C120.599 20.6227 121.28 20.7832 122.055 20.7832C122.796 20.7832 123.455 20.6227 124.03 20.3018C124.606 19.9808 125.087 19.5049 125.475 18.874C125.873 18.2432 126.172 17.474 126.371 16.5664C126.581 15.6478 126.687 14.5964 126.687 13.4121ZM135.618 0.828125H145.131C146.99 0.828125 148.606 1.10482 149.979 1.6582C151.351 2.21159 152.408 3.0306 153.149 4.11523C153.902 5.19987 154.278 6.53906 154.278 8.13281C154.278 9.51628 154.062 10.6729 153.631 11.6025C153.199 12.5322 152.596 13.3014 151.821 13.9102C151.058 14.5078 150.167 15.0003 149.148 15.3877L147.239 16.4668H139.254L139.221 11.9678H145.131C145.872 11.9678 146.487 11.835 146.974 11.5693C147.461 11.3037 147.826 10.9274 148.069 10.4404C148.324 9.94238 148.451 9.35026 148.451 8.66406C148.451 7.9668 148.324 7.36914 148.069 6.87109C147.815 6.37305 147.438 5.99121 146.94 5.72559C146.453 5.45996 145.85 5.32715 145.131 5.32715H141.445V25H135.618V0.828125ZM148.85 25L143.504 14.3086L149.68 14.2754L155.092 24.751V25H148.85Z" fill="#C53A3F"/>
</svg>
