<svg width="155" height="26" viewBox="0 0 155 26" fill="none" xmlns="http://www.w3.org/2000/svg">
<path d="M10.6543 14.5576H4.44531L4.41211 10.9385H9.54199C10.4495 10.9385 11.1855 10.8278 11.75 10.6064C12.3255 10.3851 12.7461 10.0641 13.0117 9.64355C13.2773 9.21191 13.4102 8.68066 13.4102 8.0498C13.4102 7.3304 13.2773 6.74935 13.0117 6.30664C12.7461 5.86393 12.3255 5.54297 11.75 5.34375C11.1855 5.13346 10.4551 5.02832 9.55859 5.02832H6.4043V25H0.992188V0.828125H9.55859C11.0085 0.828125 12.3034 0.960938 13.4434 1.22656C14.5833 1.49219 15.5518 1.90169 16.3486 2.45508C17.1566 3.00846 17.7708 3.7002 18.1914 4.53027C18.612 5.36035 18.8223 6.33984 18.8223 7.46875C18.8223 8.45378 18.6009 9.3724 18.1582 10.2246C17.7266 11.0768 17.0293 11.7686 16.0664 12.2998C15.1035 12.8311 13.8141 13.1188 12.1982 13.1631L10.6543 14.5576ZM10.4385 25H3.06738L5.02637 20.8164H10.4385C11.2686 20.8164 11.9437 20.6836 12.4639 20.418C12.984 20.1523 13.3659 19.7926 13.6094 19.3389C13.8529 18.8851 13.9746 18.376 13.9746 17.8115C13.9746 17.1475 13.8584 16.5719 13.626 16.085C13.4046 15.598 13.0505 15.2217 12.5635 14.9561C12.0876 14.6904 11.4512 14.5576 10.6543 14.5576H5.80664L5.83984 10.9385H11.7666L13.0283 12.3662C14.5667 12.333 15.7952 12.582 16.7139 13.1133C17.6436 13.6335 18.3132 14.3197 18.7227 15.1719C19.1322 16.0241 19.3369 16.9261 19.3369 17.8779C19.3369 19.4495 18.9993 20.7666 18.3242 21.8291C17.6491 22.8805 16.6475 23.6719 15.3193 24.2031C14.0023 24.7344 12.3753 25 10.4385 25ZM39.2754 20.8164V25H26.4092V20.8164H39.2754ZM28.252 0.828125V25H22.8398V0.828125H28.252ZM37.6152 10.5566V14.6074H26.4092V10.5566H37.6152ZM39.292 0.828125V5.02832H26.4092V0.828125H39.292Z" fill="#2A5573"/>
<path d="M49.6348 25H44.2725L44.3057 20.5176H49.6348C50.7415 20.5176 51.6768 20.252 52.4404 19.7207C53.2152 19.1895 53.8018 18.3981 54.2002 17.3467C54.6097 16.2842 54.8145 14.9782 54.8145 13.4287V12.3828C54.8145 11.2207 54.6982 10.2025 54.4658 9.32812C54.2445 8.44271 53.9124 7.70671 53.4697 7.12012C53.027 6.52246 52.4736 6.07422 51.8096 5.77539C51.1566 5.47656 50.404 5.32715 49.5518 5.32715H44.1729V0.828125H49.5518C51.1898 0.828125 52.6895 1.11035 54.0508 1.6748C55.4232 2.22819 56.6074 3.02507 57.6035 4.06543C58.6107 5.09473 59.3854 6.31771 59.9277 7.73438C60.4811 9.13997 60.7578 10.7005 60.7578 12.416V13.4287C60.7578 15.1331 60.4811 16.6937 59.9277 18.1104C59.3854 19.527 58.6162 20.75 57.6201 21.7793C56.624 22.8086 55.4453 23.6055 54.084 24.1699C52.7337 24.7233 51.2507 25 49.6348 25ZM47.6094 0.828125V25H41.7822V0.828125H47.6094ZM84.249 12.4326V13.4121C84.249 15.2604 83.9889 16.9206 83.4688 18.3926C82.9596 19.8535 82.2347 21.1042 81.2939 22.1445C80.3532 23.1738 79.2409 23.9652 77.957 24.5186C76.6732 25.0609 75.2565 25.332 73.707 25.332C72.1465 25.332 70.7188 25.0609 69.4238 24.5186C68.14 23.9652 67.0221 23.1738 66.0703 22.1445C65.1296 21.1042 64.3991 19.8535 63.8789 18.3926C63.3698 16.9206 63.1152 15.2604 63.1152 13.4121V12.4326C63.1152 10.5843 63.3698 8.92415 63.8789 7.45215C64.3991 5.98014 65.124 4.72949 66.0537 3.7002C66.9945 2.65983 68.1068 1.86849 69.3906 1.32617C70.6855 0.772786 72.1133 0.496094 73.6738 0.496094C75.2233 0.496094 76.64 0.772786 77.9238 1.32617C79.2188 1.86849 80.3366 2.65983 81.2773 3.7002C82.2181 4.72949 82.9486 5.98014 83.4688 7.45215C83.9889 8.92415 84.249 10.5843 84.249 12.4326ZM78.3389 13.4121V12.3994C78.3389 11.2041 78.2337 10.1527 78.0234 9.24512C77.8242 8.3265 77.5254 7.55729 77.127 6.9375C76.7285 6.31771 76.236 5.85286 75.6494 5.54297C75.0739 5.22201 74.4154 5.06152 73.6738 5.06152C72.8991 5.06152 72.224 5.22201 71.6484 5.54297C71.0729 5.85286 70.5915 6.31771 70.2041 6.9375C69.8167 7.55729 69.5234 8.3265 69.3242 9.24512C69.1361 10.1527 69.042 11.2041 69.042 12.3994V13.4121C69.042 14.5964 69.1361 15.6478 69.3242 16.5664C69.5234 17.474 69.8167 18.2432 70.2041 18.874C70.6025 19.5049 71.0895 19.9808 71.665 20.3018C72.2516 20.6227 72.9323 20.7832 73.707 20.7832C74.4486 20.7832 75.1071 20.6227 75.6826 20.3018C76.2581 19.9808 76.7396 19.5049 77.127 18.874C77.5254 18.2432 77.8242 17.474 78.0234 16.5664C78.2337 15.6478 78.3389 14.5964 78.3389 13.4121ZM107.458 0.828125V25H101.647L93.0977 9.95898V25H87.2705V0.828125H93.0977L101.647 15.8691V0.828125H107.458ZM131.597 12.4326V13.4121C131.597 15.2604 131.337 16.9206 130.816 18.3926C130.307 19.8535 129.582 21.1042 128.642 22.1445C127.701 23.1738 126.589 23.9652 125.305 24.5186C124.021 25.0609 122.604 25.332 121.055 25.332C119.494 25.332 118.066 25.0609 116.771 24.5186C115.488 23.9652 114.37 23.1738 113.418 22.1445C112.477 21.1042 111.747 19.8535 111.227 18.3926C110.717 16.9206 110.463 15.2604 110.463 13.4121V12.4326C110.463 10.5843 110.717 8.92415 111.227 7.45215C111.747 5.98014 112.472 4.72949 113.401 3.7002C114.342 2.65983 115.454 1.86849 116.738 1.32617C118.033 0.772786 119.461 0.496094 121.021 0.496094C122.571 0.496094 123.988 0.772786 125.271 1.32617C126.566 1.86849 127.684 2.65983 128.625 3.7002C129.566 4.72949 130.296 5.98014 130.816 7.45215C131.337 8.92415 131.597 10.5843 131.597 12.4326ZM125.687 13.4121V12.3994C125.687 11.2041 125.581 10.1527 125.371 9.24512C125.172 8.3265 124.873 7.55729 124.475 6.9375C124.076 6.31771 123.584 5.85286 122.997 5.54297C122.422 5.22201 121.763 5.06152 121.021 5.06152C120.247 5.06152 119.572 5.22201 118.996 5.54297C118.421 5.85286 117.939 6.31771 117.552 6.9375C117.164 7.55729 116.871 8.3265 116.672 9.24512C116.484 10.1527 116.39 11.2041 116.39 12.3994V13.4121C116.39 14.5964 116.484 15.6478 116.672 16.5664C116.871 17.474 117.164 18.2432 117.552 18.874C117.95 19.5049 118.437 19.9808 119.013 20.3018C119.599 20.6227 120.28 20.7832 121.055 20.7832C121.796 20.7832 122.455 20.6227 123.03 20.3018C123.606 19.9808 124.087 19.5049 124.475 18.874C124.873 18.2432 125.172 17.474 125.371 16.5664C125.581 15.6478 125.687 14.5964 125.687 13.4121ZM134.618 0.828125H144.131C145.99 0.828125 147.606 1.10482 148.979 1.6582C150.351 2.21159 151.408 3.0306 152.149 4.11523C152.902 5.19987 153.278 6.53906 153.278 8.13281C153.278 9.51628 153.062 10.6729 152.631 11.6025C152.199 12.5322 151.596 13.3014 150.821 13.9102C150.058 14.5078 149.167 15.0003 148.148 15.3877L146.239 16.4668H138.254L138.221 11.9678H144.131C144.872 11.9678 145.487 11.835 145.974 11.5693C146.461 11.3037 146.826 10.9274 147.069 10.4404C147.324 9.94238 147.451 9.35026 147.451 8.66406C147.451 7.9668 147.324 7.36914 147.069 6.87109C146.815 6.37305 146.438 5.99121 145.94 5.72559C145.453 5.45996 144.85 5.32715 144.131 5.32715H140.445V25H134.618V0.828125ZM147.85 25L142.504 14.3086L148.68 14.2754L154.092 24.751V25H147.85Z" fill="#C53A3F"/>
</svg>
