<svg width="20" height="21" viewBox="0 0 20 21" fill="none" xmlns="http://www.w3.org/2000/svg">
<mask id="mask0_621_1182" style="mask-type:alpha" maskUnits="userSpaceOnUse" x="0" y="0" width="20" height="21">
<g style="mix-blend-mode:darken">
<rect y="0.5" width="20" height="20" fill="#2A5573"/>
</g>
</mask>
<g mask="url(#mask0_621_1182)">
<path d="M7.16683 19.25L5.5835 16.5833L2.5835 15.9167L2.87516 12.8333L0.833496 10.5L2.87516 8.16667L2.5835 5.08333L5.5835 4.41667L7.16683 1.75L10.0002 2.95833L12.8335 1.75L14.4168 4.41667L17.4168 5.08333L17.1252 8.16667L19.1668 10.5L17.1252 12.8333L17.4168 15.9167L14.4168 16.5833L12.8335 19.25L10.0002 18.0417L7.16683 19.25ZM7.87516 17.125L10.0002 16.2083L12.1668 17.125L13.3335 15.125L15.6252 14.5833L15.4168 12.25L16.9585 10.5L15.4168 8.70833L15.6252 6.375L13.3335 5.875L12.1252 3.875L10.0002 4.79167L7.8335 3.875L6.66683 5.875L4.37516 6.375L4.5835 8.70833L3.04183 10.5L4.5835 12.25L4.37516 14.625L6.66683 15.125L7.87516 17.125ZM9.12516 13.4583L13.8335 8.75L12.6668 7.54167L9.12516 11.0833L7.3335 9.33333L6.16683 10.5L9.12516 13.4583Z" fill="white"/>
</g>
</svg>
