<svg width="20" height="21" viewBox="0 0 20 21" fill="none" xmlns="http://www.w3.org/2000/svg">
<mask id="mask0_621_1202" style="mask-type:alpha" maskUnits="userSpaceOnUse" x="0" y="0" width="20" height="21">
<g style="mix-blend-mode:darken">
<rect y="0.5" width="20" height="20" fill="#2A5573"/>
</g>
</mask>
<g mask="url(#mask0_621_1202)">
<path d="M5.83333 14.6667H11.6667V13H5.83333V14.6667ZM5.83333 11.3333H14.1667V9.66667H5.83333V11.3333ZM5.83333 8H14.1667V6.33333H5.83333V8ZM4.16667 18C3.70833 18 3.31583 17.8369 2.98917 17.5108C2.66306 17.1842 2.5 16.7917 2.5 16.3333V4.66667C2.5 4.20833 2.66306 3.81583 2.98917 3.48917C3.31583 3.16306 3.70833 3 4.16667 3H15.8333C16.2917 3 16.6842 3.16306 17.0108 3.48917C17.3369 3.81583 17.5 4.20833 17.5 4.66667V16.3333C17.5 16.7917 17.3369 17.1842 17.0108 17.5108C16.6842 17.8369 16.2917 18 15.8333 18H4.16667ZM4.16667 16.3333H15.8333V4.66667H4.16667V16.3333Z" fill="white"/>
</g>
</svg>
