<svg width="133" height="19" viewBox="0 0 133 19" fill="none" xmlns="http://www.w3.org/2000/svg">
<path d="M12.992 0.612031L8.848 12.624V18H4.088V12.624L0 0.612031H5.264L6.524 6.26803H6.748L7.952 0.612031H12.992Z" fill="#1D324E"/>
<path d="M15.2563 2.43203C16.3389 1.03203 18.1029 0.332031 20.5483 0.332031C22.9936 0.332031 24.7389 1.0227 25.7843 2.40403C26.8483 3.78537 27.3803 6.0347 27.3803 9.15203C27.3803 12.2507 26.8389 14.5467 25.7563 16.04C24.6736 17.5334 22.9189 18.28 20.4923 18.28C18.0656 18.28 16.3203 17.5427 15.2563 16.068C14.1923 14.5934 13.6603 12.3067 13.6603 9.20803C13.6603 6.0907 14.1923 3.83203 15.2563 2.43203ZM22.5643 9.15203C22.5643 7.4347 22.4243 6.27737 22.1443 5.68003C21.8829 5.06403 21.3323 4.75603 20.4923 4.75603C19.6709 4.75603 19.1389 5.06403 18.8963 5.68003C18.6536 6.27737 18.5323 7.42536 18.5323 9.12403V9.79603C18.5323 11.6067 18.6629 12.8014 18.9243 13.38C19.2043 13.94 19.7549 14.22 20.5763 14.22C21.4163 14.22 21.9576 13.9494 22.2003 13.408C22.4429 12.8667 22.5643 11.7467 22.5643 10.048V9.15203Z" fill="#1D324E"/>
<path d="M34.1867 12.288C34.1867 12.8667 34.308 13.296 34.5507 13.576C34.7934 13.856 35.1854 13.996 35.7267 13.996C36.2867 13.996 36.6694 13.8654 36.8747 13.604C37.0987 13.324 37.2107 12.876 37.2107 12.26V0.612031H42.0267V12.54C42.0267 14.5374 41.476 15.9934 40.3747 16.908C39.292 17.8227 37.6867 18.28 35.5587 18.28C33.4494 18.28 31.872 17.832 30.8267 16.936C29.8 16.0214 29.2867 14.5747 29.2867 12.596V0.612031H34.1867V12.288Z" fill="#1D324E"/>
<path d="M56.3898 6.12803C56.3898 7.17337 56.2311 8.04137 55.9138 8.73203C55.5965 9.4227 55.1018 10.048 54.4298 10.608L56.7538 18H51.5738L49.8378 11.728H49.1938V18H44.4898V0.612031H50.9858C52.8525 0.612031 54.2151 1.0507 55.0738 1.92803C55.9511 2.80537 56.3898 4.20537 56.3898 6.12803ZM49.9218 8.78803C50.4071 8.78803 50.7525 8.64803 50.9578 8.36803C51.1631 8.08803 51.2658 7.58403 51.2658 6.85603C51.2658 6.10936 51.1631 5.59603 50.9578 5.31603C50.7525 5.01737 50.4165 4.86803 49.9498 4.86803H49.1938V8.78803H49.9218Z" fill="#1D324E"/>
<path d="M76.4407 12.988C76.4407 16.3294 74.6487 18 71.0647 18H64.2047V0.612031H70.9247C72.698 0.612031 74.014 0.976031 74.8727 1.70403C75.7313 2.41337 76.1607 3.55203 76.1607 5.12003C76.1607 6.68803 75.5167 7.8827 74.2287 8.70403V8.87203C75.7033 9.4507 76.4407 10.8227 76.4407 12.988ZM69.9447 14.892C70.5047 14.892 70.878 14.7707 71.0647 14.528C71.27 14.2667 71.3727 13.744 71.3727 12.96C71.3727 12.1574 71.27 11.5974 71.0647 11.28C70.8593 10.944 70.486 10.776 69.9447 10.776H69.0487V14.892H69.9447ZM69.9727 8.06003C70.402 8.06003 70.7007 7.92937 70.8687 7.66803C71.0367 7.4067 71.1207 6.94937 71.1207 6.29603C71.1207 5.62403 71.0273 5.15736 70.8407 4.89603C70.6727 4.61603 70.374 4.47603 69.9447 4.47603H69.0487V8.06003H69.9727Z" fill="#FF7F2C"/>
<path d="M79.1039 2.43203C80.1866 1.03203 81.9506 0.332031 84.3959 0.332031C86.8413 0.332031 88.5866 1.0227 89.6319 2.40403C90.6959 3.78537 91.2279 6.0347 91.2279 9.15203C91.2279 12.2507 90.6866 14.5467 89.6039 16.04C88.5213 17.5334 86.7666 18.28 84.3399 18.28C81.9133 18.28 80.1679 17.5427 79.1039 16.068C78.0399 14.5934 77.5079 12.3067 77.5079 9.20803C77.5079 6.0907 78.0399 3.83203 79.1039 2.43203ZM86.4119 9.15203C86.4119 7.4347 86.2719 6.27737 85.9919 5.68003C85.7306 5.06403 85.1799 4.75603 84.3399 4.75603C83.5186 4.75603 82.9866 5.06403 82.7439 5.68003C82.5013 6.27737 82.3799 7.42536 82.3799 9.12403V9.79603C82.3799 11.6067 82.5106 12.8014 82.7719 13.38C83.0519 13.94 83.6026 14.22 84.4239 14.22C85.2639 14.22 85.8053 13.9494 86.0479 13.408C86.2906 12.8667 86.4119 11.7467 86.4119 10.048V9.15203Z" fill="#FF7F2C"/>
<path d="M94.1703 2.43203C95.253 1.03203 97.017 0.332031 99.4623 0.332031C101.908 0.332031 103.653 1.0227 104.698 2.40403C105.762 3.78537 106.294 6.0347 106.294 9.15203C106.294 12.2507 105.753 14.5467 104.67 16.04C103.588 17.5334 101.833 18.28 99.4063 18.28C96.9797 18.28 95.2343 17.5427 94.1703 16.068C93.1063 14.5934 92.5743 12.3067 92.5743 9.20803C92.5743 6.0907 93.1063 3.83203 94.1703 2.43203ZM101.478 9.15203C101.478 7.4347 101.338 6.27737 101.058 5.68003C100.797 5.06403 100.246 4.75603 99.4063 4.75603C98.585 4.75603 98.053 5.06403 97.8103 5.68003C97.5677 6.27737 97.4463 7.42536 97.4463 9.12403V9.79603C97.4463 11.6067 97.577 12.8014 97.8383 13.38C98.1183 13.94 98.669 14.22 99.4903 14.22C100.33 14.22 100.872 13.9494 101.114 13.408C101.357 12.8667 101.478 11.7467 101.478 10.048V9.15203Z" fill="#FF7F2C"/>
<path d="M120.521 18H115.229L113.129 11.448H112.849V18H108.201V0.612031H112.849V7.89203H113.129L115.649 0.612031H120.801L117.413 9.60003L120.521 18Z" fill="#FF7F2C"/>
<path d="M121.007 5.84803C121.007 4.1867 121.492 2.85203 122.463 1.84403C123.433 0.836031 124.759 0.332031 126.439 0.332031C128.137 0.332031 129.873 0.500031 131.647 0.836031L131.087 5.31603C129.239 4.8867 127.969 4.67203 127.279 4.67203C126.401 4.67203 125.963 5.0267 125.963 5.73603C125.963 6.01603 126.168 6.2867 126.579 6.54803C127.008 6.80937 127.521 7.08937 128.119 7.38803C128.716 7.66803 129.313 8.01337 129.911 8.42403C130.508 8.81603 131.012 9.38537 131.423 10.132C131.852 10.8787 132.067 11.7374 132.067 12.708C132.067 14.4814 131.591 15.8534 130.639 16.824C129.687 17.7947 128.333 18.28 126.579 18.28C124.843 18.28 123.144 18.0094 121.483 17.468L121.791 13.296C123.788 13.8747 125.179 14.164 125.963 14.164C126.747 14.164 127.139 13.8187 127.139 13.128C127.139 12.7734 126.924 12.4467 126.495 12.148C126.084 11.8494 125.58 11.5507 124.983 11.252C124.385 10.9534 123.779 10.608 123.163 10.216C122.565 9.82403 122.052 9.2547 121.623 8.50803C121.212 7.76137 121.007 6.8747 121.007 5.84803Z" fill="#FF7F2C"/>
</svg>
