<svg width="20" height="20" viewBox="0 0 20 20" fill="none" xmlns="http://www.w3.org/2000/svg">
    <mask id="mask0_95_686" style="mask-type:alpha" maskUnits="userSpaceOnUse" x="0" y="0"
        width="20" height="20">
        <rect width="20" height="20" fill="#D9D9D9" />
    </mask>
    <g mask="url(#mask0_95_686)">
        <path
            d="M9.99992 10.0002C9.08325 10.0002 8.29853 9.67377 7.64575 9.021C6.99297 8.36822 6.66659 7.5835 6.66659 6.66683C6.66659 5.75016 6.99297 4.96544 7.64575 4.31266C8.29853 3.65989 9.08325 3.3335 9.99992 3.3335C10.9166 3.3335 11.7013 3.65989 12.3541 4.31266C13.0069 4.96544 13.3333 5.75016 13.3333 6.66683C13.3333 7.5835 13.0069 8.36822 12.3541 9.021C11.7013 9.67377 10.9166 10.0002 9.99992 10.0002ZM3.33325 16.6668V14.3335C3.33325 13.8613 3.45492 13.4271 3.69825 13.031C3.94103 12.6354 4.26381 12.3335 4.66659 12.1252C5.5277 11.6946 6.4027 11.3716 7.29159 11.156C8.18047 10.941 9.08325 10.8335 9.99992 10.8335C10.9166 10.8335 11.8194 10.941 12.7083 11.156C13.5971 11.3716 14.4721 11.6946 15.3333 12.1252C15.736 12.3335 16.0588 12.6354 16.3016 13.031C16.5449 13.4271 16.6666 13.8613 16.6666 14.3335V16.6668H3.33325ZM4.99992 15.0002H14.9999V14.3335C14.9999 14.1807 14.9619 14.0418 14.8858 13.9168C14.8091 13.7918 14.7083 13.6946 14.5833 13.6252C13.8333 13.2502 13.0763 12.9688 12.3124 12.781C11.5485 12.5938 10.7777 12.5002 9.99992 12.5002C9.22214 12.5002 8.45131 12.5938 7.68742 12.781C6.92353 12.9688 6.16659 13.2502 5.41659 13.6252C5.29159 13.6946 5.19103 13.7918 5.11492 13.9168C5.03825 14.0418 4.99992 14.1807 4.99992 14.3335V15.0002ZM9.99992 8.3335C10.4583 8.3335 10.8508 8.17016 11.1774 7.8435C11.5035 7.51738 11.6666 7.12516 11.6666 6.66683C11.6666 6.2085 11.5035 5.81627 11.1774 5.49016C10.8508 5.1635 10.4583 5.00016 9.99992 5.00016C9.54159 5.00016 9.14936 5.1635 8.82325 5.49016C8.49659 5.81627 8.33325 6.2085 8.33325 6.66683C8.33325 7.12516 8.49659 7.51738 8.82325 7.8435C9.14936 8.17016 9.54159 8.3335 9.99992 8.3335Z"
            fill="#ffffff" />
    </g>
</svg>