<svg width="114" height="53" viewBox="0 0 114 53" fill="none" xmlns="http://www.w3.org/2000/svg">
<path d="M10.6543 14.5576H4.44531L4.41211 10.9385H9.54199C10.4495 10.9385 11.1855 10.8278 11.75 10.6064C12.3255 10.3851 12.7461 10.0641 13.0117 9.64355C13.2773 9.21191 13.4102 8.68066 13.4102 8.0498C13.4102 7.3304 13.2773 6.74935 13.0117 6.30664C12.7461 5.86393 12.3255 5.54297 11.75 5.34375C11.1855 5.13346 10.4551 5.02832 9.55859 5.02832H6.4043V25H0.992188V0.828125H9.55859C11.0085 0.828125 12.3034 0.960938 13.4434 1.22656C14.5833 1.49219 15.5518 1.90169 16.3486 2.45508C17.1566 3.00846 17.7708 3.7002 18.1914 4.53027C18.612 5.36035 18.8223 6.33984 18.8223 7.46875C18.8223 8.45378 18.6009 9.3724 18.1582 10.2246C17.7266 11.0768 17.0293 11.7686 16.0664 12.2998C15.1035 12.8311 13.8141 13.1188 12.1982 13.1631L10.6543 14.5576ZM10.4385 25H3.06738L5.02637 20.8164H10.4385C11.2686 20.8164 11.9437 20.6836 12.4639 20.418C12.984 20.1523 13.3659 19.7926 13.6094 19.3389C13.8529 18.8851 13.9746 18.376 13.9746 17.8115C13.9746 17.1475 13.8584 16.5719 13.626 16.085C13.4046 15.598 13.0505 15.2217 12.5635 14.9561C12.0876 14.6904 11.4512 14.5576 10.6543 14.5576H5.80664L5.83984 10.9385H11.7666L13.0283 12.3662C14.5667 12.333 15.7952 12.582 16.7139 13.1133C17.6436 13.6335 18.3132 14.3197 18.7227 15.1719C19.1322 16.0241 19.3369 16.9261 19.3369 17.8779C19.3369 19.4495 18.9993 20.7666 18.3242 21.8291C17.6491 22.8805 16.6475 23.6719 15.3193 24.2031C14.0023 24.7344 12.3753 25 10.4385 25ZM39.2754 20.8164V25H26.4092V20.8164H39.2754ZM28.252 0.828125V25H22.8398V0.828125H28.252ZM37.6152 10.5566V14.6074H26.4092V10.5566H37.6152ZM39.292 0.828125V5.02832H26.4092V0.828125H39.292Z" fill="#2A5573"/>
<path d="M8.69531 52H3.33301L3.36621 47.5176H8.69531C9.80208 47.5176 10.7373 47.252 11.501 46.7207C12.2757 46.1895 12.8623 45.3981 13.2607 44.3467C13.6702 43.2842 13.875 41.9782 13.875 40.4287V39.3828C13.875 38.2207 13.7588 37.2025 13.5264 36.3281C13.305 35.4427 12.973 34.7067 12.5303 34.1201C12.0876 33.5225 11.5342 33.0742 10.8701 32.7754C10.2171 32.4766 9.46452 32.3271 8.6123 32.3271H3.2334V27.8281H8.6123C10.2503 27.8281 11.75 28.1104 13.1113 28.6748C14.4837 29.2282 15.668 30.0251 16.6641 31.0654C17.6712 32.0947 18.446 33.3177 18.9883 34.7344C19.5417 36.14 19.8184 37.7005 19.8184 39.416V40.4287C19.8184 42.1331 19.5417 43.6937 18.9883 45.1104C18.446 46.527 17.6768 47.75 16.6807 48.7793C15.6846 49.8086 14.5059 50.6055 13.1445 51.1699C11.7943 51.7233 10.3112 52 8.69531 52ZM6.66992 27.8281V52H0.842773V27.8281H6.66992ZM43.3096 39.4326V40.4121C43.3096 42.2604 43.0495 43.9206 42.5293 45.3926C42.0202 46.8535 41.2952 48.1042 40.3545 49.1445C39.4137 50.1738 38.3014 50.9652 37.0176 51.5186C35.7337 52.0609 34.3171 52.332 32.7676 52.332C31.207 52.332 29.7793 52.0609 28.4844 51.5186C27.2005 50.9652 26.0827 50.1738 25.1309 49.1445C24.1901 48.1042 23.4596 46.8535 22.9395 45.3926C22.4303 43.9206 22.1758 42.2604 22.1758 40.4121V39.4326C22.1758 37.5843 22.4303 35.9242 22.9395 34.4521C23.4596 32.9801 24.1846 31.7295 25.1143 30.7002C26.055 29.6598 27.1673 28.8685 28.4512 28.3262C29.7461 27.7728 31.1738 27.4961 32.7344 27.4961C34.2839 27.4961 35.7005 27.7728 36.9844 28.3262C38.2793 28.8685 39.3971 29.6598 40.3379 30.7002C41.2786 31.7295 42.0091 32.9801 42.5293 34.4521C43.0495 35.9242 43.3096 37.5843 43.3096 39.4326ZM37.3994 40.4121V39.3994C37.3994 38.2041 37.2943 37.1527 37.084 36.2451C36.8848 35.3265 36.5859 34.5573 36.1875 33.9375C35.7891 33.3177 35.2965 32.8529 34.71 32.543C34.1344 32.222 33.4759 32.0615 32.7344 32.0615C31.9596 32.0615 31.2845 32.222 30.709 32.543C30.1335 32.8529 29.652 33.3177 29.2646 33.9375C28.8773 34.5573 28.584 35.3265 28.3848 36.2451C28.1966 37.1527 28.1025 38.2041 28.1025 39.3994V40.4121C28.1025 41.5964 28.1966 42.6478 28.3848 43.5664C28.584 44.474 28.8773 45.2432 29.2646 45.874C29.6631 46.5049 30.1501 46.9808 30.7256 47.3018C31.3122 47.6227 31.9928 47.7832 32.7676 47.7832C33.5091 47.7832 34.1676 47.6227 34.7432 47.3018C35.3187 46.9808 35.8001 46.5049 36.1875 45.874C36.5859 45.2432 36.8848 44.474 37.084 43.5664C37.2943 42.6478 37.3994 41.5964 37.3994 40.4121ZM66.5186 27.8281V52H60.708L52.1582 36.959V52H46.3311V27.8281H52.1582L60.708 42.8691V27.8281H66.5186ZM90.6572 39.4326V40.4121C90.6572 42.2604 90.3971 43.9206 89.877 45.3926C89.3678 46.8535 88.6429 48.1042 87.7021 49.1445C86.7614 50.1738 85.6491 50.9652 84.3652 51.5186C83.0814 52.0609 81.6647 52.332 80.1152 52.332C78.5547 52.332 77.127 52.0609 75.832 51.5186C74.5482 50.9652 73.4303 50.1738 72.4785 49.1445C71.5378 48.1042 70.8073 46.8535 70.2871 45.3926C69.778 43.9206 69.5234 42.2604 69.5234 40.4121V39.4326C69.5234 37.5843 69.778 35.9242 70.2871 34.4521C70.8073 32.9801 71.5322 31.7295 72.4619 30.7002C73.4027 29.6598 74.515 28.8685 75.7988 28.3262C77.0938 27.7728 78.5215 27.4961 80.082 27.4961C81.6315 27.4961 83.0482 27.7728 84.332 28.3262C85.627 28.8685 86.7448 29.6598 87.6855 30.7002C88.6263 31.7295 89.3568 32.9801 89.877 34.4521C90.3971 35.9242 90.6572 37.5843 90.6572 39.4326ZM84.7471 40.4121V39.3994C84.7471 38.2041 84.6419 37.1527 84.4316 36.2451C84.2324 35.3265 83.9336 34.5573 83.5352 33.9375C83.1367 33.3177 82.6442 32.8529 82.0576 32.543C81.4821 32.222 80.8236 32.0615 80.082 32.0615C79.3073 32.0615 78.6322 32.222 78.0566 32.543C77.4811 32.8529 76.9997 33.3177 76.6123 33.9375C76.2249 34.5573 75.9316 35.3265 75.7324 36.2451C75.5443 37.1527 75.4502 38.2041 75.4502 39.3994V40.4121C75.4502 41.5964 75.5443 42.6478 75.7324 43.5664C75.9316 44.474 76.2249 45.2432 76.6123 45.874C77.0107 46.5049 77.4977 46.9808 78.0732 47.3018C78.6598 47.6227 79.3405 47.7832 80.1152 47.7832C80.8568 47.7832 81.5153 47.6227 82.0908 47.3018C82.6663 46.9808 83.1478 46.5049 83.5352 45.874C83.9336 45.2432 84.2324 44.474 84.4316 43.5664C84.6419 42.6478 84.7471 41.5964 84.7471 40.4121ZM93.6787 27.8281H103.191C105.051 27.8281 106.667 28.1048 108.039 28.6582C109.411 29.2116 110.468 30.0306 111.21 31.1152C111.963 32.1999 112.339 33.5391 112.339 35.1328C112.339 36.5163 112.123 37.6729 111.691 38.6025C111.26 39.5322 110.657 40.3014 109.882 40.9102C109.118 41.5078 108.227 42.0003 107.209 42.3877L105.3 43.4668H97.3145L97.2812 38.9678H103.191C103.933 38.9678 104.547 38.835 105.034 38.5693C105.521 38.3037 105.886 37.9274 106.13 37.4404C106.384 36.9424 106.512 36.3503 106.512 35.6641C106.512 34.9668 106.384 34.3691 106.13 33.8711C105.875 33.373 105.499 32.9912 105.001 32.7256C104.514 32.46 103.911 32.3271 103.191 32.3271H99.5059V52H93.6787V27.8281ZM106.91 52L101.564 41.3086L107.74 41.2754L113.152 51.751V52H106.91Z" fill="#C53A3F"/>
</svg>
