<svg width="162" height="32" viewBox="0 0 162 32" fill="none" xmlns="http://www.w3.org/2000/svg">
<mask id="mask0_105_892" style="mask-type:alpha" maskUnits="userSpaceOnUse" x="0" y="5" width="22" height="22">
<rect y="5" width="22" height="22" fill="#D9D9D9"/>
</mask>
<g mask="url(#mask0_105_892)">
<path d="M9.16683 19.6666H12.8335C13.0932 19.6666 13.3111 19.5786 13.4871 19.4026C13.6625 19.2272 13.7502 19.0096 13.7502 18.7499V16.9166H11.9168V17.8333H10.0835V14.1666H11.9168V15.0833H13.7502V13.2499C13.7502 12.9902 13.6625 12.7723 13.4871 12.5963C13.3111 12.4209 13.0932 12.3333 12.8335 12.3333H9.16683C8.90711 12.3333 8.68955 12.4209 8.51416 12.5963C8.33816 12.7723 8.25016 12.9902 8.25016 13.2499V18.7499C8.25016 19.0096 8.33816 19.2272 8.51416 19.4026C8.68955 19.5786 8.90711 19.6666 9.16683 19.6666ZM11.0002 25.1666C9.73211 25.1666 8.54044 24.9258 7.42516 24.4443C6.30989 23.9633 5.33975 23.3103 4.51475 22.4853C3.68975 21.6603 3.03677 20.6902 2.55583 19.5749C2.07427 18.4596 1.8335 17.268 1.8335 15.9999C1.8335 14.7319 2.07427 13.5402 2.55583 12.4249C3.03677 11.3096 3.68975 10.3395 4.51475 9.5145C5.33975 8.6895 6.30989 8.03622 7.42516 7.55467C8.54044 7.07372 9.73211 6.83325 11.0002 6.83325C12.2682 6.83325 13.4599 7.07372 14.5752 7.55467C15.6904 8.03622 16.6606 8.6895 17.4856 9.5145C18.3106 10.3395 18.9636 11.3096 19.4445 12.4249C19.9261 13.5402 20.1668 14.7319 20.1668 15.9999C20.1668 17.268 19.9261 18.4596 19.4445 19.5749C18.9636 20.6902 18.3106 21.6603 17.4856 22.4853C16.6606 23.3103 15.6904 23.9633 14.5752 24.4443C13.4599 24.9258 12.2682 25.1666 11.0002 25.1666ZM11.0002 23.3333C13.0474 23.3333 14.7814 22.6228 16.2022 21.202C17.6231 19.7812 18.3335 18.0471 18.3335 15.9999C18.3335 13.9527 17.6231 12.2187 16.2022 10.7978C14.7814 9.377 13.0474 8.66659 11.0002 8.66659C8.95294 8.66659 7.21891 9.377 5.79808 10.7978C4.37725 12.2187 3.66683 13.9527 3.66683 15.9999C3.66683 18.0471 4.37725 19.7812 5.79808 21.202C7.21891 22.6228 8.95294 23.3333 11.0002 23.3333Z" fill="#2A5573"/>
</g>
<path d="M28 23.99L28.01 22.39L34.4 16.64C34.9333 16.16 35.29 15.7067 35.47 15.28C35.6567 14.8467 35.75 14.4033 35.75 13.95C35.75 13.3967 35.6233 12.8967 35.37 12.45C35.1167 12.0033 34.77 11.65 34.33 11.39C33.8967 11.13 33.4033 11 32.85 11C32.2767 11 31.7667 11.1367 31.32 11.41C30.8733 11.6767 30.52 12.0333 30.26 12.48C30.0067 12.9267 29.8833 13.4133 29.89 13.94H28.07C28.07 13.0333 28.28 12.2333 28.7 11.54C29.12 10.84 29.69 10.2933 30.41 9.9C31.1367 9.5 31.96 9.3 32.88 9.3C33.7733 9.3 34.5733 9.50667 35.28 9.92C35.9867 10.3267 36.5433 10.8833 36.95 11.59C37.3633 12.29 37.57 13.0833 37.57 13.97C37.57 14.5967 37.49 15.14 37.33 15.6C37.1767 16.06 36.9367 16.4867 36.61 16.88C36.2833 17.2667 35.8733 17.68 35.38 18.12L30.07 22.89L29.84 22.29H37.57V23.99H28ZM44.9725 24.3C44.0392 24.3 43.2058 24.09 42.4725 23.67C41.7458 23.2433 41.1692 22.6667 40.7425 21.94C40.3225 21.2067 40.1125 20.3733 40.1125 19.44V14.16C40.1125 13.2267 40.3225 12.3933 40.7425 11.66C41.1692 10.9267 41.7458 10.35 42.4725 9.93C43.2058 9.51 44.0392 9.3 44.9725 9.3C45.9058 9.3 46.7392 9.51 47.4725 9.93C48.2058 10.35 48.7825 10.9267 49.2025 11.66C49.6225 12.3933 49.8325 13.2267 49.8325 14.16V19.44C49.8325 20.3733 49.6225 21.2067 49.2025 21.94C48.7825 22.6667 48.2058 23.2433 47.4725 23.67C46.7392 24.09 45.9058 24.3 44.9725 24.3ZM44.9725 22.59C45.5392 22.59 46.0525 22.4533 46.5125 22.18C46.9725 21.9067 47.3392 21.54 47.6125 21.08C47.8858 20.6133 48.0225 20.1 48.0225 19.54V14.05C48.0225 13.4833 47.8858 12.97 47.6125 12.51C47.3392 12.05 46.9725 11.6833 46.5125 11.41C46.0525 11.1367 45.5392 11 44.9725 11C44.4125 11 43.8992 11.1367 43.4325 11.41C42.9725 11.6833 42.6058 12.05 42.3325 12.51C42.0592 12.97 41.9225 13.4833 41.9225 14.05V19.54C41.9225 20.1 42.0592 20.6133 42.3325 21.08C42.6058 21.54 42.9725 21.9067 43.4325 22.18C43.8992 22.4533 44.4125 22.59 44.9725 22.59ZM52.382 23.99L52.392 22.39L58.782 16.64C59.3154 16.16 59.672 15.7067 59.852 15.28C60.0387 14.8467 60.132 14.4033 60.132 13.95C60.132 13.3967 60.0054 12.8967 59.752 12.45C59.4987 12.0033 59.152 11.65 58.712 11.39C58.2787 11.13 57.7854 11 57.232 11C56.6587 11 56.1487 11.1367 55.702 11.41C55.2554 11.6767 54.902 12.0333 54.642 12.48C54.3887 12.9267 54.2654 13.4133 54.272 13.94H52.452C52.452 13.0333 52.662 12.2333 53.082 11.54C53.502 10.84 54.072 10.2933 54.792 9.9C55.5187 9.5 56.342 9.3 57.262 9.3C58.1554 9.3 58.9554 9.50667 59.662 9.92C60.3687 10.3267 60.9254 10.8833 61.332 11.59C61.7454 12.29 61.952 13.0833 61.952 13.97C61.952 14.5967 61.872 15.14 61.712 15.6C61.5587 16.06 61.3187 16.4867 60.992 16.88C60.6654 17.2667 60.2554 17.68 59.762 18.12L54.452 22.89L54.222 22.29H61.952V23.99H52.382ZM64.0945 23.99L64.1045 22.39L70.4945 16.64C71.0279 16.16 71.3845 15.7067 71.5645 15.28C71.7512 14.8467 71.8445 14.4033 71.8445 13.95C71.8445 13.3967 71.7179 12.8967 71.4645 12.45C71.2112 12.0033 70.8645 11.65 70.4245 11.39C69.9912 11.13 69.4979 11 68.9445 11C68.3712 11 67.8612 11.1367 67.4145 11.41C66.9679 11.6767 66.6145 12.0333 66.3545 12.48C66.1012 12.9267 65.9779 13.4133 65.9845 13.94H64.1645C64.1645 13.0333 64.3745 12.2333 64.7945 11.54C65.2145 10.84 65.7845 10.2933 66.5045 9.9C67.2312 9.5 68.0545 9.3 68.9745 9.3C69.8679 9.3 70.6679 9.50667 71.3745 9.92C72.0812 10.3267 72.6379 10.8833 73.0445 11.59C73.4579 12.29 73.6645 13.0833 73.6645 13.97C73.6645 14.5967 73.5845 15.14 73.4245 15.6C73.2712 16.06 73.0312 16.4867 72.7045 16.88C72.3779 17.2667 71.9679 17.68 71.4745 18.12L66.1645 22.89L65.9345 22.29H73.6645V23.99H64.0945ZM80.3609 24V9.6H85.9709C86.8309 9.6 87.5643 9.77667 88.1709 10.13C88.7843 10.4833 89.2509 10.95 89.5709 11.53C89.8976 12.1033 90.0609 12.7233 90.0609 13.39C90.0609 14.17 89.8609 14.8533 89.4609 15.44C89.0609 16.0267 88.5209 16.43 87.8409 16.65L87.8209 16.16C88.7476 16.4067 89.4676 16.86 89.9809 17.52C90.4943 18.18 90.7509 18.9667 90.7509 19.88C90.7509 20.72 90.5776 21.4467 90.2309 22.06C89.8909 22.6733 89.3976 23.15 88.7509 23.49C88.1109 23.83 87.3509 24 86.4709 24H80.3609ZM82.1609 22.3H86.1309C86.6643 22.3 87.1409 22.2033 87.5609 22.01C87.9809 21.81 88.3109 21.53 88.5509 21.17C88.7976 20.81 88.9209 20.3767 88.9209 19.87C88.9209 19.3833 88.8109 18.9467 88.5909 18.56C88.3776 18.1733 88.0743 17.8667 87.6809 17.64C87.2943 17.4067 86.8443 17.29 86.3309 17.29H82.1609V22.3ZM82.1609 15.61H85.9509C86.3776 15.61 86.7609 15.52 87.1009 15.34C87.4476 15.1533 87.7209 14.8933 87.9209 14.56C88.1276 14.2267 88.2309 13.8367 88.2309 13.39C88.2309 12.77 88.0209 12.2633 87.6009 11.87C87.1809 11.4767 86.6309 11.28 85.9509 11.28H82.1609V15.61ZM97.5738 24.3C96.5138 24.3 95.5871 24.0667 94.7938 23.6C94.0071 23.1267 93.3938 22.47 92.9538 21.63C92.5138 20.7833 92.2938 19.7967 92.2938 18.67C92.2938 17.49 92.5104 16.47 92.9438 15.61C93.3771 14.7433 93.9804 14.0767 94.7538 13.61C95.5338 13.1367 96.4471 12.9 97.4938 12.9C98.5804 12.9 99.5038 13.15 100.264 13.65C101.03 14.15 101.604 14.8633 101.984 15.79C102.37 16.7167 102.537 17.82 102.484 19.1H100.684V18.46C100.664 17.1333 100.394 16.1433 99.8738 15.49C99.3538 14.83 98.5804 14.5 97.5538 14.5C96.4538 14.5 95.6171 14.8533 95.0438 15.56C94.4704 16.2667 94.1838 17.28 94.1838 18.6C94.1838 19.8733 94.4704 20.86 95.0438 21.56C95.6171 22.26 96.4338 22.61 97.4938 22.61C98.2071 22.61 98.8271 22.4467 99.3538 22.12C99.8804 21.7933 100.294 21.3233 100.594 20.71L102.304 21.3C101.884 22.2533 101.25 22.9933 100.404 23.52C99.5638 24.04 98.6204 24.3 97.5738 24.3ZM93.5838 19.1V17.67H101.564V19.1H93.5838ZM104.86 24V9.6H109.3C109.447 9.6 109.703 9.60333 110.07 9.61C110.437 9.61667 110.787 9.64333 111.12 9.69C112.233 9.83667 113.163 10.2433 113.91 10.91C114.663 11.57 115.23 12.41 115.61 13.43C115.99 14.45 116.18 15.5733 116.18 16.8C116.18 18.0267 115.99 19.15 115.61 20.17C115.23 21.19 114.663 22.0333 113.91 22.7C113.163 23.36 112.233 23.7633 111.12 23.91C110.787 23.95 110.433 23.9767 110.06 23.99C109.693 23.9967 109.44 24 109.3 24H104.86ZM106.69 22.3H109.3C109.553 22.3 109.837 22.2933 110.15 22.28C110.463 22.26 110.737 22.23 110.97 22.19C111.757 22.0433 112.393 21.7133 112.88 21.2C113.367 20.6867 113.723 20.0467 113.95 19.28C114.177 18.5133 114.29 17.6867 114.29 16.8C114.29 15.8933 114.173 15.0567 113.94 14.29C113.713 13.5233 113.357 12.8867 112.87 12.38C112.383 11.8733 111.75 11.55 110.97 11.41C110.737 11.3633 110.46 11.3333 110.14 11.32C109.82 11.3067 109.54 11.3 109.3 11.3H106.69V22.3ZM123.223 24.3C122.15 24.3 121.223 24.0567 120.443 23.57C119.67 23.0833 119.073 22.41 118.653 21.55C118.233 20.69 118.023 19.7033 118.023 18.59C118.023 17.4567 118.237 16.4633 118.663 15.61C119.09 14.7567 119.693 14.0933 120.473 13.62C121.253 13.14 122.17 12.9 123.223 12.9C124.303 12.9 125.233 13.1433 126.013 13.63C126.793 14.11 127.39 14.78 127.803 15.64C128.223 16.4933 128.433 17.4767 128.433 18.59C128.433 19.7167 128.223 20.71 127.803 21.57C127.383 22.4233 126.783 23.0933 126.003 23.58C125.223 24.06 124.297 24.3 123.223 24.3ZM123.223 22.61C124.343 22.61 125.177 22.2367 125.723 21.49C126.27 20.7433 126.543 19.7767 126.543 18.59C126.543 17.37 126.267 16.4 125.713 15.68C125.16 14.9533 124.33 14.59 123.223 14.59C122.47 14.59 121.85 14.76 121.363 15.1C120.877 15.44 120.513 15.91 120.273 16.51C120.033 17.11 119.913 17.8033 119.913 18.59C119.913 19.8033 120.193 20.7767 120.753 21.51C121.313 22.2433 122.137 22.61 123.223 22.61ZM138.475 24V18.59C138.475 18.0767 138.428 17.5833 138.335 17.11C138.248 16.6367 138.092 16.2133 137.865 15.84C137.645 15.46 137.345 15.16 136.965 14.94C136.592 14.72 136.118 14.61 135.545 14.61C135.098 14.61 134.692 14.6867 134.325 14.84C133.965 14.9867 133.655 15.2133 133.395 15.52C133.135 15.8267 132.932 16.2133 132.785 16.68C132.645 17.14 132.575 17.6833 132.575 18.31L131.405 17.95C131.405 16.9033 131.592 16.0067 131.965 15.26C132.345 14.5067 132.875 13.93 133.555 13.53C134.242 13.1233 135.048 12.92 135.975 12.92C136.675 12.92 137.272 13.03 137.765 13.25C138.258 13.47 138.668 13.7633 138.995 14.13C139.322 14.49 139.578 14.8967 139.765 15.35C139.952 15.7967 140.082 16.2533 140.155 16.72C140.235 17.18 140.275 17.6167 140.275 18.03V24H138.475ZM130.775 24V13.2H132.375V16.09H132.575V24H130.775ZM147.527 24.3C146.454 24.3 145.527 24.0567 144.747 23.57C143.974 23.0833 143.377 22.41 142.957 21.55C142.537 20.69 142.327 19.7033 142.327 18.59C142.327 17.4567 142.541 16.4633 142.967 15.61C143.394 14.7567 143.997 14.0933 144.777 13.62C145.557 13.14 146.474 12.9 147.527 12.9C148.607 12.9 149.537 13.1433 150.317 13.63C151.097 14.11 151.694 14.78 152.107 15.64C152.527 16.4933 152.737 17.4767 152.737 18.59C152.737 19.7167 152.527 20.71 152.107 21.57C151.687 22.4233 151.087 23.0933 150.307 23.58C149.527 24.06 148.601 24.3 147.527 24.3ZM147.527 22.61C148.647 22.61 149.481 22.2367 150.027 21.49C150.574 20.7433 150.847 19.7767 150.847 18.59C150.847 17.37 150.571 16.4 150.017 15.68C149.464 14.9533 148.634 14.59 147.527 14.59C146.774 14.59 146.154 14.76 145.667 15.1C145.181 15.44 144.817 15.91 144.577 16.51C144.337 17.11 144.217 17.8033 144.217 18.59C144.217 19.8033 144.497 20.7767 145.057 21.51C145.617 22.2433 146.441 22.61 147.527 22.61ZM155.089 24V13.2H156.679V15.81L156.419 15.47C156.546 15.1367 156.709 14.83 156.909 14.55C157.116 14.27 157.346 14.04 157.599 13.86C157.879 13.6333 158.196 13.46 158.549 13.34C158.902 13.22 159.262 13.15 159.629 13.13C159.996 13.1033 160.339 13.1267 160.659 13.2V14.87C160.286 14.77 159.876 14.7433 159.429 14.79C158.982 14.8367 158.569 15 158.189 15.28C157.842 15.5267 157.572 15.8267 157.379 16.18C157.192 16.5333 157.062 16.9167 156.989 17.33C156.916 17.7367 156.879 18.1533 156.879 18.58V24H155.089Z" fill="#2A5573"/>
</svg>
