<svg width="31" height="30" viewBox="0 0 31 30" fill="none" xmlns="http://www.w3.org/2000/svg">
<path fill-rule="evenodd" clip-rule="evenodd" d="M23.6133 0C28.0937 0 31 2.8125 31 7.14845V22.8515C31 27.1875 28.0937 30 23.6133 30H7.38673C2.90625 30 0 27.1875 0 22.8515V7.14845C0 2.8125 2.90625 0 7.38673 0H23.6133Z" fill="#2A5573"/>
<mask id="mask0_105_889" style="mask-type:alpha" maskUnits="userSpaceOnUse" x="0" y="0" width="31" height="30">
<path fill-rule="evenodd" clip-rule="evenodd" d="M23.6133 0C28.0937 0 31 2.8125 31 7.14845V22.8515C31 27.1875 28.0937 30 23.6133 30H7.38673C2.90625 30 0 27.1875 0 22.8515V7.14845C0 2.8125 2.90625 0 7.38673 0H23.6133Z" fill="white"/>
</mask>
<g mask="url(#mask0_105_889)">
<path fill-rule="evenodd" clip-rule="evenodd" d="M9.35447 43.8867C21.426 43.8867 31.2118 34.4165 31.2118 22.7344C31.2118 11.0523 21.426 1.58203 9.35447 1.58203C-2.71703 1.58203 -12.5029 11.0523 -12.5029 22.7344C-12.5029 34.4165 -2.71703 43.8867 9.35447 43.8867Z" fill="#2A5573"/>
</g>
<g filter="url(#filter0_d_105_889)">
<path fill-rule="evenodd" clip-rule="evenodd" d="M16.0168 21C19.1557 21 21.7002 18.5375 21.7002 15.5C21.7002 12.4624 19.1557 10 16.0168 10C12.878 10 10.3335 12.4624 10.3335 15.5C10.3335 18.5375 12.878 21 16.0168 21Z" stroke="white"/>
</g>
<g filter="url(#filter1_d_105_889)">
<path fill-rule="evenodd" clip-rule="evenodd" d="M21.6455 9.60547C22.448 9.60547 23.0986 8.97587 23.0986 8.19922C23.0986 7.42257 22.448 6.79297 21.6455 6.79297C20.843 6.79297 20.1924 7.42257 20.1924 8.19922C20.1924 8.97587 20.843 9.60547 21.6455 9.60547Z" fill="white"/>
</g>
<defs>
<filter id="filter0_d_105_889" x="7.8335" y="7.5" width="16.3667" height="16" filterUnits="userSpaceOnUse" color-interpolation-filters="sRGB">
<feFlood flood-opacity="0" result="BackgroundImageFix"/>
<feColorMatrix in="SourceAlpha" type="matrix" values="0 0 0 0 0 0 0 0 0 0 0 0 0 0 0 0 0 0 127 0" result="hardAlpha"/>
<feOffset/>
<feGaussianBlur stdDeviation="1"/>
<feColorMatrix type="matrix" values="0 0 0 0 0 0 0 0 0 0 0 0 0 0 0 0 0 0 0.130633 0"/>
<feBlend mode="normal" in2="BackgroundImageFix" result="effect1_dropShadow_105_889"/>
<feBlend mode="normal" in="SourceGraphic" in2="effect1_dropShadow_105_889" result="shape"/>
</filter>
<filter id="filter1_d_105_889" x="18.1924" y="4.79297" width="6.90625" height="6.8125" filterUnits="userSpaceOnUse" color-interpolation-filters="sRGB">
<feFlood flood-opacity="0" result="BackgroundImageFix"/>
<feColorMatrix in="SourceAlpha" type="matrix" values="0 0 0 0 0 0 0 0 0 0 0 0 0 0 0 0 0 0 127 0" result="hardAlpha"/>
<feOffset/>
<feGaussianBlur stdDeviation="1"/>
<feColorMatrix type="matrix" values="0 0 0 0 0 0 0 0 0 0 0 0 0 0 0 0 0 0 0.130633 0"/>
<feBlend mode="normal" in2="BackgroundImageFix" result="effect1_dropShadow_105_889"/>
<feBlend mode="normal" in="SourceGraphic" in2="effect1_dropShadow_105_889" result="shape"/>
</filter>
</defs>
</svg>
