<svg width="44" height="25" viewBox="0 0 44 25" fill="none" xmlns="http://www.w3.org/2000/svg">
<path fill-rule="evenodd" clip-rule="evenodd" d="M42.9869 1.67763C43.2964 0.690789 42.9869 0 41.5426 0H36.728C35.49 0 34.9398 0.625 34.6303 1.31579C34.6303 1.31579 32.1886 7.03947 28.7153 10.7237C27.5804 11.8092 27.099 12.1382 26.4799 12.1382C26.1704 12.1382 25.7234 11.8092 25.7234 10.8224V1.67763C25.7234 0.493421 25.3795 0 24.3478 0H16.7821C16.0255 0 15.5441 0.55921 15.5441 1.05263C15.5441 2.17105 17.2636 2.43421 17.4699 5.52632V12.3026C17.4699 13.7829 17.1948 14.0461 16.5758 14.0461C14.9595 14.0461 10.9703 8.32237 8.63178 1.74342C8.15032 0.526317 7.70326 0 6.46523 0H1.6507C0.275116 0 0 0.625 0 1.31579C0 2.53289 1.61631 8.58553 7.60009 16.5789C11.5893 22.0395 17.1948 25 22.2844 25C25.3451 25 25.7234 24.3421 25.7234 23.2237V19.0789C25.7234 17.7632 25.9985 17.5 26.9958 17.5C27.718 17.5 28.9216 17.8289 31.7759 20.4605C35.0429 23.5855 35.5932 25 37.4158 25H42.2304C43.6059 25 44.2937 24.3421 43.8811 23.0592C43.434 21.7763 41.8865 19.9013 39.8231 17.6645C38.6882 16.3816 37.0032 15.0329 36.5217 14.3421C35.7995 13.4539 36.0059 13.0592 36.5217 12.3026C36.5217 12.2697 42.4023 4.375 42.9869 1.67763Z" fill="#2A5573"/>
</svg>
